M48
;DRILL file {KiCad 4.0.7-e2-6376~58~ubuntu16.04.1} date Wed Jan 31 13:04:57 2018
;FORMAT={-:-/ absolute / inch / decimal}
FMAT,2
INCH,TZ
T1C0.016
T2C0.024
T3C0.030
T4C0.031
T5C0.035
T6C0.037
T7C0.039
%
G90
G05
M72
T1
X2.5Y-2.7
X2.65Y-3.05
X3.Y-2.6
X3.25Y-4.35
X3.75Y-4.45
T2
X2.35Y-4.15
X2.35Y-4.2
X2.35Y-4.25
X2.35Y-4.7
X2.4Y-4.7
X2.45Y-4.7
X3.1Y-3.
X3.15Y-3.
X3.2Y-3.
X3.25Y-2.8
X3.3Y-2.8
X3.35Y-2.8
X3.4Y-3.
X3.45Y-3.
X3.5Y-3.
X4.Y-4.05
X4.Y-4.1
X4.Y-4.15
T3
X2.85Y-3.9
X2.85Y-4.
X2.85Y-4.1
X2.85Y-4.2
X2.85Y-4.3
X2.85Y-4.4
X2.85Y-4.5
X2.85Y-4.6
X2.85Y-4.7
X2.85Y-4.8
X2.85Y-4.9
X2.85Y-5.
X2.85Y-5.1
X2.85Y-5.2
X2.85Y-5.3
X3.45Y-3.9
X3.45Y-4.
X3.45Y-4.1
X3.45Y-4.2
X3.45Y-4.3
X3.45Y-4.4
X3.45Y-4.5
X3.45Y-4.6
X3.45Y-4.7
X3.45Y-4.8
X3.45Y-4.9
X3.45Y-5.
X3.45Y-5.1
X3.45Y-5.2
X3.45Y-5.3
T4
X2.35Y-3.95
X2.35Y-4.05
X2.45Y-4.85
X2.45Y-4.95
X2.5Y-3.9
X2.5Y-4.
X2.55Y-4.6
X2.55Y-4.75
X2.6Y-3.9
X2.65Y-4.6
X2.65Y-4.75
X2.7Y-3.9
X2.9Y-3.25
X2.9Y-3.55
X2.95Y-2.9
X2.95Y-3.
X3.Y-2.75
X3.Y-3.25
X3.Y-3.55
X3.1Y-2.75
X3.1Y-3.25
X3.1Y-3.55
X3.2Y-3.25
X3.2Y-3.55
X3.3Y-3.25
X3.3Y-3.55
X3.4Y-3.25
X3.4Y-3.55
X3.5Y-3.25
X3.5Y-3.55
X3.55Y-2.7
X3.55Y-2.85
X3.6Y-3.25
X3.6Y-3.55
X3.6Y-5.4
X3.65Y-2.7
X3.65Y-2.85
X3.7Y-5.4
X3.75Y-3.8
X3.75Y-3.9
X3.85Y-4.75
X3.9Y-3.8
X3.9Y-3.9
X3.9Y-4.35
X3.95Y-4.75
X4.Y-4.35
X4.05Y-3.8
X4.05Y-3.9
T5
X2.3Y-2.55
X2.3Y-2.6
X2.3Y-2.65
X2.3Y-2.7
X2.3Y-3.
X2.3Y-3.05
X2.3Y-3.1
X2.3Y-3.15
X2.4Y-5.3
X2.45Y-5.1
X2.5Y-5.3
X2.55Y-5.1
X2.65Y-4.9
X2.65Y-5.
X3.85Y-5.3
X3.95Y-5.3
X4.Y-2.55
X4.Y-2.6
X4.Y-2.65
X4.Y-2.7
X4.Y-3.
X4.Y-3.05
X4.Y-3.1
X4.Y-3.15
T6
X3.85Y-4.5
X3.85Y-4.6
X3.95Y-4.5
X3.95Y-4.6
T7
X2.35Y-3.7
X2.35Y-3.8
X2.35Y-4.4
X2.35Y-4.5
X2.5Y-2.9
X2.55Y-4.3
X2.55Y-4.4
X2.6Y-2.9
X2.65Y-4.3
X2.65Y-4.4
X2.65Y-5.2
X2.65Y-5.3
X2.7Y-2.9
X2.8Y-2.9
X3.65Y-4.3
X3.65Y-4.4
X3.65Y-4.7
X3.65Y-4.8
X3.65Y-4.9
X3.65Y-5.
X3.65Y-5.1
X3.65Y-5.2
X3.65Y-5.3
X3.75Y-3.65
X3.85Y-3.65
X3.95Y-3.65
X4.05Y-3.65
T0
M30
