%TF.GenerationSoftware,KiCad,Pcbnew,4.0.7-e2-6376~58~ubuntu16.04.1*%
%TF.CreationDate,2018-01-31T13:04:43+01:00*%
%TF.ProjectId,Tagger_production,5461676765725F70726F64756374696F,rev?*%
%TF.FileFunction,Copper,L2,Bot,Signal*%
%FSLAX46Y46*%
G04 Gerber Fmt 4.6, Leading zero omitted, Abs format (unit mm)*
G04 Created by KiCad (PCBNEW 4.0.7-e2-6376~58~ubuntu16.04.1) date Wed Jan 31 13:04:43 2018*
%MOMM*%
%LPD*%
G01*
G04 APERTURE LIST*
%ADD10C,0.100000*%
%ADD11C,1.524000*%
%ADD12R,1.800000X1.800000*%
%ADD13C,1.800000*%
%ADD14R,1.800000X1.070000*%
%ADD15O,1.800000X1.070000*%
%ADD16O,1.800000X1.800000*%
%ADD17R,1.600000X1.600000*%
%ADD18O,1.600000X1.600000*%
%ADD19R,2.000000X2.000000*%
%ADD20C,2.000000*%
%ADD21R,1.700000X1.700000*%
%ADD22O,1.700000X1.700000*%
%ADD23C,1.600000*%
%ADD24O,0.900000X1.500000*%
%ADD25R,0.900000X1.500000*%
%ADD26O,1.500000X0.900000*%
%ADD27R,1.500000X0.900000*%
%ADD28C,0.600000*%
%ADD29C,0.500000*%
%ADD30C,0.254000*%
G04 APERTURE END LIST*
D10*
X105410000Y-63500000D02*
X54610000Y-63500000D01*
X105410000Y-138430000D02*
X105410000Y-63500000D01*
X54610000Y-138430000D02*
X105410000Y-138430000D01*
X54610000Y-138430000D02*
X54610000Y-63500000D01*
D11*
X72390000Y-99060000D03*
X72390000Y-101600000D03*
X72390000Y-104140000D03*
X72390000Y-106680000D03*
X72390000Y-109220000D03*
X72390000Y-111760000D03*
X72390000Y-114300000D03*
X72390000Y-116840000D03*
X72390000Y-119380000D03*
X72390000Y-121920000D03*
X72390000Y-124460000D03*
X72390000Y-127000000D03*
X72390000Y-129540000D03*
X72390000Y-132080000D03*
X72390000Y-134620000D03*
X87630000Y-134620000D03*
X87630000Y-132080000D03*
X87630000Y-129540000D03*
X87630000Y-127000000D03*
X87630000Y-124460000D03*
X87630000Y-121920000D03*
X87630000Y-119380000D03*
X87630000Y-116840000D03*
X87630000Y-114300000D03*
X87630000Y-111760000D03*
X87630000Y-109220000D03*
X87630000Y-106680000D03*
X87630000Y-104140000D03*
X87630000Y-101600000D03*
X87630000Y-99060000D03*
D12*
X63500000Y-134620000D03*
D13*
X60960000Y-134620000D03*
D12*
X100330000Y-134620000D03*
D13*
X97790000Y-134620000D03*
D14*
X58420000Y-77470000D03*
D15*
X58420000Y-76200000D03*
X58420000Y-78740000D03*
X58420000Y-80010000D03*
D14*
X101600000Y-77470000D03*
D15*
X101600000Y-76200000D03*
X101600000Y-78740000D03*
X101600000Y-80010000D03*
D14*
X101600000Y-67310000D03*
D15*
X101600000Y-68580000D03*
X101600000Y-66040000D03*
X101600000Y-64770000D03*
D14*
X58420000Y-67310000D03*
D15*
X58420000Y-68580000D03*
X58420000Y-66040000D03*
X58420000Y-64770000D03*
D12*
X67310000Y-124460000D03*
D16*
X67310000Y-127000000D03*
D12*
X62230000Y-129540000D03*
D16*
X64770000Y-129540000D03*
D17*
X91440000Y-82550000D03*
D18*
X73660000Y-90170000D03*
X88900000Y-82550000D03*
X76200000Y-90170000D03*
X86360000Y-82550000D03*
X78740000Y-90170000D03*
X83820000Y-82550000D03*
X81280000Y-90170000D03*
X81280000Y-82550000D03*
X83820000Y-90170000D03*
X78740000Y-82550000D03*
X86360000Y-90170000D03*
X76200000Y-82550000D03*
X88900000Y-90170000D03*
X73660000Y-82550000D03*
X91440000Y-90170000D03*
D19*
X100330000Y-114300000D03*
D20*
X97790000Y-114300000D03*
X100330000Y-116840000D03*
X97790000Y-116840000D03*
D21*
X71120000Y-73660000D03*
D22*
X68580000Y-73660000D03*
X66040000Y-73660000D03*
X63500000Y-73660000D03*
D21*
X95250000Y-92710000D03*
D22*
X97790000Y-92710000D03*
X100330000Y-92710000D03*
X102870000Y-92710000D03*
D21*
X59690000Y-93980000D03*
D22*
X59690000Y-96520000D03*
D21*
X59690000Y-111760000D03*
D22*
X59690000Y-114300000D03*
D21*
X64770000Y-111760000D03*
D22*
X67310000Y-111760000D03*
D21*
X64770000Y-109220000D03*
D22*
X67310000Y-109220000D03*
D21*
X67310000Y-132080000D03*
D22*
X67310000Y-134620000D03*
D21*
X92710000Y-134620000D03*
D22*
X92710000Y-132080000D03*
X92710000Y-129540000D03*
X92710000Y-127000000D03*
X92710000Y-124460000D03*
X92710000Y-121920000D03*
X92710000Y-119380000D03*
D21*
X92710000Y-111760000D03*
D22*
X92710000Y-109220000D03*
D23*
X68580000Y-99060000D03*
D18*
X66040000Y-99060000D03*
D23*
X63500000Y-99060000D03*
D18*
X63500000Y-101600000D03*
D23*
X101600000Y-110490000D03*
D18*
X99060000Y-110490000D03*
D23*
X100330000Y-120650000D03*
D18*
X97790000Y-120650000D03*
D23*
X62230000Y-125730000D03*
D18*
X62230000Y-123190000D03*
D23*
X67310000Y-120650000D03*
D18*
X64770000Y-120650000D03*
D23*
X64770000Y-116840000D03*
D18*
X67310000Y-116840000D03*
D23*
X93980000Y-137160000D03*
D18*
X91440000Y-137160000D03*
D23*
X102870000Y-99060000D03*
D18*
X102870000Y-96520000D03*
D23*
X99060000Y-99060000D03*
D18*
X99060000Y-96520000D03*
D23*
X95250000Y-99060000D03*
D18*
X95250000Y-96520000D03*
D23*
X90170000Y-72390000D03*
D18*
X92710000Y-72390000D03*
D23*
X90170000Y-68580000D03*
D18*
X92710000Y-68580000D03*
D23*
X78740000Y-69850000D03*
D18*
X76200000Y-69850000D03*
D23*
X74930000Y-76200000D03*
D18*
X74930000Y-73660000D03*
D23*
X59690000Y-100330000D03*
D18*
X59690000Y-102870000D03*
D24*
X60960000Y-119380000D03*
X59690000Y-119380000D03*
D25*
X62230000Y-119380000D03*
D26*
X59690000Y-106680000D03*
X59690000Y-105410000D03*
D27*
X59690000Y-107950000D03*
D26*
X101600000Y-104140000D03*
X101600000Y-102870000D03*
D27*
X101600000Y-105410000D03*
D24*
X87630000Y-76200000D03*
X86360000Y-76200000D03*
D25*
X88900000Y-76200000D03*
D24*
X83820000Y-71120000D03*
X82550000Y-71120000D03*
D25*
X85090000Y-71120000D03*
D24*
X80010000Y-76200000D03*
X78740000Y-76200000D03*
D25*
X81280000Y-76200000D03*
D28*
X67310000Y-77470000D03*
X82550000Y-110490000D03*
X95250000Y-113030000D03*
X63500000Y-68580000D03*
X76200000Y-66040000D03*
D29*
X72390000Y-99060000D02*
X68580000Y-99060000D01*
X72390000Y-101600000D02*
X73660000Y-101600000D01*
X67310000Y-95250000D02*
X67310000Y-77470000D01*
X68580000Y-96520000D02*
X67310000Y-95250000D01*
X73660000Y-96520000D02*
X68580000Y-96520000D01*
X74930000Y-97790000D02*
X73660000Y-96520000D01*
X74930000Y-100330000D02*
X74930000Y-97790000D01*
X73660000Y-101600000D02*
X74930000Y-100330000D01*
X72390000Y-109220000D02*
X67310000Y-109220000D01*
X67310000Y-111760000D02*
X72390000Y-111760000D01*
X72390000Y-111760000D02*
X71120000Y-111760000D01*
X62230000Y-119380000D02*
X62230000Y-115570000D01*
X63500000Y-114300000D02*
X72390000Y-114300000D01*
X62230000Y-115570000D02*
X63500000Y-114300000D01*
X67310000Y-116840000D02*
X72390000Y-116840000D01*
X91440000Y-137160000D02*
X81280000Y-137160000D01*
X74930000Y-119380000D02*
X78740000Y-119380000D01*
X78740000Y-119380000D02*
X80010000Y-120650000D01*
X80010000Y-120650000D02*
X80010000Y-135890000D01*
X80010000Y-135890000D02*
X81280000Y-137160000D01*
X74930000Y-119380000D02*
X72390000Y-119380000D01*
X101600000Y-104140000D02*
X99060000Y-104140000D01*
X82550000Y-96520000D02*
X82550000Y-110490000D01*
X83820000Y-95250000D02*
X82550000Y-96520000D01*
X91440000Y-95250000D02*
X83820000Y-95250000D01*
X92710000Y-96520000D02*
X91440000Y-95250000D01*
X92710000Y-102870000D02*
X92710000Y-96520000D01*
X93980000Y-104140000D02*
X92710000Y-102870000D01*
X99060000Y-104140000D02*
X93980000Y-104140000D01*
X67310000Y-127000000D02*
X68580000Y-127000000D01*
X68580000Y-127000000D02*
X72390000Y-127000000D01*
X72390000Y-129540000D02*
X64770000Y-129540000D01*
X67310000Y-132080000D02*
X72390000Y-132080000D01*
X67310000Y-134620000D02*
X72390000Y-134620000D01*
X87630000Y-134620000D02*
X92710000Y-134620000D01*
X87630000Y-132080000D02*
X92710000Y-132080000D01*
X87630000Y-129540000D02*
X92710000Y-129540000D01*
X87630000Y-127000000D02*
X92710000Y-127000000D01*
X87630000Y-124460000D02*
X92710000Y-124460000D01*
X87630000Y-121920000D02*
X92710000Y-121920000D01*
X87630000Y-119380000D02*
X92710000Y-119380000D01*
X97790000Y-114300000D02*
X97790000Y-113030000D01*
X99060000Y-111760000D02*
X99060000Y-110490000D01*
X97790000Y-113030000D02*
X99060000Y-111760000D01*
X93980000Y-114300000D02*
X95250000Y-113030000D01*
X87630000Y-114300000D02*
X93980000Y-114300000D01*
X96520000Y-116840000D02*
X97790000Y-116840000D01*
X93980000Y-114300000D02*
X96520000Y-116840000D01*
X97790000Y-120650000D02*
X97790000Y-116840000D01*
X87630000Y-111760000D02*
X92710000Y-111760000D01*
X87630000Y-109220000D02*
X92710000Y-109220000D01*
X87630000Y-106680000D02*
X91440000Y-106680000D01*
X99060000Y-107950000D02*
X101600000Y-110490000D01*
X93980000Y-107950000D02*
X99060000Y-107950000D01*
X92710000Y-106680000D02*
X93980000Y-107950000D01*
X91440000Y-106680000D02*
X92710000Y-106680000D01*
X100330000Y-114300000D02*
X100330000Y-113030000D01*
X100330000Y-113030000D02*
X101600000Y-111760000D01*
X101600000Y-111760000D02*
X101600000Y-110490000D01*
X93980000Y-137160000D02*
X95250000Y-137160000D01*
X95250000Y-137160000D02*
X97790000Y-134620000D01*
X91440000Y-66040000D02*
X80010000Y-66040000D01*
X92710000Y-67310000D02*
X91440000Y-66040000D01*
X92710000Y-68580000D02*
X92710000Y-67310000D01*
X64770000Y-67310000D02*
X63500000Y-68580000D01*
X78740000Y-67310000D02*
X64770000Y-67310000D01*
X80010000Y-66040000D02*
X78740000Y-67310000D01*
X92710000Y-72390000D02*
X92710000Y-68580000D01*
X101600000Y-78740000D02*
X100330000Y-78740000D01*
X100330000Y-66040000D02*
X101600000Y-66040000D01*
X99060000Y-67310000D02*
X100330000Y-66040000D01*
X99060000Y-77470000D02*
X99060000Y-67310000D01*
X100330000Y-78740000D02*
X99060000Y-77470000D01*
X63500000Y-66040000D02*
X59690000Y-66040000D01*
X76200000Y-66040000D02*
X63500000Y-66040000D01*
X58420000Y-78740000D02*
X59690000Y-78740000D01*
X59690000Y-78740000D02*
X60960000Y-77470000D01*
X60960000Y-77470000D02*
X60960000Y-67310000D01*
X60960000Y-67310000D02*
X59690000Y-66040000D01*
X59690000Y-66040000D02*
X58420000Y-66040000D01*
X101600000Y-80010000D02*
X100330000Y-80010000D01*
X100330000Y-64770000D02*
X101600000Y-64770000D01*
X97790000Y-67310000D02*
X100330000Y-64770000D01*
X97790000Y-77470000D02*
X97790000Y-67310000D01*
X100330000Y-80010000D02*
X97790000Y-77470000D01*
X67310000Y-124460000D02*
X67310000Y-120650000D01*
X62230000Y-129540000D02*
X62230000Y-125730000D01*
X83820000Y-82550000D02*
X83820000Y-81280000D01*
X87630000Y-77470000D02*
X87630000Y-76200000D01*
X83820000Y-81280000D02*
X87630000Y-77470000D01*
X81280000Y-82550000D02*
X81280000Y-80010000D01*
X83820000Y-77470000D02*
X83820000Y-71120000D01*
X81280000Y-80010000D02*
X83820000Y-77470000D01*
X78740000Y-82550000D02*
X78740000Y-80010000D01*
X80010000Y-78740000D02*
X80010000Y-76200000D01*
X78740000Y-80010000D02*
X80010000Y-78740000D01*
X95250000Y-96520000D02*
X97790000Y-93980000D01*
X97790000Y-93980000D02*
X97790000Y-92710000D01*
X99060000Y-96520000D02*
X100330000Y-95250000D01*
X100330000Y-95250000D02*
X100330000Y-92710000D01*
X102870000Y-96520000D02*
X102870000Y-92710000D01*
X59690000Y-96520000D02*
X59690000Y-100330000D01*
X59690000Y-119380000D02*
X59690000Y-114300000D01*
X62230000Y-123190000D02*
X60960000Y-121920000D01*
X60960000Y-121920000D02*
X60960000Y-119380000D01*
X62230000Y-123190000D02*
X64770000Y-120650000D01*
X101600000Y-102870000D02*
X101600000Y-101600000D01*
X101600000Y-100330000D02*
X102870000Y-99060000D01*
X101600000Y-101600000D02*
X101600000Y-100330000D01*
X95250000Y-99060000D02*
X99060000Y-99060000D01*
X99060000Y-99060000D02*
X102870000Y-99060000D01*
X90170000Y-72390000D02*
X90170000Y-68580000D01*
X86360000Y-76200000D02*
X86360000Y-73660000D01*
X87630000Y-72390000D02*
X90170000Y-72390000D01*
X86360000Y-73660000D02*
X87630000Y-72390000D01*
X82550000Y-71120000D02*
X81280000Y-69850000D01*
X81280000Y-69850000D02*
X78740000Y-69850000D01*
X74930000Y-76200000D02*
X78740000Y-76200000D01*
X59690000Y-105410000D02*
X59690000Y-102870000D01*
X66040000Y-99060000D02*
X66040000Y-73660000D01*
X63500000Y-99060000D02*
X66040000Y-99060000D01*
D30*
G36*
X56943989Y-64322260D02*
X56854928Y-64770000D01*
X56943989Y-65217740D01*
X57069112Y-65405000D01*
X56943989Y-65592260D01*
X56854928Y-66040000D01*
X56943989Y-66487740D01*
X56948729Y-66494835D01*
X56885000Y-66648691D01*
X56885000Y-67024250D01*
X57043750Y-67183000D01*
X57889190Y-67183000D01*
X58024928Y-67210000D01*
X58567000Y-67210000D01*
X58567000Y-67410000D01*
X58024928Y-67410000D01*
X57889190Y-67437000D01*
X57043750Y-67437000D01*
X56885000Y-67595750D01*
X56885000Y-67971309D01*
X56948729Y-68125165D01*
X56943989Y-68132260D01*
X56854928Y-68580000D01*
X56943989Y-69027740D01*
X57197613Y-69407315D01*
X57577188Y-69660939D01*
X58024928Y-69750000D01*
X58815072Y-69750000D01*
X59262812Y-69660939D01*
X59642387Y-69407315D01*
X59896011Y-69027740D01*
X59985072Y-68580000D01*
X59896011Y-68132260D01*
X59891271Y-68125165D01*
X59955000Y-67971309D01*
X59955000Y-67595750D01*
X59796252Y-67437002D01*
X59835423Y-67437002D01*
X60075000Y-67676579D01*
X60075000Y-77103421D01*
X59835423Y-77342998D01*
X59796252Y-77342998D01*
X59955000Y-77184250D01*
X59955000Y-76808691D01*
X59891271Y-76654835D01*
X59896011Y-76647740D01*
X59985072Y-76200000D01*
X59896011Y-75752260D01*
X59642387Y-75372685D01*
X59262812Y-75119061D01*
X58815072Y-75030000D01*
X58024928Y-75030000D01*
X57577188Y-75119061D01*
X57197613Y-75372685D01*
X56943989Y-75752260D01*
X56854928Y-76200000D01*
X56943989Y-76647740D01*
X56948729Y-76654835D01*
X56885000Y-76808691D01*
X56885000Y-77184250D01*
X57043750Y-77343000D01*
X57889190Y-77343000D01*
X58024928Y-77370000D01*
X58567000Y-77370000D01*
X58567000Y-77570000D01*
X58024928Y-77570000D01*
X57889190Y-77597000D01*
X57043750Y-77597000D01*
X56885000Y-77755750D01*
X56885000Y-78131309D01*
X56948729Y-78285165D01*
X56943989Y-78292260D01*
X56854928Y-78740000D01*
X56943989Y-79187740D01*
X57069112Y-79375000D01*
X56943989Y-79562260D01*
X56854928Y-80010000D01*
X56943989Y-80457740D01*
X57197613Y-80837315D01*
X57577188Y-81090939D01*
X58024928Y-81180000D01*
X58815072Y-81180000D01*
X59262812Y-81090939D01*
X59642387Y-80837315D01*
X59896011Y-80457740D01*
X59985072Y-80010000D01*
X59900175Y-79583194D01*
X59972484Y-79568810D01*
X60028675Y-79557633D01*
X60315790Y-79365790D01*
X60315791Y-79365789D01*
X61585787Y-78095792D01*
X61585790Y-78095790D01*
X61777633Y-77808675D01*
X61777633Y-77808674D01*
X61845001Y-77470000D01*
X61845000Y-77469995D01*
X61845000Y-73630907D01*
X62015000Y-73630907D01*
X62015000Y-73689093D01*
X62128039Y-74257378D01*
X62449946Y-74739147D01*
X62931715Y-75061054D01*
X63500000Y-75174093D01*
X64068285Y-75061054D01*
X64550054Y-74739147D01*
X64770000Y-74409974D01*
X64989946Y-74739147D01*
X65155000Y-74849432D01*
X65155000Y-97939856D01*
X64997189Y-98045302D01*
X64910527Y-98175000D01*
X64644171Y-98175000D01*
X64313923Y-97844176D01*
X63786691Y-97625250D01*
X63215813Y-97624752D01*
X62688200Y-97842757D01*
X62284176Y-98246077D01*
X62065250Y-98773309D01*
X62064752Y-99344187D01*
X62282757Y-99871800D01*
X62686077Y-100275824D01*
X62836568Y-100338313D01*
X62762577Y-100368959D01*
X62347611Y-100744866D01*
X62108086Y-101250959D01*
X62229371Y-101473000D01*
X63373000Y-101473000D01*
X63373000Y-101453000D01*
X63627000Y-101453000D01*
X63627000Y-101473000D01*
X64770629Y-101473000D01*
X64891914Y-101250959D01*
X64652389Y-100744866D01*
X64237423Y-100368959D01*
X64163715Y-100338430D01*
X64311800Y-100277243D01*
X64644623Y-99945000D01*
X64910527Y-99945000D01*
X64997189Y-100074698D01*
X65462736Y-100385767D01*
X66011887Y-100495000D01*
X66068113Y-100495000D01*
X66617264Y-100385767D01*
X67082811Y-100074698D01*
X67307592Y-99738290D01*
X67362757Y-99871800D01*
X67766077Y-100275824D01*
X68293309Y-100494750D01*
X68864187Y-100495248D01*
X69391800Y-100277243D01*
X69724623Y-99945000D01*
X71299522Y-99945000D01*
X71597630Y-100243629D01*
X71805512Y-100329949D01*
X71599697Y-100414990D01*
X71206371Y-100807630D01*
X70993243Y-101320900D01*
X70992758Y-101876661D01*
X71204990Y-102390303D01*
X71597630Y-102783629D01*
X71805512Y-102869949D01*
X71599697Y-102954990D01*
X71206371Y-103347630D01*
X70993243Y-103860900D01*
X70992758Y-104416661D01*
X71204990Y-104930303D01*
X71597630Y-105323629D01*
X71789727Y-105403395D01*
X71658857Y-105457603D01*
X71589392Y-105699787D01*
X72390000Y-106500395D01*
X73190608Y-105699787D01*
X73121143Y-105457603D01*
X72980682Y-105407491D01*
X73180303Y-105325010D01*
X73573629Y-104932370D01*
X73786757Y-104419100D01*
X73787242Y-103863339D01*
X73575010Y-103349697D01*
X73182370Y-102956371D01*
X72974488Y-102870051D01*
X73180303Y-102785010D01*
X73480837Y-102485000D01*
X73659995Y-102485000D01*
X73660000Y-102485001D01*
X73942484Y-102428810D01*
X73998675Y-102417633D01*
X74285790Y-102225790D01*
X75555787Y-100955792D01*
X75555790Y-100955790D01*
X75747633Y-100668675D01*
X75747633Y-100668674D01*
X75815001Y-100330000D01*
X75815000Y-100329995D01*
X75815000Y-97790005D01*
X75815001Y-97790000D01*
X75747633Y-97451325D01*
X75716680Y-97405000D01*
X75555790Y-97164210D01*
X75555787Y-97164208D01*
X74285790Y-95894210D01*
X74258222Y-95875790D01*
X73998675Y-95702367D01*
X73942484Y-95691190D01*
X73660000Y-95634999D01*
X73659995Y-95635000D01*
X68946579Y-95635000D01*
X68195000Y-94883420D01*
X68195000Y-92995750D01*
X93765000Y-92995750D01*
X93765000Y-93686309D01*
X93861673Y-93919698D01*
X94040301Y-94098327D01*
X94273690Y-94195000D01*
X94964250Y-94195000D01*
X95123000Y-94036250D01*
X95123000Y-92837000D01*
X93923750Y-92837000D01*
X93765000Y-92995750D01*
X68195000Y-92995750D01*
X68195000Y-91733691D01*
X93765000Y-91733691D01*
X93765000Y-92424250D01*
X93923750Y-92583000D01*
X95123000Y-92583000D01*
X95123000Y-91383750D01*
X94964250Y-91225000D01*
X94273690Y-91225000D01*
X94040301Y-91321673D01*
X93861673Y-91500302D01*
X93765000Y-91733691D01*
X68195000Y-91733691D01*
X68195000Y-90141887D01*
X72225000Y-90141887D01*
X72225000Y-90198113D01*
X72334233Y-90747264D01*
X72645302Y-91212811D01*
X73110849Y-91523880D01*
X73660000Y-91633113D01*
X74209151Y-91523880D01*
X74674698Y-91212811D01*
X74930000Y-90830725D01*
X75185302Y-91212811D01*
X75650849Y-91523880D01*
X76200000Y-91633113D01*
X76749151Y-91523880D01*
X77214698Y-91212811D01*
X77470000Y-90830725D01*
X77725302Y-91212811D01*
X78190849Y-91523880D01*
X78740000Y-91633113D01*
X79289151Y-91523880D01*
X79754698Y-91212811D01*
X80010000Y-90830725D01*
X80265302Y-91212811D01*
X80730849Y-91523880D01*
X81280000Y-91633113D01*
X81829151Y-91523880D01*
X82294698Y-91212811D01*
X82550000Y-90830725D01*
X82805302Y-91212811D01*
X83270849Y-91523880D01*
X83820000Y-91633113D01*
X84369151Y-91523880D01*
X84834698Y-91212811D01*
X85090000Y-90830725D01*
X85345302Y-91212811D01*
X85810849Y-91523880D01*
X86360000Y-91633113D01*
X86909151Y-91523880D01*
X87374698Y-91212811D01*
X87630000Y-90830725D01*
X87885302Y-91212811D01*
X88350849Y-91523880D01*
X88900000Y-91633113D01*
X89449151Y-91523880D01*
X89914698Y-91212811D01*
X90170000Y-90830725D01*
X90425302Y-91212811D01*
X90890849Y-91523880D01*
X91440000Y-91633113D01*
X91989151Y-91523880D01*
X92454698Y-91212811D01*
X92765767Y-90747264D01*
X92875000Y-90198113D01*
X92875000Y-90141887D01*
X92765767Y-89592736D01*
X92454698Y-89127189D01*
X91989151Y-88816120D01*
X91440000Y-88706887D01*
X90890849Y-88816120D01*
X90425302Y-89127189D01*
X90170000Y-89509275D01*
X89914698Y-89127189D01*
X89449151Y-88816120D01*
X88900000Y-88706887D01*
X88350849Y-88816120D01*
X87885302Y-89127189D01*
X87630000Y-89509275D01*
X87374698Y-89127189D01*
X86909151Y-88816120D01*
X86360000Y-88706887D01*
X85810849Y-88816120D01*
X85345302Y-89127189D01*
X85090000Y-89509275D01*
X84834698Y-89127189D01*
X84369151Y-88816120D01*
X83820000Y-88706887D01*
X83270849Y-88816120D01*
X82805302Y-89127189D01*
X82550000Y-89509275D01*
X82294698Y-89127189D01*
X81829151Y-88816120D01*
X81280000Y-88706887D01*
X80730849Y-88816120D01*
X80265302Y-89127189D01*
X80010000Y-89509275D01*
X79754698Y-89127189D01*
X79289151Y-88816120D01*
X78740000Y-88706887D01*
X78190849Y-88816120D01*
X77725302Y-89127189D01*
X77470000Y-89509275D01*
X77214698Y-89127189D01*
X76749151Y-88816120D01*
X76200000Y-88706887D01*
X75650849Y-88816120D01*
X75185302Y-89127189D01*
X74930000Y-89509275D01*
X74674698Y-89127189D01*
X74209151Y-88816120D01*
X73660000Y-88706887D01*
X73110849Y-88816120D01*
X72645302Y-89127189D01*
X72334233Y-89592736D01*
X72225000Y-90141887D01*
X68195000Y-90141887D01*
X68195000Y-82899041D01*
X72268086Y-82899041D01*
X72507611Y-83405134D01*
X72922577Y-83781041D01*
X73310961Y-83941904D01*
X73533000Y-83819915D01*
X73533000Y-82677000D01*
X72389371Y-82677000D01*
X72268086Y-82899041D01*
X68195000Y-82899041D01*
X68195000Y-82200959D01*
X72268086Y-82200959D01*
X72389371Y-82423000D01*
X73533000Y-82423000D01*
X73533000Y-81280085D01*
X73310961Y-81158096D01*
X72922577Y-81318959D01*
X72507611Y-81694866D01*
X72268086Y-82200959D01*
X68195000Y-82200959D01*
X68195000Y-77776822D01*
X68244838Y-77656799D01*
X68245162Y-77284833D01*
X68103117Y-76941057D01*
X67840327Y-76677808D01*
X67496799Y-76535162D01*
X67124833Y-76534838D01*
X66925000Y-76617407D01*
X66925000Y-74849432D01*
X67090054Y-74739147D01*
X67317702Y-74398447D01*
X67384817Y-74541358D01*
X67813076Y-74931645D01*
X68223110Y-75101476D01*
X68453000Y-74980155D01*
X68453000Y-73787000D01*
X68433000Y-73787000D01*
X68433000Y-73533000D01*
X68453000Y-73533000D01*
X68453000Y-72339845D01*
X68707000Y-72339845D01*
X68707000Y-73533000D01*
X68727000Y-73533000D01*
X68727000Y-73787000D01*
X68707000Y-73787000D01*
X68707000Y-74980155D01*
X68936890Y-75101476D01*
X69346924Y-74931645D01*
X69649937Y-74655499D01*
X69666838Y-74745317D01*
X69805910Y-74961441D01*
X70018110Y-75106431D01*
X70270000Y-75157440D01*
X71970000Y-75157440D01*
X72205317Y-75113162D01*
X72421441Y-74974090D01*
X72566431Y-74761890D01*
X72617440Y-74510000D01*
X72617440Y-72810000D01*
X72573162Y-72574683D01*
X72434090Y-72358559D01*
X72221890Y-72213569D01*
X71970000Y-72162560D01*
X70270000Y-72162560D01*
X70034683Y-72206838D01*
X69818559Y-72345910D01*
X69673569Y-72558110D01*
X69651699Y-72666107D01*
X69346924Y-72388355D01*
X68936890Y-72218524D01*
X68707000Y-72339845D01*
X68453000Y-72339845D01*
X68223110Y-72218524D01*
X67813076Y-72388355D01*
X67384817Y-72778642D01*
X67317702Y-72921553D01*
X67090054Y-72580853D01*
X66608285Y-72258946D01*
X66040000Y-72145907D01*
X65471715Y-72258946D01*
X64989946Y-72580853D01*
X64770000Y-72910026D01*
X64550054Y-72580853D01*
X64068285Y-72258946D01*
X63500000Y-72145907D01*
X62931715Y-72258946D01*
X62449946Y-72580853D01*
X62128039Y-73062622D01*
X62015000Y-73630907D01*
X61845000Y-73630907D01*
X61845000Y-67310005D01*
X61845001Y-67310000D01*
X61777633Y-66971325D01*
X61746680Y-66925000D01*
X63903421Y-66925000D01*
X63091164Y-67737256D01*
X62971057Y-67786883D01*
X62707808Y-68049673D01*
X62565162Y-68393201D01*
X62564838Y-68765167D01*
X62706883Y-69108943D01*
X62969673Y-69372192D01*
X63313201Y-69514838D01*
X63685167Y-69515162D01*
X64028943Y-69373117D01*
X64292192Y-69110327D01*
X64342566Y-68989014D01*
X65136579Y-68195000D01*
X78739995Y-68195000D01*
X78740000Y-68195001D01*
X79022484Y-68138810D01*
X79078675Y-68127633D01*
X79365790Y-67935790D01*
X79365791Y-67935789D01*
X80376579Y-66925000D01*
X91073420Y-66925000D01*
X91695084Y-67546663D01*
X91667189Y-67565302D01*
X91442408Y-67901710D01*
X91387243Y-67768200D01*
X90983923Y-67364176D01*
X90456691Y-67145250D01*
X89885813Y-67144752D01*
X89358200Y-67362757D01*
X88954176Y-67766077D01*
X88735250Y-68293309D01*
X88734752Y-68864187D01*
X88952757Y-69391800D01*
X89285000Y-69724623D01*
X89285000Y-71245829D01*
X89025377Y-71505000D01*
X87630005Y-71505000D01*
X87630000Y-71504999D01*
X87291325Y-71572367D01*
X87004210Y-71764210D01*
X87004208Y-71764213D01*
X85734210Y-73034210D01*
X85542367Y-73321325D01*
X85542367Y-73321326D01*
X85474999Y-73660000D01*
X85475000Y-73660005D01*
X85475000Y-75281939D01*
X85357591Y-75457654D01*
X85275000Y-75872866D01*
X85275000Y-76527134D01*
X85357591Y-76942346D01*
X85592789Y-77294345D01*
X85944788Y-77529543D01*
X86256812Y-77591609D01*
X83194210Y-80654210D01*
X83002367Y-80941325D01*
X83002367Y-80941326D01*
X82934999Y-81280000D01*
X82935000Y-81280005D01*
X82935000Y-81420527D01*
X82805302Y-81507189D01*
X82550000Y-81889275D01*
X82294698Y-81507189D01*
X82165000Y-81420527D01*
X82165000Y-80376580D01*
X84445787Y-78095792D01*
X84445790Y-78095790D01*
X84637633Y-77808675D01*
X84705000Y-77470000D01*
X84705000Y-72517440D01*
X85540000Y-72517440D01*
X85775317Y-72473162D01*
X85991441Y-72334090D01*
X86136431Y-72121890D01*
X86187440Y-71870000D01*
X86187440Y-70370000D01*
X86143162Y-70134683D01*
X86004090Y-69918559D01*
X85791890Y-69773569D01*
X85540000Y-69722560D01*
X84640000Y-69722560D01*
X84404683Y-69766838D01*
X84300345Y-69833978D01*
X84235212Y-69790457D01*
X83820000Y-69707866D01*
X83404788Y-69790457D01*
X83185000Y-69937315D01*
X82965212Y-69790457D01*
X82550000Y-69707866D01*
X82416083Y-69734504D01*
X81905790Y-69224210D01*
X81763523Y-69129151D01*
X81618675Y-69032367D01*
X81562484Y-69021190D01*
X81280000Y-68964999D01*
X81279995Y-68965000D01*
X79884171Y-68965000D01*
X79553923Y-68634176D01*
X79026691Y-68415250D01*
X78455813Y-68414752D01*
X77928200Y-68632757D01*
X77524176Y-69036077D01*
X77467755Y-69171954D01*
X77242811Y-68835302D01*
X76777264Y-68524233D01*
X76228113Y-68415000D01*
X76171887Y-68415000D01*
X75622736Y-68524233D01*
X75157189Y-68835302D01*
X74846120Y-69300849D01*
X74736887Y-69850000D01*
X74846120Y-70399151D01*
X75157189Y-70864698D01*
X75622736Y-71175767D01*
X76171887Y-71285000D01*
X76228113Y-71285000D01*
X76777264Y-71175767D01*
X77242811Y-70864698D01*
X77467592Y-70528290D01*
X77522757Y-70661800D01*
X77926077Y-71065824D01*
X78453309Y-71284750D01*
X79024187Y-71285248D01*
X79551800Y-71067243D01*
X79884623Y-70735000D01*
X80913420Y-70735000D01*
X81465000Y-71286579D01*
X81465000Y-71447134D01*
X81547591Y-71862346D01*
X81782789Y-72214345D01*
X82134788Y-72449543D01*
X82550000Y-72532134D01*
X82935000Y-72455553D01*
X82935000Y-77103421D01*
X80654210Y-79384210D01*
X80462367Y-79671325D01*
X80462367Y-79671326D01*
X80394999Y-80010000D01*
X80395000Y-80010005D01*
X80395000Y-81420527D01*
X80265302Y-81507189D01*
X80010000Y-81889275D01*
X79754698Y-81507189D01*
X79625000Y-81420527D01*
X79625000Y-80376580D01*
X80635787Y-79365792D01*
X80635790Y-79365790D01*
X80827633Y-79078675D01*
X80827633Y-79078674D01*
X80895001Y-78740000D01*
X80895000Y-78739995D01*
X80895000Y-77597440D01*
X81730000Y-77597440D01*
X81965317Y-77553162D01*
X82181441Y-77414090D01*
X82326431Y-77201890D01*
X82377440Y-76950000D01*
X82377440Y-75450000D01*
X82333162Y-75214683D01*
X82194090Y-74998559D01*
X81981890Y-74853569D01*
X81730000Y-74802560D01*
X80830000Y-74802560D01*
X80594683Y-74846838D01*
X80490345Y-74913978D01*
X80425212Y-74870457D01*
X80010000Y-74787866D01*
X79594788Y-74870457D01*
X79375000Y-75017315D01*
X79155212Y-74870457D01*
X78740000Y-74787866D01*
X78324788Y-74870457D01*
X77972789Y-75105655D01*
X77832909Y-75315000D01*
X76074171Y-75315000D01*
X75743923Y-74984176D01*
X75608046Y-74927755D01*
X75944698Y-74702811D01*
X76255767Y-74237264D01*
X76365000Y-73688113D01*
X76365000Y-73631887D01*
X76255767Y-73082736D01*
X75944698Y-72617189D01*
X75479151Y-72306120D01*
X74930000Y-72196887D01*
X74380849Y-72306120D01*
X73915302Y-72617189D01*
X73604233Y-73082736D01*
X73495000Y-73631887D01*
X73495000Y-73688113D01*
X73604233Y-74237264D01*
X73915302Y-74702811D01*
X74251710Y-74927592D01*
X74118200Y-74982757D01*
X73714176Y-75386077D01*
X73495250Y-75913309D01*
X73494752Y-76484187D01*
X73712757Y-77011800D01*
X74116077Y-77415824D01*
X74643309Y-77634750D01*
X75214187Y-77635248D01*
X75741800Y-77417243D01*
X76074623Y-77085000D01*
X77832909Y-77085000D01*
X77972789Y-77294345D01*
X78324788Y-77529543D01*
X78740000Y-77612134D01*
X79125000Y-77535553D01*
X79125000Y-78373421D01*
X78114210Y-79384210D01*
X77922367Y-79671325D01*
X77922367Y-79671326D01*
X77854999Y-80010000D01*
X77855000Y-80010005D01*
X77855000Y-81420527D01*
X77725302Y-81507189D01*
X77470000Y-81889275D01*
X77214698Y-81507189D01*
X76749151Y-81196120D01*
X76200000Y-81086887D01*
X75650849Y-81196120D01*
X75185302Y-81507189D01*
X74915014Y-81911703D01*
X74812389Y-81694866D01*
X74397423Y-81318959D01*
X74009039Y-81158096D01*
X73787000Y-81280085D01*
X73787000Y-82423000D01*
X73807000Y-82423000D01*
X73807000Y-82677000D01*
X73787000Y-82677000D01*
X73787000Y-83819915D01*
X74009039Y-83941904D01*
X74397423Y-83781041D01*
X74812389Y-83405134D01*
X74915014Y-83188297D01*
X75185302Y-83592811D01*
X75650849Y-83903880D01*
X76200000Y-84013113D01*
X76749151Y-83903880D01*
X77214698Y-83592811D01*
X77470000Y-83210725D01*
X77725302Y-83592811D01*
X78190849Y-83903880D01*
X78740000Y-84013113D01*
X79289151Y-83903880D01*
X79754698Y-83592811D01*
X80010000Y-83210725D01*
X80265302Y-83592811D01*
X80730849Y-83903880D01*
X81280000Y-84013113D01*
X81829151Y-83903880D01*
X82294698Y-83592811D01*
X82550000Y-83210725D01*
X82805302Y-83592811D01*
X83270849Y-83903880D01*
X83820000Y-84013113D01*
X84369151Y-83903880D01*
X84834698Y-83592811D01*
X85104986Y-83188297D01*
X85207611Y-83405134D01*
X85622577Y-83781041D01*
X86010961Y-83941904D01*
X86233000Y-83819915D01*
X86233000Y-82677000D01*
X86487000Y-82677000D01*
X86487000Y-83819915D01*
X86709039Y-83941904D01*
X87097423Y-83781041D01*
X87512389Y-83405134D01*
X87630000Y-83156633D01*
X87747611Y-83405134D01*
X88162577Y-83781041D01*
X88550961Y-83941904D01*
X88773000Y-83819915D01*
X88773000Y-82677000D01*
X89027000Y-82677000D01*
X89027000Y-83819915D01*
X89249039Y-83941904D01*
X89637423Y-83781041D01*
X90005000Y-83448062D01*
X90005000Y-83476309D01*
X90101673Y-83709698D01*
X90280301Y-83888327D01*
X90513690Y-83985000D01*
X91154250Y-83985000D01*
X91313000Y-83826250D01*
X91313000Y-82677000D01*
X91567000Y-82677000D01*
X91567000Y-83826250D01*
X91725750Y-83985000D01*
X92366310Y-83985000D01*
X92599699Y-83888327D01*
X92778327Y-83709698D01*
X92875000Y-83476309D01*
X92875000Y-82835750D01*
X92716250Y-82677000D01*
X91567000Y-82677000D01*
X91313000Y-82677000D01*
X89027000Y-82677000D01*
X88773000Y-82677000D01*
X86487000Y-82677000D01*
X86233000Y-82677000D01*
X86213000Y-82677000D01*
X86213000Y-82423000D01*
X86233000Y-82423000D01*
X86233000Y-81280085D01*
X86487000Y-81280085D01*
X86487000Y-82423000D01*
X88773000Y-82423000D01*
X88773000Y-81280085D01*
X89027000Y-81280085D01*
X89027000Y-82423000D01*
X91313000Y-82423000D01*
X91313000Y-81273750D01*
X91567000Y-81273750D01*
X91567000Y-82423000D01*
X92716250Y-82423000D01*
X92875000Y-82264250D01*
X92875000Y-81623691D01*
X92778327Y-81390302D01*
X92599699Y-81211673D01*
X92366310Y-81115000D01*
X91725750Y-81115000D01*
X91567000Y-81273750D01*
X91313000Y-81273750D01*
X91154250Y-81115000D01*
X90513690Y-81115000D01*
X90280301Y-81211673D01*
X90101673Y-81390302D01*
X90005000Y-81623691D01*
X90005000Y-81651938D01*
X89637423Y-81318959D01*
X89249039Y-81158096D01*
X89027000Y-81280085D01*
X88773000Y-81280085D01*
X88550961Y-81158096D01*
X88162577Y-81318959D01*
X87747611Y-81694866D01*
X87630000Y-81943367D01*
X87512389Y-81694866D01*
X87097423Y-81318959D01*
X86709039Y-81158096D01*
X86487000Y-81280085D01*
X86233000Y-81280085D01*
X86010961Y-81158096D01*
X85622577Y-81318959D01*
X85207611Y-81694866D01*
X85104986Y-81911703D01*
X84838580Y-81512999D01*
X88255787Y-78095792D01*
X88255790Y-78095790D01*
X88447633Y-77808675D01*
X88458810Y-77752484D01*
X88489651Y-77597440D01*
X89350000Y-77597440D01*
X89585317Y-77553162D01*
X89801441Y-77414090D01*
X89946431Y-77201890D01*
X89997440Y-76950000D01*
X89997440Y-75450000D01*
X89953162Y-75214683D01*
X89814090Y-74998559D01*
X89601890Y-74853569D01*
X89350000Y-74802560D01*
X88450000Y-74802560D01*
X88214683Y-74846838D01*
X88110345Y-74913978D01*
X88045212Y-74870457D01*
X87630000Y-74787866D01*
X87245000Y-74864447D01*
X87245000Y-74026580D01*
X87996579Y-73275000D01*
X89025829Y-73275000D01*
X89356077Y-73605824D01*
X89883309Y-73824750D01*
X90454187Y-73825248D01*
X90981800Y-73607243D01*
X91385824Y-73203923D01*
X91442245Y-73068046D01*
X91667189Y-73404698D01*
X92132736Y-73715767D01*
X92681887Y-73825000D01*
X92738113Y-73825000D01*
X93287264Y-73715767D01*
X93752811Y-73404698D01*
X94063880Y-72939151D01*
X94173113Y-72390000D01*
X94063880Y-71840849D01*
X93752811Y-71375302D01*
X93595000Y-71269856D01*
X93595000Y-69700144D01*
X93752811Y-69594698D01*
X94063880Y-69129151D01*
X94173113Y-68580000D01*
X94063880Y-68030849D01*
X93752811Y-67565302D01*
X93595000Y-67459856D01*
X93595000Y-67310005D01*
X93595001Y-67310000D01*
X93527633Y-66971325D01*
X93458136Y-66867315D01*
X93335790Y-66684210D01*
X93335787Y-66684208D01*
X92065790Y-65414210D01*
X91816750Y-65247808D01*
X91778675Y-65222367D01*
X91722484Y-65211190D01*
X91440000Y-65154999D01*
X91439995Y-65155000D01*
X80010005Y-65155000D01*
X80010000Y-65154999D01*
X79719999Y-65212685D01*
X79671325Y-65222367D01*
X79384210Y-65414210D01*
X79384208Y-65414213D01*
X78373420Y-66425000D01*
X77052537Y-66425000D01*
X77134838Y-66226799D01*
X77135162Y-65854833D01*
X76993117Y-65511057D01*
X76730327Y-65247808D01*
X76386799Y-65105162D01*
X76014833Y-65104838D01*
X75893431Y-65155000D01*
X59908491Y-65155000D01*
X59985072Y-64770000D01*
X59896011Y-64322260D01*
X59804297Y-64185000D01*
X99663421Y-64185000D01*
X97164210Y-66684210D01*
X96972367Y-66971325D01*
X96972367Y-66971326D01*
X96904999Y-67310000D01*
X96905000Y-67310005D01*
X96905000Y-77469995D01*
X96904999Y-77470000D01*
X96961190Y-77752484D01*
X96972367Y-77808675D01*
X97100424Y-78000327D01*
X97164210Y-78095790D01*
X99704208Y-80635787D01*
X99704210Y-80635790D01*
X99991325Y-80827633D01*
X100330000Y-80895000D01*
X100463945Y-80895000D01*
X100757188Y-81090939D01*
X101204928Y-81180000D01*
X101995072Y-81180000D01*
X102442812Y-81090939D01*
X102822387Y-80837315D01*
X103076011Y-80457740D01*
X103165072Y-80010000D01*
X103076011Y-79562260D01*
X102950888Y-79375000D01*
X103076011Y-79187740D01*
X103165072Y-78740000D01*
X103076011Y-78292260D01*
X103071271Y-78285165D01*
X103135000Y-78131309D01*
X103135000Y-77755750D01*
X102976250Y-77597000D01*
X102130810Y-77597000D01*
X101995072Y-77570000D01*
X101453000Y-77570000D01*
X101453000Y-77370000D01*
X101995072Y-77370000D01*
X102130810Y-77343000D01*
X102976250Y-77343000D01*
X103135000Y-77184250D01*
X103135000Y-76808691D01*
X103071271Y-76654835D01*
X103076011Y-76647740D01*
X103165072Y-76200000D01*
X103076011Y-75752260D01*
X102822387Y-75372685D01*
X102442812Y-75119061D01*
X101995072Y-75030000D01*
X101204928Y-75030000D01*
X100757188Y-75119061D01*
X100377613Y-75372685D01*
X100123989Y-75752260D01*
X100034928Y-76200000D01*
X100123989Y-76647740D01*
X100128729Y-76654835D01*
X100065000Y-76808691D01*
X100065000Y-77184250D01*
X100223748Y-77342998D01*
X100184578Y-77342998D01*
X99945000Y-77103420D01*
X99945000Y-67676580D01*
X100184578Y-67437002D01*
X100223748Y-67437002D01*
X100065000Y-67595750D01*
X100065000Y-67971309D01*
X100128729Y-68125165D01*
X100123989Y-68132260D01*
X100034928Y-68580000D01*
X100123989Y-69027740D01*
X100377613Y-69407315D01*
X100757188Y-69660939D01*
X101204928Y-69750000D01*
X101995072Y-69750000D01*
X102442812Y-69660939D01*
X102822387Y-69407315D01*
X103076011Y-69027740D01*
X103165072Y-68580000D01*
X103076011Y-68132260D01*
X103071271Y-68125165D01*
X103135000Y-67971309D01*
X103135000Y-67595750D01*
X102976250Y-67437000D01*
X102130810Y-67437000D01*
X101995072Y-67410000D01*
X101453000Y-67410000D01*
X101453000Y-67210000D01*
X101995072Y-67210000D01*
X102130810Y-67183000D01*
X102976250Y-67183000D01*
X103135000Y-67024250D01*
X103135000Y-66648691D01*
X103071271Y-66494835D01*
X103076011Y-66487740D01*
X103165072Y-66040000D01*
X103076011Y-65592260D01*
X102950888Y-65405000D01*
X103076011Y-65217740D01*
X103165072Y-64770000D01*
X103076011Y-64322260D01*
X102984297Y-64185000D01*
X104725000Y-64185000D01*
X104725000Y-137745000D01*
X95916580Y-137745000D01*
X97506826Y-136154753D01*
X98093991Y-136155265D01*
X98658371Y-135922068D01*
X98835841Y-135744908D01*
X98891673Y-135879699D01*
X99070302Y-136058327D01*
X99303691Y-136155000D01*
X100044250Y-136155000D01*
X100203000Y-135996250D01*
X100203000Y-134747000D01*
X100457000Y-134747000D01*
X100457000Y-135996250D01*
X100615750Y-136155000D01*
X101356309Y-136155000D01*
X101589698Y-136058327D01*
X101768327Y-135879699D01*
X101865000Y-135646310D01*
X101865000Y-134905750D01*
X101706250Y-134747000D01*
X100457000Y-134747000D01*
X100203000Y-134747000D01*
X100183000Y-134747000D01*
X100183000Y-134493000D01*
X100203000Y-134493000D01*
X100203000Y-133243750D01*
X100457000Y-133243750D01*
X100457000Y-134493000D01*
X101706250Y-134493000D01*
X101865000Y-134334250D01*
X101865000Y-133593690D01*
X101768327Y-133360301D01*
X101589698Y-133181673D01*
X101356309Y-133085000D01*
X100615750Y-133085000D01*
X100457000Y-133243750D01*
X100203000Y-133243750D01*
X100044250Y-133085000D01*
X99303691Y-133085000D01*
X99070302Y-133181673D01*
X98891673Y-133360301D01*
X98835881Y-133494994D01*
X98660643Y-133319449D01*
X98096670Y-133085267D01*
X97486009Y-133084735D01*
X96921629Y-133317932D01*
X96489449Y-133749357D01*
X96255267Y-134313330D01*
X96254753Y-134903668D01*
X95003900Y-136154520D01*
X94793923Y-135944176D01*
X94266691Y-135725250D01*
X94154202Y-135725152D01*
X94156431Y-135721890D01*
X94207440Y-135470000D01*
X94207440Y-133770000D01*
X94163162Y-133534683D01*
X94024090Y-133318559D01*
X93811890Y-133173569D01*
X93744459Y-133159914D01*
X93789147Y-133130054D01*
X94111054Y-132648285D01*
X94224093Y-132080000D01*
X94111054Y-131511715D01*
X93789147Y-131029946D01*
X93459974Y-130810000D01*
X93789147Y-130590054D01*
X94111054Y-130108285D01*
X94224093Y-129540000D01*
X94111054Y-128971715D01*
X93789147Y-128489946D01*
X93459974Y-128270000D01*
X93789147Y-128050054D01*
X94111054Y-127568285D01*
X94224093Y-127000000D01*
X94111054Y-126431715D01*
X93789147Y-125949946D01*
X93459974Y-125730000D01*
X93789147Y-125510054D01*
X94111054Y-125028285D01*
X94224093Y-124460000D01*
X94111054Y-123891715D01*
X93789147Y-123409946D01*
X93459974Y-123190000D01*
X93789147Y-122970054D01*
X94111054Y-122488285D01*
X94224093Y-121920000D01*
X94111054Y-121351715D01*
X93789147Y-120869946D01*
X93459974Y-120650000D01*
X93789147Y-120430054D01*
X94111054Y-119948285D01*
X94224093Y-119380000D01*
X94111054Y-118811715D01*
X93789147Y-118329946D01*
X93307378Y-118008039D01*
X92739093Y-117895000D01*
X92680907Y-117895000D01*
X92112622Y-118008039D01*
X91630853Y-118329946D01*
X91520568Y-118495000D01*
X88720478Y-118495000D01*
X88422370Y-118196371D01*
X88214488Y-118110051D01*
X88420303Y-118025010D01*
X88813629Y-117632370D01*
X89026757Y-117119100D01*
X89027242Y-116563339D01*
X88815010Y-116049697D01*
X88422370Y-115656371D01*
X88214488Y-115570051D01*
X88420303Y-115485010D01*
X88720837Y-115185000D01*
X93613420Y-115185000D01*
X95894208Y-117465787D01*
X95894210Y-117465790D01*
X96140423Y-117630303D01*
X96181325Y-117657633D01*
X96374656Y-117696089D01*
X96403106Y-117764943D01*
X96862637Y-118225278D01*
X96905000Y-118242869D01*
X96905000Y-119529856D01*
X96747189Y-119635302D01*
X96436120Y-120100849D01*
X96326887Y-120650000D01*
X96436120Y-121199151D01*
X96747189Y-121664698D01*
X97212736Y-121975767D01*
X97761887Y-122085000D01*
X97818113Y-122085000D01*
X98367264Y-121975767D01*
X98832811Y-121664698D01*
X99057592Y-121328290D01*
X99112757Y-121461800D01*
X99516077Y-121865824D01*
X100043309Y-122084750D01*
X100614187Y-122085248D01*
X101141800Y-121867243D01*
X101545824Y-121463923D01*
X101764750Y-120936691D01*
X101765248Y-120365813D01*
X101547243Y-119838200D01*
X101143923Y-119434176D01*
X100616691Y-119215250D01*
X100045813Y-119214752D01*
X99518200Y-119432757D01*
X99114176Y-119836077D01*
X99057755Y-119971954D01*
X98832811Y-119635302D01*
X98675000Y-119529856D01*
X98675000Y-118243398D01*
X98714943Y-118226894D01*
X98949715Y-117992532D01*
X99357073Y-117992532D01*
X99455736Y-118259387D01*
X100065461Y-118485908D01*
X100715460Y-118461856D01*
X101204264Y-118259387D01*
X101302927Y-117992532D01*
X100330000Y-117019605D01*
X99357073Y-117992532D01*
X98949715Y-117992532D01*
X99142562Y-117800022D01*
X99177468Y-117812927D01*
X100150395Y-116840000D01*
X100136253Y-116825858D01*
X100315858Y-116646253D01*
X100330000Y-116660395D01*
X100344143Y-116646253D01*
X100523748Y-116825858D01*
X100509605Y-116840000D01*
X101482532Y-117812927D01*
X101749387Y-117714264D01*
X101975908Y-117104539D01*
X101951856Y-116454540D01*
X101749387Y-115965736D01*
X101570727Y-115899681D01*
X101781441Y-115764090D01*
X101926431Y-115551890D01*
X101977440Y-115300000D01*
X101977440Y-113300000D01*
X101933162Y-113064683D01*
X101794090Y-112848559D01*
X101775632Y-112835947D01*
X102225787Y-112385792D01*
X102225790Y-112385790D01*
X102417633Y-112098675D01*
X102418396Y-112094838D01*
X102485001Y-111760000D01*
X102485000Y-111759995D01*
X102485000Y-111634171D01*
X102815824Y-111303923D01*
X103034750Y-110776691D01*
X103035248Y-110205813D01*
X102817243Y-109678200D01*
X102413923Y-109274176D01*
X101886691Y-109055250D01*
X101416419Y-109054840D01*
X99685790Y-107324210D01*
X99596701Y-107264683D01*
X99398675Y-107132367D01*
X99342484Y-107121190D01*
X99060000Y-107064999D01*
X99059995Y-107065000D01*
X94346579Y-107065000D01*
X93335790Y-106054210D01*
X93089577Y-105889697D01*
X93048675Y-105862367D01*
X92992484Y-105851190D01*
X92710000Y-105794999D01*
X92709995Y-105795000D01*
X88720478Y-105795000D01*
X88422370Y-105496371D01*
X88214488Y-105410051D01*
X88420303Y-105325010D01*
X88813629Y-104932370D01*
X89026757Y-104419100D01*
X89027242Y-103863339D01*
X88815010Y-103349697D01*
X88422370Y-102956371D01*
X88230273Y-102876605D01*
X88361143Y-102822397D01*
X88430608Y-102580213D01*
X87630000Y-101779605D01*
X86829392Y-102580213D01*
X86898857Y-102822397D01*
X87039318Y-102872509D01*
X86839697Y-102954990D01*
X86446371Y-103347630D01*
X86233243Y-103860900D01*
X86232758Y-104416661D01*
X86444990Y-104930303D01*
X86837630Y-105323629D01*
X87045512Y-105409949D01*
X86839697Y-105494990D01*
X86446371Y-105887630D01*
X86233243Y-106400900D01*
X86232758Y-106956661D01*
X86444990Y-107470303D01*
X86837630Y-107863629D01*
X87045512Y-107949949D01*
X86839697Y-108034990D01*
X86446371Y-108427630D01*
X86233243Y-108940900D01*
X86232758Y-109496661D01*
X86444990Y-110010303D01*
X86837630Y-110403629D01*
X87045512Y-110489949D01*
X86839697Y-110574990D01*
X86446371Y-110967630D01*
X86233243Y-111480900D01*
X86232758Y-112036661D01*
X86444990Y-112550303D01*
X86837630Y-112943629D01*
X87045512Y-113029949D01*
X86839697Y-113114990D01*
X86446371Y-113507630D01*
X86233243Y-114020900D01*
X86232758Y-114576661D01*
X86444990Y-115090303D01*
X86837630Y-115483629D01*
X87045512Y-115569949D01*
X86839697Y-115654990D01*
X86446371Y-116047630D01*
X86233243Y-116560900D01*
X86232758Y-117116661D01*
X86444990Y-117630303D01*
X86837630Y-118023629D01*
X87045512Y-118109949D01*
X86839697Y-118194990D01*
X86446371Y-118587630D01*
X86233243Y-119100900D01*
X86232758Y-119656661D01*
X86444990Y-120170303D01*
X86837630Y-120563629D01*
X87045512Y-120649949D01*
X86839697Y-120734990D01*
X86446371Y-121127630D01*
X86233243Y-121640900D01*
X86232758Y-122196661D01*
X86444990Y-122710303D01*
X86837630Y-123103629D01*
X87045512Y-123189949D01*
X86839697Y-123274990D01*
X86446371Y-123667630D01*
X86233243Y-124180900D01*
X86232758Y-124736661D01*
X86444990Y-125250303D01*
X86837630Y-125643629D01*
X87045512Y-125729949D01*
X86839697Y-125814990D01*
X86446371Y-126207630D01*
X86233243Y-126720900D01*
X86232758Y-127276661D01*
X86444990Y-127790303D01*
X86837630Y-128183629D01*
X87045512Y-128269949D01*
X86839697Y-128354990D01*
X86446371Y-128747630D01*
X86233243Y-129260900D01*
X86232758Y-129816661D01*
X86444990Y-130330303D01*
X86837630Y-130723629D01*
X87045512Y-130809949D01*
X86839697Y-130894990D01*
X86446371Y-131287630D01*
X86233243Y-131800900D01*
X86232758Y-132356661D01*
X86444990Y-132870303D01*
X86837630Y-133263629D01*
X87045512Y-133349949D01*
X86839697Y-133434990D01*
X86446371Y-133827630D01*
X86233243Y-134340900D01*
X86232758Y-134896661D01*
X86444990Y-135410303D01*
X86837630Y-135803629D01*
X87350900Y-136016757D01*
X87906661Y-136017242D01*
X88420303Y-135805010D01*
X88720837Y-135505000D01*
X91219146Y-135505000D01*
X91256838Y-135705317D01*
X91285660Y-135750108D01*
X90862736Y-135834233D01*
X90397189Y-136145302D01*
X90310527Y-136275000D01*
X81646579Y-136275000D01*
X80895000Y-135523420D01*
X80895000Y-120650005D01*
X80895001Y-120650000D01*
X80827633Y-120311325D01*
X80796680Y-120265000D01*
X80635790Y-120024210D01*
X80635787Y-120024208D01*
X79365790Y-118754210D01*
X79078675Y-118562367D01*
X79022484Y-118551190D01*
X78740000Y-118494999D01*
X78739995Y-118495000D01*
X73480478Y-118495000D01*
X73182370Y-118196371D01*
X72974488Y-118110051D01*
X73180303Y-118025010D01*
X73573629Y-117632370D01*
X73786757Y-117119100D01*
X73787242Y-116563339D01*
X73575010Y-116049697D01*
X73182370Y-115656371D01*
X72974488Y-115570051D01*
X73180303Y-115485010D01*
X73573629Y-115092370D01*
X73786757Y-114579100D01*
X73787242Y-114023339D01*
X73575010Y-113509697D01*
X73182370Y-113116371D01*
X72974488Y-113030051D01*
X73180303Y-112945010D01*
X73573629Y-112552370D01*
X73786757Y-112039100D01*
X73787242Y-111483339D01*
X73575010Y-110969697D01*
X73280994Y-110675167D01*
X81614838Y-110675167D01*
X81756883Y-111018943D01*
X82019673Y-111282192D01*
X82363201Y-111424838D01*
X82735167Y-111425162D01*
X83078943Y-111283117D01*
X83342192Y-111020327D01*
X83484838Y-110676799D01*
X83485162Y-110304833D01*
X83435000Y-110183431D01*
X83435000Y-101392302D01*
X86220856Y-101392302D01*
X86248638Y-101947368D01*
X86407603Y-102331143D01*
X86649787Y-102400608D01*
X87450395Y-101600000D01*
X87809605Y-101600000D01*
X88610213Y-102400608D01*
X88852397Y-102331143D01*
X89039144Y-101807698D01*
X89011362Y-101252632D01*
X88852397Y-100868857D01*
X88610213Y-100799392D01*
X87809605Y-101600000D01*
X87450395Y-101600000D01*
X86649787Y-100799392D01*
X86407603Y-100868857D01*
X86220856Y-101392302D01*
X83435000Y-101392302D01*
X83435000Y-99336661D01*
X86232758Y-99336661D01*
X86444990Y-99850303D01*
X86837630Y-100243629D01*
X87029727Y-100323395D01*
X86898857Y-100377603D01*
X86829392Y-100619787D01*
X87630000Y-101420395D01*
X88430608Y-100619787D01*
X88361143Y-100377603D01*
X88220682Y-100327491D01*
X88420303Y-100245010D01*
X88813629Y-99852370D01*
X89026757Y-99339100D01*
X89027242Y-98783339D01*
X88815010Y-98269697D01*
X88422370Y-97876371D01*
X87909100Y-97663243D01*
X87353339Y-97662758D01*
X86839697Y-97874990D01*
X86446371Y-98267630D01*
X86233243Y-98780900D01*
X86232758Y-99336661D01*
X83435000Y-99336661D01*
X83435000Y-96886580D01*
X84186579Y-96135000D01*
X91073420Y-96135000D01*
X91825000Y-96886579D01*
X91825000Y-102869995D01*
X91824999Y-102870000D01*
X91861799Y-103055000D01*
X91892367Y-103208675D01*
X92002024Y-103372789D01*
X92084210Y-103495790D01*
X93354208Y-104765787D01*
X93354210Y-104765790D01*
X93565863Y-104907211D01*
X93641325Y-104957633D01*
X93980000Y-105025001D01*
X93980005Y-105025000D01*
X100202560Y-105025000D01*
X100202560Y-105860000D01*
X100246838Y-106095317D01*
X100385910Y-106311441D01*
X100598110Y-106456431D01*
X100850000Y-106507440D01*
X102350000Y-106507440D01*
X102585317Y-106463162D01*
X102801441Y-106324090D01*
X102946431Y-106111890D01*
X102997440Y-105860000D01*
X102997440Y-104960000D01*
X102953162Y-104724683D01*
X102886022Y-104620345D01*
X102929543Y-104555212D01*
X103012134Y-104140000D01*
X102929543Y-103724788D01*
X102782685Y-103505000D01*
X102929543Y-103285212D01*
X103012134Y-102870000D01*
X102929543Y-102454788D01*
X102694345Y-102102789D01*
X102485000Y-101962909D01*
X102485000Y-100696580D01*
X102686739Y-100494840D01*
X103154187Y-100495248D01*
X103681800Y-100277243D01*
X104085824Y-99873923D01*
X104304750Y-99346691D01*
X104305248Y-98775813D01*
X104087243Y-98248200D01*
X103683923Y-97844176D01*
X103548046Y-97787755D01*
X103884698Y-97562811D01*
X104195767Y-97097264D01*
X104305000Y-96548113D01*
X104305000Y-96491887D01*
X104195767Y-95942736D01*
X103884698Y-95477189D01*
X103755000Y-95390527D01*
X103755000Y-93899432D01*
X103920054Y-93789147D01*
X104241961Y-93307378D01*
X104355000Y-92739093D01*
X104355000Y-92680907D01*
X104241961Y-92112622D01*
X103920054Y-91630853D01*
X103438285Y-91308946D01*
X102870000Y-91195907D01*
X102301715Y-91308946D01*
X101819946Y-91630853D01*
X101600000Y-91960026D01*
X101380054Y-91630853D01*
X100898285Y-91308946D01*
X100330000Y-91195907D01*
X99761715Y-91308946D01*
X99279946Y-91630853D01*
X99060000Y-91960026D01*
X98840054Y-91630853D01*
X98358285Y-91308946D01*
X97790000Y-91195907D01*
X97221715Y-91308946D01*
X96739946Y-91630853D01*
X96710597Y-91674777D01*
X96638327Y-91500302D01*
X96459699Y-91321673D01*
X96226310Y-91225000D01*
X95535750Y-91225000D01*
X95377000Y-91383750D01*
X95377000Y-92583000D01*
X95397000Y-92583000D01*
X95397000Y-92837000D01*
X95377000Y-92837000D01*
X95377000Y-94036250D01*
X95535750Y-94195000D01*
X96226310Y-94195000D01*
X96392088Y-94126332D01*
X95426438Y-95091983D01*
X95250000Y-95056887D01*
X94700849Y-95166120D01*
X94235302Y-95477189D01*
X93924233Y-95942736D01*
X93815000Y-96491887D01*
X93815000Y-96548113D01*
X93924233Y-97097264D01*
X94235302Y-97562811D01*
X94571710Y-97787592D01*
X94438200Y-97842757D01*
X94034176Y-98246077D01*
X93815250Y-98773309D01*
X93814752Y-99344187D01*
X94032757Y-99871800D01*
X94436077Y-100275824D01*
X94963309Y-100494750D01*
X95534187Y-100495248D01*
X96061800Y-100277243D01*
X96394623Y-99945000D01*
X97915829Y-99945000D01*
X98246077Y-100275824D01*
X98773309Y-100494750D01*
X99344187Y-100495248D01*
X99871800Y-100277243D01*
X100204623Y-99945000D01*
X100813320Y-99945000D01*
X100782367Y-99991325D01*
X100782367Y-99991326D01*
X100714999Y-100330000D01*
X100715000Y-100330005D01*
X100715000Y-101962909D01*
X100505655Y-102102789D01*
X100270457Y-102454788D01*
X100187866Y-102870000D01*
X100264447Y-103255000D01*
X94346579Y-103255000D01*
X93595000Y-102503420D01*
X93595000Y-96520005D01*
X93595001Y-96520000D01*
X93527633Y-96181325D01*
X93496680Y-96135000D01*
X93335790Y-95894210D01*
X93335787Y-95894208D01*
X92065790Y-94624210D01*
X92038222Y-94605790D01*
X91778675Y-94432367D01*
X91722484Y-94421190D01*
X91440000Y-94364999D01*
X91439995Y-94365000D01*
X83820005Y-94365000D01*
X83820000Y-94364999D01*
X83481325Y-94432367D01*
X83194210Y-94624210D01*
X83194208Y-94624213D01*
X81924210Y-95894210D01*
X81732367Y-96181325D01*
X81732367Y-96181326D01*
X81664999Y-96520000D01*
X81665000Y-96520005D01*
X81665000Y-110183178D01*
X81615162Y-110303201D01*
X81614838Y-110675167D01*
X73280994Y-110675167D01*
X73182370Y-110576371D01*
X72974488Y-110490051D01*
X73180303Y-110405010D01*
X73573629Y-110012370D01*
X73786757Y-109499100D01*
X73787242Y-108943339D01*
X73575010Y-108429697D01*
X73182370Y-108036371D01*
X72990273Y-107956605D01*
X73121143Y-107902397D01*
X73190608Y-107660213D01*
X72390000Y-106859605D01*
X71589392Y-107660213D01*
X71658857Y-107902397D01*
X71799318Y-107952509D01*
X71599697Y-108034990D01*
X71299163Y-108335000D01*
X68489779Y-108335000D01*
X68360054Y-108140853D01*
X67878285Y-107818946D01*
X67310000Y-107705907D01*
X66741715Y-107818946D01*
X66259946Y-108140853D01*
X66230597Y-108184777D01*
X66158327Y-108010302D01*
X65979699Y-107831673D01*
X65746310Y-107735000D01*
X65055750Y-107735000D01*
X64897000Y-107893750D01*
X64897000Y-109093000D01*
X64917000Y-109093000D01*
X64917000Y-109347000D01*
X64897000Y-109347000D01*
X64897000Y-111633000D01*
X64917000Y-111633000D01*
X64917000Y-111887000D01*
X64897000Y-111887000D01*
X64897000Y-113086250D01*
X65055750Y-113245000D01*
X65746310Y-113245000D01*
X65979699Y-113148327D01*
X66158327Y-112969698D01*
X66230597Y-112795223D01*
X66259946Y-112839147D01*
X66741715Y-113161054D01*
X67310000Y-113274093D01*
X67878285Y-113161054D01*
X68360054Y-112839147D01*
X68489779Y-112645000D01*
X71299522Y-112645000D01*
X71597630Y-112943629D01*
X71805512Y-113029949D01*
X71599697Y-113114990D01*
X71299163Y-113415000D01*
X63500005Y-113415000D01*
X63500000Y-113414999D01*
X63161325Y-113482367D01*
X62874210Y-113674210D01*
X62874208Y-113674213D01*
X61604210Y-114944210D01*
X61412367Y-115231325D01*
X61412367Y-115231326D01*
X61344999Y-115570000D01*
X61345000Y-115570005D01*
X61345000Y-118044447D01*
X60960000Y-117967866D01*
X60575000Y-118044447D01*
X60575000Y-115479779D01*
X60769147Y-115350054D01*
X61091054Y-114868285D01*
X61204093Y-114300000D01*
X61091054Y-113731715D01*
X60769147Y-113249946D01*
X60725223Y-113220597D01*
X60899698Y-113148327D01*
X61078327Y-112969699D01*
X61175000Y-112736310D01*
X61175000Y-112045750D01*
X63285000Y-112045750D01*
X63285000Y-112736309D01*
X63381673Y-112969698D01*
X63560301Y-113148327D01*
X63793690Y-113245000D01*
X64484250Y-113245000D01*
X64643000Y-113086250D01*
X64643000Y-111887000D01*
X63443750Y-111887000D01*
X63285000Y-112045750D01*
X61175000Y-112045750D01*
X61016250Y-111887000D01*
X59817000Y-111887000D01*
X59817000Y-111907000D01*
X59563000Y-111907000D01*
X59563000Y-111887000D01*
X58363750Y-111887000D01*
X58205000Y-112045750D01*
X58205000Y-112736310D01*
X58301673Y-112969699D01*
X58480302Y-113148327D01*
X58654777Y-113220597D01*
X58610853Y-113249946D01*
X58288946Y-113731715D01*
X58175907Y-114300000D01*
X58288946Y-114868285D01*
X58610853Y-115350054D01*
X58805000Y-115479779D01*
X58805000Y-118461939D01*
X58687591Y-118637654D01*
X58605000Y-119052866D01*
X58605000Y-119707134D01*
X58687591Y-120122346D01*
X58922789Y-120474345D01*
X59274788Y-120709543D01*
X59690000Y-120792134D01*
X60075000Y-120715553D01*
X60075000Y-121919995D01*
X60074999Y-121920000D01*
X60107870Y-122085248D01*
X60142367Y-122258675D01*
X60295787Y-122488285D01*
X60334210Y-122545790D01*
X60820767Y-123032347D01*
X60795000Y-123161887D01*
X60795000Y-123218113D01*
X60904233Y-123767264D01*
X61215302Y-124232811D01*
X61551710Y-124457592D01*
X61418200Y-124512757D01*
X61014176Y-124916077D01*
X60795250Y-125443309D01*
X60794752Y-126014187D01*
X61012757Y-126541800D01*
X61345000Y-126874623D01*
X61345000Y-127992560D01*
X61330000Y-127992560D01*
X61094683Y-128036838D01*
X60878559Y-128175910D01*
X60733569Y-128388110D01*
X60682560Y-128640000D01*
X60682560Y-130440000D01*
X60726838Y-130675317D01*
X60865910Y-130891441D01*
X61078110Y-131036431D01*
X61330000Y-131087440D01*
X63130000Y-131087440D01*
X63365317Y-131043162D01*
X63581441Y-130904090D01*
X63726431Y-130691890D01*
X63729719Y-130675656D01*
X64152509Y-130958155D01*
X64739928Y-131075000D01*
X64800072Y-131075000D01*
X65387491Y-130958155D01*
X65885481Y-130625409D01*
X66019390Y-130425000D01*
X71299522Y-130425000D01*
X71597630Y-130723629D01*
X71805512Y-130809949D01*
X71599697Y-130894990D01*
X71299163Y-131195000D01*
X68800854Y-131195000D01*
X68763162Y-130994683D01*
X68624090Y-130778559D01*
X68411890Y-130633569D01*
X68160000Y-130582560D01*
X66460000Y-130582560D01*
X66224683Y-130626838D01*
X66008559Y-130765910D01*
X65863569Y-130978110D01*
X65812560Y-131230000D01*
X65812560Y-132930000D01*
X65856838Y-133165317D01*
X65995910Y-133381441D01*
X66208110Y-133526431D01*
X66275541Y-133540086D01*
X66230853Y-133569946D01*
X65908946Y-134051715D01*
X65795907Y-134620000D01*
X65908946Y-135188285D01*
X66230853Y-135670054D01*
X66712622Y-135991961D01*
X67280907Y-136105000D01*
X67339093Y-136105000D01*
X67907378Y-135991961D01*
X68389147Y-135670054D01*
X68499432Y-135505000D01*
X71299522Y-135505000D01*
X71597630Y-135803629D01*
X72110900Y-136016757D01*
X72666661Y-136017242D01*
X73180303Y-135805010D01*
X73573629Y-135412370D01*
X73786757Y-134899100D01*
X73787242Y-134343339D01*
X73575010Y-133829697D01*
X73182370Y-133436371D01*
X72974488Y-133350051D01*
X73180303Y-133265010D01*
X73573629Y-132872370D01*
X73786757Y-132359100D01*
X73787242Y-131803339D01*
X73575010Y-131289697D01*
X73182370Y-130896371D01*
X72974488Y-130810051D01*
X73180303Y-130725010D01*
X73573629Y-130332370D01*
X73786757Y-129819100D01*
X73787242Y-129263339D01*
X73575010Y-128749697D01*
X73182370Y-128356371D01*
X72974488Y-128270051D01*
X73180303Y-128185010D01*
X73573629Y-127792370D01*
X73786757Y-127279100D01*
X73787242Y-126723339D01*
X73575010Y-126209697D01*
X73182370Y-125816371D01*
X72974488Y-125730051D01*
X73180303Y-125645010D01*
X73573629Y-125252370D01*
X73786757Y-124739100D01*
X73787242Y-124183339D01*
X73575010Y-123669697D01*
X73182370Y-123276371D01*
X72974488Y-123190051D01*
X73180303Y-123105010D01*
X73573629Y-122712370D01*
X73786757Y-122199100D01*
X73787242Y-121643339D01*
X73575010Y-121129697D01*
X73182370Y-120736371D01*
X72974488Y-120650051D01*
X73180303Y-120565010D01*
X73480837Y-120265000D01*
X78373420Y-120265000D01*
X79125000Y-121016579D01*
X79125000Y-135889995D01*
X79124999Y-135890000D01*
X79150310Y-136017242D01*
X79192367Y-136228675D01*
X79270812Y-136346077D01*
X79384210Y-136515790D01*
X80613421Y-137745000D01*
X55295000Y-137745000D01*
X55295000Y-134923991D01*
X59424735Y-134923991D01*
X59657932Y-135488371D01*
X60089357Y-135920551D01*
X60653330Y-136154733D01*
X61263991Y-136155265D01*
X61828371Y-135922068D01*
X62005841Y-135744908D01*
X62061673Y-135879699D01*
X62240302Y-136058327D01*
X62473691Y-136155000D01*
X63214250Y-136155000D01*
X63373000Y-135996250D01*
X63373000Y-134747000D01*
X63627000Y-134747000D01*
X63627000Y-135996250D01*
X63785750Y-136155000D01*
X64526309Y-136155000D01*
X64759698Y-136058327D01*
X64938327Y-135879699D01*
X65035000Y-135646310D01*
X65035000Y-134905750D01*
X64876250Y-134747000D01*
X63627000Y-134747000D01*
X63373000Y-134747000D01*
X63353000Y-134747000D01*
X63353000Y-134493000D01*
X63373000Y-134493000D01*
X63373000Y-133243750D01*
X63627000Y-133243750D01*
X63627000Y-134493000D01*
X64876250Y-134493000D01*
X65035000Y-134334250D01*
X65035000Y-133593690D01*
X64938327Y-133360301D01*
X64759698Y-133181673D01*
X64526309Y-133085000D01*
X63785750Y-133085000D01*
X63627000Y-133243750D01*
X63373000Y-133243750D01*
X63214250Y-133085000D01*
X62473691Y-133085000D01*
X62240302Y-133181673D01*
X62061673Y-133360301D01*
X62005881Y-133494994D01*
X61830643Y-133319449D01*
X61266670Y-133085267D01*
X60656009Y-133084735D01*
X60091629Y-133317932D01*
X59659449Y-133749357D01*
X59425267Y-134313330D01*
X59424735Y-134923991D01*
X55295000Y-134923991D01*
X55295000Y-110783690D01*
X58205000Y-110783690D01*
X58205000Y-111474250D01*
X58363750Y-111633000D01*
X59563000Y-111633000D01*
X59563000Y-110433750D01*
X59817000Y-110433750D01*
X59817000Y-111633000D01*
X61016250Y-111633000D01*
X61175000Y-111474250D01*
X61175000Y-110783690D01*
X61078327Y-110550301D01*
X60899698Y-110371673D01*
X60666309Y-110275000D01*
X59975750Y-110275000D01*
X59817000Y-110433750D01*
X59563000Y-110433750D01*
X59404250Y-110275000D01*
X58713691Y-110275000D01*
X58480302Y-110371673D01*
X58301673Y-110550301D01*
X58205000Y-110783690D01*
X55295000Y-110783690D01*
X55295000Y-109505750D01*
X63285000Y-109505750D01*
X63285000Y-110196309D01*
X63381673Y-110429698D01*
X63441975Y-110490000D01*
X63381673Y-110550302D01*
X63285000Y-110783691D01*
X63285000Y-111474250D01*
X63443750Y-111633000D01*
X64643000Y-111633000D01*
X64643000Y-109347000D01*
X63443750Y-109347000D01*
X63285000Y-109505750D01*
X55295000Y-109505750D01*
X55295000Y-96520000D01*
X58175907Y-96520000D01*
X58288946Y-97088285D01*
X58610853Y-97570054D01*
X58805000Y-97699779D01*
X58805000Y-99185829D01*
X58474176Y-99516077D01*
X58255250Y-100043309D01*
X58254752Y-100614187D01*
X58472757Y-101141800D01*
X58876077Y-101545824D01*
X59011954Y-101602245D01*
X58675302Y-101827189D01*
X58364233Y-102292736D01*
X58255000Y-102841887D01*
X58255000Y-102898113D01*
X58364233Y-103447264D01*
X58675302Y-103912811D01*
X58805000Y-103999473D01*
X58805000Y-104502909D01*
X58595655Y-104642789D01*
X58360457Y-104994788D01*
X58277866Y-105410000D01*
X58360457Y-105825212D01*
X58507315Y-106045000D01*
X58360457Y-106264788D01*
X58277866Y-106680000D01*
X58360457Y-107095212D01*
X58403759Y-107160019D01*
X58343569Y-107248110D01*
X58292560Y-107500000D01*
X58292560Y-108400000D01*
X58336838Y-108635317D01*
X58475910Y-108851441D01*
X58688110Y-108996431D01*
X58940000Y-109047440D01*
X60440000Y-109047440D01*
X60675317Y-109003162D01*
X60891441Y-108864090D01*
X61036431Y-108651890D01*
X61087440Y-108400000D01*
X61087440Y-108243691D01*
X63285000Y-108243691D01*
X63285000Y-108934250D01*
X63443750Y-109093000D01*
X64643000Y-109093000D01*
X64643000Y-107893750D01*
X64484250Y-107735000D01*
X63793690Y-107735000D01*
X63560301Y-107831673D01*
X63381673Y-108010302D01*
X63285000Y-108243691D01*
X61087440Y-108243691D01*
X61087440Y-107500000D01*
X61043162Y-107264683D01*
X60976022Y-107160345D01*
X61019543Y-107095212D01*
X61102134Y-106680000D01*
X61060821Y-106472302D01*
X70980856Y-106472302D01*
X71008638Y-107027368D01*
X71167603Y-107411143D01*
X71409787Y-107480608D01*
X72210395Y-106680000D01*
X72569605Y-106680000D01*
X73370213Y-107480608D01*
X73612397Y-107411143D01*
X73799144Y-106887698D01*
X73771362Y-106332632D01*
X73612397Y-105948857D01*
X73370213Y-105879392D01*
X72569605Y-106680000D01*
X72210395Y-106680000D01*
X71409787Y-105879392D01*
X71167603Y-105948857D01*
X70980856Y-106472302D01*
X61060821Y-106472302D01*
X61019543Y-106264788D01*
X60872685Y-106045000D01*
X61019543Y-105825212D01*
X61102134Y-105410000D01*
X61019543Y-104994788D01*
X60784345Y-104642789D01*
X60575000Y-104502909D01*
X60575000Y-103999473D01*
X60704698Y-103912811D01*
X61015767Y-103447264D01*
X61125000Y-102898113D01*
X61125000Y-102841887D01*
X61015767Y-102292736D01*
X60786118Y-101949041D01*
X62108086Y-101949041D01*
X62347611Y-102455134D01*
X62762577Y-102831041D01*
X63150961Y-102991904D01*
X63373000Y-102869915D01*
X63373000Y-101727000D01*
X63627000Y-101727000D01*
X63627000Y-102869915D01*
X63849039Y-102991904D01*
X64237423Y-102831041D01*
X64652389Y-102455134D01*
X64891914Y-101949041D01*
X64770629Y-101727000D01*
X63627000Y-101727000D01*
X63373000Y-101727000D01*
X62229371Y-101727000D01*
X62108086Y-101949041D01*
X60786118Y-101949041D01*
X60704698Y-101827189D01*
X60368290Y-101602408D01*
X60501800Y-101547243D01*
X60905824Y-101143923D01*
X61124750Y-100616691D01*
X61125248Y-100045813D01*
X60907243Y-99518200D01*
X60575000Y-99185377D01*
X60575000Y-97699779D01*
X60769147Y-97570054D01*
X61091054Y-97088285D01*
X61204093Y-96520000D01*
X61091054Y-95951715D01*
X60769147Y-95469946D01*
X60725223Y-95440597D01*
X60899698Y-95368327D01*
X61078327Y-95189699D01*
X61175000Y-94956310D01*
X61175000Y-94265750D01*
X61016250Y-94107000D01*
X59817000Y-94107000D01*
X59817000Y-94127000D01*
X59563000Y-94127000D01*
X59563000Y-94107000D01*
X58363750Y-94107000D01*
X58205000Y-94265750D01*
X58205000Y-94956310D01*
X58301673Y-95189699D01*
X58480302Y-95368327D01*
X58654777Y-95440597D01*
X58610853Y-95469946D01*
X58288946Y-95951715D01*
X58175907Y-96520000D01*
X55295000Y-96520000D01*
X55295000Y-93003690D01*
X58205000Y-93003690D01*
X58205000Y-93694250D01*
X58363750Y-93853000D01*
X59563000Y-93853000D01*
X59563000Y-92653750D01*
X59817000Y-92653750D01*
X59817000Y-93853000D01*
X61016250Y-93853000D01*
X61175000Y-93694250D01*
X61175000Y-93003690D01*
X61078327Y-92770301D01*
X60899698Y-92591673D01*
X60666309Y-92495000D01*
X59975750Y-92495000D01*
X59817000Y-92653750D01*
X59563000Y-92653750D01*
X59404250Y-92495000D01*
X58713691Y-92495000D01*
X58480302Y-92591673D01*
X58301673Y-92770301D01*
X58205000Y-93003690D01*
X55295000Y-93003690D01*
X55295000Y-64185000D01*
X57035703Y-64185000D01*
X56943989Y-64322260D01*
X56943989Y-64322260D01*
G37*
X56943989Y-64322260D02*
X56854928Y-64770000D01*
X56943989Y-65217740D01*
X57069112Y-65405000D01*
X56943989Y-65592260D01*
X56854928Y-66040000D01*
X56943989Y-66487740D01*
X56948729Y-66494835D01*
X56885000Y-66648691D01*
X56885000Y-67024250D01*
X57043750Y-67183000D01*
X57889190Y-67183000D01*
X58024928Y-67210000D01*
X58567000Y-67210000D01*
X58567000Y-67410000D01*
X58024928Y-67410000D01*
X57889190Y-67437000D01*
X57043750Y-67437000D01*
X56885000Y-67595750D01*
X56885000Y-67971309D01*
X56948729Y-68125165D01*
X56943989Y-68132260D01*
X56854928Y-68580000D01*
X56943989Y-69027740D01*
X57197613Y-69407315D01*
X57577188Y-69660939D01*
X58024928Y-69750000D01*
X58815072Y-69750000D01*
X59262812Y-69660939D01*
X59642387Y-69407315D01*
X59896011Y-69027740D01*
X59985072Y-68580000D01*
X59896011Y-68132260D01*
X59891271Y-68125165D01*
X59955000Y-67971309D01*
X59955000Y-67595750D01*
X59796252Y-67437002D01*
X59835423Y-67437002D01*
X60075000Y-67676579D01*
X60075000Y-77103421D01*
X59835423Y-77342998D01*
X59796252Y-77342998D01*
X59955000Y-77184250D01*
X59955000Y-76808691D01*
X59891271Y-76654835D01*
X59896011Y-76647740D01*
X59985072Y-76200000D01*
X59896011Y-75752260D01*
X59642387Y-75372685D01*
X59262812Y-75119061D01*
X58815072Y-75030000D01*
X58024928Y-75030000D01*
X57577188Y-75119061D01*
X57197613Y-75372685D01*
X56943989Y-75752260D01*
X56854928Y-76200000D01*
X56943989Y-76647740D01*
X56948729Y-76654835D01*
X56885000Y-76808691D01*
X56885000Y-77184250D01*
X57043750Y-77343000D01*
X57889190Y-77343000D01*
X58024928Y-77370000D01*
X58567000Y-77370000D01*
X58567000Y-77570000D01*
X58024928Y-77570000D01*
X57889190Y-77597000D01*
X57043750Y-77597000D01*
X56885000Y-77755750D01*
X56885000Y-78131309D01*
X56948729Y-78285165D01*
X56943989Y-78292260D01*
X56854928Y-78740000D01*
X56943989Y-79187740D01*
X57069112Y-79375000D01*
X56943989Y-79562260D01*
X56854928Y-80010000D01*
X56943989Y-80457740D01*
X57197613Y-80837315D01*
X57577188Y-81090939D01*
X58024928Y-81180000D01*
X58815072Y-81180000D01*
X59262812Y-81090939D01*
X59642387Y-80837315D01*
X59896011Y-80457740D01*
X59985072Y-80010000D01*
X59900175Y-79583194D01*
X59972484Y-79568810D01*
X60028675Y-79557633D01*
X60315790Y-79365790D01*
X60315791Y-79365789D01*
X61585787Y-78095792D01*
X61585790Y-78095790D01*
X61777633Y-77808675D01*
X61777633Y-77808674D01*
X61845001Y-77470000D01*
X61845000Y-77469995D01*
X61845000Y-73630907D01*
X62015000Y-73630907D01*
X62015000Y-73689093D01*
X62128039Y-74257378D01*
X62449946Y-74739147D01*
X62931715Y-75061054D01*
X63500000Y-75174093D01*
X64068285Y-75061054D01*
X64550054Y-74739147D01*
X64770000Y-74409974D01*
X64989946Y-74739147D01*
X65155000Y-74849432D01*
X65155000Y-97939856D01*
X64997189Y-98045302D01*
X64910527Y-98175000D01*
X64644171Y-98175000D01*
X64313923Y-97844176D01*
X63786691Y-97625250D01*
X63215813Y-97624752D01*
X62688200Y-97842757D01*
X62284176Y-98246077D01*
X62065250Y-98773309D01*
X62064752Y-99344187D01*
X62282757Y-99871800D01*
X62686077Y-100275824D01*
X62836568Y-100338313D01*
X62762577Y-100368959D01*
X62347611Y-100744866D01*
X62108086Y-101250959D01*
X62229371Y-101473000D01*
X63373000Y-101473000D01*
X63373000Y-101453000D01*
X63627000Y-101453000D01*
X63627000Y-101473000D01*
X64770629Y-101473000D01*
X64891914Y-101250959D01*
X64652389Y-100744866D01*
X64237423Y-100368959D01*
X64163715Y-100338430D01*
X64311800Y-100277243D01*
X64644623Y-99945000D01*
X64910527Y-99945000D01*
X64997189Y-100074698D01*
X65462736Y-100385767D01*
X66011887Y-100495000D01*
X66068113Y-100495000D01*
X66617264Y-100385767D01*
X67082811Y-100074698D01*
X67307592Y-99738290D01*
X67362757Y-99871800D01*
X67766077Y-100275824D01*
X68293309Y-100494750D01*
X68864187Y-100495248D01*
X69391800Y-100277243D01*
X69724623Y-99945000D01*
X71299522Y-99945000D01*
X71597630Y-100243629D01*
X71805512Y-100329949D01*
X71599697Y-100414990D01*
X71206371Y-100807630D01*
X70993243Y-101320900D01*
X70992758Y-101876661D01*
X71204990Y-102390303D01*
X71597630Y-102783629D01*
X71805512Y-102869949D01*
X71599697Y-102954990D01*
X71206371Y-103347630D01*
X70993243Y-103860900D01*
X70992758Y-104416661D01*
X71204990Y-104930303D01*
X71597630Y-105323629D01*
X71789727Y-105403395D01*
X71658857Y-105457603D01*
X71589392Y-105699787D01*
X72390000Y-106500395D01*
X73190608Y-105699787D01*
X73121143Y-105457603D01*
X72980682Y-105407491D01*
X73180303Y-105325010D01*
X73573629Y-104932370D01*
X73786757Y-104419100D01*
X73787242Y-103863339D01*
X73575010Y-103349697D01*
X73182370Y-102956371D01*
X72974488Y-102870051D01*
X73180303Y-102785010D01*
X73480837Y-102485000D01*
X73659995Y-102485000D01*
X73660000Y-102485001D01*
X73942484Y-102428810D01*
X73998675Y-102417633D01*
X74285790Y-102225790D01*
X75555787Y-100955792D01*
X75555790Y-100955790D01*
X75747633Y-100668675D01*
X75747633Y-100668674D01*
X75815001Y-100330000D01*
X75815000Y-100329995D01*
X75815000Y-97790005D01*
X75815001Y-97790000D01*
X75747633Y-97451325D01*
X75716680Y-97405000D01*
X75555790Y-97164210D01*
X75555787Y-97164208D01*
X74285790Y-95894210D01*
X74258222Y-95875790D01*
X73998675Y-95702367D01*
X73942484Y-95691190D01*
X73660000Y-95634999D01*
X73659995Y-95635000D01*
X68946579Y-95635000D01*
X68195000Y-94883420D01*
X68195000Y-92995750D01*
X93765000Y-92995750D01*
X93765000Y-93686309D01*
X93861673Y-93919698D01*
X94040301Y-94098327D01*
X94273690Y-94195000D01*
X94964250Y-94195000D01*
X95123000Y-94036250D01*
X95123000Y-92837000D01*
X93923750Y-92837000D01*
X93765000Y-92995750D01*
X68195000Y-92995750D01*
X68195000Y-91733691D01*
X93765000Y-91733691D01*
X93765000Y-92424250D01*
X93923750Y-92583000D01*
X95123000Y-92583000D01*
X95123000Y-91383750D01*
X94964250Y-91225000D01*
X94273690Y-91225000D01*
X94040301Y-91321673D01*
X93861673Y-91500302D01*
X93765000Y-91733691D01*
X68195000Y-91733691D01*
X68195000Y-90141887D01*
X72225000Y-90141887D01*
X72225000Y-90198113D01*
X72334233Y-90747264D01*
X72645302Y-91212811D01*
X73110849Y-91523880D01*
X73660000Y-91633113D01*
X74209151Y-91523880D01*
X74674698Y-91212811D01*
X74930000Y-90830725D01*
X75185302Y-91212811D01*
X75650849Y-91523880D01*
X76200000Y-91633113D01*
X76749151Y-91523880D01*
X77214698Y-91212811D01*
X77470000Y-90830725D01*
X77725302Y-91212811D01*
X78190849Y-91523880D01*
X78740000Y-91633113D01*
X79289151Y-91523880D01*
X79754698Y-91212811D01*
X80010000Y-90830725D01*
X80265302Y-91212811D01*
X80730849Y-91523880D01*
X81280000Y-91633113D01*
X81829151Y-91523880D01*
X82294698Y-91212811D01*
X82550000Y-90830725D01*
X82805302Y-91212811D01*
X83270849Y-91523880D01*
X83820000Y-91633113D01*
X84369151Y-91523880D01*
X84834698Y-91212811D01*
X85090000Y-90830725D01*
X85345302Y-91212811D01*
X85810849Y-91523880D01*
X86360000Y-91633113D01*
X86909151Y-91523880D01*
X87374698Y-91212811D01*
X87630000Y-90830725D01*
X87885302Y-91212811D01*
X88350849Y-91523880D01*
X88900000Y-91633113D01*
X89449151Y-91523880D01*
X89914698Y-91212811D01*
X90170000Y-90830725D01*
X90425302Y-91212811D01*
X90890849Y-91523880D01*
X91440000Y-91633113D01*
X91989151Y-91523880D01*
X92454698Y-91212811D01*
X92765767Y-90747264D01*
X92875000Y-90198113D01*
X92875000Y-90141887D01*
X92765767Y-89592736D01*
X92454698Y-89127189D01*
X91989151Y-88816120D01*
X91440000Y-88706887D01*
X90890849Y-88816120D01*
X90425302Y-89127189D01*
X90170000Y-89509275D01*
X89914698Y-89127189D01*
X89449151Y-88816120D01*
X88900000Y-88706887D01*
X88350849Y-88816120D01*
X87885302Y-89127189D01*
X87630000Y-89509275D01*
X87374698Y-89127189D01*
X86909151Y-88816120D01*
X86360000Y-88706887D01*
X85810849Y-88816120D01*
X85345302Y-89127189D01*
X85090000Y-89509275D01*
X84834698Y-89127189D01*
X84369151Y-88816120D01*
X83820000Y-88706887D01*
X83270849Y-88816120D01*
X82805302Y-89127189D01*
X82550000Y-89509275D01*
X82294698Y-89127189D01*
X81829151Y-88816120D01*
X81280000Y-88706887D01*
X80730849Y-88816120D01*
X80265302Y-89127189D01*
X80010000Y-89509275D01*
X79754698Y-89127189D01*
X79289151Y-88816120D01*
X78740000Y-88706887D01*
X78190849Y-88816120D01*
X77725302Y-89127189D01*
X77470000Y-89509275D01*
X77214698Y-89127189D01*
X76749151Y-88816120D01*
X76200000Y-88706887D01*
X75650849Y-88816120D01*
X75185302Y-89127189D01*
X74930000Y-89509275D01*
X74674698Y-89127189D01*
X74209151Y-88816120D01*
X73660000Y-88706887D01*
X73110849Y-88816120D01*
X72645302Y-89127189D01*
X72334233Y-89592736D01*
X72225000Y-90141887D01*
X68195000Y-90141887D01*
X68195000Y-82899041D01*
X72268086Y-82899041D01*
X72507611Y-83405134D01*
X72922577Y-83781041D01*
X73310961Y-83941904D01*
X73533000Y-83819915D01*
X73533000Y-82677000D01*
X72389371Y-82677000D01*
X72268086Y-82899041D01*
X68195000Y-82899041D01*
X68195000Y-82200959D01*
X72268086Y-82200959D01*
X72389371Y-82423000D01*
X73533000Y-82423000D01*
X73533000Y-81280085D01*
X73310961Y-81158096D01*
X72922577Y-81318959D01*
X72507611Y-81694866D01*
X72268086Y-82200959D01*
X68195000Y-82200959D01*
X68195000Y-77776822D01*
X68244838Y-77656799D01*
X68245162Y-77284833D01*
X68103117Y-76941057D01*
X67840327Y-76677808D01*
X67496799Y-76535162D01*
X67124833Y-76534838D01*
X66925000Y-76617407D01*
X66925000Y-74849432D01*
X67090054Y-74739147D01*
X67317702Y-74398447D01*
X67384817Y-74541358D01*
X67813076Y-74931645D01*
X68223110Y-75101476D01*
X68453000Y-74980155D01*
X68453000Y-73787000D01*
X68433000Y-73787000D01*
X68433000Y-73533000D01*
X68453000Y-73533000D01*
X68453000Y-72339845D01*
X68707000Y-72339845D01*
X68707000Y-73533000D01*
X68727000Y-73533000D01*
X68727000Y-73787000D01*
X68707000Y-73787000D01*
X68707000Y-74980155D01*
X68936890Y-75101476D01*
X69346924Y-74931645D01*
X69649937Y-74655499D01*
X69666838Y-74745317D01*
X69805910Y-74961441D01*
X70018110Y-75106431D01*
X70270000Y-75157440D01*
X71970000Y-75157440D01*
X72205317Y-75113162D01*
X72421441Y-74974090D01*
X72566431Y-74761890D01*
X72617440Y-74510000D01*
X72617440Y-72810000D01*
X72573162Y-72574683D01*
X72434090Y-72358559D01*
X72221890Y-72213569D01*
X71970000Y-72162560D01*
X70270000Y-72162560D01*
X70034683Y-72206838D01*
X69818559Y-72345910D01*
X69673569Y-72558110D01*
X69651699Y-72666107D01*
X69346924Y-72388355D01*
X68936890Y-72218524D01*
X68707000Y-72339845D01*
X68453000Y-72339845D01*
X68223110Y-72218524D01*
X67813076Y-72388355D01*
X67384817Y-72778642D01*
X67317702Y-72921553D01*
X67090054Y-72580853D01*
X66608285Y-72258946D01*
X66040000Y-72145907D01*
X65471715Y-72258946D01*
X64989946Y-72580853D01*
X64770000Y-72910026D01*
X64550054Y-72580853D01*
X64068285Y-72258946D01*
X63500000Y-72145907D01*
X62931715Y-72258946D01*
X62449946Y-72580853D01*
X62128039Y-73062622D01*
X62015000Y-73630907D01*
X61845000Y-73630907D01*
X61845000Y-67310005D01*
X61845001Y-67310000D01*
X61777633Y-66971325D01*
X61746680Y-66925000D01*
X63903421Y-66925000D01*
X63091164Y-67737256D01*
X62971057Y-67786883D01*
X62707808Y-68049673D01*
X62565162Y-68393201D01*
X62564838Y-68765167D01*
X62706883Y-69108943D01*
X62969673Y-69372192D01*
X63313201Y-69514838D01*
X63685167Y-69515162D01*
X64028943Y-69373117D01*
X64292192Y-69110327D01*
X64342566Y-68989014D01*
X65136579Y-68195000D01*
X78739995Y-68195000D01*
X78740000Y-68195001D01*
X79022484Y-68138810D01*
X79078675Y-68127633D01*
X79365790Y-67935790D01*
X79365791Y-67935789D01*
X80376579Y-66925000D01*
X91073420Y-66925000D01*
X91695084Y-67546663D01*
X91667189Y-67565302D01*
X91442408Y-67901710D01*
X91387243Y-67768200D01*
X90983923Y-67364176D01*
X90456691Y-67145250D01*
X89885813Y-67144752D01*
X89358200Y-67362757D01*
X88954176Y-67766077D01*
X88735250Y-68293309D01*
X88734752Y-68864187D01*
X88952757Y-69391800D01*
X89285000Y-69724623D01*
X89285000Y-71245829D01*
X89025377Y-71505000D01*
X87630005Y-71505000D01*
X87630000Y-71504999D01*
X87291325Y-71572367D01*
X87004210Y-71764210D01*
X87004208Y-71764213D01*
X85734210Y-73034210D01*
X85542367Y-73321325D01*
X85542367Y-73321326D01*
X85474999Y-73660000D01*
X85475000Y-73660005D01*
X85475000Y-75281939D01*
X85357591Y-75457654D01*
X85275000Y-75872866D01*
X85275000Y-76527134D01*
X85357591Y-76942346D01*
X85592789Y-77294345D01*
X85944788Y-77529543D01*
X86256812Y-77591609D01*
X83194210Y-80654210D01*
X83002367Y-80941325D01*
X83002367Y-80941326D01*
X82934999Y-81280000D01*
X82935000Y-81280005D01*
X82935000Y-81420527D01*
X82805302Y-81507189D01*
X82550000Y-81889275D01*
X82294698Y-81507189D01*
X82165000Y-81420527D01*
X82165000Y-80376580D01*
X84445787Y-78095792D01*
X84445790Y-78095790D01*
X84637633Y-77808675D01*
X84705000Y-77470000D01*
X84705000Y-72517440D01*
X85540000Y-72517440D01*
X85775317Y-72473162D01*
X85991441Y-72334090D01*
X86136431Y-72121890D01*
X86187440Y-71870000D01*
X86187440Y-70370000D01*
X86143162Y-70134683D01*
X86004090Y-69918559D01*
X85791890Y-69773569D01*
X85540000Y-69722560D01*
X84640000Y-69722560D01*
X84404683Y-69766838D01*
X84300345Y-69833978D01*
X84235212Y-69790457D01*
X83820000Y-69707866D01*
X83404788Y-69790457D01*
X83185000Y-69937315D01*
X82965212Y-69790457D01*
X82550000Y-69707866D01*
X82416083Y-69734504D01*
X81905790Y-69224210D01*
X81763523Y-69129151D01*
X81618675Y-69032367D01*
X81562484Y-69021190D01*
X81280000Y-68964999D01*
X81279995Y-68965000D01*
X79884171Y-68965000D01*
X79553923Y-68634176D01*
X79026691Y-68415250D01*
X78455813Y-68414752D01*
X77928200Y-68632757D01*
X77524176Y-69036077D01*
X77467755Y-69171954D01*
X77242811Y-68835302D01*
X76777264Y-68524233D01*
X76228113Y-68415000D01*
X76171887Y-68415000D01*
X75622736Y-68524233D01*
X75157189Y-68835302D01*
X74846120Y-69300849D01*
X74736887Y-69850000D01*
X74846120Y-70399151D01*
X75157189Y-70864698D01*
X75622736Y-71175767D01*
X76171887Y-71285000D01*
X76228113Y-71285000D01*
X76777264Y-71175767D01*
X77242811Y-70864698D01*
X77467592Y-70528290D01*
X77522757Y-70661800D01*
X77926077Y-71065824D01*
X78453309Y-71284750D01*
X79024187Y-71285248D01*
X79551800Y-71067243D01*
X79884623Y-70735000D01*
X80913420Y-70735000D01*
X81465000Y-71286579D01*
X81465000Y-71447134D01*
X81547591Y-71862346D01*
X81782789Y-72214345D01*
X82134788Y-72449543D01*
X82550000Y-72532134D01*
X82935000Y-72455553D01*
X82935000Y-77103421D01*
X80654210Y-79384210D01*
X80462367Y-79671325D01*
X80462367Y-79671326D01*
X80394999Y-80010000D01*
X80395000Y-80010005D01*
X80395000Y-81420527D01*
X80265302Y-81507189D01*
X80010000Y-81889275D01*
X79754698Y-81507189D01*
X79625000Y-81420527D01*
X79625000Y-80376580D01*
X80635787Y-79365792D01*
X80635790Y-79365790D01*
X80827633Y-79078675D01*
X80827633Y-79078674D01*
X80895001Y-78740000D01*
X80895000Y-78739995D01*
X80895000Y-77597440D01*
X81730000Y-77597440D01*
X81965317Y-77553162D01*
X82181441Y-77414090D01*
X82326431Y-77201890D01*
X82377440Y-76950000D01*
X82377440Y-75450000D01*
X82333162Y-75214683D01*
X82194090Y-74998559D01*
X81981890Y-74853569D01*
X81730000Y-74802560D01*
X80830000Y-74802560D01*
X80594683Y-74846838D01*
X80490345Y-74913978D01*
X80425212Y-74870457D01*
X80010000Y-74787866D01*
X79594788Y-74870457D01*
X79375000Y-75017315D01*
X79155212Y-74870457D01*
X78740000Y-74787866D01*
X78324788Y-74870457D01*
X77972789Y-75105655D01*
X77832909Y-75315000D01*
X76074171Y-75315000D01*
X75743923Y-74984176D01*
X75608046Y-74927755D01*
X75944698Y-74702811D01*
X76255767Y-74237264D01*
X76365000Y-73688113D01*
X76365000Y-73631887D01*
X76255767Y-73082736D01*
X75944698Y-72617189D01*
X75479151Y-72306120D01*
X74930000Y-72196887D01*
X74380849Y-72306120D01*
X73915302Y-72617189D01*
X73604233Y-73082736D01*
X73495000Y-73631887D01*
X73495000Y-73688113D01*
X73604233Y-74237264D01*
X73915302Y-74702811D01*
X74251710Y-74927592D01*
X74118200Y-74982757D01*
X73714176Y-75386077D01*
X73495250Y-75913309D01*
X73494752Y-76484187D01*
X73712757Y-77011800D01*
X74116077Y-77415824D01*
X74643309Y-77634750D01*
X75214187Y-77635248D01*
X75741800Y-77417243D01*
X76074623Y-77085000D01*
X77832909Y-77085000D01*
X77972789Y-77294345D01*
X78324788Y-77529543D01*
X78740000Y-77612134D01*
X79125000Y-77535553D01*
X79125000Y-78373421D01*
X78114210Y-79384210D01*
X77922367Y-79671325D01*
X77922367Y-79671326D01*
X77854999Y-80010000D01*
X77855000Y-80010005D01*
X77855000Y-81420527D01*
X77725302Y-81507189D01*
X77470000Y-81889275D01*
X77214698Y-81507189D01*
X76749151Y-81196120D01*
X76200000Y-81086887D01*
X75650849Y-81196120D01*
X75185302Y-81507189D01*
X74915014Y-81911703D01*
X74812389Y-81694866D01*
X74397423Y-81318959D01*
X74009039Y-81158096D01*
X73787000Y-81280085D01*
X73787000Y-82423000D01*
X73807000Y-82423000D01*
X73807000Y-82677000D01*
X73787000Y-82677000D01*
X73787000Y-83819915D01*
X74009039Y-83941904D01*
X74397423Y-83781041D01*
X74812389Y-83405134D01*
X74915014Y-83188297D01*
X75185302Y-83592811D01*
X75650849Y-83903880D01*
X76200000Y-84013113D01*
X76749151Y-83903880D01*
X77214698Y-83592811D01*
X77470000Y-83210725D01*
X77725302Y-83592811D01*
X78190849Y-83903880D01*
X78740000Y-84013113D01*
X79289151Y-83903880D01*
X79754698Y-83592811D01*
X80010000Y-83210725D01*
X80265302Y-83592811D01*
X80730849Y-83903880D01*
X81280000Y-84013113D01*
X81829151Y-83903880D01*
X82294698Y-83592811D01*
X82550000Y-83210725D01*
X82805302Y-83592811D01*
X83270849Y-83903880D01*
X83820000Y-84013113D01*
X84369151Y-83903880D01*
X84834698Y-83592811D01*
X85104986Y-83188297D01*
X85207611Y-83405134D01*
X85622577Y-83781041D01*
X86010961Y-83941904D01*
X86233000Y-83819915D01*
X86233000Y-82677000D01*
X86487000Y-82677000D01*
X86487000Y-83819915D01*
X86709039Y-83941904D01*
X87097423Y-83781041D01*
X87512389Y-83405134D01*
X87630000Y-83156633D01*
X87747611Y-83405134D01*
X88162577Y-83781041D01*
X88550961Y-83941904D01*
X88773000Y-83819915D01*
X88773000Y-82677000D01*
X89027000Y-82677000D01*
X89027000Y-83819915D01*
X89249039Y-83941904D01*
X89637423Y-83781041D01*
X90005000Y-83448062D01*
X90005000Y-83476309D01*
X90101673Y-83709698D01*
X90280301Y-83888327D01*
X90513690Y-83985000D01*
X91154250Y-83985000D01*
X91313000Y-83826250D01*
X91313000Y-82677000D01*
X91567000Y-82677000D01*
X91567000Y-83826250D01*
X91725750Y-83985000D01*
X92366310Y-83985000D01*
X92599699Y-83888327D01*
X92778327Y-83709698D01*
X92875000Y-83476309D01*
X92875000Y-82835750D01*
X92716250Y-82677000D01*
X91567000Y-82677000D01*
X91313000Y-82677000D01*
X89027000Y-82677000D01*
X88773000Y-82677000D01*
X86487000Y-82677000D01*
X86233000Y-82677000D01*
X86213000Y-82677000D01*
X86213000Y-82423000D01*
X86233000Y-82423000D01*
X86233000Y-81280085D01*
X86487000Y-81280085D01*
X86487000Y-82423000D01*
X88773000Y-82423000D01*
X88773000Y-81280085D01*
X89027000Y-81280085D01*
X89027000Y-82423000D01*
X91313000Y-82423000D01*
X91313000Y-81273750D01*
X91567000Y-81273750D01*
X91567000Y-82423000D01*
X92716250Y-82423000D01*
X92875000Y-82264250D01*
X92875000Y-81623691D01*
X92778327Y-81390302D01*
X92599699Y-81211673D01*
X92366310Y-81115000D01*
X91725750Y-81115000D01*
X91567000Y-81273750D01*
X91313000Y-81273750D01*
X91154250Y-81115000D01*
X90513690Y-81115000D01*
X90280301Y-81211673D01*
X90101673Y-81390302D01*
X90005000Y-81623691D01*
X90005000Y-81651938D01*
X89637423Y-81318959D01*
X89249039Y-81158096D01*
X89027000Y-81280085D01*
X88773000Y-81280085D01*
X88550961Y-81158096D01*
X88162577Y-81318959D01*
X87747611Y-81694866D01*
X87630000Y-81943367D01*
X87512389Y-81694866D01*
X87097423Y-81318959D01*
X86709039Y-81158096D01*
X86487000Y-81280085D01*
X86233000Y-81280085D01*
X86010961Y-81158096D01*
X85622577Y-81318959D01*
X85207611Y-81694866D01*
X85104986Y-81911703D01*
X84838580Y-81512999D01*
X88255787Y-78095792D01*
X88255790Y-78095790D01*
X88447633Y-77808675D01*
X88458810Y-77752484D01*
X88489651Y-77597440D01*
X89350000Y-77597440D01*
X89585317Y-77553162D01*
X89801441Y-77414090D01*
X89946431Y-77201890D01*
X89997440Y-76950000D01*
X89997440Y-75450000D01*
X89953162Y-75214683D01*
X89814090Y-74998559D01*
X89601890Y-74853569D01*
X89350000Y-74802560D01*
X88450000Y-74802560D01*
X88214683Y-74846838D01*
X88110345Y-74913978D01*
X88045212Y-74870457D01*
X87630000Y-74787866D01*
X87245000Y-74864447D01*
X87245000Y-74026580D01*
X87996579Y-73275000D01*
X89025829Y-73275000D01*
X89356077Y-73605824D01*
X89883309Y-73824750D01*
X90454187Y-73825248D01*
X90981800Y-73607243D01*
X91385824Y-73203923D01*
X91442245Y-73068046D01*
X91667189Y-73404698D01*
X92132736Y-73715767D01*
X92681887Y-73825000D01*
X92738113Y-73825000D01*
X93287264Y-73715767D01*
X93752811Y-73404698D01*
X94063880Y-72939151D01*
X94173113Y-72390000D01*
X94063880Y-71840849D01*
X93752811Y-71375302D01*
X93595000Y-71269856D01*
X93595000Y-69700144D01*
X93752811Y-69594698D01*
X94063880Y-69129151D01*
X94173113Y-68580000D01*
X94063880Y-68030849D01*
X93752811Y-67565302D01*
X93595000Y-67459856D01*
X93595000Y-67310005D01*
X93595001Y-67310000D01*
X93527633Y-66971325D01*
X93458136Y-66867315D01*
X93335790Y-66684210D01*
X93335787Y-66684208D01*
X92065790Y-65414210D01*
X91816750Y-65247808D01*
X91778675Y-65222367D01*
X91722484Y-65211190D01*
X91440000Y-65154999D01*
X91439995Y-65155000D01*
X80010005Y-65155000D01*
X80010000Y-65154999D01*
X79719999Y-65212685D01*
X79671325Y-65222367D01*
X79384210Y-65414210D01*
X79384208Y-65414213D01*
X78373420Y-66425000D01*
X77052537Y-66425000D01*
X77134838Y-66226799D01*
X77135162Y-65854833D01*
X76993117Y-65511057D01*
X76730327Y-65247808D01*
X76386799Y-65105162D01*
X76014833Y-65104838D01*
X75893431Y-65155000D01*
X59908491Y-65155000D01*
X59985072Y-64770000D01*
X59896011Y-64322260D01*
X59804297Y-64185000D01*
X99663421Y-64185000D01*
X97164210Y-66684210D01*
X96972367Y-66971325D01*
X96972367Y-66971326D01*
X96904999Y-67310000D01*
X96905000Y-67310005D01*
X96905000Y-77469995D01*
X96904999Y-77470000D01*
X96961190Y-77752484D01*
X96972367Y-77808675D01*
X97100424Y-78000327D01*
X97164210Y-78095790D01*
X99704208Y-80635787D01*
X99704210Y-80635790D01*
X99991325Y-80827633D01*
X100330000Y-80895000D01*
X100463945Y-80895000D01*
X100757188Y-81090939D01*
X101204928Y-81180000D01*
X101995072Y-81180000D01*
X102442812Y-81090939D01*
X102822387Y-80837315D01*
X103076011Y-80457740D01*
X103165072Y-80010000D01*
X103076011Y-79562260D01*
X102950888Y-79375000D01*
X103076011Y-79187740D01*
X103165072Y-78740000D01*
X103076011Y-78292260D01*
X103071271Y-78285165D01*
X103135000Y-78131309D01*
X103135000Y-77755750D01*
X102976250Y-77597000D01*
X102130810Y-77597000D01*
X101995072Y-77570000D01*
X101453000Y-77570000D01*
X101453000Y-77370000D01*
X101995072Y-77370000D01*
X102130810Y-77343000D01*
X102976250Y-77343000D01*
X103135000Y-77184250D01*
X103135000Y-76808691D01*
X103071271Y-76654835D01*
X103076011Y-76647740D01*
X103165072Y-76200000D01*
X103076011Y-75752260D01*
X102822387Y-75372685D01*
X102442812Y-75119061D01*
X101995072Y-75030000D01*
X101204928Y-75030000D01*
X100757188Y-75119061D01*
X100377613Y-75372685D01*
X100123989Y-75752260D01*
X100034928Y-76200000D01*
X100123989Y-76647740D01*
X100128729Y-76654835D01*
X100065000Y-76808691D01*
X100065000Y-77184250D01*
X100223748Y-77342998D01*
X100184578Y-77342998D01*
X99945000Y-77103420D01*
X99945000Y-67676580D01*
X100184578Y-67437002D01*
X100223748Y-67437002D01*
X100065000Y-67595750D01*
X100065000Y-67971309D01*
X100128729Y-68125165D01*
X100123989Y-68132260D01*
X100034928Y-68580000D01*
X100123989Y-69027740D01*
X100377613Y-69407315D01*
X100757188Y-69660939D01*
X101204928Y-69750000D01*
X101995072Y-69750000D01*
X102442812Y-69660939D01*
X102822387Y-69407315D01*
X103076011Y-69027740D01*
X103165072Y-68580000D01*
X103076011Y-68132260D01*
X103071271Y-68125165D01*
X103135000Y-67971309D01*
X103135000Y-67595750D01*
X102976250Y-67437000D01*
X102130810Y-67437000D01*
X101995072Y-67410000D01*
X101453000Y-67410000D01*
X101453000Y-67210000D01*
X101995072Y-67210000D01*
X102130810Y-67183000D01*
X102976250Y-67183000D01*
X103135000Y-67024250D01*
X103135000Y-66648691D01*
X103071271Y-66494835D01*
X103076011Y-66487740D01*
X103165072Y-66040000D01*
X103076011Y-65592260D01*
X102950888Y-65405000D01*
X103076011Y-65217740D01*
X103165072Y-64770000D01*
X103076011Y-64322260D01*
X102984297Y-64185000D01*
X104725000Y-64185000D01*
X104725000Y-137745000D01*
X95916580Y-137745000D01*
X97506826Y-136154753D01*
X98093991Y-136155265D01*
X98658371Y-135922068D01*
X98835841Y-135744908D01*
X98891673Y-135879699D01*
X99070302Y-136058327D01*
X99303691Y-136155000D01*
X100044250Y-136155000D01*
X100203000Y-135996250D01*
X100203000Y-134747000D01*
X100457000Y-134747000D01*
X100457000Y-135996250D01*
X100615750Y-136155000D01*
X101356309Y-136155000D01*
X101589698Y-136058327D01*
X101768327Y-135879699D01*
X101865000Y-135646310D01*
X101865000Y-134905750D01*
X101706250Y-134747000D01*
X100457000Y-134747000D01*
X100203000Y-134747000D01*
X100183000Y-134747000D01*
X100183000Y-134493000D01*
X100203000Y-134493000D01*
X100203000Y-133243750D01*
X100457000Y-133243750D01*
X100457000Y-134493000D01*
X101706250Y-134493000D01*
X101865000Y-134334250D01*
X101865000Y-133593690D01*
X101768327Y-133360301D01*
X101589698Y-133181673D01*
X101356309Y-133085000D01*
X100615750Y-133085000D01*
X100457000Y-133243750D01*
X100203000Y-133243750D01*
X100044250Y-133085000D01*
X99303691Y-133085000D01*
X99070302Y-133181673D01*
X98891673Y-133360301D01*
X98835881Y-133494994D01*
X98660643Y-133319449D01*
X98096670Y-133085267D01*
X97486009Y-133084735D01*
X96921629Y-133317932D01*
X96489449Y-133749357D01*
X96255267Y-134313330D01*
X96254753Y-134903668D01*
X95003900Y-136154520D01*
X94793923Y-135944176D01*
X94266691Y-135725250D01*
X94154202Y-135725152D01*
X94156431Y-135721890D01*
X94207440Y-135470000D01*
X94207440Y-133770000D01*
X94163162Y-133534683D01*
X94024090Y-133318559D01*
X93811890Y-133173569D01*
X93744459Y-133159914D01*
X93789147Y-133130054D01*
X94111054Y-132648285D01*
X94224093Y-132080000D01*
X94111054Y-131511715D01*
X93789147Y-131029946D01*
X93459974Y-130810000D01*
X93789147Y-130590054D01*
X94111054Y-130108285D01*
X94224093Y-129540000D01*
X94111054Y-128971715D01*
X93789147Y-128489946D01*
X93459974Y-128270000D01*
X93789147Y-128050054D01*
X94111054Y-127568285D01*
X94224093Y-127000000D01*
X94111054Y-126431715D01*
X93789147Y-125949946D01*
X93459974Y-125730000D01*
X93789147Y-125510054D01*
X94111054Y-125028285D01*
X94224093Y-124460000D01*
X94111054Y-123891715D01*
X93789147Y-123409946D01*
X93459974Y-123190000D01*
X93789147Y-122970054D01*
X94111054Y-122488285D01*
X94224093Y-121920000D01*
X94111054Y-121351715D01*
X93789147Y-120869946D01*
X93459974Y-120650000D01*
X93789147Y-120430054D01*
X94111054Y-119948285D01*
X94224093Y-119380000D01*
X94111054Y-118811715D01*
X93789147Y-118329946D01*
X93307378Y-118008039D01*
X92739093Y-117895000D01*
X92680907Y-117895000D01*
X92112622Y-118008039D01*
X91630853Y-118329946D01*
X91520568Y-118495000D01*
X88720478Y-118495000D01*
X88422370Y-118196371D01*
X88214488Y-118110051D01*
X88420303Y-118025010D01*
X88813629Y-117632370D01*
X89026757Y-117119100D01*
X89027242Y-116563339D01*
X88815010Y-116049697D01*
X88422370Y-115656371D01*
X88214488Y-115570051D01*
X88420303Y-115485010D01*
X88720837Y-115185000D01*
X93613420Y-115185000D01*
X95894208Y-117465787D01*
X95894210Y-117465790D01*
X96140423Y-117630303D01*
X96181325Y-117657633D01*
X96374656Y-117696089D01*
X96403106Y-117764943D01*
X96862637Y-118225278D01*
X96905000Y-118242869D01*
X96905000Y-119529856D01*
X96747189Y-119635302D01*
X96436120Y-120100849D01*
X96326887Y-120650000D01*
X96436120Y-121199151D01*
X96747189Y-121664698D01*
X97212736Y-121975767D01*
X97761887Y-122085000D01*
X97818113Y-122085000D01*
X98367264Y-121975767D01*
X98832811Y-121664698D01*
X99057592Y-121328290D01*
X99112757Y-121461800D01*
X99516077Y-121865824D01*
X100043309Y-122084750D01*
X100614187Y-122085248D01*
X101141800Y-121867243D01*
X101545824Y-121463923D01*
X101764750Y-120936691D01*
X101765248Y-120365813D01*
X101547243Y-119838200D01*
X101143923Y-119434176D01*
X100616691Y-119215250D01*
X100045813Y-119214752D01*
X99518200Y-119432757D01*
X99114176Y-119836077D01*
X99057755Y-119971954D01*
X98832811Y-119635302D01*
X98675000Y-119529856D01*
X98675000Y-118243398D01*
X98714943Y-118226894D01*
X98949715Y-117992532D01*
X99357073Y-117992532D01*
X99455736Y-118259387D01*
X100065461Y-118485908D01*
X100715460Y-118461856D01*
X101204264Y-118259387D01*
X101302927Y-117992532D01*
X100330000Y-117019605D01*
X99357073Y-117992532D01*
X98949715Y-117992532D01*
X99142562Y-117800022D01*
X99177468Y-117812927D01*
X100150395Y-116840000D01*
X100136253Y-116825858D01*
X100315858Y-116646253D01*
X100330000Y-116660395D01*
X100344143Y-116646253D01*
X100523748Y-116825858D01*
X100509605Y-116840000D01*
X101482532Y-117812927D01*
X101749387Y-117714264D01*
X101975908Y-117104539D01*
X101951856Y-116454540D01*
X101749387Y-115965736D01*
X101570727Y-115899681D01*
X101781441Y-115764090D01*
X101926431Y-115551890D01*
X101977440Y-115300000D01*
X101977440Y-113300000D01*
X101933162Y-113064683D01*
X101794090Y-112848559D01*
X101775632Y-112835947D01*
X102225787Y-112385792D01*
X102225790Y-112385790D01*
X102417633Y-112098675D01*
X102418396Y-112094838D01*
X102485001Y-111760000D01*
X102485000Y-111759995D01*
X102485000Y-111634171D01*
X102815824Y-111303923D01*
X103034750Y-110776691D01*
X103035248Y-110205813D01*
X102817243Y-109678200D01*
X102413923Y-109274176D01*
X101886691Y-109055250D01*
X101416419Y-109054840D01*
X99685790Y-107324210D01*
X99596701Y-107264683D01*
X99398675Y-107132367D01*
X99342484Y-107121190D01*
X99060000Y-107064999D01*
X99059995Y-107065000D01*
X94346579Y-107065000D01*
X93335790Y-106054210D01*
X93089577Y-105889697D01*
X93048675Y-105862367D01*
X92992484Y-105851190D01*
X92710000Y-105794999D01*
X92709995Y-105795000D01*
X88720478Y-105795000D01*
X88422370Y-105496371D01*
X88214488Y-105410051D01*
X88420303Y-105325010D01*
X88813629Y-104932370D01*
X89026757Y-104419100D01*
X89027242Y-103863339D01*
X88815010Y-103349697D01*
X88422370Y-102956371D01*
X88230273Y-102876605D01*
X88361143Y-102822397D01*
X88430608Y-102580213D01*
X87630000Y-101779605D01*
X86829392Y-102580213D01*
X86898857Y-102822397D01*
X87039318Y-102872509D01*
X86839697Y-102954990D01*
X86446371Y-103347630D01*
X86233243Y-103860900D01*
X86232758Y-104416661D01*
X86444990Y-104930303D01*
X86837630Y-105323629D01*
X87045512Y-105409949D01*
X86839697Y-105494990D01*
X86446371Y-105887630D01*
X86233243Y-106400900D01*
X86232758Y-106956661D01*
X86444990Y-107470303D01*
X86837630Y-107863629D01*
X87045512Y-107949949D01*
X86839697Y-108034990D01*
X86446371Y-108427630D01*
X86233243Y-108940900D01*
X86232758Y-109496661D01*
X86444990Y-110010303D01*
X86837630Y-110403629D01*
X87045512Y-110489949D01*
X86839697Y-110574990D01*
X86446371Y-110967630D01*
X86233243Y-111480900D01*
X86232758Y-112036661D01*
X86444990Y-112550303D01*
X86837630Y-112943629D01*
X87045512Y-113029949D01*
X86839697Y-113114990D01*
X86446371Y-113507630D01*
X86233243Y-114020900D01*
X86232758Y-114576661D01*
X86444990Y-115090303D01*
X86837630Y-115483629D01*
X87045512Y-115569949D01*
X86839697Y-115654990D01*
X86446371Y-116047630D01*
X86233243Y-116560900D01*
X86232758Y-117116661D01*
X86444990Y-117630303D01*
X86837630Y-118023629D01*
X87045512Y-118109949D01*
X86839697Y-118194990D01*
X86446371Y-118587630D01*
X86233243Y-119100900D01*
X86232758Y-119656661D01*
X86444990Y-120170303D01*
X86837630Y-120563629D01*
X87045512Y-120649949D01*
X86839697Y-120734990D01*
X86446371Y-121127630D01*
X86233243Y-121640900D01*
X86232758Y-122196661D01*
X86444990Y-122710303D01*
X86837630Y-123103629D01*
X87045512Y-123189949D01*
X86839697Y-123274990D01*
X86446371Y-123667630D01*
X86233243Y-124180900D01*
X86232758Y-124736661D01*
X86444990Y-125250303D01*
X86837630Y-125643629D01*
X87045512Y-125729949D01*
X86839697Y-125814990D01*
X86446371Y-126207630D01*
X86233243Y-126720900D01*
X86232758Y-127276661D01*
X86444990Y-127790303D01*
X86837630Y-128183629D01*
X87045512Y-128269949D01*
X86839697Y-128354990D01*
X86446371Y-128747630D01*
X86233243Y-129260900D01*
X86232758Y-129816661D01*
X86444990Y-130330303D01*
X86837630Y-130723629D01*
X87045512Y-130809949D01*
X86839697Y-130894990D01*
X86446371Y-131287630D01*
X86233243Y-131800900D01*
X86232758Y-132356661D01*
X86444990Y-132870303D01*
X86837630Y-133263629D01*
X87045512Y-133349949D01*
X86839697Y-133434990D01*
X86446371Y-133827630D01*
X86233243Y-134340900D01*
X86232758Y-134896661D01*
X86444990Y-135410303D01*
X86837630Y-135803629D01*
X87350900Y-136016757D01*
X87906661Y-136017242D01*
X88420303Y-135805010D01*
X88720837Y-135505000D01*
X91219146Y-135505000D01*
X91256838Y-135705317D01*
X91285660Y-135750108D01*
X90862736Y-135834233D01*
X90397189Y-136145302D01*
X90310527Y-136275000D01*
X81646579Y-136275000D01*
X80895000Y-135523420D01*
X80895000Y-120650005D01*
X80895001Y-120650000D01*
X80827633Y-120311325D01*
X80796680Y-120265000D01*
X80635790Y-120024210D01*
X80635787Y-120024208D01*
X79365790Y-118754210D01*
X79078675Y-118562367D01*
X79022484Y-118551190D01*
X78740000Y-118494999D01*
X78739995Y-118495000D01*
X73480478Y-118495000D01*
X73182370Y-118196371D01*
X72974488Y-118110051D01*
X73180303Y-118025010D01*
X73573629Y-117632370D01*
X73786757Y-117119100D01*
X73787242Y-116563339D01*
X73575010Y-116049697D01*
X73182370Y-115656371D01*
X72974488Y-115570051D01*
X73180303Y-115485010D01*
X73573629Y-115092370D01*
X73786757Y-114579100D01*
X73787242Y-114023339D01*
X73575010Y-113509697D01*
X73182370Y-113116371D01*
X72974488Y-113030051D01*
X73180303Y-112945010D01*
X73573629Y-112552370D01*
X73786757Y-112039100D01*
X73787242Y-111483339D01*
X73575010Y-110969697D01*
X73280994Y-110675167D01*
X81614838Y-110675167D01*
X81756883Y-111018943D01*
X82019673Y-111282192D01*
X82363201Y-111424838D01*
X82735167Y-111425162D01*
X83078943Y-111283117D01*
X83342192Y-111020327D01*
X83484838Y-110676799D01*
X83485162Y-110304833D01*
X83435000Y-110183431D01*
X83435000Y-101392302D01*
X86220856Y-101392302D01*
X86248638Y-101947368D01*
X86407603Y-102331143D01*
X86649787Y-102400608D01*
X87450395Y-101600000D01*
X87809605Y-101600000D01*
X88610213Y-102400608D01*
X88852397Y-102331143D01*
X89039144Y-101807698D01*
X89011362Y-101252632D01*
X88852397Y-100868857D01*
X88610213Y-100799392D01*
X87809605Y-101600000D01*
X87450395Y-101600000D01*
X86649787Y-100799392D01*
X86407603Y-100868857D01*
X86220856Y-101392302D01*
X83435000Y-101392302D01*
X83435000Y-99336661D01*
X86232758Y-99336661D01*
X86444990Y-99850303D01*
X86837630Y-100243629D01*
X87029727Y-100323395D01*
X86898857Y-100377603D01*
X86829392Y-100619787D01*
X87630000Y-101420395D01*
X88430608Y-100619787D01*
X88361143Y-100377603D01*
X88220682Y-100327491D01*
X88420303Y-100245010D01*
X88813629Y-99852370D01*
X89026757Y-99339100D01*
X89027242Y-98783339D01*
X88815010Y-98269697D01*
X88422370Y-97876371D01*
X87909100Y-97663243D01*
X87353339Y-97662758D01*
X86839697Y-97874990D01*
X86446371Y-98267630D01*
X86233243Y-98780900D01*
X86232758Y-99336661D01*
X83435000Y-99336661D01*
X83435000Y-96886580D01*
X84186579Y-96135000D01*
X91073420Y-96135000D01*
X91825000Y-96886579D01*
X91825000Y-102869995D01*
X91824999Y-102870000D01*
X91861799Y-103055000D01*
X91892367Y-103208675D01*
X92002024Y-103372789D01*
X92084210Y-103495790D01*
X93354208Y-104765787D01*
X93354210Y-104765790D01*
X93565863Y-104907211D01*
X93641325Y-104957633D01*
X93980000Y-105025001D01*
X93980005Y-105025000D01*
X100202560Y-105025000D01*
X100202560Y-105860000D01*
X100246838Y-106095317D01*
X100385910Y-106311441D01*
X100598110Y-106456431D01*
X100850000Y-106507440D01*
X102350000Y-106507440D01*
X102585317Y-106463162D01*
X102801441Y-106324090D01*
X102946431Y-106111890D01*
X102997440Y-105860000D01*
X102997440Y-104960000D01*
X102953162Y-104724683D01*
X102886022Y-104620345D01*
X102929543Y-104555212D01*
X103012134Y-104140000D01*
X102929543Y-103724788D01*
X102782685Y-103505000D01*
X102929543Y-103285212D01*
X103012134Y-102870000D01*
X102929543Y-102454788D01*
X102694345Y-102102789D01*
X102485000Y-101962909D01*
X102485000Y-100696580D01*
X102686739Y-100494840D01*
X103154187Y-100495248D01*
X103681800Y-100277243D01*
X104085824Y-99873923D01*
X104304750Y-99346691D01*
X104305248Y-98775813D01*
X104087243Y-98248200D01*
X103683923Y-97844176D01*
X103548046Y-97787755D01*
X103884698Y-97562811D01*
X104195767Y-97097264D01*
X104305000Y-96548113D01*
X104305000Y-96491887D01*
X104195767Y-95942736D01*
X103884698Y-95477189D01*
X103755000Y-95390527D01*
X103755000Y-93899432D01*
X103920054Y-93789147D01*
X104241961Y-93307378D01*
X104355000Y-92739093D01*
X104355000Y-92680907D01*
X104241961Y-92112622D01*
X103920054Y-91630853D01*
X103438285Y-91308946D01*
X102870000Y-91195907D01*
X102301715Y-91308946D01*
X101819946Y-91630853D01*
X101600000Y-91960026D01*
X101380054Y-91630853D01*
X100898285Y-91308946D01*
X100330000Y-91195907D01*
X99761715Y-91308946D01*
X99279946Y-91630853D01*
X99060000Y-91960026D01*
X98840054Y-91630853D01*
X98358285Y-91308946D01*
X97790000Y-91195907D01*
X97221715Y-91308946D01*
X96739946Y-91630853D01*
X96710597Y-91674777D01*
X96638327Y-91500302D01*
X96459699Y-91321673D01*
X96226310Y-91225000D01*
X95535750Y-91225000D01*
X95377000Y-91383750D01*
X95377000Y-92583000D01*
X95397000Y-92583000D01*
X95397000Y-92837000D01*
X95377000Y-92837000D01*
X95377000Y-94036250D01*
X95535750Y-94195000D01*
X96226310Y-94195000D01*
X96392088Y-94126332D01*
X95426438Y-95091983D01*
X95250000Y-95056887D01*
X94700849Y-95166120D01*
X94235302Y-95477189D01*
X93924233Y-95942736D01*
X93815000Y-96491887D01*
X93815000Y-96548113D01*
X93924233Y-97097264D01*
X94235302Y-97562811D01*
X94571710Y-97787592D01*
X94438200Y-97842757D01*
X94034176Y-98246077D01*
X93815250Y-98773309D01*
X93814752Y-99344187D01*
X94032757Y-99871800D01*
X94436077Y-100275824D01*
X94963309Y-100494750D01*
X95534187Y-100495248D01*
X96061800Y-100277243D01*
X96394623Y-99945000D01*
X97915829Y-99945000D01*
X98246077Y-100275824D01*
X98773309Y-100494750D01*
X99344187Y-100495248D01*
X99871800Y-100277243D01*
X100204623Y-99945000D01*
X100813320Y-99945000D01*
X100782367Y-99991325D01*
X100782367Y-99991326D01*
X100714999Y-100330000D01*
X100715000Y-100330005D01*
X100715000Y-101962909D01*
X100505655Y-102102789D01*
X100270457Y-102454788D01*
X100187866Y-102870000D01*
X100264447Y-103255000D01*
X94346579Y-103255000D01*
X93595000Y-102503420D01*
X93595000Y-96520005D01*
X93595001Y-96520000D01*
X93527633Y-96181325D01*
X93496680Y-96135000D01*
X93335790Y-95894210D01*
X93335787Y-95894208D01*
X92065790Y-94624210D01*
X92038222Y-94605790D01*
X91778675Y-94432367D01*
X91722484Y-94421190D01*
X91440000Y-94364999D01*
X91439995Y-94365000D01*
X83820005Y-94365000D01*
X83820000Y-94364999D01*
X83481325Y-94432367D01*
X83194210Y-94624210D01*
X83194208Y-94624213D01*
X81924210Y-95894210D01*
X81732367Y-96181325D01*
X81732367Y-96181326D01*
X81664999Y-96520000D01*
X81665000Y-96520005D01*
X81665000Y-110183178D01*
X81615162Y-110303201D01*
X81614838Y-110675167D01*
X73280994Y-110675167D01*
X73182370Y-110576371D01*
X72974488Y-110490051D01*
X73180303Y-110405010D01*
X73573629Y-110012370D01*
X73786757Y-109499100D01*
X73787242Y-108943339D01*
X73575010Y-108429697D01*
X73182370Y-108036371D01*
X72990273Y-107956605D01*
X73121143Y-107902397D01*
X73190608Y-107660213D01*
X72390000Y-106859605D01*
X71589392Y-107660213D01*
X71658857Y-107902397D01*
X71799318Y-107952509D01*
X71599697Y-108034990D01*
X71299163Y-108335000D01*
X68489779Y-108335000D01*
X68360054Y-108140853D01*
X67878285Y-107818946D01*
X67310000Y-107705907D01*
X66741715Y-107818946D01*
X66259946Y-108140853D01*
X66230597Y-108184777D01*
X66158327Y-108010302D01*
X65979699Y-107831673D01*
X65746310Y-107735000D01*
X65055750Y-107735000D01*
X64897000Y-107893750D01*
X64897000Y-109093000D01*
X64917000Y-109093000D01*
X64917000Y-109347000D01*
X64897000Y-109347000D01*
X64897000Y-111633000D01*
X64917000Y-111633000D01*
X64917000Y-111887000D01*
X64897000Y-111887000D01*
X64897000Y-113086250D01*
X65055750Y-113245000D01*
X65746310Y-113245000D01*
X65979699Y-113148327D01*
X66158327Y-112969698D01*
X66230597Y-112795223D01*
X66259946Y-112839147D01*
X66741715Y-113161054D01*
X67310000Y-113274093D01*
X67878285Y-113161054D01*
X68360054Y-112839147D01*
X68489779Y-112645000D01*
X71299522Y-112645000D01*
X71597630Y-112943629D01*
X71805512Y-113029949D01*
X71599697Y-113114990D01*
X71299163Y-113415000D01*
X63500005Y-113415000D01*
X63500000Y-113414999D01*
X63161325Y-113482367D01*
X62874210Y-113674210D01*
X62874208Y-113674213D01*
X61604210Y-114944210D01*
X61412367Y-115231325D01*
X61412367Y-115231326D01*
X61344999Y-115570000D01*
X61345000Y-115570005D01*
X61345000Y-118044447D01*
X60960000Y-117967866D01*
X60575000Y-118044447D01*
X60575000Y-115479779D01*
X60769147Y-115350054D01*
X61091054Y-114868285D01*
X61204093Y-114300000D01*
X61091054Y-113731715D01*
X60769147Y-113249946D01*
X60725223Y-113220597D01*
X60899698Y-113148327D01*
X61078327Y-112969699D01*
X61175000Y-112736310D01*
X61175000Y-112045750D01*
X63285000Y-112045750D01*
X63285000Y-112736309D01*
X63381673Y-112969698D01*
X63560301Y-113148327D01*
X63793690Y-113245000D01*
X64484250Y-113245000D01*
X64643000Y-113086250D01*
X64643000Y-111887000D01*
X63443750Y-111887000D01*
X63285000Y-112045750D01*
X61175000Y-112045750D01*
X61016250Y-111887000D01*
X59817000Y-111887000D01*
X59817000Y-111907000D01*
X59563000Y-111907000D01*
X59563000Y-111887000D01*
X58363750Y-111887000D01*
X58205000Y-112045750D01*
X58205000Y-112736310D01*
X58301673Y-112969699D01*
X58480302Y-113148327D01*
X58654777Y-113220597D01*
X58610853Y-113249946D01*
X58288946Y-113731715D01*
X58175907Y-114300000D01*
X58288946Y-114868285D01*
X58610853Y-115350054D01*
X58805000Y-115479779D01*
X58805000Y-118461939D01*
X58687591Y-118637654D01*
X58605000Y-119052866D01*
X58605000Y-119707134D01*
X58687591Y-120122346D01*
X58922789Y-120474345D01*
X59274788Y-120709543D01*
X59690000Y-120792134D01*
X60075000Y-120715553D01*
X60075000Y-121919995D01*
X60074999Y-121920000D01*
X60107870Y-122085248D01*
X60142367Y-122258675D01*
X60295787Y-122488285D01*
X60334210Y-122545790D01*
X60820767Y-123032347D01*
X60795000Y-123161887D01*
X60795000Y-123218113D01*
X60904233Y-123767264D01*
X61215302Y-124232811D01*
X61551710Y-124457592D01*
X61418200Y-124512757D01*
X61014176Y-124916077D01*
X60795250Y-125443309D01*
X60794752Y-126014187D01*
X61012757Y-126541800D01*
X61345000Y-126874623D01*
X61345000Y-127992560D01*
X61330000Y-127992560D01*
X61094683Y-128036838D01*
X60878559Y-128175910D01*
X60733569Y-128388110D01*
X60682560Y-128640000D01*
X60682560Y-130440000D01*
X60726838Y-130675317D01*
X60865910Y-130891441D01*
X61078110Y-131036431D01*
X61330000Y-131087440D01*
X63130000Y-131087440D01*
X63365317Y-131043162D01*
X63581441Y-130904090D01*
X63726431Y-130691890D01*
X63729719Y-130675656D01*
X64152509Y-130958155D01*
X64739928Y-131075000D01*
X64800072Y-131075000D01*
X65387491Y-130958155D01*
X65885481Y-130625409D01*
X66019390Y-130425000D01*
X71299522Y-130425000D01*
X71597630Y-130723629D01*
X71805512Y-130809949D01*
X71599697Y-130894990D01*
X71299163Y-131195000D01*
X68800854Y-131195000D01*
X68763162Y-130994683D01*
X68624090Y-130778559D01*
X68411890Y-130633569D01*
X68160000Y-130582560D01*
X66460000Y-130582560D01*
X66224683Y-130626838D01*
X66008559Y-130765910D01*
X65863569Y-130978110D01*
X65812560Y-131230000D01*
X65812560Y-132930000D01*
X65856838Y-133165317D01*
X65995910Y-133381441D01*
X66208110Y-133526431D01*
X66275541Y-133540086D01*
X66230853Y-133569946D01*
X65908946Y-134051715D01*
X65795907Y-134620000D01*
X65908946Y-135188285D01*
X66230853Y-135670054D01*
X66712622Y-135991961D01*
X67280907Y-136105000D01*
X67339093Y-136105000D01*
X67907378Y-135991961D01*
X68389147Y-135670054D01*
X68499432Y-135505000D01*
X71299522Y-135505000D01*
X71597630Y-135803629D01*
X72110900Y-136016757D01*
X72666661Y-136017242D01*
X73180303Y-135805010D01*
X73573629Y-135412370D01*
X73786757Y-134899100D01*
X73787242Y-134343339D01*
X73575010Y-133829697D01*
X73182370Y-133436371D01*
X72974488Y-133350051D01*
X73180303Y-133265010D01*
X73573629Y-132872370D01*
X73786757Y-132359100D01*
X73787242Y-131803339D01*
X73575010Y-131289697D01*
X73182370Y-130896371D01*
X72974488Y-130810051D01*
X73180303Y-130725010D01*
X73573629Y-130332370D01*
X73786757Y-129819100D01*
X73787242Y-129263339D01*
X73575010Y-128749697D01*
X73182370Y-128356371D01*
X72974488Y-128270051D01*
X73180303Y-128185010D01*
X73573629Y-127792370D01*
X73786757Y-127279100D01*
X73787242Y-126723339D01*
X73575010Y-126209697D01*
X73182370Y-125816371D01*
X72974488Y-125730051D01*
X73180303Y-125645010D01*
X73573629Y-125252370D01*
X73786757Y-124739100D01*
X73787242Y-124183339D01*
X73575010Y-123669697D01*
X73182370Y-123276371D01*
X72974488Y-123190051D01*
X73180303Y-123105010D01*
X73573629Y-122712370D01*
X73786757Y-122199100D01*
X73787242Y-121643339D01*
X73575010Y-121129697D01*
X73182370Y-120736371D01*
X72974488Y-120650051D01*
X73180303Y-120565010D01*
X73480837Y-120265000D01*
X78373420Y-120265000D01*
X79125000Y-121016579D01*
X79125000Y-135889995D01*
X79124999Y-135890000D01*
X79150310Y-136017242D01*
X79192367Y-136228675D01*
X79270812Y-136346077D01*
X79384210Y-136515790D01*
X80613421Y-137745000D01*
X55295000Y-137745000D01*
X55295000Y-134923991D01*
X59424735Y-134923991D01*
X59657932Y-135488371D01*
X60089357Y-135920551D01*
X60653330Y-136154733D01*
X61263991Y-136155265D01*
X61828371Y-135922068D01*
X62005841Y-135744908D01*
X62061673Y-135879699D01*
X62240302Y-136058327D01*
X62473691Y-136155000D01*
X63214250Y-136155000D01*
X63373000Y-135996250D01*
X63373000Y-134747000D01*
X63627000Y-134747000D01*
X63627000Y-135996250D01*
X63785750Y-136155000D01*
X64526309Y-136155000D01*
X64759698Y-136058327D01*
X64938327Y-135879699D01*
X65035000Y-135646310D01*
X65035000Y-134905750D01*
X64876250Y-134747000D01*
X63627000Y-134747000D01*
X63373000Y-134747000D01*
X63353000Y-134747000D01*
X63353000Y-134493000D01*
X63373000Y-134493000D01*
X63373000Y-133243750D01*
X63627000Y-133243750D01*
X63627000Y-134493000D01*
X64876250Y-134493000D01*
X65035000Y-134334250D01*
X65035000Y-133593690D01*
X64938327Y-133360301D01*
X64759698Y-133181673D01*
X64526309Y-133085000D01*
X63785750Y-133085000D01*
X63627000Y-133243750D01*
X63373000Y-133243750D01*
X63214250Y-133085000D01*
X62473691Y-133085000D01*
X62240302Y-133181673D01*
X62061673Y-133360301D01*
X62005881Y-133494994D01*
X61830643Y-133319449D01*
X61266670Y-133085267D01*
X60656009Y-133084735D01*
X60091629Y-133317932D01*
X59659449Y-133749357D01*
X59425267Y-134313330D01*
X59424735Y-134923991D01*
X55295000Y-134923991D01*
X55295000Y-110783690D01*
X58205000Y-110783690D01*
X58205000Y-111474250D01*
X58363750Y-111633000D01*
X59563000Y-111633000D01*
X59563000Y-110433750D01*
X59817000Y-110433750D01*
X59817000Y-111633000D01*
X61016250Y-111633000D01*
X61175000Y-111474250D01*
X61175000Y-110783690D01*
X61078327Y-110550301D01*
X60899698Y-110371673D01*
X60666309Y-110275000D01*
X59975750Y-110275000D01*
X59817000Y-110433750D01*
X59563000Y-110433750D01*
X59404250Y-110275000D01*
X58713691Y-110275000D01*
X58480302Y-110371673D01*
X58301673Y-110550301D01*
X58205000Y-110783690D01*
X55295000Y-110783690D01*
X55295000Y-109505750D01*
X63285000Y-109505750D01*
X63285000Y-110196309D01*
X63381673Y-110429698D01*
X63441975Y-110490000D01*
X63381673Y-110550302D01*
X63285000Y-110783691D01*
X63285000Y-111474250D01*
X63443750Y-111633000D01*
X64643000Y-111633000D01*
X64643000Y-109347000D01*
X63443750Y-109347000D01*
X63285000Y-109505750D01*
X55295000Y-109505750D01*
X55295000Y-96520000D01*
X58175907Y-96520000D01*
X58288946Y-97088285D01*
X58610853Y-97570054D01*
X58805000Y-97699779D01*
X58805000Y-99185829D01*
X58474176Y-99516077D01*
X58255250Y-100043309D01*
X58254752Y-100614187D01*
X58472757Y-101141800D01*
X58876077Y-101545824D01*
X59011954Y-101602245D01*
X58675302Y-101827189D01*
X58364233Y-102292736D01*
X58255000Y-102841887D01*
X58255000Y-102898113D01*
X58364233Y-103447264D01*
X58675302Y-103912811D01*
X58805000Y-103999473D01*
X58805000Y-104502909D01*
X58595655Y-104642789D01*
X58360457Y-104994788D01*
X58277866Y-105410000D01*
X58360457Y-105825212D01*
X58507315Y-106045000D01*
X58360457Y-106264788D01*
X58277866Y-106680000D01*
X58360457Y-107095212D01*
X58403759Y-107160019D01*
X58343569Y-107248110D01*
X58292560Y-107500000D01*
X58292560Y-108400000D01*
X58336838Y-108635317D01*
X58475910Y-108851441D01*
X58688110Y-108996431D01*
X58940000Y-109047440D01*
X60440000Y-109047440D01*
X60675317Y-109003162D01*
X60891441Y-108864090D01*
X61036431Y-108651890D01*
X61087440Y-108400000D01*
X61087440Y-108243691D01*
X63285000Y-108243691D01*
X63285000Y-108934250D01*
X63443750Y-109093000D01*
X64643000Y-109093000D01*
X64643000Y-107893750D01*
X64484250Y-107735000D01*
X63793690Y-107735000D01*
X63560301Y-107831673D01*
X63381673Y-108010302D01*
X63285000Y-108243691D01*
X61087440Y-108243691D01*
X61087440Y-107500000D01*
X61043162Y-107264683D01*
X60976022Y-107160345D01*
X61019543Y-107095212D01*
X61102134Y-106680000D01*
X61060821Y-106472302D01*
X70980856Y-106472302D01*
X71008638Y-107027368D01*
X71167603Y-107411143D01*
X71409787Y-107480608D01*
X72210395Y-106680000D01*
X72569605Y-106680000D01*
X73370213Y-107480608D01*
X73612397Y-107411143D01*
X73799144Y-106887698D01*
X73771362Y-106332632D01*
X73612397Y-105948857D01*
X73370213Y-105879392D01*
X72569605Y-106680000D01*
X72210395Y-106680000D01*
X71409787Y-105879392D01*
X71167603Y-105948857D01*
X70980856Y-106472302D01*
X61060821Y-106472302D01*
X61019543Y-106264788D01*
X60872685Y-106045000D01*
X61019543Y-105825212D01*
X61102134Y-105410000D01*
X61019543Y-104994788D01*
X60784345Y-104642789D01*
X60575000Y-104502909D01*
X60575000Y-103999473D01*
X60704698Y-103912811D01*
X61015767Y-103447264D01*
X61125000Y-102898113D01*
X61125000Y-102841887D01*
X61015767Y-102292736D01*
X60786118Y-101949041D01*
X62108086Y-101949041D01*
X62347611Y-102455134D01*
X62762577Y-102831041D01*
X63150961Y-102991904D01*
X63373000Y-102869915D01*
X63373000Y-101727000D01*
X63627000Y-101727000D01*
X63627000Y-102869915D01*
X63849039Y-102991904D01*
X64237423Y-102831041D01*
X64652389Y-102455134D01*
X64891914Y-101949041D01*
X64770629Y-101727000D01*
X63627000Y-101727000D01*
X63373000Y-101727000D01*
X62229371Y-101727000D01*
X62108086Y-101949041D01*
X60786118Y-101949041D01*
X60704698Y-101827189D01*
X60368290Y-101602408D01*
X60501800Y-101547243D01*
X60905824Y-101143923D01*
X61124750Y-100616691D01*
X61125248Y-100045813D01*
X60907243Y-99518200D01*
X60575000Y-99185377D01*
X60575000Y-97699779D01*
X60769147Y-97570054D01*
X61091054Y-97088285D01*
X61204093Y-96520000D01*
X61091054Y-95951715D01*
X60769147Y-95469946D01*
X60725223Y-95440597D01*
X60899698Y-95368327D01*
X61078327Y-95189699D01*
X61175000Y-94956310D01*
X61175000Y-94265750D01*
X61016250Y-94107000D01*
X59817000Y-94107000D01*
X59817000Y-94127000D01*
X59563000Y-94127000D01*
X59563000Y-94107000D01*
X58363750Y-94107000D01*
X58205000Y-94265750D01*
X58205000Y-94956310D01*
X58301673Y-95189699D01*
X58480302Y-95368327D01*
X58654777Y-95440597D01*
X58610853Y-95469946D01*
X58288946Y-95951715D01*
X58175907Y-96520000D01*
X55295000Y-96520000D01*
X55295000Y-93003690D01*
X58205000Y-93003690D01*
X58205000Y-93694250D01*
X58363750Y-93853000D01*
X59563000Y-93853000D01*
X59563000Y-92653750D01*
X59817000Y-92653750D01*
X59817000Y-93853000D01*
X61016250Y-93853000D01*
X61175000Y-93694250D01*
X61175000Y-93003690D01*
X61078327Y-92770301D01*
X60899698Y-92591673D01*
X60666309Y-92495000D01*
X59975750Y-92495000D01*
X59817000Y-92653750D01*
X59563000Y-92653750D01*
X59404250Y-92495000D01*
X58713691Y-92495000D01*
X58480302Y-92591673D01*
X58301673Y-92770301D01*
X58205000Y-93003690D01*
X55295000Y-93003690D01*
X55295000Y-64185000D01*
X57035703Y-64185000D01*
X56943989Y-64322260D01*
M02*
