%TF.GenerationSoftware,KiCad,Pcbnew,4.0.7-e2-6376~58~ubuntu16.04.1*%
%TF.CreationDate,2018-01-31T13:04:43+01:00*%
%TF.ProjectId,Tagger_production,5461676765725F70726F64756374696F,rev?*%
%TF.FileFunction,Legend,Top*%
%FSLAX46Y46*%
G04 Gerber Fmt 4.6, Leading zero omitted, Abs format (unit mm)*
G04 Created by KiCad (PCBNEW 4.0.7-e2-6376~58~ubuntu16.04.1) date Wed Jan 31 13:04:43 2018*
%MOMM*%
%LPD*%
G01*
G04 APERTURE LIST*
%ADD10C,0.100000*%
%ADD11C,0.150000*%
%ADD12C,0.120000*%
G04 APERTURE END LIST*
D10*
X105410000Y-63500000D02*
X54610000Y-63500000D01*
X105410000Y-138430000D02*
X105410000Y-63500000D01*
X54610000Y-138430000D02*
X105410000Y-138430000D01*
X54610000Y-138430000D02*
X54610000Y-63500000D01*
D11*
X76200000Y-135890000D02*
X76200000Y-138430000D01*
X83820000Y-135890000D02*
X83820000Y-138430000D01*
X71120000Y-135890000D02*
X71120000Y-138430000D01*
X71120000Y-138430000D02*
X88900000Y-138430000D01*
X88900000Y-138430000D02*
X88900000Y-135890000D01*
X77470000Y-128270000D02*
X76200000Y-128270000D01*
X76200000Y-128270000D02*
X76200000Y-135890000D01*
X83820000Y-134620000D02*
X83820000Y-135890000D01*
X82550000Y-128270000D02*
X83820000Y-128270000D01*
X83820000Y-128270000D02*
X83820000Y-135890000D01*
X83820000Y-135890000D02*
X83820000Y-134620000D01*
X83820000Y-99060000D02*
G75*
G03X83820000Y-99060000I-1270000J0D01*
G01*
X81280000Y-99060000D02*
G75*
G03X81280000Y-99060000I-1270000J0D01*
G01*
X78740000Y-99060000D02*
G75*
G03X78740000Y-99060000I-1270000J0D01*
G01*
X83820000Y-96520000D02*
G75*
G03X83820000Y-96520000I-1270000J0D01*
G01*
X81280000Y-96520000D02*
G75*
G03X81280000Y-96520000I-1270000J0D01*
G01*
X78740000Y-96520000D02*
G75*
G03X78740000Y-96520000I-1270000J0D01*
G01*
X76200000Y-95250000D02*
X76200000Y-100330000D01*
X76200000Y-100330000D02*
X83820000Y-100330000D01*
X83820000Y-100330000D02*
X83820000Y-95250000D01*
X71120000Y-96520000D02*
X71120000Y-95250000D01*
X71120000Y-95250000D02*
X88900000Y-95250000D01*
X88900000Y-95250000D02*
X88900000Y-96520000D01*
X71120000Y-97790000D02*
X71120000Y-96520000D01*
X88900000Y-96520000D02*
X88900000Y-97790000D01*
X77470000Y-128270000D02*
X82550000Y-128270000D01*
X71120000Y-97790000D02*
X71120000Y-135890000D01*
X88900000Y-135890000D02*
X88900000Y-97790000D01*
D12*
X59190001Y-134618042D02*
G75*
G03X64790000Y-136259512I3039999J-1958D01*
G01*
X59190001Y-134621958D02*
G75*
G02X64790000Y-132980488I3039999J1958D01*
G01*
X64730000Y-134620000D02*
G75*
G03X64730000Y-134620000I-2500000J0D01*
G01*
X64790000Y-136260000D02*
X64790000Y-132980000D01*
X96020001Y-134618042D02*
G75*
G03X101620000Y-136259512I3039999J-1958D01*
G01*
X96020001Y-134621958D02*
G75*
G02X101620000Y-132980488I3039999J1958D01*
G01*
X101560000Y-134620000D02*
G75*
G03X101560000Y-134620000I-2500000J0D01*
G01*
X101620000Y-136260000D02*
X101620000Y-132980000D01*
X59500827Y-80892815D02*
G75*
G03X59964830Y-75545000I-1080827J2787815D01*
G01*
X57339173Y-80892815D02*
G75*
G02X56875170Y-75545000I1080827J2787815D01*
G01*
X59500429Y-80359479D02*
G75*
G03X59500000Y-75850316I-1080429J2254479D01*
G01*
X57339571Y-80359479D02*
G75*
G02X57340000Y-75850316I1080429J2254479D01*
G01*
X59965000Y-75545000D02*
X59500000Y-75545000D01*
X57340000Y-75545000D02*
X56875000Y-75545000D01*
X102680827Y-80892815D02*
G75*
G03X103144830Y-75545000I-1080827J2787815D01*
G01*
X100519173Y-80892815D02*
G75*
G02X100055170Y-75545000I1080827J2787815D01*
G01*
X102680429Y-80359479D02*
G75*
G03X102680000Y-75850316I-1080429J2254479D01*
G01*
X100519571Y-80359479D02*
G75*
G02X100520000Y-75850316I1080429J2254479D01*
G01*
X103145000Y-75545000D02*
X102680000Y-75545000D01*
X100520000Y-75545000D02*
X100055000Y-75545000D01*
X100519173Y-63887185D02*
G75*
G03X100055170Y-69235000I1080827J-2787815D01*
G01*
X102680827Y-63887185D02*
G75*
G02X103144830Y-69235000I-1080827J-2787815D01*
G01*
X100519571Y-64420521D02*
G75*
G03X100520000Y-68929684I1080429J-2254479D01*
G01*
X102680429Y-64420521D02*
G75*
G02X102680000Y-68929684I-1080429J-2254479D01*
G01*
X100055000Y-69235000D02*
X100520000Y-69235000D01*
X102680000Y-69235000D02*
X103145000Y-69235000D01*
X57339173Y-63887185D02*
G75*
G03X56875170Y-69235000I1080827J-2787815D01*
G01*
X59500827Y-63887185D02*
G75*
G02X59964830Y-69235000I-1080827J-2787815D01*
G01*
X57339571Y-64420521D02*
G75*
G03X57340000Y-68929684I1080429J-2254479D01*
G01*
X59500429Y-64420521D02*
G75*
G02X59500000Y-68929684I-1080429J-2254479D01*
G01*
X56875000Y-69235000D02*
X57340000Y-69235000D01*
X59500000Y-69235000D02*
X59965000Y-69235000D01*
X66230000Y-125857000D02*
X65341000Y-125857000D01*
X65785500Y-125857000D02*
X66230000Y-126449667D01*
X66230000Y-126449667D02*
X65341000Y-126449667D01*
X65341000Y-126449667D02*
X65785500Y-125857000D01*
X66376730Y-125969367D02*
G75*
G03X68210000Y-125940189I933270J-1030633D01*
G01*
X63627000Y-130620000D02*
X63627000Y-131509000D01*
X63627000Y-131064500D02*
X64219667Y-130620000D01*
X64219667Y-130620000D02*
X64219667Y-131509000D01*
X64219667Y-131509000D02*
X63627000Y-131064500D01*
X63739367Y-130473270D02*
G75*
G03X63710189Y-128640000I1030633J933270D01*
G01*
X92770000Y-87360000D02*
G75*
G02X92770000Y-85360000I0J1000000D01*
G01*
X92770000Y-85360000D02*
X92770000Y-83710000D01*
X92770000Y-83710000D02*
X72330000Y-83710000D01*
X72330000Y-83710000D02*
X72330000Y-89010000D01*
X72330000Y-89010000D02*
X92770000Y-89010000D01*
X92770000Y-89010000D02*
X92770000Y-87360000D01*
X101750000Y-114130000D02*
X101750000Y-118260000D01*
X101750000Y-118260000D02*
X96370000Y-118260000D01*
X96370000Y-118260000D02*
X96370000Y-112880000D01*
X96370000Y-112880000D02*
X100500000Y-112880000D01*
X102000000Y-114030000D02*
X102000000Y-112630000D01*
X102000000Y-112630000D02*
X100600000Y-112630000D01*
X72450000Y-72200000D02*
X69850000Y-72200000D01*
X69850000Y-72200000D02*
X69850000Y-63570000D01*
X69850000Y-63570000D02*
X72450000Y-63570000D01*
X72450000Y-63570000D02*
X72450000Y-72200000D01*
X71500000Y-72630000D02*
X71500000Y-72200000D01*
X70740000Y-72630000D02*
X70740000Y-72200000D01*
X72270000Y-72200000D02*
X72270000Y-63570000D01*
X72150000Y-72200000D02*
X72150000Y-63570000D01*
X72030000Y-72200000D02*
X72030000Y-63570000D01*
X71910000Y-72200000D02*
X71910000Y-63570000D01*
X71790000Y-72200000D02*
X71790000Y-63570000D01*
X71670000Y-72200000D02*
X71670000Y-63570000D01*
X71550000Y-72200000D02*
X71550000Y-63570000D01*
X71430000Y-72200000D02*
X71430000Y-63570000D01*
X71310000Y-72200000D02*
X71310000Y-63570000D01*
X71190000Y-72200000D02*
X71190000Y-63570000D01*
X71070000Y-72200000D02*
X71070000Y-63570000D01*
X70950000Y-72200000D02*
X70950000Y-63570000D01*
X70830000Y-72200000D02*
X70830000Y-63570000D01*
X70710000Y-72200000D02*
X70710000Y-63570000D01*
X70590000Y-72200000D02*
X70590000Y-63570000D01*
X70470000Y-72200000D02*
X70470000Y-63570000D01*
X70350000Y-72200000D02*
X70350000Y-63570000D01*
X70230000Y-72200000D02*
X70230000Y-63570000D01*
X70110000Y-72200000D02*
X70110000Y-63570000D01*
X69990000Y-72200000D02*
X69990000Y-63570000D01*
X69870000Y-72200000D02*
X69870000Y-63570000D01*
X69750000Y-72200000D02*
X69750000Y-63570000D01*
X69850000Y-72200000D02*
X67310000Y-72200000D01*
X67310000Y-72200000D02*
X67310000Y-63570000D01*
X67310000Y-63570000D02*
X69850000Y-63570000D01*
X69850000Y-63570000D02*
X69850000Y-72200000D01*
X68960000Y-72630000D02*
X68960000Y-72200000D01*
X68200000Y-72630000D02*
X68200000Y-72200000D01*
X67310000Y-72200000D02*
X64770000Y-72200000D01*
X64770000Y-72200000D02*
X64770000Y-63570000D01*
X64770000Y-63570000D02*
X67310000Y-63570000D01*
X67310000Y-63570000D02*
X67310000Y-72200000D01*
X66420000Y-72630000D02*
X66420000Y-72200000D01*
X65660000Y-72630000D02*
X65660000Y-72200000D01*
X64770000Y-72200000D02*
X62170000Y-72200000D01*
X62170000Y-72200000D02*
X62170000Y-63570000D01*
X62170000Y-63570000D02*
X64770000Y-63570000D01*
X64770000Y-63570000D02*
X64770000Y-72200000D01*
X63880000Y-72630000D02*
X63880000Y-72200000D01*
X63120000Y-72630000D02*
X63120000Y-72200000D01*
X72390000Y-73660000D02*
X72390000Y-74930000D01*
X72390000Y-74930000D02*
X71120000Y-74930000D01*
X96520000Y-94040000D02*
X104200000Y-94040000D01*
X104200000Y-94040000D02*
X104200000Y-91380000D01*
X104200000Y-91380000D02*
X96520000Y-91380000D01*
X96520000Y-91380000D02*
X96520000Y-94040000D01*
X95250000Y-94040000D02*
X93920000Y-94040000D01*
X93920000Y-94040000D02*
X93920000Y-92710000D01*
X58360000Y-95250000D02*
X58360000Y-97850000D01*
X58360000Y-97850000D02*
X61020000Y-97850000D01*
X61020000Y-97850000D02*
X61020000Y-95250000D01*
X61020000Y-95250000D02*
X58360000Y-95250000D01*
X58360000Y-93980000D02*
X58360000Y-92650000D01*
X58360000Y-92650000D02*
X59690000Y-92650000D01*
X58360000Y-113030000D02*
X58360000Y-115630000D01*
X58360000Y-115630000D02*
X61020000Y-115630000D01*
X61020000Y-115630000D02*
X61020000Y-113030000D01*
X61020000Y-113030000D02*
X58360000Y-113030000D01*
X58360000Y-111760000D02*
X58360000Y-110430000D01*
X58360000Y-110430000D02*
X59690000Y-110430000D01*
X66040000Y-113090000D02*
X68640000Y-113090000D01*
X68640000Y-113090000D02*
X68640000Y-110430000D01*
X68640000Y-110430000D02*
X66040000Y-110430000D01*
X66040000Y-110430000D02*
X66040000Y-113090000D01*
X64770000Y-113090000D02*
X63440000Y-113090000D01*
X63440000Y-113090000D02*
X63440000Y-111760000D01*
X66040000Y-110550000D02*
X68640000Y-110550000D01*
X68640000Y-110550000D02*
X68640000Y-107890000D01*
X68640000Y-107890000D02*
X66040000Y-107890000D01*
X66040000Y-107890000D02*
X66040000Y-110550000D01*
X64770000Y-110550000D02*
X63440000Y-110550000D01*
X63440000Y-110550000D02*
X63440000Y-109220000D01*
X65980000Y-133350000D02*
X65980000Y-135950000D01*
X65980000Y-135950000D02*
X68640000Y-135950000D01*
X68640000Y-135950000D02*
X68640000Y-133350000D01*
X68640000Y-133350000D02*
X65980000Y-133350000D01*
X65980000Y-132080000D02*
X65980000Y-130750000D01*
X65980000Y-130750000D02*
X67310000Y-130750000D01*
X94040000Y-133350000D02*
X94040000Y-118050000D01*
X94040000Y-118050000D02*
X91380000Y-118050000D01*
X91380000Y-118050000D02*
X91380000Y-133350000D01*
X91380000Y-133350000D02*
X94040000Y-133350000D01*
X94040000Y-134620000D02*
X94040000Y-135950000D01*
X94040000Y-135950000D02*
X92710000Y-135950000D01*
X94040000Y-110490000D02*
X94040000Y-107890000D01*
X94040000Y-107890000D02*
X91380000Y-107890000D01*
X91380000Y-107890000D02*
X91380000Y-110490000D01*
X91380000Y-110490000D02*
X94040000Y-110490000D01*
X94040000Y-111760000D02*
X94040000Y-113090000D01*
X94040000Y-113090000D02*
X92710000Y-113090000D01*
X69890000Y-99060000D02*
G75*
G03X69890000Y-99060000I-1310000J0D01*
G01*
X67270000Y-99060000D02*
X67140000Y-99060000D01*
X64810000Y-99060000D02*
G75*
G03X64810000Y-99060000I-1310000J0D01*
G01*
X63500000Y-100370000D02*
X63500000Y-100500000D01*
X102910000Y-110490000D02*
G75*
G03X102910000Y-110490000I-1310000J0D01*
G01*
X100290000Y-110490000D02*
X100160000Y-110490000D01*
X101640000Y-120650000D02*
G75*
G03X101640000Y-120650000I-1310000J0D01*
G01*
X99020000Y-120650000D02*
X98890000Y-120650000D01*
X63540000Y-125730000D02*
G75*
G03X63540000Y-125730000I-1310000J0D01*
G01*
X62230000Y-124420000D02*
X62230000Y-124290000D01*
X68620000Y-120650000D02*
G75*
G03X68620000Y-120650000I-1310000J0D01*
G01*
X66000000Y-120650000D02*
X65870000Y-120650000D01*
X66080000Y-116840000D02*
G75*
G03X66080000Y-116840000I-1310000J0D01*
G01*
X66080000Y-116840000D02*
X66210000Y-116840000D01*
X95290000Y-137160000D02*
G75*
G03X95290000Y-137160000I-1310000J0D01*
G01*
X92670000Y-137160000D02*
X92540000Y-137160000D01*
X104180000Y-99060000D02*
G75*
G03X104180000Y-99060000I-1310000J0D01*
G01*
X102870000Y-97750000D02*
X102870000Y-97620000D01*
X100370000Y-99060000D02*
G75*
G03X100370000Y-99060000I-1310000J0D01*
G01*
X99060000Y-97750000D02*
X99060000Y-97620000D01*
X96560000Y-99060000D02*
G75*
G03X96560000Y-99060000I-1310000J0D01*
G01*
X95250000Y-97750000D02*
X95250000Y-97620000D01*
X91480000Y-72390000D02*
G75*
G03X91480000Y-72390000I-1310000J0D01*
G01*
X91480000Y-72390000D02*
X91610000Y-72390000D01*
X91480000Y-68580000D02*
G75*
G03X91480000Y-68580000I-1310000J0D01*
G01*
X91480000Y-68580000D02*
X91610000Y-68580000D01*
X80050000Y-69850000D02*
G75*
G03X80050000Y-69850000I-1310000J0D01*
G01*
X77430000Y-69850000D02*
X77300000Y-69850000D01*
X76240000Y-76200000D02*
G75*
G03X76240000Y-76200000I-1310000J0D01*
G01*
X74930000Y-74890000D02*
X74930000Y-74760000D01*
X61000000Y-100330000D02*
G75*
G03X61000000Y-100330000I-1310000J0D01*
G01*
X59690000Y-101640000D02*
X59690000Y-101770000D01*
X62760000Y-117530000D02*
X59160000Y-117530000D01*
X62798478Y-117541522D02*
G75*
G02X60960000Y-121980000I-1838478J-1838478D01*
G01*
X59121522Y-117541522D02*
G75*
G03X60960000Y-121980000I1838478J-1838478D01*
G01*
X61540000Y-108480000D02*
X61540000Y-104880000D01*
X61528478Y-108518478D02*
G75*
G02X57090000Y-106680000I-1838478J1838478D01*
G01*
X61528478Y-104841522D02*
G75*
G03X57090000Y-106680000I-1838478J-1838478D01*
G01*
X103450000Y-105940000D02*
X103450000Y-102340000D01*
X103438478Y-105978478D02*
G75*
G02X99000000Y-104140000I-1838478J1838478D01*
G01*
X103438478Y-102301522D02*
G75*
G03X99000000Y-104140000I-1838478J-1838478D01*
G01*
X89430000Y-74350000D02*
X85830000Y-74350000D01*
X89468478Y-74361522D02*
G75*
G02X87630000Y-78800000I-1838478J-1838478D01*
G01*
X85791522Y-74361522D02*
G75*
G03X87630000Y-78800000I1838478J-1838478D01*
G01*
X85620000Y-69270000D02*
X82020000Y-69270000D01*
X85658478Y-69281522D02*
G75*
G02X83820000Y-73720000I-1838478J-1838478D01*
G01*
X81981522Y-69281522D02*
G75*
G03X83820000Y-73720000I1838478J-1838478D01*
G01*
X81810000Y-74350000D02*
X78210000Y-74350000D01*
X81848478Y-74361522D02*
G75*
G02X80010000Y-78800000I-1838478J-1838478D01*
G01*
X78171522Y-74361522D02*
G75*
G03X80010000Y-78800000I1838478J-1838478D01*
G01*
D11*
X80565714Y-94146667D02*
X81041905Y-94146667D01*
X80470476Y-94432381D02*
X80803809Y-93432381D01*
X81137143Y-94432381D01*
X81994286Y-94432381D02*
X81422857Y-94432381D01*
X81708571Y-94432381D02*
X81708571Y-93432381D01*
X81613333Y-93575238D01*
X81518095Y-93670476D01*
X81422857Y-93718095D01*
X78914762Y-135873810D02*
X80533810Y-135873810D01*
X80724286Y-135778571D01*
X80819524Y-135683333D01*
X80914762Y-135492857D01*
X80914762Y-135111905D01*
X80819524Y-134921429D01*
X80724286Y-134826190D01*
X80533810Y-134730952D01*
X78914762Y-134730952D01*
X80819524Y-133873810D02*
X80914762Y-133588095D01*
X80914762Y-133111905D01*
X80819524Y-132921429D01*
X80724286Y-132826191D01*
X80533810Y-132730952D01*
X80343333Y-132730952D01*
X80152857Y-132826191D01*
X80057619Y-132921429D01*
X79962381Y-133111905D01*
X79867143Y-133492857D01*
X79771905Y-133683333D01*
X79676667Y-133778572D01*
X79486190Y-133873810D01*
X79295714Y-133873810D01*
X79105238Y-133778572D01*
X79010000Y-133683333D01*
X78914762Y-133492857D01*
X78914762Y-133016667D01*
X79010000Y-132730952D01*
X79867143Y-131207143D02*
X79962381Y-130921429D01*
X80057619Y-130826190D01*
X80248095Y-130730952D01*
X80533810Y-130730952D01*
X80724286Y-130826190D01*
X80819524Y-130921429D01*
X80914762Y-131111905D01*
X80914762Y-131873810D01*
X78914762Y-131873810D01*
X78914762Y-131207143D01*
X79010000Y-131016667D01*
X79105238Y-130921429D01*
X79295714Y-130826190D01*
X79486190Y-130826190D01*
X79676667Y-130921429D01*
X79771905Y-131016667D01*
X79867143Y-131207143D01*
X79867143Y-131873810D01*
X57681905Y-135072381D02*
X57681905Y-134072381D01*
X57920000Y-134072381D01*
X58062858Y-134120000D01*
X58158096Y-134215238D01*
X58205715Y-134310476D01*
X58253334Y-134500952D01*
X58253334Y-134643810D01*
X58205715Y-134834286D01*
X58158096Y-134929524D01*
X58062858Y-135024762D01*
X57920000Y-135072381D01*
X57681905Y-135072381D01*
X59205715Y-135072381D02*
X58634286Y-135072381D01*
X58920000Y-135072381D02*
X58920000Y-134072381D01*
X58824762Y-134215238D01*
X58729524Y-134310476D01*
X58634286Y-134358095D01*
X98321905Y-131262381D02*
X98321905Y-130262381D01*
X98560000Y-130262381D01*
X98702858Y-130310000D01*
X98798096Y-130405238D01*
X98845715Y-130500476D01*
X98893334Y-130690952D01*
X98893334Y-130833810D01*
X98845715Y-131024286D01*
X98798096Y-131119524D01*
X98702858Y-131214762D01*
X98560000Y-131262381D01*
X98321905Y-131262381D01*
X99274286Y-130357619D02*
X99321905Y-130310000D01*
X99417143Y-130262381D01*
X99655239Y-130262381D01*
X99750477Y-130310000D01*
X99798096Y-130357619D01*
X99845715Y-130452857D01*
X99845715Y-130548095D01*
X99798096Y-130690952D01*
X99226667Y-131262381D01*
X99845715Y-131262381D01*
X58872381Y-83288095D02*
X57872381Y-83288095D01*
X57872381Y-83050000D01*
X57920000Y-82907142D01*
X58015238Y-82811904D01*
X58110476Y-82764285D01*
X58300952Y-82716666D01*
X58443810Y-82716666D01*
X58634286Y-82764285D01*
X58729524Y-82811904D01*
X58824762Y-82907142D01*
X58872381Y-83050000D01*
X58872381Y-83288095D01*
X57872381Y-82383333D02*
X57872381Y-81764285D01*
X58253333Y-82097619D01*
X58253333Y-81954761D01*
X58300952Y-81859523D01*
X58348571Y-81811904D01*
X58443810Y-81764285D01*
X58681905Y-81764285D01*
X58777143Y-81811904D01*
X58824762Y-81859523D01*
X58872381Y-81954761D01*
X58872381Y-82240476D01*
X58824762Y-82335714D01*
X58777143Y-82383333D01*
X102052381Y-82788095D02*
X101052381Y-82788095D01*
X101052381Y-82550000D01*
X101100000Y-82407142D01*
X101195238Y-82311904D01*
X101290476Y-82264285D01*
X101480952Y-82216666D01*
X101623810Y-82216666D01*
X101814286Y-82264285D01*
X101909524Y-82311904D01*
X102004762Y-82407142D01*
X102052381Y-82550000D01*
X102052381Y-82788095D01*
X101385714Y-81359523D02*
X102052381Y-81359523D01*
X101004762Y-81597619D02*
X101719048Y-81835714D01*
X101719048Y-81216666D01*
X102052381Y-71358095D02*
X101052381Y-71358095D01*
X101052381Y-71120000D01*
X101100000Y-70977142D01*
X101195238Y-70881904D01*
X101290476Y-70834285D01*
X101480952Y-70786666D01*
X101623810Y-70786666D01*
X101814286Y-70834285D01*
X101909524Y-70881904D01*
X102004762Y-70977142D01*
X102052381Y-71120000D01*
X102052381Y-71358095D01*
X101052381Y-69881904D02*
X101052381Y-70358095D01*
X101528571Y-70405714D01*
X101480952Y-70358095D01*
X101433333Y-70262857D01*
X101433333Y-70024761D01*
X101480952Y-69929523D01*
X101528571Y-69881904D01*
X101623810Y-69834285D01*
X101861905Y-69834285D01*
X101957143Y-69881904D01*
X102004762Y-69929523D01*
X102052381Y-70024761D01*
X102052381Y-70262857D01*
X102004762Y-70358095D01*
X101957143Y-70405714D01*
X58872381Y-71358095D02*
X57872381Y-71358095D01*
X57872381Y-71120000D01*
X57920000Y-70977142D01*
X58015238Y-70881904D01*
X58110476Y-70834285D01*
X58300952Y-70786666D01*
X58443810Y-70786666D01*
X58634286Y-70834285D01*
X58729524Y-70881904D01*
X58824762Y-70977142D01*
X58872381Y-71120000D01*
X58872381Y-71358095D01*
X57872381Y-69929523D02*
X57872381Y-70120000D01*
X57920000Y-70215238D01*
X57967619Y-70262857D01*
X58110476Y-70358095D01*
X58300952Y-70405714D01*
X58681905Y-70405714D01*
X58777143Y-70358095D01*
X58824762Y-70310476D01*
X58872381Y-70215238D01*
X58872381Y-70024761D01*
X58824762Y-69929523D01*
X58777143Y-69881904D01*
X58681905Y-69834285D01*
X58443810Y-69834285D01*
X58348571Y-69881904D01*
X58300952Y-69929523D01*
X58253333Y-70024761D01*
X58253333Y-70215238D01*
X58300952Y-70310476D01*
X58348571Y-70358095D01*
X58443810Y-70405714D01*
X69672381Y-126468095D02*
X68672381Y-126468095D01*
X68672381Y-126230000D01*
X68720000Y-126087142D01*
X68815238Y-125991904D01*
X68910476Y-125944285D01*
X69100952Y-125896666D01*
X69243810Y-125896666D01*
X69434286Y-125944285D01*
X69529524Y-125991904D01*
X69624762Y-126087142D01*
X69672381Y-126230000D01*
X69672381Y-126468095D01*
X68672381Y-125563333D02*
X68672381Y-124896666D01*
X69672381Y-125325238D01*
X58951905Y-129992381D02*
X58951905Y-128992381D01*
X59190000Y-128992381D01*
X59332858Y-129040000D01*
X59428096Y-129135238D01*
X59475715Y-129230476D01*
X59523334Y-129420952D01*
X59523334Y-129563810D01*
X59475715Y-129754286D01*
X59428096Y-129849524D01*
X59332858Y-129944762D01*
X59190000Y-129992381D01*
X58951905Y-129992381D01*
X60094762Y-129420952D02*
X59999524Y-129373333D01*
X59951905Y-129325714D01*
X59904286Y-129230476D01*
X59904286Y-129182857D01*
X59951905Y-129087619D01*
X59999524Y-129040000D01*
X60094762Y-128992381D01*
X60285239Y-128992381D01*
X60380477Y-129040000D01*
X60428096Y-129087619D01*
X60475715Y-129182857D01*
X60475715Y-129230476D01*
X60428096Y-129325714D01*
X60380477Y-129373333D01*
X60285239Y-129420952D01*
X60094762Y-129420952D01*
X59999524Y-129468571D01*
X59951905Y-129516190D01*
X59904286Y-129611429D01*
X59904286Y-129801905D01*
X59951905Y-129897143D01*
X59999524Y-129944762D01*
X60094762Y-129992381D01*
X60285239Y-129992381D01*
X60380477Y-129944762D01*
X60428096Y-129897143D01*
X60475715Y-129801905D01*
X60475715Y-129611429D01*
X60428096Y-129516190D01*
X60380477Y-129468571D01*
X60285239Y-129420952D01*
X93698571Y-88026667D02*
X93698571Y-87693333D01*
X94222381Y-87550476D02*
X94222381Y-88026667D01*
X93222381Y-88026667D01*
X93222381Y-87550476D01*
X93222381Y-87217143D02*
X94222381Y-86550476D01*
X93222381Y-86550476D02*
X94222381Y-87217143D01*
X94222381Y-86169524D02*
X93222381Y-86169524D01*
X93222381Y-85788571D01*
X93270000Y-85693333D01*
X93317619Y-85645714D01*
X93412857Y-85598095D01*
X93555714Y-85598095D01*
X93650952Y-85645714D01*
X93698571Y-85693333D01*
X93746190Y-85788571D01*
X93746190Y-86169524D01*
X94222381Y-84645714D02*
X94222381Y-85217143D01*
X94222381Y-84931429D02*
X93222381Y-84931429D01*
X93365238Y-85026667D01*
X93460476Y-85121905D01*
X93508095Y-85217143D01*
X102536667Y-115022381D02*
X102536667Y-115736667D01*
X102489047Y-115879524D01*
X102393809Y-115974762D01*
X102250952Y-116022381D01*
X102155714Y-116022381D01*
X103536667Y-116022381D02*
X102965238Y-116022381D01*
X103250952Y-116022381D02*
X103250952Y-115022381D01*
X103155714Y-115165238D01*
X103060476Y-115260476D01*
X102965238Y-115308095D01*
X72842381Y-69613333D02*
X73556667Y-69613333D01*
X73699524Y-69660953D01*
X73794762Y-69756191D01*
X73842381Y-69899048D01*
X73842381Y-69994286D01*
X72937619Y-69184762D02*
X72890000Y-69137143D01*
X72842381Y-69041905D01*
X72842381Y-68803809D01*
X72890000Y-68708571D01*
X72937619Y-68660952D01*
X73032857Y-68613333D01*
X73128095Y-68613333D01*
X73270952Y-68660952D01*
X73842381Y-69232381D01*
X73842381Y-68613333D01*
X92162381Y-93043333D02*
X92876667Y-93043333D01*
X93019524Y-93090953D01*
X93114762Y-93186191D01*
X93162381Y-93329048D01*
X93162381Y-93424286D01*
X92162381Y-92662381D02*
X92162381Y-92043333D01*
X92543333Y-92376667D01*
X92543333Y-92233809D01*
X92590952Y-92138571D01*
X92638571Y-92090952D01*
X92733810Y-92043333D01*
X92971905Y-92043333D01*
X93067143Y-92090952D01*
X93114762Y-92138571D01*
X93162381Y-92233809D01*
X93162381Y-92519524D01*
X93114762Y-92614762D01*
X93067143Y-92662381D01*
X59356667Y-91102381D02*
X59356667Y-91816667D01*
X59309047Y-91959524D01*
X59213809Y-92054762D01*
X59070952Y-92102381D01*
X58975714Y-92102381D01*
X60261429Y-91435714D02*
X60261429Y-92102381D01*
X60023333Y-91054762D02*
X59785238Y-91769048D01*
X60404286Y-91769048D01*
X56816667Y-112482381D02*
X56816667Y-113196667D01*
X56769047Y-113339524D01*
X56673809Y-113434762D01*
X56530952Y-113482381D01*
X56435714Y-113482381D01*
X57769048Y-112482381D02*
X57292857Y-112482381D01*
X57245238Y-112958571D01*
X57292857Y-112910952D01*
X57388095Y-112863333D01*
X57626191Y-112863333D01*
X57721429Y-112910952D01*
X57769048Y-112958571D01*
X57816667Y-113053810D01*
X57816667Y-113291905D01*
X57769048Y-113387143D01*
X57721429Y-113434762D01*
X57626191Y-113482381D01*
X57388095Y-113482381D01*
X57292857Y-113434762D01*
X57245238Y-113387143D01*
X61892381Y-112093333D02*
X62606667Y-112093333D01*
X62749524Y-112140953D01*
X62844762Y-112236191D01*
X62892381Y-112379048D01*
X62892381Y-112474286D01*
X61892381Y-111188571D02*
X61892381Y-111379048D01*
X61940000Y-111474286D01*
X61987619Y-111521905D01*
X62130476Y-111617143D01*
X62320952Y-111664762D01*
X62701905Y-111664762D01*
X62797143Y-111617143D01*
X62844762Y-111569524D01*
X62892381Y-111474286D01*
X62892381Y-111283809D01*
X62844762Y-111188571D01*
X62797143Y-111140952D01*
X62701905Y-111093333D01*
X62463810Y-111093333D01*
X62368571Y-111140952D01*
X62320952Y-111188571D01*
X62273333Y-111283809D01*
X62273333Y-111474286D01*
X62320952Y-111569524D01*
X62368571Y-111617143D01*
X62463810Y-111664762D01*
X61892381Y-109553333D02*
X62606667Y-109553333D01*
X62749524Y-109600953D01*
X62844762Y-109696191D01*
X62892381Y-109839048D01*
X62892381Y-109934286D01*
X61892381Y-109172381D02*
X61892381Y-108505714D01*
X62892381Y-108934286D01*
X66976667Y-136612381D02*
X66976667Y-137326667D01*
X66929047Y-137469524D01*
X66833809Y-137564762D01*
X66690952Y-137612381D01*
X66595714Y-137612381D01*
X67595714Y-137040952D02*
X67500476Y-136993333D01*
X67452857Y-136945714D01*
X67405238Y-136850476D01*
X67405238Y-136802857D01*
X67452857Y-136707619D01*
X67500476Y-136660000D01*
X67595714Y-136612381D01*
X67786191Y-136612381D01*
X67881429Y-136660000D01*
X67929048Y-136707619D01*
X67976667Y-136802857D01*
X67976667Y-136850476D01*
X67929048Y-136945714D01*
X67881429Y-136993333D01*
X67786191Y-137040952D01*
X67595714Y-137040952D01*
X67500476Y-137088571D01*
X67452857Y-137136190D01*
X67405238Y-137231429D01*
X67405238Y-137421905D01*
X67452857Y-137517143D01*
X67500476Y-137564762D01*
X67595714Y-137612381D01*
X67786191Y-137612381D01*
X67881429Y-137564762D01*
X67929048Y-137517143D01*
X67976667Y-137421905D01*
X67976667Y-137231429D01*
X67929048Y-137136190D01*
X67881429Y-137088571D01*
X67786191Y-137040952D01*
X94916667Y-126452381D02*
X94916667Y-127166667D01*
X94869047Y-127309524D01*
X94773809Y-127404762D01*
X94630952Y-127452381D01*
X94535714Y-127452381D01*
X95440476Y-127452381D02*
X95630952Y-127452381D01*
X95726191Y-127404762D01*
X95773810Y-127357143D01*
X95869048Y-127214286D01*
X95916667Y-127023810D01*
X95916667Y-126642857D01*
X95869048Y-126547619D01*
X95821429Y-126500000D01*
X95726191Y-126452381D01*
X95535714Y-126452381D01*
X95440476Y-126500000D01*
X95392857Y-126547619D01*
X95345238Y-126642857D01*
X95345238Y-126880952D01*
X95392857Y-126976190D01*
X95440476Y-127023810D01*
X95535714Y-127071429D01*
X95726191Y-127071429D01*
X95821429Y-127023810D01*
X95869048Y-126976190D01*
X95916667Y-126880952D01*
X91900477Y-113542381D02*
X91900477Y-114256667D01*
X91852857Y-114399524D01*
X91757619Y-114494762D01*
X91614762Y-114542381D01*
X91519524Y-114542381D01*
X92900477Y-114542381D02*
X92329048Y-114542381D01*
X92614762Y-114542381D02*
X92614762Y-113542381D01*
X92519524Y-113685238D01*
X92424286Y-113780476D01*
X92329048Y-113828095D01*
X93519524Y-113542381D02*
X93614763Y-113542381D01*
X93710001Y-113590000D01*
X93757620Y-113637619D01*
X93805239Y-113732857D01*
X93852858Y-113923333D01*
X93852858Y-114161429D01*
X93805239Y-114351905D01*
X93757620Y-114447143D01*
X93710001Y-114494762D01*
X93614763Y-114542381D01*
X93519524Y-114542381D01*
X93424286Y-114494762D01*
X93376667Y-114447143D01*
X93329048Y-114351905D01*
X93281429Y-114161429D01*
X93281429Y-113923333D01*
X93329048Y-113732857D01*
X93376667Y-113637619D01*
X93424286Y-113590000D01*
X93519524Y-113542381D01*
X67143334Y-101322381D02*
X66810000Y-100846190D01*
X66571905Y-101322381D02*
X66571905Y-100322381D01*
X66952858Y-100322381D01*
X67048096Y-100370000D01*
X67095715Y-100417619D01*
X67143334Y-100512857D01*
X67143334Y-100655714D01*
X67095715Y-100750952D01*
X67048096Y-100798571D01*
X66952858Y-100846190D01*
X66571905Y-100846190D01*
X68095715Y-101322381D02*
X67524286Y-101322381D01*
X67810000Y-101322381D02*
X67810000Y-100322381D01*
X67714762Y-100465238D01*
X67619524Y-100560476D01*
X67524286Y-100608095D01*
X63952381Y-104306666D02*
X63476190Y-104640000D01*
X63952381Y-104878095D02*
X62952381Y-104878095D01*
X62952381Y-104497142D01*
X63000000Y-104401904D01*
X63047619Y-104354285D01*
X63142857Y-104306666D01*
X63285714Y-104306666D01*
X63380952Y-104354285D01*
X63428571Y-104401904D01*
X63476190Y-104497142D01*
X63476190Y-104878095D01*
X63047619Y-103925714D02*
X63000000Y-103878095D01*
X62952381Y-103782857D01*
X62952381Y-103544761D01*
X63000000Y-103449523D01*
X63047619Y-103401904D01*
X63142857Y-103354285D01*
X63238095Y-103354285D01*
X63380952Y-103401904D01*
X63952381Y-103973333D01*
X63952381Y-103354285D01*
X103973334Y-110942381D02*
X103640000Y-110466190D01*
X103401905Y-110942381D02*
X103401905Y-109942381D01*
X103782858Y-109942381D01*
X103878096Y-109990000D01*
X103925715Y-110037619D01*
X103973334Y-110132857D01*
X103973334Y-110275714D01*
X103925715Y-110370952D01*
X103878096Y-110418571D01*
X103782858Y-110466190D01*
X103401905Y-110466190D01*
X104306667Y-109942381D02*
X104925715Y-109942381D01*
X104592381Y-110323333D01*
X104735239Y-110323333D01*
X104830477Y-110370952D01*
X104878096Y-110418571D01*
X104925715Y-110513810D01*
X104925715Y-110751905D01*
X104878096Y-110847143D01*
X104830477Y-110894762D01*
X104735239Y-110942381D01*
X104449524Y-110942381D01*
X104354286Y-110894762D01*
X104306667Y-110847143D01*
X98893334Y-123412381D02*
X98560000Y-122936190D01*
X98321905Y-123412381D02*
X98321905Y-122412381D01*
X98702858Y-122412381D01*
X98798096Y-122460000D01*
X98845715Y-122507619D01*
X98893334Y-122602857D01*
X98893334Y-122745714D01*
X98845715Y-122840952D01*
X98798096Y-122888571D01*
X98702858Y-122936190D01*
X98321905Y-122936190D01*
X99750477Y-122745714D02*
X99750477Y-123412381D01*
X99512381Y-122364762D02*
X99274286Y-123079048D01*
X99893334Y-123079048D01*
X60372381Y-124626666D02*
X59896190Y-124960000D01*
X60372381Y-125198095D02*
X59372381Y-125198095D01*
X59372381Y-124817142D01*
X59420000Y-124721904D01*
X59467619Y-124674285D01*
X59562857Y-124626666D01*
X59705714Y-124626666D01*
X59800952Y-124674285D01*
X59848571Y-124721904D01*
X59896190Y-124817142D01*
X59896190Y-125198095D01*
X59372381Y-123721904D02*
X59372381Y-124198095D01*
X59848571Y-124245714D01*
X59800952Y-124198095D01*
X59753333Y-124102857D01*
X59753333Y-123864761D01*
X59800952Y-123769523D01*
X59848571Y-123721904D01*
X59943810Y-123674285D01*
X60181905Y-123674285D01*
X60277143Y-123721904D01*
X60324762Y-123769523D01*
X60372381Y-123864761D01*
X60372381Y-124102857D01*
X60324762Y-124198095D01*
X60277143Y-124245714D01*
X65873334Y-119562381D02*
X65540000Y-119086190D01*
X65301905Y-119562381D02*
X65301905Y-118562381D01*
X65682858Y-118562381D01*
X65778096Y-118610000D01*
X65825715Y-118657619D01*
X65873334Y-118752857D01*
X65873334Y-118895714D01*
X65825715Y-118990952D01*
X65778096Y-119038571D01*
X65682858Y-119086190D01*
X65301905Y-119086190D01*
X66730477Y-118562381D02*
X66540000Y-118562381D01*
X66444762Y-118610000D01*
X66397143Y-118657619D01*
X66301905Y-118800476D01*
X66254286Y-118990952D01*
X66254286Y-119371905D01*
X66301905Y-119467143D01*
X66349524Y-119514762D01*
X66444762Y-119562381D01*
X66635239Y-119562381D01*
X66730477Y-119514762D01*
X66778096Y-119467143D01*
X66825715Y-119371905D01*
X66825715Y-119133810D01*
X66778096Y-119038571D01*
X66730477Y-118990952D01*
X66635239Y-118943333D01*
X66444762Y-118943333D01*
X66349524Y-118990952D01*
X66301905Y-119038571D01*
X66254286Y-119133810D01*
X65873334Y-115252381D02*
X65540000Y-114776190D01*
X65301905Y-115252381D02*
X65301905Y-114252381D01*
X65682858Y-114252381D01*
X65778096Y-114300000D01*
X65825715Y-114347619D01*
X65873334Y-114442857D01*
X65873334Y-114585714D01*
X65825715Y-114680952D01*
X65778096Y-114728571D01*
X65682858Y-114776190D01*
X65301905Y-114776190D01*
X66206667Y-114252381D02*
X66873334Y-114252381D01*
X66444762Y-115252381D01*
X96353334Y-137612381D02*
X96020000Y-137136190D01*
X95781905Y-137612381D02*
X95781905Y-136612381D01*
X96162858Y-136612381D01*
X96258096Y-136660000D01*
X96305715Y-136707619D01*
X96353334Y-136802857D01*
X96353334Y-136945714D01*
X96305715Y-137040952D01*
X96258096Y-137088571D01*
X96162858Y-137136190D01*
X95781905Y-137136190D01*
X96924762Y-137040952D02*
X96829524Y-136993333D01*
X96781905Y-136945714D01*
X96734286Y-136850476D01*
X96734286Y-136802857D01*
X96781905Y-136707619D01*
X96829524Y-136660000D01*
X96924762Y-136612381D01*
X97115239Y-136612381D01*
X97210477Y-136660000D01*
X97258096Y-136707619D01*
X97305715Y-136802857D01*
X97305715Y-136850476D01*
X97258096Y-136945714D01*
X97210477Y-136993333D01*
X97115239Y-137040952D01*
X96924762Y-137040952D01*
X96829524Y-137088571D01*
X96781905Y-137136190D01*
X96734286Y-137231429D01*
X96734286Y-137421905D01*
X96781905Y-137517143D01*
X96829524Y-137564762D01*
X96924762Y-137612381D01*
X97115239Y-137612381D01*
X97210477Y-137564762D01*
X97258096Y-137517143D01*
X97305715Y-137421905D01*
X97305715Y-137231429D01*
X97258096Y-137136190D01*
X97210477Y-137088571D01*
X97115239Y-137040952D01*
X105362381Y-97956666D02*
X104886190Y-98290000D01*
X105362381Y-98528095D02*
X104362381Y-98528095D01*
X104362381Y-98147142D01*
X104410000Y-98051904D01*
X104457619Y-98004285D01*
X104552857Y-97956666D01*
X104695714Y-97956666D01*
X104790952Y-98004285D01*
X104838571Y-98051904D01*
X104886190Y-98147142D01*
X104886190Y-98528095D01*
X105362381Y-97480476D02*
X105362381Y-97290000D01*
X105314762Y-97194761D01*
X105267143Y-97147142D01*
X105124286Y-97051904D01*
X104933810Y-97004285D01*
X104552857Y-97004285D01*
X104457619Y-97051904D01*
X104410000Y-97099523D01*
X104362381Y-97194761D01*
X104362381Y-97385238D01*
X104410000Y-97480476D01*
X104457619Y-97528095D01*
X104552857Y-97575714D01*
X104790952Y-97575714D01*
X104886190Y-97528095D01*
X104933810Y-97480476D01*
X104981429Y-97385238D01*
X104981429Y-97194761D01*
X104933810Y-97099523D01*
X104886190Y-97051904D01*
X104790952Y-97004285D01*
X97742381Y-98432857D02*
X97266190Y-98766191D01*
X97742381Y-99004286D02*
X96742381Y-99004286D01*
X96742381Y-98623333D01*
X96790000Y-98528095D01*
X96837619Y-98480476D01*
X96932857Y-98432857D01*
X97075714Y-98432857D01*
X97170952Y-98480476D01*
X97218571Y-98528095D01*
X97266190Y-98623333D01*
X97266190Y-99004286D01*
X97742381Y-97480476D02*
X97742381Y-98051905D01*
X97742381Y-97766191D02*
X96742381Y-97766191D01*
X96885238Y-97861429D01*
X96980476Y-97956667D01*
X97028095Y-98051905D01*
X96742381Y-96861429D02*
X96742381Y-96766190D01*
X96790000Y-96670952D01*
X96837619Y-96623333D01*
X96932857Y-96575714D01*
X97123333Y-96528095D01*
X97361429Y-96528095D01*
X97551905Y-96575714D01*
X97647143Y-96623333D01*
X97694762Y-96670952D01*
X97742381Y-96766190D01*
X97742381Y-96861429D01*
X97694762Y-96956667D01*
X97647143Y-97004286D01*
X97551905Y-97051905D01*
X97361429Y-97099524D01*
X97123333Y-97099524D01*
X96932857Y-97051905D01*
X96837619Y-97004286D01*
X96790000Y-96956667D01*
X96742381Y-96861429D01*
X93162381Y-98432857D02*
X92686190Y-98766191D01*
X93162381Y-99004286D02*
X92162381Y-99004286D01*
X92162381Y-98623333D01*
X92210000Y-98528095D01*
X92257619Y-98480476D01*
X92352857Y-98432857D01*
X92495714Y-98432857D01*
X92590952Y-98480476D01*
X92638571Y-98528095D01*
X92686190Y-98623333D01*
X92686190Y-99004286D01*
X93162381Y-97480476D02*
X93162381Y-98051905D01*
X93162381Y-97766191D02*
X92162381Y-97766191D01*
X92305238Y-97861429D01*
X92400476Y-97956667D01*
X92448095Y-98051905D01*
X93162381Y-96528095D02*
X93162381Y-97099524D01*
X93162381Y-96813810D02*
X92162381Y-96813810D01*
X92305238Y-96909048D01*
X92400476Y-97004286D01*
X92448095Y-97099524D01*
X94607143Y-72842381D02*
X94273809Y-72366190D01*
X94035714Y-72842381D02*
X94035714Y-71842381D01*
X94416667Y-71842381D01*
X94511905Y-71890000D01*
X94559524Y-71937619D01*
X94607143Y-72032857D01*
X94607143Y-72175714D01*
X94559524Y-72270952D01*
X94511905Y-72318571D01*
X94416667Y-72366190D01*
X94035714Y-72366190D01*
X95559524Y-72842381D02*
X94988095Y-72842381D01*
X95273809Y-72842381D02*
X95273809Y-71842381D01*
X95178571Y-71985238D01*
X95083333Y-72080476D01*
X94988095Y-72128095D01*
X95940476Y-71937619D02*
X95988095Y-71890000D01*
X96083333Y-71842381D01*
X96321429Y-71842381D01*
X96416667Y-71890000D01*
X96464286Y-71937619D01*
X96511905Y-72032857D01*
X96511905Y-72128095D01*
X96464286Y-72270952D01*
X95892857Y-72842381D01*
X96511905Y-72842381D01*
X94607143Y-69032381D02*
X94273809Y-68556190D01*
X94035714Y-69032381D02*
X94035714Y-68032381D01*
X94416667Y-68032381D01*
X94511905Y-68080000D01*
X94559524Y-68127619D01*
X94607143Y-68222857D01*
X94607143Y-68365714D01*
X94559524Y-68460952D01*
X94511905Y-68508571D01*
X94416667Y-68556190D01*
X94035714Y-68556190D01*
X95559524Y-69032381D02*
X94988095Y-69032381D01*
X95273809Y-69032381D02*
X95273809Y-68032381D01*
X95178571Y-68175238D01*
X95083333Y-68270476D01*
X94988095Y-68318095D01*
X95892857Y-68032381D02*
X96511905Y-68032381D01*
X96178571Y-68413333D01*
X96321429Y-68413333D01*
X96416667Y-68460952D01*
X96464286Y-68508571D01*
X96511905Y-68603810D01*
X96511905Y-68841905D01*
X96464286Y-68937143D01*
X96416667Y-68984762D01*
X96321429Y-69032381D01*
X96035714Y-69032381D01*
X95940476Y-68984762D01*
X95892857Y-68937143D01*
X76827143Y-68262381D02*
X76493809Y-67786190D01*
X76255714Y-68262381D02*
X76255714Y-67262381D01*
X76636667Y-67262381D01*
X76731905Y-67310000D01*
X76779524Y-67357619D01*
X76827143Y-67452857D01*
X76827143Y-67595714D01*
X76779524Y-67690952D01*
X76731905Y-67738571D01*
X76636667Y-67786190D01*
X76255714Y-67786190D01*
X77779524Y-68262381D02*
X77208095Y-68262381D01*
X77493809Y-68262381D02*
X77493809Y-67262381D01*
X77398571Y-67405238D01*
X77303333Y-67500476D01*
X77208095Y-67548095D01*
X78636667Y-67595714D02*
X78636667Y-68262381D01*
X78398571Y-67214762D02*
X78160476Y-67929048D01*
X78779524Y-67929048D01*
X73342381Y-75572857D02*
X72866190Y-75906191D01*
X73342381Y-76144286D02*
X72342381Y-76144286D01*
X72342381Y-75763333D01*
X72390000Y-75668095D01*
X72437619Y-75620476D01*
X72532857Y-75572857D01*
X72675714Y-75572857D01*
X72770952Y-75620476D01*
X72818571Y-75668095D01*
X72866190Y-75763333D01*
X72866190Y-76144286D01*
X73342381Y-74620476D02*
X73342381Y-75191905D01*
X73342381Y-74906191D02*
X72342381Y-74906191D01*
X72485238Y-75001429D01*
X72580476Y-75096667D01*
X72628095Y-75191905D01*
X72342381Y-73715714D02*
X72342381Y-74191905D01*
X72818571Y-74239524D01*
X72770952Y-74191905D01*
X72723333Y-74096667D01*
X72723333Y-73858571D01*
X72770952Y-73763333D01*
X72818571Y-73715714D01*
X72913810Y-73668095D01*
X73151905Y-73668095D01*
X73247143Y-73715714D01*
X73294762Y-73763333D01*
X73342381Y-73858571D01*
X73342381Y-74096667D01*
X73294762Y-74191905D01*
X73247143Y-74239524D01*
X56507143Y-102052381D02*
X56173809Y-101576190D01*
X55935714Y-102052381D02*
X55935714Y-101052381D01*
X56316667Y-101052381D01*
X56411905Y-101100000D01*
X56459524Y-101147619D01*
X56507143Y-101242857D01*
X56507143Y-101385714D01*
X56459524Y-101480952D01*
X56411905Y-101528571D01*
X56316667Y-101576190D01*
X55935714Y-101576190D01*
X57459524Y-102052381D02*
X56888095Y-102052381D01*
X57173809Y-102052381D02*
X57173809Y-101052381D01*
X57078571Y-101195238D01*
X56983333Y-101290476D01*
X56888095Y-101338095D01*
X58316667Y-101052381D02*
X58126190Y-101052381D01*
X58030952Y-101100000D01*
X57983333Y-101147619D01*
X57888095Y-101290476D01*
X57840476Y-101480952D01*
X57840476Y-101861905D01*
X57888095Y-101957143D01*
X57935714Y-102004762D01*
X58030952Y-102052381D01*
X58221429Y-102052381D01*
X58316667Y-102004762D01*
X58364286Y-101957143D01*
X58411905Y-101861905D01*
X58411905Y-101623810D01*
X58364286Y-101528571D01*
X58316667Y-101480952D01*
X58221429Y-101433333D01*
X58030952Y-101433333D01*
X57935714Y-101480952D01*
X57888095Y-101528571D01*
X57840476Y-101623810D01*
X56388095Y-118832381D02*
X56959524Y-118832381D01*
X56673809Y-119832381D02*
X56673809Y-118832381D01*
X57816667Y-119832381D02*
X57245238Y-119832381D01*
X57530952Y-119832381D02*
X57530952Y-118832381D01*
X57435714Y-118975238D01*
X57340476Y-119070476D01*
X57245238Y-119118095D01*
X55582381Y-107441905D02*
X55582381Y-106870476D01*
X56582381Y-107156191D02*
X55582381Y-107156191D01*
X55677619Y-106584762D02*
X55630000Y-106537143D01*
X55582381Y-106441905D01*
X55582381Y-106203809D01*
X55630000Y-106108571D01*
X55677619Y-106060952D01*
X55772857Y-106013333D01*
X55868095Y-106013333D01*
X56010952Y-106060952D01*
X56582381Y-106632381D01*
X56582381Y-106013333D01*
X97742381Y-103631905D02*
X97742381Y-103060476D01*
X98742381Y-103346191D02*
X97742381Y-103346191D01*
X97742381Y-102822381D02*
X97742381Y-102203333D01*
X98123333Y-102536667D01*
X98123333Y-102393809D01*
X98170952Y-102298571D01*
X98218571Y-102250952D01*
X98313810Y-102203333D01*
X98551905Y-102203333D01*
X98647143Y-102250952D01*
X98694762Y-102298571D01*
X98742381Y-102393809D01*
X98742381Y-102679524D01*
X98694762Y-102774762D01*
X98647143Y-102822381D01*
X86868095Y-79212381D02*
X87439524Y-79212381D01*
X87153809Y-80212381D02*
X87153809Y-79212381D01*
X88201429Y-79545714D02*
X88201429Y-80212381D01*
X87963333Y-79164762D02*
X87725238Y-79879048D01*
X88344286Y-79879048D01*
X83058095Y-68032381D02*
X83629524Y-68032381D01*
X83343809Y-69032381D02*
X83343809Y-68032381D01*
X84439048Y-68032381D02*
X83962857Y-68032381D01*
X83915238Y-68508571D01*
X83962857Y-68460952D01*
X84058095Y-68413333D01*
X84296191Y-68413333D01*
X84391429Y-68460952D01*
X84439048Y-68508571D01*
X84486667Y-68603810D01*
X84486667Y-68841905D01*
X84439048Y-68937143D01*
X84391429Y-68984762D01*
X84296191Y-69032381D01*
X84058095Y-69032381D01*
X83962857Y-68984762D01*
X83915238Y-68937143D01*
X79248095Y-79212381D02*
X79819524Y-79212381D01*
X79533809Y-80212381D02*
X79533809Y-79212381D01*
X80581429Y-79212381D02*
X80390952Y-79212381D01*
X80295714Y-79260000D01*
X80248095Y-79307619D01*
X80152857Y-79450476D01*
X80105238Y-79640952D01*
X80105238Y-80021905D01*
X80152857Y-80117143D01*
X80200476Y-80164762D01*
X80295714Y-80212381D01*
X80486191Y-80212381D01*
X80581429Y-80164762D01*
X80629048Y-80117143D01*
X80676667Y-80021905D01*
X80676667Y-79783810D01*
X80629048Y-79688571D01*
X80581429Y-79640952D01*
X80486191Y-79593333D01*
X80295714Y-79593333D01*
X80200476Y-79640952D01*
X80152857Y-79688571D01*
X80105238Y-79783810D01*
M02*
