%TF.GenerationSoftware,KiCad,Pcbnew,4.0.7-e2-6376~58~ubuntu16.04.1*%
%TF.CreationDate,2018-01-31T13:04:43+01:00*%
%TF.ProjectId,Tagger_production,5461676765725F70726F64756374696F,rev?*%
%TF.FileFunction,Copper,L1,Top,Signal*%
%FSLAX46Y46*%
G04 Gerber Fmt 4.6, Leading zero omitted, Abs format (unit mm)*
G04 Created by KiCad (PCBNEW 4.0.7-e2-6376~58~ubuntu16.04.1) date Wed Jan 31 13:04:43 2018*
%MOMM*%
%LPD*%
G01*
G04 APERTURE LIST*
%ADD10C,0.100000*%
%ADD11C,1.524000*%
%ADD12R,1.800000X1.800000*%
%ADD13C,1.800000*%
%ADD14R,1.800000X1.070000*%
%ADD15O,1.800000X1.070000*%
%ADD16O,1.800000X1.800000*%
%ADD17R,1.600000X1.600000*%
%ADD18O,1.600000X1.600000*%
%ADD19R,2.000000X2.000000*%
%ADD20C,2.000000*%
%ADD21R,1.700000X1.700000*%
%ADD22O,1.700000X1.700000*%
%ADD23C,1.600000*%
%ADD24O,0.900000X1.500000*%
%ADD25R,0.900000X1.500000*%
%ADD26O,1.500000X0.900000*%
%ADD27R,1.500000X0.900000*%
%ADD28C,0.600000*%
%ADD29C,0.500000*%
G04 APERTURE END LIST*
D10*
X105410000Y-63500000D02*
X54610000Y-63500000D01*
X105410000Y-138430000D02*
X105410000Y-63500000D01*
X54610000Y-138430000D02*
X105410000Y-138430000D01*
X54610000Y-138430000D02*
X54610000Y-63500000D01*
D11*
X72390000Y-99060000D03*
X72390000Y-101600000D03*
X72390000Y-104140000D03*
X72390000Y-106680000D03*
X72390000Y-109220000D03*
X72390000Y-111760000D03*
X72390000Y-114300000D03*
X72390000Y-116840000D03*
X72390000Y-119380000D03*
X72390000Y-121920000D03*
X72390000Y-124460000D03*
X72390000Y-127000000D03*
X72390000Y-129540000D03*
X72390000Y-132080000D03*
X72390000Y-134620000D03*
X87630000Y-134620000D03*
X87630000Y-132080000D03*
X87630000Y-129540000D03*
X87630000Y-127000000D03*
X87630000Y-124460000D03*
X87630000Y-121920000D03*
X87630000Y-119380000D03*
X87630000Y-116840000D03*
X87630000Y-114300000D03*
X87630000Y-111760000D03*
X87630000Y-109220000D03*
X87630000Y-106680000D03*
X87630000Y-104140000D03*
X87630000Y-101600000D03*
X87630000Y-99060000D03*
D12*
X63500000Y-134620000D03*
D13*
X60960000Y-134620000D03*
D12*
X100330000Y-134620000D03*
D13*
X97790000Y-134620000D03*
D14*
X58420000Y-77470000D03*
D15*
X58420000Y-76200000D03*
X58420000Y-78740000D03*
X58420000Y-80010000D03*
D14*
X101600000Y-77470000D03*
D15*
X101600000Y-76200000D03*
X101600000Y-78740000D03*
X101600000Y-80010000D03*
D14*
X101600000Y-67310000D03*
D15*
X101600000Y-68580000D03*
X101600000Y-66040000D03*
X101600000Y-64770000D03*
D14*
X58420000Y-67310000D03*
D15*
X58420000Y-68580000D03*
X58420000Y-66040000D03*
X58420000Y-64770000D03*
D12*
X67310000Y-124460000D03*
D16*
X67310000Y-127000000D03*
D12*
X62230000Y-129540000D03*
D16*
X64770000Y-129540000D03*
D17*
X91440000Y-82550000D03*
D18*
X73660000Y-90170000D03*
X88900000Y-82550000D03*
X76200000Y-90170000D03*
X86360000Y-82550000D03*
X78740000Y-90170000D03*
X83820000Y-82550000D03*
X81280000Y-90170000D03*
X81280000Y-82550000D03*
X83820000Y-90170000D03*
X78740000Y-82550000D03*
X86360000Y-90170000D03*
X76200000Y-82550000D03*
X88900000Y-90170000D03*
X73660000Y-82550000D03*
X91440000Y-90170000D03*
D19*
X100330000Y-114300000D03*
D20*
X97790000Y-114300000D03*
X100330000Y-116840000D03*
X97790000Y-116840000D03*
D21*
X71120000Y-73660000D03*
D22*
X68580000Y-73660000D03*
X66040000Y-73660000D03*
X63500000Y-73660000D03*
D21*
X95250000Y-92710000D03*
D22*
X97790000Y-92710000D03*
X100330000Y-92710000D03*
X102870000Y-92710000D03*
D21*
X59690000Y-93980000D03*
D22*
X59690000Y-96520000D03*
D21*
X59690000Y-111760000D03*
D22*
X59690000Y-114300000D03*
D21*
X64770000Y-111760000D03*
D22*
X67310000Y-111760000D03*
D21*
X64770000Y-109220000D03*
D22*
X67310000Y-109220000D03*
D21*
X67310000Y-132080000D03*
D22*
X67310000Y-134620000D03*
D21*
X92710000Y-134620000D03*
D22*
X92710000Y-132080000D03*
X92710000Y-129540000D03*
X92710000Y-127000000D03*
X92710000Y-124460000D03*
X92710000Y-121920000D03*
X92710000Y-119380000D03*
D21*
X92710000Y-111760000D03*
D22*
X92710000Y-109220000D03*
D23*
X68580000Y-99060000D03*
D18*
X66040000Y-99060000D03*
D23*
X63500000Y-99060000D03*
D18*
X63500000Y-101600000D03*
D23*
X101600000Y-110490000D03*
D18*
X99060000Y-110490000D03*
D23*
X100330000Y-120650000D03*
D18*
X97790000Y-120650000D03*
D23*
X62230000Y-125730000D03*
D18*
X62230000Y-123190000D03*
D23*
X67310000Y-120650000D03*
D18*
X64770000Y-120650000D03*
D23*
X64770000Y-116840000D03*
D18*
X67310000Y-116840000D03*
D23*
X93980000Y-137160000D03*
D18*
X91440000Y-137160000D03*
D23*
X102870000Y-99060000D03*
D18*
X102870000Y-96520000D03*
D23*
X99060000Y-99060000D03*
D18*
X99060000Y-96520000D03*
D23*
X95250000Y-99060000D03*
D18*
X95250000Y-96520000D03*
D23*
X90170000Y-72390000D03*
D18*
X92710000Y-72390000D03*
D23*
X90170000Y-68580000D03*
D18*
X92710000Y-68580000D03*
D23*
X78740000Y-69850000D03*
D18*
X76200000Y-69850000D03*
D23*
X74930000Y-76200000D03*
D18*
X74930000Y-73660000D03*
D23*
X59690000Y-100330000D03*
D18*
X59690000Y-102870000D03*
D24*
X60960000Y-119380000D03*
X59690000Y-119380000D03*
D25*
X62230000Y-119380000D03*
D26*
X59690000Y-106680000D03*
X59690000Y-105410000D03*
D27*
X59690000Y-107950000D03*
D26*
X101600000Y-104140000D03*
X101600000Y-102870000D03*
D27*
X101600000Y-105410000D03*
D24*
X87630000Y-76200000D03*
X86360000Y-76200000D03*
D25*
X88900000Y-76200000D03*
D24*
X83820000Y-71120000D03*
X82550000Y-71120000D03*
D25*
X85090000Y-71120000D03*
D24*
X80010000Y-76200000D03*
X78740000Y-76200000D03*
D25*
X81280000Y-76200000D03*
D28*
X67310000Y-77470000D03*
X82550000Y-110490000D03*
X95250000Y-113030000D03*
X63500000Y-68580000D03*
X76200000Y-66040000D03*
D29*
X63500000Y-74930000D02*
X63500000Y-73660000D01*
X64770000Y-76200000D02*
X63500000Y-74930000D01*
X66040000Y-76200000D02*
X64770000Y-76200000D01*
X67310000Y-77470000D02*
X66040000Y-76200000D01*
X81280000Y-121920000D02*
X72390000Y-121920000D01*
X82550000Y-120650000D02*
X81280000Y-121920000D01*
X82550000Y-110490000D02*
X82550000Y-120650000D01*
X72390000Y-124460000D02*
X71120000Y-124460000D01*
X68580000Y-106680000D02*
X59690000Y-106680000D01*
X69850000Y-107950000D02*
X68580000Y-106680000D01*
X69850000Y-123190000D02*
X69850000Y-107950000D01*
X71120000Y-124460000D02*
X69850000Y-123190000D01*
X99060000Y-110490000D02*
X99060000Y-109220000D01*
X88900000Y-93980000D02*
X88900000Y-90170000D01*
X90170000Y-95250000D02*
X88900000Y-93980000D01*
X91440000Y-96520000D02*
X90170000Y-95250000D01*
X91440000Y-104140000D02*
X91440000Y-96520000D01*
X92710000Y-105410000D02*
X91440000Y-104140000D01*
X95250000Y-105410000D02*
X92710000Y-105410000D01*
X99060000Y-109220000D02*
X95250000Y-105410000D01*
X87630000Y-116840000D02*
X93980000Y-116840000D01*
X96520000Y-114300000D02*
X97790000Y-114300000D01*
X93980000Y-116840000D02*
X96520000Y-114300000D01*
X86360000Y-95250000D02*
X86360000Y-90170000D01*
X87630000Y-96520000D02*
X86360000Y-95250000D01*
X88900000Y-96520000D02*
X87630000Y-96520000D01*
X90170000Y-97790000D02*
X88900000Y-96520000D01*
X90170000Y-105410000D02*
X90170000Y-97790000D01*
X91440000Y-106680000D02*
X90170000Y-105410000D01*
X93980000Y-106680000D02*
X91440000Y-106680000D01*
X95250000Y-107950000D02*
X93980000Y-106680000D01*
X95250000Y-113030000D02*
X95250000Y-107950000D01*
X72390000Y-78740000D02*
X71120000Y-77470000D01*
X71120000Y-77470000D02*
X71120000Y-73660000D01*
X101600000Y-105410000D02*
X99060000Y-105410000D01*
X92710000Y-91440000D02*
X91440000Y-90170000D01*
X92710000Y-100330000D02*
X92710000Y-91440000D01*
X97790000Y-105410000D02*
X92710000Y-100330000D01*
X99060000Y-105410000D02*
X97790000Y-105410000D01*
X101600000Y-105410000D02*
X101600000Y-110490000D01*
X91440000Y-90170000D02*
X93980000Y-90170000D01*
X93980000Y-90170000D02*
X96520000Y-87630000D01*
X91440000Y-76200000D02*
X88900000Y-76200000D01*
X96520000Y-81280000D02*
X91440000Y-76200000D01*
X96520000Y-87630000D02*
X96520000Y-81280000D01*
X68580000Y-78740000D02*
X57150000Y-90170000D01*
X58420000Y-107950000D02*
X59690000Y-107950000D01*
X57150000Y-106680000D02*
X58420000Y-107950000D01*
X57150000Y-90170000D02*
X57150000Y-106680000D01*
X81280000Y-76200000D02*
X81280000Y-77470000D01*
X80010000Y-78740000D02*
X72390000Y-78740000D01*
X72390000Y-78740000D02*
X68580000Y-78740000D01*
X81280000Y-77470000D02*
X80010000Y-78740000D01*
X88900000Y-76200000D02*
X88900000Y-74930000D01*
X86360000Y-72390000D02*
X85090000Y-72390000D01*
X88900000Y-74930000D02*
X86360000Y-72390000D01*
X81280000Y-76200000D02*
X85090000Y-72390000D01*
X85090000Y-72390000D02*
X85090000Y-71120000D01*
X100330000Y-120650000D02*
X101600000Y-120650000D01*
X101600000Y-114300000D02*
X100330000Y-114300000D01*
X102870000Y-115570000D02*
X101600000Y-114300000D01*
X102870000Y-119380000D02*
X102870000Y-115570000D01*
X101600000Y-120650000D02*
X102870000Y-119380000D01*
X58420000Y-118110000D02*
X58420000Y-133350000D01*
X59690000Y-116840000D02*
X58420000Y-118110000D01*
X64770000Y-116840000D02*
X59690000Y-116840000D01*
X59690000Y-134620000D02*
X60960000Y-134620000D01*
X58420000Y-133350000D02*
X59690000Y-134620000D01*
X92710000Y-68580000D02*
X101600000Y-68580000D01*
X63500000Y-68580000D02*
X58420000Y-68580000D01*
X58420000Y-68580000D02*
X58420000Y-76200000D01*
X101600000Y-76200000D02*
X101600000Y-68580000D01*
X77470000Y-66040000D02*
X101600000Y-66040000D01*
X77470000Y-66040000D02*
X76200000Y-66040000D01*
X76200000Y-69850000D02*
X76200000Y-68580000D01*
X76200000Y-67310000D02*
X77470000Y-66040000D01*
X76200000Y-68580000D02*
X76200000Y-67310000D01*
X74930000Y-73660000D02*
X73660000Y-72390000D01*
X73660000Y-72390000D02*
X73660000Y-64770000D01*
X74930000Y-64770000D02*
X101600000Y-64770000D01*
X74930000Y-64770000D02*
X73660000Y-64770000D01*
X73660000Y-64770000D02*
X59690000Y-64770000D01*
X59690000Y-64770000D02*
X58420000Y-64770000D01*
X58420000Y-80010000D02*
X57150000Y-80010000D01*
X57150000Y-64770000D02*
X58420000Y-64770000D01*
X55880000Y-66040000D02*
X57150000Y-64770000D01*
X55880000Y-78740000D02*
X55880000Y-66040000D01*
X57150000Y-80010000D02*
X55880000Y-78740000D01*
M02*
