<?xml version="1.0" encoding="UTF-8" standalone="no"?>
<svg
   xmlns:dc="http://purl.org/dc/elements/1.1/"
   xmlns:cc="http://creativecommons.org/ns#"
   xmlns:rdf="http://www.w3.org/1999/02/22-rdf-syntax-ns#"
   xmlns:svg="http://www.w3.org/2000/svg"
   xmlns="http://www.w3.org/2000/svg"
   version="1.1"
   id="svg2"
   viewBox="0 0 744.09449 744.09437"
   height="210mm"
   width="210mm">
  <defs
     id="defs4" />
  <metadata
     id="metadata7">
    <rdf:RDF>
      <cc:Work
         rdf:about="">
        <dc:format>image/svg+xml</dc:format>
        <dc:type
           rdf:resource="http://purl.org/dc/dcmitype/StillImage" />
        <dc:title></dc:title>
      </cc:Work>
    </rdf:RDF>
  </metadata>
  <g
     style="display:inline"
     transform="translate(0,-308.26789)"
     id="layer1">
    <path
       id="path4190"
       d="m 91.062928,1047.6222 c -43.99397,-9.5714 -77.97255,-45.15 -86.3381903,-90.40387 -3.46913,-18.7663 -3.71531,-531.49589 -0.26531,-552.56392 5.2332,-31.95739 28.4207103,-65.44533 55.5325903,-80.20146 C 86.362928,310.1001 78.915848,310.43401 372.5,310.4409 c 296.75002,0.007 290.4025,-0.29756 316.12136,15.16616 17.70942,10.64795 35.29272,30.2588 45.09104,50.29047 l 8.01145,16.37866 0.66154,280.94133 c 0.73221,310.93711 1.46783,295.24681 -15.17356,323.64101 -15.46461,26.38627 -44.14279,45.96467 -75.79784,51.74647 -22.90268,4.1832 -540.78092,3.2749 -560.351062,-0.9828 z m 557.224302,-37.2386 c 30.51131,-14.45217 53.40202,-41.56147 61.56866,-72.91537 5.64482,-21.6719 5.64482,-501.42794 0,-523.09983 -8.16664,-31.35388 -31.05735,-58.46319 -61.56866,-72.91536 l -16.59698,-7.86143 -257.96765,0 -257.96766,0 -18.942442,9.04525 c -24.46417,11.68193 -39.79781,26.97792 -52.20152,52.07332 l -9.54734,19.31634 -0.65546,256.70685 c -0.58659,229.73596 -0.24273,258.13736 3.27276,270.32176 9.6722,33.5231 36.23872,61.37647 70.292462,73.69737 12.12394,4.3866 23.72168,4.5612 268.19439,4.0387 l 255.52246,-0.5462 16.59698,-7.8614 z m -504.41259,-38.59717 0,-18.3389 -20.78412,0 -20.78413,0 0,-19.5616 0,-19.5615 -18.338932,0 -18.33893,0 0,-97.80763 0,-97.80763 18.33893,0 18.338932,0 0,-19.56153 0,-19.56153 40.34565,0 40.34566,0 0,19.56153 0,19.56153 39.12305,0 39.12306,0 0,-19.56153 0,-19.56153 37.90046,0 37.90046,0 0,19.56153 0,19.56153 19.56153,0 19.56153,0 0,-19.56153 0,-19.56153 136.93069,0 136.9307,0 0,19.56153 0,19.56153 20.78413,0 20.78412,0 0,78.2461 0,78.24611 -20.78412,0 -20.78413,0 0,18.33895 0,18.3389 -58.68458,0 -58.68459,0 0,39.1231 0,39.123 -77.02351,0 -77.02352,0 0,-39.123 0,-39.1231 -20.78413,0 -20.78412,0 0,20.7841 0,20.7842 -19.56153,0 -19.56153,0 0,18.3389 0,18.3389 -77.02351,0 -77.02352,0 0,-18.3389 z m 154.04703,-39.1231 0,-20.7841 19.56153,0 19.56153,0 0,-96.58502 0,-96.58504 -37.90046,0 -37.90046,0 0,97.80763 0,97.80763 -39.12306,0 -39.12305,0 0,-97.80763 0,-97.80763 -40.34566,0 -40.34565,0 0,97.80763 0,97.80763 20.78413,0 20.78412,0 0,19.5615 0,19.5616 77.02352,0 77.02351,0 0,-20.7842 z m 195.61529,-19.5615 0,-40.34564 58.68458,0 58.68459,0 0,-19.56153 0,-19.56152 19.56152,0 19.56153,0 0,-37.90046 0,-37.90046 -19.56153,0 -19.56152,0 0,-19.56153 0,-19.56152 -96.58505,0 -96.58505,0 0,117.36916 0,117.3692 37.90047,0 37.90046,0 0,-40.3457 z m 0,-117.36915 0,-40.34565 40.34565,0 40.34565,0 0,40.34565 0,40.34565 -40.34565,0 -40.34565,0 0,-40.34565 z m -239.62872,-195.61527 0,-57.46198 19.56152,0 19.56153,0 0,-40.34565 0,-40.34565 -19.56153,0 -19.56152,0 0,-57.46198 0,-57.46199 96.58504,0 96.58505,0 0,97.80764 0,97.80763 19.56153,0 19.56152,0 0,57.46198 0,57.46199 -116.14657,0 -116.14657,0 0,-57.46199 z m 193.17009,0 0,-18.33893 -18.33894,0 -18.33893,0 0,-99.03023 0,-99.03023 -59.90718,0 -59.90718,0 0,20.78413 0,20.78412 19.56153,0 19.56153,0 0,78.24611 0,78.2461 -18.33893,0 -18.33894,0 0,18.33893 0,18.33893 77.02352,0 77.02352,0 0,-18.33893 z"
       style="fill:#000000" />
  </g>
</svg>
