<?xml version="1.0" encoding="UTF-8" standalone="no"?>
<svg
   xmlns:dc="http://purl.org/dc/elements/1.1/"
   xmlns:cc="http://creativecommons.org/ns#"
   xmlns:rdf="http://www.w3.org/1999/02/22-rdf-syntax-ns#"
   xmlns:svg="http://www.w3.org/2000/svg"
   xmlns="http://www.w3.org/2000/svg"
   version="1.1"
   id="svg4211"
   viewBox="0 0 744.09449 744.09437"
   height="210mm"
   width="210mm">
  <defs
     id="defs4213" />
  <metadata
     id="metadata4216">
    <rdf:RDF>
      <cc:Work
         rdf:about="">
        <dc:format>image/svg+xml</dc:format>
        <dc:type
           rdf:resource="http://purl.org/dc/dcmitype/StillImage" />
        <dc:title></dc:title>
      </cc:Work>
    </rdf:RDF>
  </metadata>
  <g
     transform="translate(0,-308.26789)"
     id="layer1">
    <path
       id="path4770"
       d="m 19.577556,1049.455 c -3.39029,-1.1212 -7.33559,-3.7457 -10.0959302,-6.7158 -8.85073008,-9.5236 -8.1423201,22.0012 -8.1423201,-362.34118 0,-384.2865 -0.70586998,-352.82032 8.1279301,-362.32564 8.8498102,-9.52254 -23.3766098,-8.74579 362.8542042,-8.74579 386.23083,0 354.0044,-0.77675 362.85422,8.74579 8.83381,9.50532 8.12793,-21.96086 8.12793,362.32564 0,384.28648 0.70588,352.82038 -8.12793,362.32568 -8.85306,9.526 23.46568,8.7559 -363.35524,8.6588 -301.889664,-0.076 -347.396834,-0.3248 -352.242864,-1.9275 z m 666.115214,-36.9946 c 6.28424,-2.0081 14.84678,-11.2216 16.713,-17.98348 2.06848,-7.4949 2.06848,-626.90988 0,-634.40472 -1.86622,-6.76195 -10.42876,-15.97539 -16.713,-17.98347 -6.96792,-2.22654 -620.935854,-2.22654 -627.903774,0 -6.28425,2.00808 -14.84679,11.22152 -16.71301,17.98347 -2.06848,7.49484 -2.06848,626.90982 0,634.40472 1.74463,6.32138 10.36248,15.94758 15.99772,17.86948 6.16141,2.1014 622.050054,2.213 628.619064,0.1139 z M 81.457516,882.74842 l 0,-80.0137 164.590664,0.4184 c 181.11983,0.4605 170.47989,0.041 216.05519,8.5128 48.76688,9.0648 106.22568,26.383 163.09257,49.1565 20.48188,8.2024 49.59943,21.1272 49.60019,22.0167 3.3e-4,0.3647 -1.43632,1.2796 -3.19253,2.0332 -1.75622,0.7536 -13.12081,5.6855 -25.25466,10.9599 -69.32582,30.135 -151.26415,54.4147 -210.74572,62.4476 -30.43467,4.1101 -46.78388,4.4763 -200.00524,4.4793 l -154.140464,0 0,-80.0137 z m 74.312534,0.052 0,-39.9807 -18.57813,0 -18.57814,0 0,39.9807 0,39.9808 18.57814,0 18.57813,0 0,-39.9808 z m 222.93763,-19.9903 0,-19.9904 -92.89068,0 -92.89068,0 0,19.9904 0,19.9903 92.89068,0 92.89068,0 0,-19.9903 z m 212.48742,17.3688 c -51.72972,-13.9407 -159.36756,-37.2931 -172.13803,-37.346 l -3.19312,-0.013 0,19.9904 0,19.9903 92.01983,-0.1373 92.01983,-0.1374 -8.70851,-2.3468 z m -509.737584,-197.3345 0,-80.0137 164.590664,0.4184 c 181.11983,0.4605 170.47989,0.041 216.05519,8.5128 48.76688,9.0648 106.22568,26.383 163.09257,49.1565 20.48188,8.2024 49.59943,21.1272 49.60019,22.0166 3.3e-4,0.3648 -1.43632,1.2797 -3.19253,2.0333 -1.75622,0.7536 -13.12081,5.6855 -25.25466,10.9599 -69.32582,30.135 -151.26415,54.4147 -210.74572,62.4476 -30.43467,4.1101 -46.78388,4.4763 -200.00524,4.4793 l -154.140464,0 0,-80.0137 z m 74.312534,0.052 0,-39.9807 -18.57813,0 -18.57814,0 0,39.9807 0,39.9808 18.57814,0 18.57813,0 0,-39.9808 z m 222.93763,-19.9904 0,-19.9903 -92.89068,0 -92.89068,0 0,19.9903 0,19.9904 92.89068,0 92.89068,0 0,-19.9904 z m 212.48742,17.3689 c -51.72972,-13.9407 -159.36756,-37.2931 -172.13803,-37.346 l -3.19312,-0.013 0,19.9904 0,19.9903 92.01983,-0.1373 92.01983,-0.1374 -8.70851,-2.3468 z M 81.457516,482.94043 l 0,-80.01371 164.590664,0.41841 c 181.11983,0.46043 170.47989,0.0412 216.05519,8.51277 48.76688,9.0648 106.22568,26.38304 163.09257,49.15655 20.48188,8.20239 49.59943,21.12712 49.60019,22.0166 3.3e-4,0.36473 -1.43632,1.27969 -3.19253,2.03325 -1.75622,0.75356 -13.12081,5.68554 -25.25466,10.95995 -69.32582,30.13496 -151.26415,54.41468 -210.74572,62.44755 -30.43467,4.11014 -46.78388,4.4763 -200.00524,4.47931 l -154.140464,0.003 0,-80.01371 z m 74.312534,0.0522 0,-39.98076 -18.57813,0 -18.57814,0 0,39.98076 0,39.98076 18.57814,0 18.57813,0 0,-39.98076 z m 222.93763,-19.99038 0,-19.99038 -92.89068,0 -92.89068,0 0,19.99038 0,19.99038 92.89068,0 92.89068,0 0,-19.99038 z M 591.1951,480.37107 C 539.46538,466.43084 431.82754,443.07842 419.05707,443.02549 l -3.19312,-0.0132 0,19.99038 0,19.99038 92.01983,-0.13736 92.01983,-0.13734 -8.70851,-2.34686 z"
       style="fill:#000000" />
  </g>
</svg>
