<?xml version="1.0" encoding="UTF-8" standalone="no"?>
<svg
   xmlns:dc="http://purl.org/dc/elements/1.1/"
   xmlns:cc="http://creativecommons.org/ns#"
   xmlns:rdf="http://www.w3.org/1999/02/22-rdf-syntax-ns#"
   xmlns:svg="http://www.w3.org/2000/svg"
   xmlns="http://www.w3.org/2000/svg"
   xmlns:sodipodi="http://sodipodi.sourceforge.net/DTD/sodipodi-0.dtd"
   xmlns:inkscape="http://www.inkscape.org/namespaces/inkscape"
   version="1.1"
   id="svg4791"
   viewBox="0 0 524.40927 744.09437"
   height="210mm"
   width="148mm"
   inkscape:version="0.91 r13725"
   sodipodi:docname="cloak.svg">
  <sodipodi:namedview
     pagecolor="#ffffff"
     bordercolor="#666666"
     borderopacity="1"
     objecttolerance="10"
     gridtolerance="10"
     guidetolerance="10"
     inkscape:pageopacity="0"
     inkscape:pageshadow="2"
     inkscape:window-width="1301"
     inkscape:window-height="744"
     id="namedview7"
     showgrid="false"
     inkscape:zoom="0.31716402"
     inkscape:cx="-319.27529"
     inkscape:cy="813.86161"
     inkscape:window-x="65"
     inkscape:window-y="24"
     inkscape:window-maximized="1"
     inkscape:current-layer="svg4791" />
  <defs
     id="defs4793" />
  <metadata
     id="metadata4796">
    <rdf:RDF>
      <cc:Work
         rdf:about="">
        <dc:format>image/svg+xml</dc:format>
        <dc:type
           rdf:resource="http://purl.org/dc/dcmitype/StillImage" />
        <dc:title></dc:title>
      </cc:Work>
    </rdf:RDF>
  </metadata>
  <g
     transform="matrix(0.70609734,0,0,1,0.39222527,-308.26789)"
     id="layer1">
    <path
       id="path5350"
       d="M 171.18123,1043.7922 C 92.065484,1023.734 30.897699,1000.034 11.775399,982.02853 1.8078876,972.6431 1.3046041,971.13816 1.3357361,950.81114 1.4457364,878.97654 73.562025,625.83875 104.90806,587.25843 c 17.96692,-22.11347 57.88649,-41.4299 114.06351,-55.19342 15.76016,-3.8613 28.9936,-7.14546 29.40762,-7.29814 0.41403,-0.15256 -7.53593,-5.74431 -17.66658,-12.42588 -23.95578,-15.7998 -41.29529,-37.33182 -44.15495,-54.83116 -4.0911,-25.03511 17.02943,-59.86881 61.70122,-101.76272 22.62936,-21.22217 38.59076,-31.91089 58.82492,-39.39272 14.67624,-5.42672 17.26355,-5.6533 64.55371,-5.6533 47.51261,0 49.82463,0.2053 65.00976,5.77286 20.56828,7.54125 42.88745,23.22956 65.53732,46.06666 42.25606,42.60534 58.47426,70.84946 54.53275,94.96922 -2.85966,17.49934 -20.19916,39.03136 -44.15494,54.83116 -10.13064,6.68157 -18.08061,12.27321 -17.66657,12.42588 0.41403,0.15278 13.64743,3.43684 29.40761,7.29814 56.33487,13.8022 95.918,32.86019 113.69563,54.74066 25.30512,31.14523 76.20225,195.39631 100.34275,323.81779 1.9966,10.62122 3.63015,28.81374 3.63015,40.42775 0,19.96078 -0.56308,21.64673 -10.2878,30.80345 -18.76515,17.66917 -77.97977,40.99214 -151.74122,59.76674 -41.54509,10.5744 -44.50462,10.9611 -53.2744,6.9616 -5.36809,-2.4481 -6.01631,-7.9502 -6.59512,-55.97883 -0.35303,-29.29519 -1.48175,-53.78708 -2.50822,-54.42651 -1.02644,-0.63933 -17.07993,-2.7845 -35.67442,-4.76697 -46.98908,-5.00996 -169.28493,-5.06752 -218.68654,-0.10283 -19.4621,1.95591 -36.28005,4.11325 -37.37322,4.79424 -1.09315,0.68098 -2.27551,25.06813 -2.62746,54.19368 -0.44892,37.14912 -1.84074,53.85792 -4.66298,55.97892 -5.9932,4.5038 -15.441,3.6097 -47.35936,-4.4825 z m 14.67621,-69.3086 c 4.90517,-106.685 20.63023,-176.03344 56.94731,-251.14112 27.27647,-56.41071 69.48939,-117.75671 104.95902,-152.53188 11.62144,-11.39392 14.92136,-13.24387 23.62415,-13.24387 11.88882,0 19.86706,6.49173 46.87635,38.14234 50.83371,59.56896 92.6939,136.49339 114.63202,210.65358 14.33903,48.47204 25.60722,132.11294 25.60722,190.07593 0,13.85622 0.83709,25.19312 1.86017,25.19312 4.44903,0 74.9335,-21.6578 94.19181,-28.9423 11.64019,-4.40304 27.66181,-11.73306 35.60361,-16.28913 l 14.43965,-8.28377 -0.0305,-20.3905 c -0.0503,-33.29555 -16.79919,-111.05403 -42.73187,-198.38811 -6.57531,-22.14373 -13.3072,-45.02913 -14.95978,-50.85643 -5.53053,-19.50167 -23.89103,-67.61828 -32.69055,-85.67082 -7.87535,-16.15654 -10.71734,-19.11619 -29.76168,-30.99392 -29.037,-18.11002 -78.74447,-32.92804 -131.49719,-39.19992 -24.08591,-2.86361 -33.75032,-6.72561 -33.67146,-13.45548 0.0778,-6.6519 3.23428,-8.5269 24.47185,-14.53737 35.40349,-10.01963 63.06429,-29.76884 75.56878,-53.95454 6.25294,-12.09421 6.12092,-12.60412 -10.68096,-41.24841 -15.78083,-26.90368 -62.29806,-70.41137 -85.74721,-80.19961 -14.28984,-5.96493 -16.77425,-6.27008 -50.96345,-6.25974 -31.32442,0.009 -37.5161,0.62191 -48.20053,4.76778 -39.42982,15.29994 -101.34775,84.38942 -101.51888,113.27714 -0.12859,21.7086 36.40076,52.26033 75.47881,63.12757 23.05392,6.41107 26.27632,8.24837 26.35576,15.02718 0.0744,6.34162 -9.49092,10.75681 -27.12849,12.52214 -67.94022,6.80013 -140.73727,32.73155 -159.30208,56.74587 -10.60585,13.7188 -43.859691,100.14956 -53.577555,139.25399 -1.013704,4.07905 -5.429742,20.28959 -9.813428,36.0233 -23.381367,83.91931 -35.353429,142.625 -35.455753,173.85919 l -0.06628,20.23033 12.740864,7.62854 c 7.007477,4.19567 21.756904,11.18307 32.776519,15.52765 18.250143,7.19515 92.713273,30.61367 97.488783,30.65997 1.10398,0.011 2.98275,-21.1973 4.17504,-47.1287 z M 363.43072,509.11905 c -0.99698,-1.00609 -14.87446,-5.79164 -30.83886,-10.63455 -30.68226,-9.30769 -53.32183,-20.43596 -61.40243,-30.18182 -8.60227,-10.375 -5.89938,-23.16464 10.77278,-50.97495 19.34089,-32.26196 23.08186,-36.8273 33.74943,-41.18666 7.95662,-3.25153 9.72389,-3.18663 28.30802,1.03955 24.69085,5.61489 30.54485,5.61489 55.2357,0 18.60658,-4.23128 20.34341,-4.29432 28.33502,-1.02851 8.39658,3.4313 18.90476,14.26993 23.85713,24.60726 1.39585,2.91365 7.70764,13.62066 14.02618,23.79333 12.51776,20.15323 14.62361,34.08723 6.61191,43.74998 -7.96433,9.60559 -30.62653,20.85873 -60.50583,30.0448 -15.42793,4.74314 -29.50325,9.51872 -31.27847,10.61237 -4.04705,2.49326 -14.46032,2.59153 -16.87058,0.1592 z M 274.80693,909.0012 c 57.03869,-5.00825 188.13039,-2.83037 231.88374,3.85246 7.13855,1.0903 7.64234,0.48618 7.6118,-9.12744 -0.12503,-39.30607 -23.51302,-121.47061 -49.67687,-174.51905 -25.91156,-52.53679 -82.87925,-135.61713 -92.99194,-135.61713 -4.04766,0 -27.78636,29.14929 -49.18451,60.39478 -31.69874,46.28637 -59.19249,102.60037 -74.4864,152.56658 -8.89937,29.07474 -19.02294,81.02222 -19.02294,97.613 0,9.15522 0.54418,9.77372 7.64453,8.68926 4.20448,-0.64215 21.40466,-2.37579 38.22259,-3.85246 z"
       style="fill:#000000"
       inkscape:connector-curvature="0" />
  </g>
</svg>
