<?xml version="1.0" encoding="UTF-8" standalone="no"?>
<svg
   xmlns:dc="http://purl.org/dc/elements/1.1/"
   xmlns:cc="http://creativecommons.org/ns#"
   xmlns:rdf="http://www.w3.org/1999/02/22-rdf-syntax-ns#"
   xmlns:svg="http://www.w3.org/2000/svg"
   xmlns="http://www.w3.org/2000/svg"
   version="1.1"
   id="svg2"
   viewBox="0 0 744.09449 744.09437"
   height="210mm"
   width="210mm">
  <defs
     id="defs4" />
  <metadata
     id="metadata7">
    <rdf:RDF>
      <cc:Work
         rdf:about="">
        <dc:format>image/svg+xml</dc:format>
        <dc:type
           rdf:resource="http://purl.org/dc/dcmitype/StillImage" />
        <dc:title></dc:title>
      </cc:Work>
    </rdf:RDF>
  </metadata>
  <g
     transform="translate(0,-308.26789)"
     id="layer1">
    <g
       transform="matrix(2.0108772,0,0,2.0110942,1192.1775,-721.03559)"
       id="g4161">
      <path
         id="path4171"
         d="m -592.85712,880.76502 c 0,-1.59328 70.96357,-178.08406 72.46757,-180.23132 0.73306,-1.04659 35.21212,-35.88127 76.62013,-77.41039 71.79027,-72.00023 75.43588,-75.49014 78.48627,-75.13402 1.93075,0.2254 3.04222,-0.0372 2.80358,-0.66248 -0.97012,-2.54172 26.49718,-31.86855 31.85611,-34.01277 5.04359,-2.01804 15.95377,-1.97811 20.066,0.0734 4.41533,2.20277 83.37611,81.02144 85.76791,85.61355 2.3973,4.60268 2.63644,16.16915 0.44285,21.41915 -2.35308,5.63171 -30.6827,31.82041 -33.59724,31.05824 -1.41879,-0.37102 -1.49358,-0.0362 -0.55015,2.46327 1.08615,2.87753 0.69147,3.29305 -75.44911,79.43363 l -76.54096,76.54096 -34.43648,13.99865 c -75.4785,30.68249 -144.04972,57.87594 -145.94043,57.87594 -1.09783,0 -1.99605,-0.46163 -1.99605,-1.02584 z"
         style="fill:#aedefa" />
      <path
         id="path4169"
         d="m -591.85712,879.87556 c 0,-1.72399 16.71366,-44.13605 56.75116,-144.00996 7.59023,-18.9339 14.37719,-34.61752 15.08213,-34.8525 1.39119,-0.46373 2.41746,0.5454 34.09284,33.52394 11.75191,12.23541 30.86364,31.34399 42.47049,42.46352 18.93341,18.13847 19.7744,18.83294 8.17876,6.75382 -7.10854,-7.40494 -28.37104,-28.8464 -47.25,-47.64769 -19.50235,-19.42212 -34.32538,-34.95467 -34.32538,-35.9684 0,-1.02755 28.62667,-30.43147 67.5,-69.33272 37.125,-37.15166 67.5,-68.02955 67.5,-68.61753 0,-0.58798 3.18496,-4.14388 7.07769,-7.90199 l 7.0777,-6.83294 54.4223,54.41543 c 29.93227,29.92849 54.42231,54.87999 54.42231,55.44777 0,1.30682 -12.2175,13.47455 -13.52966,13.47455 -0.53672,0 -31.57337,30.6 -68.97034,68 -37.39697,37.4 -68.55823,68 -69.24724,68 -0.68902,0 -1.25276,0.85395 -1.25276,1.89768 0,1.53589 -4.05125,3.52715 -21.25,10.44476 -103.68771,41.70482 -156.33554,62.65756 -157.4393,62.65756 -0.72089,0 -1.3107,-0.86188 -1.3107,-1.9153 z"
         style="fill:#d5b166;fill-opacity:1" />
      <path
         id="path4165"
         d="m -589.85712,878.75566 c 0,-1.51607 40.83185,-104.91358 43.11592,-109.1814 0.79154,-1.479 6.17822,3.49442 34.47737,31.83226 18.4466,18.47181 33.32073,33.80366 33.05362,34.07076 -0.50728,0.50729 -109.46082,44.31358 -110.21523,44.31358 -0.23742,0 -0.43168,-0.46584 -0.43168,-1.0352 z m 125.5,-124.37328 c -28.6,-28.79539 -52.15623,-53.13916 -52.34718,-54.09726 -0.23921,-1.20027 22.76897,-24.87202 73.9844,-76.11814 40.88237,-40.90686 74.85362,-74.37612 75.49166,-74.37612 1.3954,0 76.52019,74.04641 94.79549,93.43475 l 12.92437,13.71152 -74.92187,74.92686 c -41.20703,41.20978 -75.59799,74.91489 -76.42437,74.90025 -0.82637,-0.0146 -24.9025,-23.58648 -53.5025,-52.38186 z"
         style="fill:#22b3e2" />
      <path
         id="path4163"
         d="m -589.85712,878.75566 c 0,-1.51607 40.83185,-104.91358 43.11592,-109.1814 0.79154,-1.479 6.17822,3.49442 34.47737,31.83226 18.4466,18.47181 33.32073,33.80366 33.05362,34.07076 -0.50728,0.50729 -109.46082,44.31358 -110.21523,44.31358 -0.23742,0 -0.43168,-0.46584 -0.43168,-1.0352 z m 262.25,-261.54641 c -29.2875,-29.42116 -53.25,-53.82673 -53.25,-54.23459 0,-1.10484 12.39653,-13.1838 13.53041,-13.1838 0.53713,0 25.04318,24.06973 54.45789,53.4883 l 53.48129,53.48829 -6.95798,7.01171 c -3.82688,3.85643 -7.19504,6.99177 -7.48479,6.96741 -0.28975,-0.0244 -24.48932,-24.11615 -53.77682,-53.53732 z"
         style="fill:#273c45" />
    </g>
  </g>
</svg>
