<?xml version="1.0" encoding="UTF-8" standalone="no"?>
<!-- Created with Inkscape (http://www.inkscape.org/) -->

<svg
   xmlns:dc="http://purl.org/dc/elements/1.1/"
   xmlns:cc="http://creativecommons.org/ns#"
   xmlns:rdf="http://www.w3.org/1999/02/22-rdf-syntax-ns#"
   xmlns:svg="http://www.w3.org/2000/svg"
   xmlns="http://www.w3.org/2000/svg"
   xmlns:sodipodi="http://sodipodi.sourceforge.net/DTD/sodipodi-0.dtd"
   xmlns:inkscape="http://www.inkscape.org/namespaces/inkscape"
   width="208mm"
   height="282mm"
   viewBox="0 0 737.00787 999.21269"
   id="svg4192"
   version="1.1"
   inkscape:version="0.91 r13725"
   sodipodi:docname="file_icon_xml.svg">
  <defs
     id="defs4194" />
  <sodipodi:namedview
     id="base"
     pagecolor="#ffffff"
     bordercolor="#666666"
     borderopacity="1.0"
     inkscape:pageopacity="0.0"
     inkscape:pageshadow="2"
     inkscape:zoom="0.175"
     inkscape:cx="336.94304"
     inkscape:cy="1285.6721"
     inkscape:document-units="px"
     inkscape:current-layer="layer1"
     showgrid="false"
     inkscape:window-width="1301"
     inkscape:window-height="744"
     inkscape:window-x="65"
     inkscape:window-y="24"
     inkscape:window-maximized="1" />
  <metadata
     id="metadata4197">
    <rdf:RDF>
      <cc:Work
         rdf:about="">
        <dc:format>image/svg+xml</dc:format>
        <dc:type
           rdf:resource="http://purl.org/dc/dcmitype/StillImage" />
        <dc:title></dc:title>
      </cc:Work>
    </rdf:RDF>
  </metadata>
  <g
     inkscape:label="Ebene 1"
     inkscape:groupmode="layer"
     id="layer1"
     transform="translate(0,-53.149608)">
    <g
       id="g4751"
       transform="matrix(8.5668896,0,0,8.613639,-7127.0075,-5850.3141)">
      <path
         style="fill:#e9e9e9"
         d="m 832.22082,743.57996 0,-58 60.57115,0.58919 25.102,25.09943 0.35351,32.31138 -0.25057,57.75079 -42.76276,0.24921 -42.77198,-0.16858 z"
         id="path4755"
         inkscape:connector-curvature="0"
         sodipodi:nodetypes="ccccccccc" />
      <path
         style="fill:#2e2e2e"
         d="m 832.20183,801.31811 c -0.0392,-0.0248 -0.0646,-0.0545 -0.0566,-0.0659 0.008,-0.0114 -0.0131,-0.0687 -0.0472,-0.12737 -0.045,-0.0777 -0.0633,-0.0849 -0.0672,-0.0267 -0.004,0.0544 -0.02,0.0459 -0.0512,-0.0267 -0.0656,-0.15258 -0.0656,-115.28521 0,-115.38667 0.0284,-0.044 0.0521,-0.062 0.0525,-0.04 4.5e-4,0.022 0.045,-0.002 0.099,-0.0533 0.054,-0.0513 0.089,-0.11063 0.0778,-0.13177 -0.0112,-0.0211 0.0346,-0.0517 0.1018,-0.0679 0.0672,-0.0162 13.68218,-0.0229 30.25551,-0.0149 24.02592,0.0116 30.13333,0.028 30.13333,0.0811 0,0.081 25.14512,25.23611 25.15042,25.16042 0.002,-0.0295 0.0244,-0.006 0.0496,0.0531 0.0601,0.13986 0.0601,90.2068 0,90.34666 -0.0318,0.074 -0.048,0.0822 -0.053,0.0267 -0.004,-0.0491 -0.0258,-0.0337 -0.0554,0.04 -0.0265,0.066 -0.073,0.12 -0.10328,0.12 -0.0303,0 -0.0491,0.03 -0.0417,0.0667 0.0107,0.0533 -8.55913,0.0692 -42.68,0.0792 -23.48133,0.007 -42.72538,-0.008 -42.76456,-0.0326 z m 84.72459,-0.90389 c 0.0533,-0.0339 0.064,-8.98236 0.0533,-44.5667 -0.0119,-39.51486 -0.0224,-44.52888 -0.0934,-44.56453 -0.0721,-0.0362 -5.5733,-0.53724 -7.89333,-0.71889 -6.07526,-0.47568 -10.79168,-0.30509 -15.6119,0.56465 -1.03102,0.18604 -1.02911,0.18596 -1.20758,0.0456 -0.18712,-0.14718 -0.18207,-0.24332 0.0691,-1.31503 1.60829,-6.86366 1.67787,-14.00516 0.21226,-21.78926 -0.25328,-1.34526 -0.33924,-1.69373 -0.43231,-1.75277 -0.0382,-0.0243 -13.33382,-0.0445 -29.54572,-0.0449 -26.72612,-7.4e-4 -29.48401,0.007 -29.56,0.083 -0.0761,0.0761 -0.0838,5.32822 -0.0838,56.99017 0,39.125 0.0172,56.9386 0.0552,57.00952 0.0545,0.10186 0.58471,0.10315 42.01333,0.10235 23.07696,-5.4e-4 41.98814,-0.0199 42.02482,-0.0432 z m -80.1467,-40.43552 c 0,-0.0298 2.1652,-3.30006 4.81156,-7.26731 2.64636,-3.96726 4.81198,-7.26119 4.8125,-7.31985 5.3e-4,-0.0587 -1.88868,-2.93114 -4.19822,-6.38328 -2.30955,-3.45214 -4.19917,-6.30243 -4.19917,-6.33399 0,-0.0402 0.59563,-0.0532 1.98553,-0.0434 l 1.98554,0.014 3.36113,5.02644 c 1.87921,2.81029 3.39128,5.02066 3.42951,5.01333 0.0376,-0.007 1.58585,-2.2691 3.44054,-5.02644 l 3.37217,-5.01333 1.98612,-0.014 c 1.35215,-0.01 1.98613,0.004 1.98613,0.0417 0,0.0306 -1.94731,2.96293 -4.32735,6.5163 -2.38004,3.55337 -4.33853,6.50348 -4.35221,6.55579 -0.0163,0.0624 1.57396,2.51869 4.62067,7.13702 2.55505,3.87305 4.64555,7.06649 4.64555,7.09654 0,0.0366 -0.656,0.05 -1.98358,0.0407 l -1.98358,-0.014 -3.76674,-5.69508 c -2.07171,-3.1323 -3.80497,-5.73331 -3.85169,-5.78003 -0.0777,-0.0777 -0.41381,0.40776 -3.94301,5.69508 l -3.85806,5.78003 -1.98667,0.014 c -1.31761,0.009 -1.98667,-0.004 -1.98667,-0.0402 z m 28.26667,-13.65383 0,-13.70667 2.74781,0 2.74781,0 0.0645,0.14168 c 0.0355,0.0779 1.60211,4.23592 3.48135,9.24 1.87924,5.00408 3.43531,9.09832 3.45795,9.09832 0.0226,0 1.60678,-4.152 3.52034,-9.22666 l 3.47918,-9.22667 2.78384,-0.0138 2.78384,-0.0138 0,13.70715 0,13.70714 -1.81334,0 -1.81333,0 0,-11.87111 c 0,-8.72966 -0.0158,-11.86585 -0.0597,-11.85123 -0.0328,0.0109 -1.58019,4.06294 -3.43861,9.00444 -1.85842,4.94151 -3.41756,9.08656 -3.46475,9.21123 l -0.0858,0.22667 -1.88451,0 -1.88452,0 -0.0858,-0.22667 c -0.0472,-0.12467 -1.60633,-4.26972 -3.46475,-9.21123 -1.85842,-4.9415 -3.40579,-8.9935 -3.43861,-9.00444 -0.0439,-0.0146 -0.0597,3.12157 -0.0597,11.85123 l 0,11.87111 -1.78666,0 -1.78667,0 0,-13.70667 z m 32.42667,0 0,-13.70667 1.86666,0 1.86667,0 0,12.06934 c 0,9.31615 0.0146,12.08393 0.064,12.13333 0.0491,0.0491 1.60237,0.064 6.66667,0.064 l 6.60266,0 0,1.57333 0,1.57334 -8.53333,0 -8.53333,0 0,-13.70667 z m 18.61333,-36.09338 c 0,-0.0531 -4.89739,-4.99073 -11.35452,-11.44781 -11.21369,-11.2136 -11.63436,-11.62285 -11.50463,-11.19241 0.11601,0.38488 0.51367,2.8905 0.69625,4.38693 0.29887,2.44954 0.40298,4.21276 0.40265,6.81925 -5.3e-4,3.73437 -0.31616,6.87019 -1.02358,10.16742 -0.11957,0.55733 -0.22887,1.06703 -0.24288,1.13267 -0.0173,0.081 0.005,0.13098 0.069,0.15557 0.0519,0.0199 0.57667,-0.0397 1.16609,-0.13255 2.97899,-0.46917 5.35046,-0.64829 8.58919,-0.64875 2.88964,-4.3e-4 5.27836,0.141 10.32248,0.61108 2.95459,0.27535 2.88,0.2715 2.88,0.1486 z"
         id="path4753"
         inkscape:connector-curvature="0" />
    </g>
  </g>
</svg>
