<?xml version="1.0" encoding="UTF-8" standalone="no"?>
<svg
   xmlns:dc="http://purl.org/dc/elements/1.1/"
   xmlns:cc="http://creativecommons.org/ns#"
   xmlns:rdf="http://www.w3.org/1999/02/22-rdf-syntax-ns#"
   xmlns:svg="http://www.w3.org/2000/svg"
   xmlns="http://www.w3.org/2000/svg"
   version="1.1"
   id="svg2"
   viewBox="0 0 744.09449 744.09437"
   height="210mm"
   width="210mm">
  <defs
     id="defs4" />
  <metadata
     id="metadata7">
    <rdf:RDF>
      <cc:Work
         rdf:about="">
        <dc:format>image/svg+xml</dc:format>
        <dc:type
           rdf:resource="http://purl.org/dc/dcmitype/StillImage" />
        <dc:title></dc:title>
      </cc:Work>
    </rdf:RDF>
  </metadata>
  <g
     style="display:inline"
     id="layer2">
    <rect
       ry="6"
       rx="7.3392553"
       y="2.4540033"
       x="8.5501137"
       height="738.78326"
       width="66.428856"
       id="rect4148"
       style="opacity:1;fill:#ff0000;fill-opacity:0.92653061;fill-rule:nonzero;stroke:none;stroke-width:1;stroke-linecap:round;stroke-linejoin:round;stroke-miterlimit:49.90000153;stroke-dasharray:none;stroke-opacity:1" />
    <path
       id="path4152"
       d="m 91.923882,52.139928 1.010152,363.654912 c 0,0 3.030461,13.13198 10.101516,12.12183 7.07107,-1.01015 27.27412,-7.07107 27.27412,-7.07107 0,0 102.02541,-29.29442 227.28433,42.42641 125.25891,71.72083 197.9899,65.65992 299.00515,38.3858 101.01525,-27.27412 68.69037,-38.3858 68.69037,-38.3858 0,0 6.06092,-1.01015 8.08122,-11.11168 2.02031,-10.10152 0,-437.396046 0,-437.396046 0,0 -128.21169,194.247946 -346.48232,64.64976 C 354.56354,60.221148 243.34023,-10.242138 124.24876,20.825199 l -23.23351,6.060915 c -10.74028,2.801813 -9.091368,25.253814 -9.091368,25.253814 z"
       style="fill:#ff0000;fill-rule:evenodd;stroke:#000000;stroke-width:1px;stroke-linecap:butt;stroke-linejoin:miter;stroke-opacity:1" />
  </g>
</svg>
