<?xml version="1.0" encoding="UTF-8" standalone="no"?>
<svg
   xmlns:dc="http://purl.org/dc/elements/1.1/"
   xmlns:cc="http://creativecommons.org/ns#"
   xmlns:rdf="http://www.w3.org/1999/02/22-rdf-syntax-ns#"
   xmlns:svg="http://www.w3.org/2000/svg"
   xmlns="http://www.w3.org/2000/svg"
   version="1.1"
   id="svg7088"
   viewBox="0 0 949.60635 744.09448"
   height="210mm"
   width="268mm">
  <defs
     id="defs7090" />
  <metadata
     id="metadata7093">
    <rdf:RDF>
      <cc:Work
         rdf:about="">
        <dc:format>image/svg+xml</dc:format>
        <dc:type
           rdf:resource="http://purl.org/dc/dcmitype/StillImage" />
        <dc:title></dc:title>
      </cc:Work>
    </rdf:RDF>
  </metadata>
  <g
     transform="translate(0,-308.26772)"
     id="layer1">
    <g
       transform="matrix(2.3435547,0,0,2.3576632,-26.537492,-1361.9403)"
       id="g7717">
      <rect
         style="opacity:1;fill:#ffffff;fill-opacity:1;fill-rule:nonzero;stroke:#c58c00;stroke-width:1.05894399;stroke-linecap:round;stroke-linejoin:round;stroke-miterlimit:49.90000153;stroke-dasharray:none;stroke-opacity:1"
         id="rect7712"
         width="361.57565"
         height="92.875061"
         x="31.344202"
         y="744.29517" />
      <path
         style="fill:#ffc82d;fill-opacity:1;fill-rule:nonzero;stroke:#c58c00;stroke-opacity:1"
         d="m 29.443278,1021.2309 c -2.5721,-2.8421 -2.90662,-5.0075 -4.57378,-29.60552 -0.74554,-11 -2.15927,-30.9687 -3.14162,-44.375 -0.98235,-13.4062 -2.65616,-37.5937 -3.71959,-53.74997 -1.06342,-16.15625 -2.77241,-41.75 -3.79775,-56.875 -2.65665,-39.18874 -2.54306,-44.99839 0.92729,-47.42912 1.52798,-1.07023 4.76235,-1.94624 7.1875,-1.94669 l 4.40937,-8.1e-4 0,-24.48345 0,-24.48346 3.50721,-3.01574 c 2.67605,-2.30105 4.96017,-3.01573 9.63829,-3.01573 l 6.13109,0 6.90024,-9.33051 c 3.79513,-5.13177 8.57058,-10.19427 10.61213,-11.24999 5.60669,-2.89934 103.338742,-2.86595 109.457062,0.0374 2.50951,1.19084 6.72558,5.5948 10.77001,11.25 l 6.64618,9.29311 102.06282,0 c 121.09825,0 108.64998,-1.99915 108.64998,17.4488 l 0,12.26734 5.48104,0.82193 c 3.01457,0.45207 6.46672,1.9111 7.67144,3.2423 2.42811,2.68302 2.41248,3.41358 -1.26922,59.34463 -2.01417,30.59849 -4.5783,72.91586 -7.49836,123.74996 -3.87505,67.45892 -4.10335,69.73912 -7.22487,72.15972 -2.60918,2.0234 -14.27655,2.1615 -184.77879,2.1875 -174.265232,0.027 -182.081002,-0.069 -184.047672,-2.2417 z M 192.35977,776.31291 c 3.7606,-6.01563 7.68964,-11.62273 8.7312,-12.46025 1.44838,-1.16462 23.13328,-1.53209 92.20624,-1.5625 l 90.3125,-0.0398 0,-7.48256 0,-7.48257 -169.375,-0.0259 -169.375012,-0.0259 0,20.0085 0,20.0085 70.331302,0 70.33131,0 6.83746,-10.9375 z"
         id="path7695-3" />
    </g>
  </g>
</svg>
