<?xml version="1.0" encoding="UTF-8" standalone="no"?>
<svg
   xmlns:dc="http://purl.org/dc/elements/1.1/"
   xmlns:cc="http://creativecommons.org/ns#"
   xmlns:rdf="http://www.w3.org/1999/02/22-rdf-syntax-ns#"
   xmlns:svg="http://www.w3.org/2000/svg"
   xmlns="http://www.w3.org/2000/svg"
   version="1.1"
   id="svg5970"
   viewBox="0 0 744.09449 744.09437"
   height="210mm"
   width="210mm">
  <defs
     id="defs5972" />
  <metadata
     id="metadata5975">
    <rdf:RDF>
      <cc:Work
         rdf:about="">
        <dc:format>image/svg+xml</dc:format>
        <dc:type
           rdf:resource="http://purl.org/dc/dcmitype/StillImage" />
        <dc:title></dc:title>
      </cc:Work>
    </rdf:RDF>
  </metadata>
  <g
     transform="translate(0,-308.26789)"
     id="layer1">
    <path
       id="path6529"
       d="m 64.085808,1050.981 c -8.170746,-1.1595 -20.517889,-5.8163 -27.587809,-10.4047 -6.952199,-4.5122 -21.424222,-20.5295 -25.501064,-28.224 -4.3876511,-8.2813 -8.3140571,-21.52611 -9.4877438,-32.00488 -1.377313,-12.29642 -1.377313,-587.55721 0,-599.85363 1.1736867,-10.47877 5.1000927,-23.7236 9.4877438,-32.00488 4.076842,-7.69449 18.548865,-23.71182 25.501064,-28.22393 7.482291,-4.8562 19.449378,-9.20187 28.917151,-10.50092 11.125787,-1.52651 602.3618,-1.52651 613.48759,0 9.46782,1.29905 21.43485,5.64472 28.91719,10.50092 6.95216,4.51211 21.42422,20.52944 25.50102,28.22393 4.38769,8.28128 8.31412,21.52611 9.48783,32.00488 1.37731,12.29642 1.37731,587.55721 0,599.85363 -1.17371,10.47877 -5.10014,23.72358 -9.48783,32.00488 -4.0768,7.6945 -18.54886,23.7118 -25.50102,28.224 -7.48234,4.8561 -19.44937,9.2018 -28.91719,10.5008 -10.00415,1.3727 -605.122953,1.2796 -614.816932,-0.097 z m 592.766842,-31.0805 c 4.09317,-1.1398 11.4643,-4.2615 16.38028,-6.9371 7.62516,-4.1501 10.26329,-6.3313 17.95924,-14.84904 7.69597,-8.51772 9.66678,-11.43753 13.41651,-19.87689 2.41746,-5.44089 5.23797,-13.59907 6.26781,-18.1293 1.8456,-8.11894 1.87239,-12.14285 1.87239,-281.24954 0,-269.1067 -0.0267,-273.1306 -1.87239,-281.24954 -1.02984,-4.53023 -3.85035,-12.68841 -6.26781,-18.1293 -3.74973,-8.43937 -5.72054,-11.35917 -13.41651,-19.87688 -7.69595,-8.51772 -10.33408,-10.69898 -17.95924,-14.84909 -4.91598,-2.6756 -12.28711,-5.79726 -16.38028,-6.93705 -7.34618,-2.0456 -11.02284,-2.07233 -285.16412,-2.07233 -274.141258,0 -277.817877,0.0268 -285.164081,2.07233 -4.093201,1.13979 -11.464295,4.26145 -16.380331,6.93705 -7.625099,4.15011 -10.26321,6.33137 -17.959262,14.84909 -7.695952,8.51771 -9.666782,11.43751 -13.416457,19.87688 -2.417525,5.44089 -5.237985,13.59907 -6.267759,18.1293 -1.845683,8.11894 -1.872479,12.14284 -1.872479,281.24954 0,269.10669 0.0271,273.1306 1.872479,281.24954 1.029774,4.53023 3.850234,12.68841 6.267759,18.1293 3.749675,8.43936 5.720505,11.35917 13.416457,19.87689 7.693444,8.51484 10.336672,10.70074 17.959262,14.85174 4.916036,2.677 12.11351,5.7729 15.994554,6.8797 6.894393,1.9661 13.444563,2.0137 285.164148,2.0697 274.61493,0.057 278.20116,0.031 285.54983,-2.015 z M 365.53323,987.34901 c -9.8135,-18.44068 -25.03143,-36.49377 -53.86685,-63.90244 -15.62075,-14.84786 -25.12537,-23.09283 -79.22454,-68.72489 -42.40365,-35.76699 -63.55467,-55.6119 -88.06757,-82.62921 -24.50661,-27.01037 -38.90833,-48.52084 -51.267141,-76.57276 -7.890747,-17.91055 -13.314996,-35.17384 -16.686322,-53.1072 -4.283178,-22.78292 -4.866659,-30.49771 -4.843376,-64.04104 0.03112,-44.01764 1.354633,-51.33772 14.598073,-80.70212 9.837692,-21.81304 17.304436,-33.2952 32.871056,-50.54808 15.10615,-16.74255 24.91115,-24.35518 46.12406,-35.81096 23.57127,-12.72939 40.61883,-16.06741 75.73892,-14.83018 27.29017,0.96138 37.26784,3.92919 58.90728,17.52161 34.05145,21.3888 60.47557,55.72926 67.7855,88.09322 1.19657,5.2977 2.4314,9.63218 2.74405,9.63218 0.31265,0 3.07117,-6.19209 6.13003,-13.76017 10.39656,-25.72274 20.05017,-41.42541 35.39463,-57.57333 46.9853,-49.44552 121.05917,-58.38931 180.94772,-21.8479 24.45839,14.92346 44.35888,36.64926 59.77701,65.2599 12.13901,22.52575 18.34709,52.44483 19.40596,93.52451 1.5345,59.53382 -8.43219,100.77676 -34.97833,144.74316 -10.53653,17.45088 -18.3242,28.01458 -32.93513,44.67545 -23.57885,26.88698 -44.8419,46.64817 -95.03473,88.32227 -31.68033,26.30353 -50.44554,43.21352 -77.62062,69.94669 -21.76941,21.41538 -55.50723,58.70069 -58.75641,64.93458 -1.41793,2.72043 -2.70126,4.94626 -2.85186,4.94626 -0.15058,0 -2.08171,-3.3973 -4.29141,-7.54955 z"
       style="fill:#ff0000;fill-opacity:1" />
  </g>
</svg>
