<?xml version="1.0" encoding="UTF-8" standalone="no"?>
<svg
   xmlns:dc="http://purl.org/dc/elements/1.1/"
   xmlns:cc="http://creativecommons.org/ns#"
   xmlns:rdf="http://www.w3.org/1999/02/22-rdf-syntax-ns#"
   xmlns:svg="http://www.w3.org/2000/svg"
   xmlns="http://www.w3.org/2000/svg"
   version="1.1"
   id="svg6550"
   viewBox="0 0 744.09449 744.09437"
   height="210mm"
   width="210mm">
  <defs
     id="defs6552" />
  <metadata
     id="metadata6555">
    <rdf:RDF>
      <cc:Work
         rdf:about="">
        <dc:format>image/svg+xml</dc:format>
        <dc:type
           rdf:resource="http://purl.org/dc/dcmitype/StillImage" />
        <dc:title></dc:title>
      </cc:Work>
    </rdf:RDF>
  </metadata>
  <g
     transform="translate(0,-308.26789)"
     id="layer1">
    <path
       id="path7109"
       d="M 344.54473,1051.075 C 280.10585,1046.2681 220.0119,1025.4558 165.66633,989.12442 76.740059,929.67491 18.919551,836.83048 3.7161458,729.07526 0.33166585,705.0875 0.32175178,655.4272 3.6967361,631.69462 15.857051,546.18354 53.57496,471.65085 114.4294,412.88071 171.92445,357.3549 242.28684,323.32573 323.4788,311.77877 c 23.86804,-3.39447 73.47132,-3.39447 97.33934,0 85.56401,12.16877 160.27214,50.0166 218.66492,110.77773 55.77027,58.03228 89.66301,128.14392 101.09962,209.13812 1.69819,12.02654 2.46277,27.14274 2.46277,48.69032 0,53.78435 -8.81569,97.8084 -29.39583,146.7977 -26.40537,62.8558 -76.32159,122.70239 -135.13642,162.02062 -47.87566,32.00524 -100.06823,51.86834 -156.24223,59.46194 -20.16151,2.7254 -57.83756,3.8934 -77.72619,2.4098 z m 73.3677,-58.92799 C 484.68453,981.7271 540.50598,954.34907 589.84462,907.82152 657.86115,843.68032 695.01798,744.97083 685.93169,652.56017 678.70594,579.07174 649.75513,515.52642 599.3273,462.46856 534.06427,393.80179 437.19113,357.33073 344.33545,366.46851 c -77.31052,7.60804 -146.45838,40.78078 -198.86262,95.4017 -47.088289,49.08014 -76.520964,110.02167 -85.880139,177.81834 -2.453799,17.77502 -2.453799,63.61776 0,81.39278 19.696671,142.68021 131.958869,254.56214 272.603019,271.67961 7.19148,0.87531 15.03675,1.86204 17.43392,2.19284 8.97948,1.23914 54.29183,-0.62347 68.2828,-2.80677 z m -154.72595,-97.95887 0,-14.38728 19.97636,-0.20803 c 22.05161,-0.22964 27.45684,-1.75099 32.95804,-9.27637 2.95933,-4.04821 2.9994,-5.39211 2.9994,-100.54371 0,-94.95254 -0.0459,-96.50401 -2.98115,-100.54482 -1.63965,-2.25727 -6.21606,-5.73926 -10.16979,-7.73775 -6.66592,-3.36939 -8.69395,-3.63359 -27.8914,-3.63359 l -20.70277,0 0,-14.17107 0,-14.17106 3.99528,-0.0227 c 5.20866,-0.0296 116.03875,-3.97432 147.46182,-5.2486 l 24.33484,-0.98684 0,120.93008 c 0,133.39924 -0.45095,126.8631 9.10476,131.96499 3.46344,1.84917 9.08518,2.6334 21.40458,2.98604 25.1845,0.72083 23.24523,-0.58547 23.24523,15.65793 l 0,13.78003 -111.8676,0 -111.8676,0 0,-14.38727 z M 351.80886,578.5016 c -22.27904,-4.35279 -42.73101,-23.98979 -48.82231,-46.87677 -7.72078,-29.00946 7.55943,-61.01021 35.33774,-74.00644 9.24588,-4.32574 10.8812,-4.61224 26.56,-4.65336 15.78464,-0.0414 17.24542,0.21035 26.44583,4.55774 23.03081,10.88257 37.47852,33.30502 37.47852,58.16562 0,40.54968 -36.89664,70.64841 -76.99978,62.81321 z"
       style="fill:#000000" />
  </g>
</svg>
