<?xml version="1.0" encoding="UTF-8" standalone="no"?>
<svg
   xmlns:dc="http://purl.org/dc/elements/1.1/"
   xmlns:cc="http://creativecommons.org/ns#"
   xmlns:rdf="http://www.w3.org/1999/02/22-rdf-syntax-ns#"
   xmlns:svg="http://www.w3.org/2000/svg"
   xmlns="http://www.w3.org/2000/svg"
   version="1.1"
   id="svg7130"
   viewBox="0 0 744.09449 744.09437"
   height="210mm"
   width="210mm">
  <defs
     id="defs7132" />
  <metadata
     id="metadata7135">
    <rdf:RDF>
      <cc:Work
         rdf:about="">
        <dc:format>image/svg+xml</dc:format>
        <dc:type
           rdf:resource="http://purl.org/dc/dcmitype/StillImage" />
        <dc:title></dc:title>
      </cc:Work>
    </rdf:RDF>
  </metadata>
  <g
     transform="translate(0,-308.26789)"
     id="layer1">
    <path
       id="path7691"
       d="m 170.96904,974.14479 c -2.61609,-3.98878 -2.72313,-10.18965 -0.4514,-26.14911 0.79335,-5.57351 2.63407,-18.64574 4.0905,-29.04954 1.45643,-10.40378 2.99002,-20.436 3.40799,-22.29382 1.71856,-7.63876 3.64185,-19.00594 5.37231,-31.75181 1.0089,-7.43127 3.08135,-21.11157 4.6054,-30.40066 4.68302,-28.54261 9.40399,-59.71165 10.35081,-68.33886 l 0.90137,-8.2131 -31.50881,-32.32112 C 150.40738,707.85015 117.44109,674.45723 94.478823,651.42029 71.516541,628.38334 52.164302,608.6229 51.473827,607.50821 c -0.690465,-1.11469 -1.264714,-4.29274 -1.276108,-7.06234 -0.01547,-3.76704 0.745906,-5.51865 3.022356,-6.95296 3.798665,-2.39341 59.383535,-11.53744 111.917165,-18.41101 12.2737,-1.60593 24.14165,-3.55347 26.37323,-4.32789 3.87556,-1.34493 12.41375,-2.99018 48.68904,-9.38211 23.26877,-4.10008 25.21355,-5.06323 30.47656,-15.09353 2.41085,-4.59465 6.34633,-11.69798 8.74552,-15.78518 4.51626,-7.69381 22.30554,-41.99826 49.03245,-94.5531 24.34736,-47.87576 32.87559,-64.02621 35.15245,-66.57042 1.29118,-1.44279 4.06143,-2.3645 7.1067,-2.3645 3.04658,0 5.81359,0.92108 7.10321,2.3645 2.60589,2.91667 20.66501,37.57553 22.00051,42.22314 0.53385,1.85782 1.74414,4.28987 2.68953,5.40457 0.94539,1.11469 7.34387,12.97095 14.21886,26.34724 6.87498,13.37629 15.56479,30.09666 19.3107,37.15637 3.7459,7.05971 12.14048,23.17206 18.65462,35.80523 15.50083,30.06144 19.85384,37.93085 21.8752,39.54617 1.83777,1.46859 16.65878,4.77789 35.48083,7.92227 30.78601,5.14308 58.80106,9.95553 65.59495,11.26797 4.09123,0.79035 25.697,4.15995 48.01281,7.48802 64.94966,9.68628 65.59495,9.87577 65.59495,19.26199 0,5.43318 2.18085,3.06807 -64.27244,69.70347 -23.82001,23.88528 -52.57698,53.1057 -63.90437,64.93424 -20.57552,21.48587 -20.59525,21.51254 -20.59525,27.84804 0,3.48786 1.1555,12.35436 2.56776,19.70334 4.25482,22.1405 4.58338,24.29084 12.36473,80.91878 1.2724,9.2597 7.09456,44.73035 9.97996,60.80134 1.06738,5.94503 2.28019,13.54514 2.69514,16.88927 0.41495,3.34401 1.26282,9.15619 1.88413,12.91593 2.12045,12.8314 0.0427,19.46367 -6.77445,21.62527 -3.08741,0.97888 -15.00699,-4.47422 -57.20534,-26.17116 -16.36493,-8.41425 -37.97069,-19.26953 -48.01281,-24.12275 -10.04211,-4.85324 -33.62162,-16.36658 -52.39889,-25.58522 -18.77729,-9.21862 -35.27453,-16.76114 -36.66054,-16.76114 -1.38601,0 -14.62759,5.96849 -29.42572,13.26333 -14.79816,7.29482 -35.73062,17.40136 -46.51659,22.45896 -25.01828,11.73119 -29.14677,13.77347 -52.07022,25.75733 -55.8854,29.21566 -61.0221,31.71462 -65.22566,31.73148 -3.23861,0.0141 -4.96934,-0.90483 -6.70976,-3.55836 z"
       style="fill:#000000" />
    <g
       id="layer1-6"
       transform="translate(-723.87321,66.417427)"
       style="display:inline;fill:#000000">
      <path
         style="fill:#000000"
         d="m 814.2096,981.30214 c -43.99397,-9.58985 -77.97255,-45.23705 -86.3382,-90.57818 -3.46913,-18.80249 -3.71531,-532.52073 -0.26531,-553.62938 5.2332,-32.01901 28.42072,-65.57153 55.5326,-80.35611 26.37091,-14.38052 18.92383,-14.04597 312.50791,-14.03907 296.75,0.007 290.4025,-0.29813 316.1214,15.19541 17.7094,10.66848 35.2927,30.31714 45.091,50.38744 l 8.0115,16.41024 0.6615,281.48304 c 0.7322,311.53667 1.4678,295.81611 -15.1735,324.26506 -15.4647,26.43715 -44.1428,46.0533 -75.7979,51.84625 -22.9027,4.19127 -540.78086,3.28121 -560.351,-0.9847 z m 557.2243,-37.3104 c 30.5113,-14.48004 53.402,-41.64161 61.5686,-73.05597 5.6448,-21.71368 5.6448,-502.39479 0,-524.10847 -8.1666,-31.41434 -31.0573,-58.57592 -61.5686,-73.05596 l -16.597,-7.87659 -257.9677,0 -257.96759,0 -18.94244,9.06269 c -24.46417,11.70446 -39.79781,27.02994 -52.20152,52.17373 l -9.54734,19.35359 -0.65546,257.20183 c -0.58659,230.17894 -0.24273,258.63511 3.27276,270.843 9.6722,33.58774 36.23872,61.49482 70.29246,73.83947 12.12394,4.39506 23.72168,4.57 268.19433,4.04649 l 255.5225,-0.54725 z"
         id="path4190" />
    </g>
  </g>
</svg>
