<?xml version="1.0" encoding="UTF-8" standalone="no"?>
<svg
   xmlns:dc="http://purl.org/dc/elements/1.1/"
   xmlns:cc="http://creativecommons.org/ns#"
   xmlns:rdf="http://www.w3.org/1999/02/22-rdf-syntax-ns#"
   xmlns:svg="http://www.w3.org/2000/svg"
   xmlns="http://www.w3.org/2000/svg"
   version="1.1"
   id="svg2"
   viewBox="0 0 1052.3622 595.27541"
   height="168mm"
   width="297mm">
  <defs
     id="defs4" />
  <metadata
     id="metadata7">
    <rdf:RDF>
      <cc:Work
         rdf:about="">
        <dc:format>image/svg+xml</dc:format>
        <dc:type
           rdf:resource="http://purl.org/dc/dcmitype/StillImage" />
        <dc:title></dc:title>
      </cc:Work>
    </rdf:RDF>
  </metadata>
  <g
     transform="translate(0,-457.08678)"
     id="layer1">
    <path
       id="path4147"
       d="m 51.257439,1029.8719 c -7.341534,-12.3643 -13.348217,-22.8148 -13.348217,-23.2232 0,-0.4085 8.195439,-14.05757 18.212088,-30.33166 56.77948,-92.24959 89.03652,-150.63647 99.65851,-180.38694 3.1057,-8.69867 3.48065,-11.39941 2.95127,-21.25787 -1.00362,-18.68793 -7.61057,-29.64501 -23.4425,-38.87717 C 121.35226,727.66831 88.73902,718.7215 31.982439,707.45509 14.597236,704.00403 0.23425122,701.08476 0.06473639,700.9678 -0.30455149,700.71326 17.99198,532.05776 18.811568,528.16114 c 0.546971,-2.60032 3.950994,-2.99849 83.918532,-9.81527 49.83285,-4.24793 83.95614,-7.69928 84.85964,-8.58292 0.83114,-0.81287 4.26678,-11.94076 7.63473,-24.72871 3.36798,-12.78793 6.46187,-24.39171 6.87539,-25.78627 0.7323,-2.46945 2.64215,-2.51177 73.3645,-1.62463 161.59759,2.027 266.57197,7.50867 372.33686,19.44315 111.70485,12.6047 213.4323,32.83924 302.83109,60.23591 27.38623,8.39265 72.76979,23.83851 75.98879,25.86215 1.1747,0.73839 0.4293,5.54032 -2.9327,18.89241 -2.4794,9.84635 -4.5216,18.54803 -4.5385,19.33702 -0.02,0.81654 6.7535,2.48418 15.7155,3.87077 8.6603,1.33994 16.3347,2.80328 17.0542,3.25186 0.8412,0.52444 -0.379,16.21826 -3.4175,43.95933 -2.5992,23.72905 -4.7914,43.24354 -4.8716,43.36558 -0.081,0.12192 -8.7399,0.8929 -19.2432,1.7131 -10.5033,0.82015 -21.5536,1.79379 -24.55639,2.16369 l -5.45928,0.67254 -4.24242,17.21146 -4.24236,17.2115 -94.34605,0.0628 -94.34605,0.0628 -30.95092,29.09659 -30.95093,29.09656 -78.85527,0.40178 -78.8553,0.4018 -85.77728,129.14497 -85.77736,129.14501 -170.71099,0.062 -170.711045,0.062 -13.348216,-22.4807 z M 451.767,893.65291 c 38.22692,-59.88224 69.5035,-110.15783 69.5035,-111.72362 0,-5.00537 -7.78202,-18.76428 -13.75374,-24.31713 -16.54909,-15.38821 -39.92156,-20.67322 -98.68215,-22.31417 -31.85437,-0.88956 -32.73303,-0.8449 -31.99938,1.62563 1.29004,4.34453 23.26568,111.71036 23.26568,113.66875 0,1.40781 -10.93889,3.59919 -45.60225,9.13532 l -45.60228,7.28326 -23.64029,54.58178 -23.64032,54.58173 8.09938,13.5249 8.09934,13.52484 52.22455,-0.3472 52.22452,-0.3471 69.50344,-108.87675 z"
       style="fill:#000000" />
  </g>
</svg>
