<?xml version="1.0" encoding="UTF-8" standalone="no"?>
<svg
   xmlns:dc="http://purl.org/dc/elements/1.1/"
   xmlns:cc="http://creativecommons.org/ns#"
   xmlns:rdf="http://www.w3.org/1999/02/22-rdf-syntax-ns#"
   xmlns:svg="http://www.w3.org/2000/svg"
   xmlns="http://www.w3.org/2000/svg"
   version="1.1"
   id="svg7722"
   viewBox="0 0 744.09449 744.09437"
   height="210mm"
   width="210mm">
  <defs
     id="defs7724" />
  <metadata
     id="metadata7727">
    <rdf:RDF>
      <cc:Work
         rdf:about="">
        <dc:format>image/svg+xml</dc:format>
        <dc:type
           rdf:resource="http://purl.org/dc/dcmitype/StillImage" />
        <dc:title></dc:title>
      </cc:Work>
    </rdf:RDF>
  </metadata>
  <g
     transform="translate(0,-308.26789)"
     id="layer1">
    <path
       id="path8281"
       d="m 54.533198,1051.4561 c -5.305079,-0.9305 -16.18104,-4.6585 -19.692787,-6.7503 -4.750794,-2.8297 -12.082513,-9.3772 -17.442236,-15.5764 -2.91455,-3.3711 -5.302243,-6.427 -5.305983,-6.7908 -0.004,-0.3637 -1.284974,-2.9629 -2.8471757,-5.7758 C 4.8343519,1008.6209 3.2844062,1003.8534 1.7712191,993.57401 0.44883308,984.59073 0.37048972,967.3585 0.3488528,680.75131 0.33507837,498.13424 0.61683092,375.27379 1.0569291,372.00304 c 1.7675618,-13.13613 2.4309567,-16.00275 5.134305,-22.18591 1.575725,-3.60405 3.5465249,-7.39546 4.3795569,-8.42538 0.833031,-1.02992 1.514604,-2.40117 1.514604,-3.04722 0,-1.63671 12.996381,-16.34443 16.10128,-18.22145 1.40092,-0.84691 5.004825,-3.03381 8.008687,-4.85979 3.003863,-1.82597 7.562829,-4.06688 10.131037,-4.9798 4.495594,-1.59805 16.627533,-1.65986 325.779231,-1.65986 309.1517,0 321.28364,0.0618 325.77924,1.65986 4.08235,1.45116 7.60191,3.36526 18.03868,9.8103 3.38524,2.09048 14.11327,14.1691 15.67101,17.64385 0.7044,1.57127 1.78499,3.43765 2.4013,4.14753 0.61631,0.70989 2.41848,4.25937 4.00484,7.88773 2.72146,6.2246 3.38524,9.08784 5.15364,22.23014 0.44009,3.27075 0.72186,126.1312 0.70808,308.74827 -0.0217,287.81545 -0.0951,303.80155 -1.43694,312.8227 -1.61408,10.85189 -2.66444,14.06109 -7.70476,23.54089 -4.35646,8.1936 -9.76032,14.8931 -17.13715,21.2458 -7.12559,6.1363 -9.39273,7.4355 -18.86569,10.8114 l -7.86071,2.8015 -316.0003,0.1203 c -173.80015,0.066 -317.945812,-0.2208 -320.323672,-0.6378 z m 612.263172,-30.9095 c 16.86969,-6.0677 29.45726,-16.2851 37.27597,-30.25714 5.83415,-10.42562 7.60531,-15.31497 9.22401,-25.46298 1.50218,-9.41762 1.53587,-15.65681 1.53141,-283.57075 -0.003,-177.44467 -0.27984,-275.7752 -0.78606,-279.14748 -0.42983,-2.86338 -1.11488,-7.34522 -1.52231,-9.95962 -0.71524,-4.5896 -3.12893,-10.50353 -8.49568,-20.81586 -4.95232,-9.51601 -17.31585,-21.06771 -28.10188,-26.25663 -10.52175,-5.06177 8.81898,-4.73799 -298.29051,-4.99368 -277.967392,-0.23143 -284.321096,-0.19854 -292.418192,1.51395 -4.552299,0.96279 -9.691853,2.49407 -11.421208,3.40287 -4.885994,2.56766 -12.971195,8.41732 -17.227817,12.46437 -4.442487,4.22377 -15.23897,20.56142 -15.858317,23.9974 -0.229248,1.27185 -0.744563,3.01142 -1.145138,3.8657 -0.400574,0.8543 -1.528842,4.52125 -2.507248,8.14879 l -1.778924,6.59553 -0.238548,276.60584 c -0.175891,203.94095 -0.003,278.35246 0.658478,283.25434 1.755476,13.01117 6.716002,26.43111 12.436485,33.64518 1.359577,1.71458 2.471958,3.60669 2.471958,4.20481 0,0.59811 1.074365,2.03529 2.387472,3.19356 1.313115,1.1584 4.190625,3.8744 6.394464,6.0356 3.465598,3.3987 10.872655,7.9551 19.123562,11.7636 8.055279,3.7183 -0.483926,3.6196 298.706743,3.4543 265.02378,-0.1463 285.64532,-0.2662 289.58128,-1.6817 z M 99.077399,922.72483 c -3.181361,-7.59417 -6.772618,-16.13171 -7.980576,-18.97224 l -2.196289,-5.1646 20.448956,-47.34977 c 19.74576,-45.72154 23.32473,-54.15754 28.34679,-66.8163 1.28416,-3.23688 3.43738,-8.61846 4.78493,-11.95906 1.34754,-3.3406 2.45007,-6.31338 2.45007,-6.60617 0,-0.29278 1.19626,-3.47536 2.65834,-7.07239 3.69777,-9.09728 10.55991,-30.51979 12.35353,-38.56569 2.50807,-11.25085 1.71736,-24.48258 -2.02834,-33.94235 -2.68443,-6.77951 -8.96604,-13.82906 -14.75218,-16.55567 -1.62127,-0.76399 -2.94776,-1.68776 -2.94776,-2.05283 0,-0.36507 -2.12239,-1.40393 -4.71643,-2.30859 -2.59402,-0.90466 -4.71642,-1.90923 -4.71642,-2.23237 0,-0.32314 -2.56455,-1.34514 -5.69901,-2.2711 -3.13445,-0.92594 -5.87588,-1.96943 -6.09204,-2.31884 -0.21616,-0.34941 -4.10722,-1.55749 -8.64678,-2.6846 -4.53955,-1.12713 -8.4306,-2.33977 -8.64678,-2.69478 -0.21616,-0.355 -3.753477,-1.38326 -7.860691,-2.28503 -4.107225,-0.90177 -7.64454,-1.91832 -7.860709,-2.25898 -0.216167,-0.34068 -4.637811,-1.55931 -9.825877,-2.70808 -5.188066,-1.14877 -9.535197,-2.18087 -9.660283,-2.29356 -0.277369,-0.24986 10.766189,-142.20807 11.286119,-145.07633 0.323226,-1.78305 0.857745,-2.0372 4.284663,-2.0372 2.153458,0 3.915378,-0.32964 3.915378,-0.73253 0,-0.4029 8.312692,-1.49498 18.47266,-2.42686 10.15996,-0.93186 18.47265,-1.95477 18.47265,-2.27312 0,-0.31835 8.3127,-1.34127 18.47266,-2.27313 10.15996,-0.93188 18.47264,-1.98375 18.47264,-2.33754 0,-0.35377 4.05936,-0.93537 9.0208,-1.29244 5.11915,-0.36841 9.31791,-1.09237 9.70775,-1.67381 0.37782,-0.56351 1.44553,-5.09896 2.37266,-10.07877 2.22653,-11.95878 5.51461,-29.36206 6.03006,-31.91606 l 0.41115,-2.0372 19.8333,-0.006 c 29.28931,-0.009 105.45316,1.92708 105.90802,2.69243 0.21616,0.36374 6.93707,0.92291 14.93533,1.2426 25.06093,1.00171 48.73637,2.68684 48.73637,3.46889 0,0.4131 1.68023,0.74561 3.73384,0.73888 6.16726,-0.0202 46.1509,3.82312 46.57465,4.47684 0.21618,0.33347 6.93708,1.34516 14.93534,2.24818 7.99828,0.90302 14.71917,1.92632 14.93535,2.27401 0.21616,0.34771 6.05273,1.38137 12.97015,2.29706 6.91743,0.91569 12.754,1.93583 12.97017,2.26697 0.21617,0.33114 6.2296,1.55733 13.3632,2.72487 7.13359,1.16754 13.14702,2.40077 13.36319,2.74055 0.21617,0.33975 4.46095,1.35726 9.43285,2.26112 4.97189,0.90384 9.21667,1.92331 9.43284,2.26547 0.21617,0.34215 4.99155,1.57611 10.61195,2.74212 5.6204,1.166 10.39578,2.41102 10.61195,2.76668 0.21616,0.35569 3.57663,1.36618 7.46768,2.24556 3.89104,0.87937 7.25149,1.88492 7.46765,2.23456 0.21618,0.34965 4.10722,1.55791 8.64678,2.68504 4.53956,1.12711 8.43061,2.34881 8.64678,2.71487 0.21616,0.36607 3.13446,1.40551 6.48507,2.30987 3.35062,0.90436 6.09205,1.91058 6.09205,2.23606 0,0.32547 2.82986,1.33622 6.28857,2.2461 3.45871,0.90988 6.28856,1.94103 6.28856,2.29141 0,0.35039 3.18358,1.58245 7.07462,2.73793 3.89106,1.15545 7.07465,2.38185 7.07465,2.72532 0,0.34344 2.47612,1.36419 5.50248,2.26831 3.02637,0.90412 5.5025,1.91614 5.5025,2.24894 0,0.33278 2.82985,1.53318 6.28857,2.66752 3.4587,1.13434 6.28855,2.34877 6.28855,2.69871 0,0.34995 2.1224,1.37644 4.71643,2.2811 2.59403,0.90466 4.71642,1.91604 4.71642,2.24751 0,0.33146 2.65299,1.561 5.89553,2.73231 3.24254,1.1713 5.89552,2.39919 5.89552,2.72861 0,0.32941 1.94552,1.36066 4.3234,2.29162 2.37786,0.93099 4.32338,1.98341 4.32338,2.33869 0,0.35528 1.05714,0.91342 2.3492,1.24029 1.29206,0.32687 2.51241,0.89849 2.71189,1.27027 0.19949,0.37177 -0.85764,7.49611 -2.34919,15.83182 -1.49154,8.33584 -2.7119,15.68257 -2.7119,16.32618 0,0.78346 2.33812,1.55624 7.07464,2.33821 3.89105,0.64241 7.07463,1.51636 7.07463,1.94214 0,0.42576 0.97276,0.78036 2.1617,0.78798 4.3055,0.0277 4.26522,-1.2071 1.22631,37.59097 -1.55892,19.9028 -2.88176,36.26777 -2.93965,36.36658 -0.0579,0.0987 -4.86941,0.60982 -10.69225,1.13559 -5.82284,0.52576 -12.39839,1.18067 -14.61236,1.45536 l -4.02538,0.49945 -1.73868,10.13543 c -0.95627,5.57448 -2.09245,12.07077 -2.52483,14.43617 l -0.78616,4.30075 -56.37041,0 -56.3704,0 -3.02131,4.56331 c -1.66172,2.50984 -3.59149,5.05633 -4.2884,5.65888 -0.6969,0.60257 -3.00113,3.5402 -5.12052,6.52809 -2.11939,2.98788 -4.47298,6.07716 -5.23017,6.86507 -0.7572,0.78791 -3.23386,4.04741 -5.50369,7.24336 -2.26984,3.19595 -4.75368,6.42196 -5.51968,7.16894 -0.76599,0.74697 -2.83927,3.39533 -4.60729,5.88523 l -3.21458,4.5271 -47.20938,0.45271 -47.2094,0.45271 -2.16088,4.52709 c -1.1885,2.48992 -3.50887,7.37918 -5.15638,10.86504 -1.64752,3.48587 -3.96857,8.37515 -5.15789,10.86506 -1.18933,2.48989 -3.49029,7.37917 -5.11326,10.86504 -1.62298,3.48587 -3.96365,8.47699 -5.2015,11.09139 -1.23787,2.6144 -3.26345,6.89251 -4.50131,9.50691 -1.23786,2.6144 -3.57524,7.60554 -5.19417,11.09141 -1.61893,3.48586 -3.23575,6.75468 -3.59294,7.26404 -0.35719,0.50936 -1.73399,3.25957 -3.05957,6.11158 -1.32559,2.85201 -3.42294,7.32454 -4.66079,9.93893 -1.23787,2.61441 -3.57855,7.60554 -5.20151,11.09141 -1.62298,3.48586 -3.92143,8.37513 -5.10769,10.86503 -2.10048,4.40884 -4.63526,9.75175 -9.45013,19.91924 -1.29701,2.73891 -3.3799,7.11887 -4.62864,9.73327 -1.24873,2.61441 -3.04068,6.38321 -3.9821,8.37514 -0.94143,1.99193 -2.33364,4.84401 -3.09378,6.33795 -0.76016,1.49394 -2.7291,5.56833 -4.3754,9.05419 -1.64631,3.48587 -3.96109,8.37514 -5.14398,10.86505 -1.18288,2.4899 -3.40445,7.17545 -4.93684,10.41232 -1.53237,3.23688 -4.05325,8.53356 -5.60195,11.77045 -1.54868,3.23689 -3.74357,8.02426 -4.87752,10.63868 l -2.06173,4.75345 -102.08691,0 -102.08691,0 -5.784291,-13.80762 z M 298.84312,885.82897 c 2.37341,-5.2288 5.80558,-12.76643 7.62705,-16.75027 1.82147,-3.98385 5.35348,-11.7252 7.8489,-17.20299 7.90383,-17.34999 13.10311,-28.75125 16.51585,-36.21679 13.97468,-30.57031 18.22642,-39.90025 24.55029,-53.87251 3.04272,-6.72274 6.67548,-14.66781 8.07279,-17.65569 1.3973,-2.98789 5.19122,-11.33005 8.43091,-18.5381 l 5.89037,-13.1056 -0.92286,-4.74988 c -1.29285,-6.65417 -4.90738,-14.53258 -8.74611,-19.0634 -1.79314,-2.11642 -3.51913,-3.84805 -3.83557,-3.84805 -0.31643,0 -1.37152,-0.79536 -2.34462,-1.76748 -0.97311,-0.97211 -3.5918,-2.45823 -5.81929,-3.30247 -2.22749,-0.84426 -4.23831,-1.86481 -4.46849,-2.26792 -0.52558,-0.92041 -13.31521,-3.52716 -17.30555,-3.52716 -1.6367,0 -3.09371,-0.38564 -3.23783,-0.85696 -0.15227,-0.498 -8.4935,-0.97205 -19.91378,-1.13177 -19.24957,-0.2692 -19.64866,-0.23776 -19.50042,1.53601 0.0833,0.99597 1.95554,14.03401 4.16065,28.97345 2.20513,14.93944 5.23218,35.44507 6.72679,45.56806 1.49459,10.123 2.71745,19.18851 2.71745,20.1456 0,1.32988 -0.55598,1.74014 -2.35821,1.74014 -1.29702,0 -2.35821,0.3354 -2.35821,0.74533 0,0.40994 -5.39442,1.68818 -11.98758,2.84055 -6.59316,1.15237 -12.16444,2.38037 -12.3806,2.72891 -0.21618,0.34852 -4.90313,1.37857 -10.41544,2.289 -5.51232,0.91042 -10.02239,1.96955 -10.02239,2.35363 0,0.38407 -1.11997,0.82599 -2.48878,0.98203 -2.61496,0.29811 -3.11418,1.48327 -8.89158,21.10839 -0.58641,1.99191 -2.46278,8.10351 -4.16973,13.5813 -1.70696,5.47779 -4.17746,13.42285 -5.49003,17.6557 -1.31257,4.23283 -3.85408,12.38162 -5.64782,18.10839 -1.79373,5.72679 -3.97866,12.75521 -4.8554,15.61873 l -1.59408,5.20639 4.87435,11.32781 4.87433,11.32782 31.07468,-0.23664 31.07467,-0.23665 4.31529,-9.50691 z m 34.54502,-229.55853 c 3.89802,-1.87599 5.65102,-3.80643 7.36843,-8.11425 1.32213,-3.31638 1.44532,-6.61755 1.46113,-39.15942 l 0.0173,-35.53774 31.07502,0 c 26.18643,0 31.53025,-0.2191 33.96877,-1.39267 6.55829,-3.15628 8.80453,-8.16478 8.82955,-19.68744 0.0251,-11.50864 -2.05531,-16.50244 -8.23648,-19.7718 -2.88138,-1.52403 -5.75684,-1.66473 -34.39058,-1.68296 l -31.24628,-0.0199 -0.0173,-31.46336 c -0.0157,-28.58784 -0.14922,-31.79434 -1.46113,-35.08503 -2.85388,-7.15854 -7.14884,-9.5069 -17.38726,-9.5069 -10.23844,0 -14.53341,2.34836 -17.38732,9.5069 -1.31189,3.29069 -1.44543,6.49719 -1.46113,35.08503 l -0.0173,31.46336 -31.07503,0 c -26.18642,0 -31.53025,0.21907 -33.96877,1.39266 -6.55829,3.15627 -8.80453,8.16478 -8.82956,19.68743 -0.0251,11.50865 2.05533,16.50244 8.23648,19.7718 2.88138,1.52403 5.75686,1.66475 34.39058,1.68297 l 31.2463,0.0199 0,35.34046 c 0,29.75493 0.19108,35.86726 1.20909,38.67357 2.77607,7.65289 7.05509,10.14172 17.48533,10.17015 4.82308,0.0132 8.27732,-0.45219 10.19014,-1.37277 z"
       style="fill:#000000" />
  </g>
</svg>
