<?xml version="1.0" encoding="UTF-8" standalone="no"?>
<svg
   xmlns:dc="http://purl.org/dc/elements/1.1/"
   xmlns:cc="http://creativecommons.org/ns#"
   xmlns:rdf="http://www.w3.org/1999/02/22-rdf-syntax-ns#"
   xmlns:svg="http://www.w3.org/2000/svg"
   xmlns="http://www.w3.org/2000/svg"
   version="1.1"
   id="svg2"
   viewBox="0 0 744.09449 744.09437"
   height="210mm"
   width="210mm">
  <defs
     id="defs4" />
  <metadata
     id="metadata7">
    <rdf:RDF>
      <cc:Work
         rdf:about="">
        <dc:format>image/svg+xml</dc:format>
        <dc:type
           rdf:resource="http://purl.org/dc/dcmitype/StillImage" />
        <dc:title></dc:title>
      </cc:Work>
    </rdf:RDF>
  </metadata>
  <g
     transform="translate(0,-308.26789)"
     id="layer1">
    <g
       transform="matrix(0.8623316,0,0,0.86199077,815.16967,247.75352)"
       id="g4165">
      <circle
         style="opacity:1;fill:#cdcdcd;fill-opacity:1;fill-rule:evenodd;stroke:#000000;stroke-width:1;stroke-linecap:round;stroke-linejoin:round;stroke-miterlimit:4;stroke-dasharray:none;stroke-opacity:1"
         id="path4161"
         cx="-515.1778"
         cy="500.81891"
         r="424.26407" />
      <path
         id="path4159"
         d="m -536.00269,932.79236 c -11.20295,-0.5725 -26.39045,-1.903 -33.75,-2.9565 -27.57028,-3.947 -27.39849,-3.9119 -62.131,-12.7045 -4.125,-1.0443 -11.71875,-3.4662 -16.875,-5.3821 -5.15625,-1.9158 -10.78125,-3.8794 -12.5,-4.3635 -6.80346,-1.9164 -19.99676,-7.36046 -32.14801,-13.26561 -7.02515,-3.41403 -16.3064,-7.86339 -20.625,-9.88746 -11.00954,-5.16005 -23.46312,-12.27088 -27.6354,-15.77943 -1.94337,-1.63422 -3.97587,-2.97131 -4.51664,-2.97131 -0.54079,0 -4.857,-2.8345 -9.5916,-6.29887 -4.73459,-3.46439 -11.89718,-8.66752 -15.91685,-11.5625 -4.01968,-2.895 -9.64468,-7.25247 -12.5,-9.68328 -2.85533,-2.43081 -7.33023,-5.99744 -9.94421,-7.92585 -5.17389,-3.81692 -41.19331,-39.82112 -48.54314,-48.52264 -5.42365,-6.42108 -26.90739,-34.97605 -30.45415,-40.4779 -15.45339,-23.97182 -18.99434,-29.8178 -20.00586,-33.02896 -0.5414,-1.71875 -2.19065,-5.09375 -3.66498,-7.5 -1.47434,-2.40625 -3.75917,-6.90625 -5.07739,-10 -1.31822,-3.09375 -3.24449,-6.97651 -4.28059,-8.62836 -2.14379,-3.41783 -6.82064,-14.29864 -9.72337,-22.62164 -1.07897,-3.09375 -3.23519,-9 -4.79159,-13.125 -4.79128,-12.6985 -6.93712,-19.60124 -9.32601,-30 -1.26351,-5.5 -2.83657,-11.40625 -3.49569,-13.125 -2.06819,-5.39316 -7.51268,-36.63414 -9.14937,-52.5 -5.50753,-53.38929 -2.37326,-102.91926 9.65023,-152.5 3.05493,-12.59751 15.20306,-49.63982 19.47219,-59.375 11.29136,-25.74844 19.57001,-42.91834 24.40937,-50.625 9.76789,-15.55531 28.23172,-43.29362 30.37,-45.625 1.26111,-1.375 4.16496,-5.15324 6.45299,-8.39607 13.52449,-19.16831 56.81123,-62.42734 71.66007,-71.61419 2.0625,-1.27605 5.15625,-3.57645 6.875,-5.112 2.86587,-2.5604 29.7648,-20.50899 46.25,-30.8608 7.70666,-4.83936 24.87656,-13.11801 50.625,-24.40937 9.77019,-4.284482 46.84517,-16.438162 59.375,-19.463922 49.86094,-12.04064 99.57371,-15.1838 152.5,-9.64203 31.3437,3.28191 69.78981,12.09904 95.625,21.93037 4.125,1.56973 10.03125,3.73685 13.125,4.81583 8.323,2.902722 19.20381,7.579572 22.62164,9.723362 1.65185,1.03611 5.53461,2.96237 8.62836,4.28059 3.09375,1.31823 7.59375,3.60305 10,5.07739 2.40625,1.47433 5.78125,3.12358 7.5,3.66499 3.21116,1.01151 9.05714,4.55246 33.02896,20.00585 5.50185,3.54676 34.05681,25.0305 40.4779,30.45415 8.70151,7.34984 44.70571,43.36925 48.52264,48.54314 1.92841,2.61399 5.49504,7.08888 7.92585,9.94421 2.43081,2.85532 6.78827,8.48032 9.68327,12.5 2.89499,4.01967 8.09812,11.18226 11.5625,15.91685 3.46438,4.7346 6.29888,9.05081 6.29888,9.5916 0,0.54077 1.33709,2.57327 2.97131,4.51664 3.50855,4.17228 10.61938,16.62586 15.77943,27.6354 2.02407,4.3186 6.47343,13.59985 9.88746,20.625 5.90515,12.15125 11.34925,25.34455 13.26557,32.14801 0.48413,1.71875 2.44774,7.34375 4.36358,12.5 1.91585,5.15625 4.33775,12.75 5.38201,16.875 8.79301,34.73385 8.81278,34.83044 12.6522,61.875 5.58479,39.33871 3.7958,106.16039 -3.59622,134.32513 -1.07544,4.09756 -1.95355,8.87881 -1.95138,10.625 0.004,3.17077 -3.09356,15.18062 -7.61181,29.513 -1.31569,4.17346 -2.39215,8.59521 -2.39215,9.82611 0,2.21581 -6.6662,20.11817 -11.33169,30.4317 -1.33007,2.94026 -2.41831,6.14114 -2.41831,7.11305 0,2.06398 -9.97135,22.8979 -18.2667,38.16601 -3.17498,5.84375 -6.9069,12.875 -8.29316,15.625 -1.38627,2.75 -4.04479,7.25 -5.90785,10 -1.86305,2.75 -4.90177,7.25 -6.7527,10 -29.4518,43.75753 -76.39707,90.70279 -120.15459,120.15459 -2.75,1.85093 -7.25,4.88965 -10,6.7527 -2.75,1.86306 -7.25,4.52158 -10,5.90785 -2.75,1.38626 -9.78125,5.11818 -15.625,8.29316 -15.26811,8.29535 -36.10203,18.2667 -38.16601,18.2667 -0.97192,0 -4.17279,1.08824 -7.11305,2.41831 -10.31353,4.6655 -28.21589,11.3317 -30.4317,11.3317 -1.2309,0 -5.65265,1.0765 -9.82612,2.3921 -14.33237,4.5183 -26.34222,7.6158 -29.513,7.6119 -1.74618,0 -6.52743,0.8709 -10.625,1.9403 -9.52811,2.4865 -45.52887,6.4357 -64.95012,7.1248 -8.25,0.2927 -24.16605,0.064 -35.369,-0.5087 z m 16.619,-35.43541 0,-26.25 -20,-1.56882 C -649.32839,860.9139 -744.5186,808.68159 -810.01734,721.03733 -851.88548,665.01331 -876.08208,599.309 -881.57322,526.73195 l -1.56047,-20.625 -25.96697,-0.33795 c -22.08165,-0.28739 -26.07406,-0.0589 -26.68271,1.52725 -1.09026,2.84119 1.80637,39.2786 4.5604,57.36636 7.0184,46.09508 19.77342,85.68315 41.34367,128.31934 66.2841,131.01846 196.94001,218.38231 343.73286,229.83891 7.84451,0.6122 17.07525,1.0396 20.51275,0.9496 l 6.25,-0.1635 0,-26.25001 z m 35,25.56531 c 101.07067,-7.5053 192.1244,-48.30302 264.78952,-118.64218 66.18775,-64.06914 109.3393,-147.92872 123.29977,-239.61747 2.75402,-18.08776 5.65065,-54.52517 4.56038,-57.36636 -0.60865,-1.58611 -4.60106,-1.81464 -26.68271,-1.52725 l -25.96696,0.33795 -1.56048,20.625 c -5.49113,72.57705 -29.68773,138.28136 -71.55587,194.30538 -65.67441,87.87932 -162.40203,140.76493 -271.54791,148.46821 l -20.96074,1.47936 0,25.7902 c 0,14.18456 0.375,26.16516 0.83334,26.62356 1.11215,1.1121 4.19866,1.0528 24.79166,-0.4764 z m -35,-134.91446 0,-30.59916 -17.24143,-1.5641 c -28.80491,-2.61313 -55.39526,-9.5691 -82.24472,-21.51503 -28.28415,-12.58423 -51.99725,-29.30318 -76.13893,-53.68183 -42.78363,-43.20359 -67.84085,-96.7981 -72.66806,-155.42863 -0.75224,-9.13665 -1.57085,-17.32526 -1.81911,-18.19689 -0.35198,-1.23576 -7.13425,-1.51106 -30.79458,-1.25 l -30.34317,0.33479 0.36962,13.75 c 0.7182,26.71714 8.2441,63.86274 18.52812,91.44919 32.59191,87.42657 100.9765,155.81116 188.40307,188.40307 29.0729,10.83815 74.38796,19.68005 97.69919,19.06314 l 6.25,-0.1654 0,-30.59915 z m 32.54921,29.98106 c 123.16751,-10.90455 227.81594,-90.70081 271.05305,-206.68272 10.28401,-27.58645 17.80991,-64.73205 18.52811,-91.44919 l 0.36963,-13.75 -30.34318,-0.33479 c -23.66032,-0.26106 -30.4426,0.0142 -30.79457,1.25 -0.24826,0.87163 -1.06688,9.06024 -1.81911,18.19689 -4.82722,58.63053 -29.88443,112.22504 -72.66807,155.42863 -24.14167,24.37865 -47.85477,41.0976 -76.13892,53.68183 -26.92564,11.97982 -53.96896,19.04365 -81.62405,21.32058 -9.13665,0.75224 -17.31523,1.567 -18.1746,1.81056 -1.19398,0.33839 -1.5625,7.47854 -1.5625,30.27374 0,16.40699 0.375,30.2059 0.83334,30.66422 1.1257,1.12572 6.0095,1.03614 22.34087,-0.40975 z m -32.21382,-143.38347 0.33538,-29.00156 -4.08538,-0.57742 c -18.6287,-2.63291 -25.3921,-3.95533 -34.08539,-6.66461 -33.41858,-10.41496 -63.11731,-34.26687 -80.95839,-65.02 -8.86787,-15.28579 -16.10434,-36.10274 -17.72796,-50.99754 -0.44889,-4.11802 -1.11816,-9.59668 -1.48728,-12.17481 l -0.67112,-4.6875 -28.56635,0 c -18.43515,0 -28.85141,0.46123 -29.3701,1.30049 -0.44206,0.71526 -0.1595,7.32464 0.62792,14.6875 5.27458,49.32081 25.69558,91.39769 60.82837,125.3351 23.49721,22.69772 47.83582,37.42685 77.94991,47.17335 18.25749,5.90907 42.18276,10.32549 53.125,9.80644 l 3.75,-0.17788 0.33539,-29.00156 z m 25.91461,28.36887 c 69.86376,-7.68301 129.33282,-49.11326 161.13019,-112.2544 5.52871,-10.97856 12.72488,-31.66775 15.73477,-45.23787 2.79035,-12.58036 5.55981,-36.84922 4.41624,-38.69955 -0.51869,-0.83926 -10.93495,-1.30049 -29.3701,-1.30049 l -28.56635,0 -0.67113,4.6875 c -0.36911,2.57813 -1.03838,8.05679 -1.48727,12.17481 -3.2797,30.08731 -23.24364,66.77649 -47.42691,87.15985 -25.43862,21.44144 -48.1865,30.9509 -84.69694,35.40644 l -5.9375,0.72459 0,28.46507 c 0,15.65579 0.375,28.84008 0.83334,29.2984 1.08941,1.08943 2.65245,1.04808 16.04166,-0.42435 z M -882.00724,482.04445 c 0.46271,-8.07812 1.37424,-17.5 2.02562,-20.9375 0.65138,-3.4375 2.094,-12.15625 3.20581,-19.375 2.87416,-18.66125 10.52422,-47.91289 17.48954,-66.875 3.28299,-8.9375 11.07847,-26.375 17.32328,-38.75 18.57434,-36.80776 39.41292,-65.67599 68.15812,-94.42117 36.4057,-36.40572 78.59477,-64.03792 126.71785,-82.99529 35.49249,-13.98174 85.70792,-24.45854 117.23012,-24.45854 6.58106,0 9.98567,-0.53447 10.97152,-1.72235 0.99511,-1.19904 1.32646,-9.4595 1.09055,-27.1875 l -0.33886,-25.465152 -16.25,0.29623 c -18.67355,0.34041 -40.94368,2.91995 -62.5,7.23935 -138.48961,27.750192 -254.22039,123.325702 -308.12562,254.463522 -11.90772,28.96849 -21.48524,63.37826 -26.23354,94.2509 -2.91621,18.96076 -5.81793,55.48181 -4.65002,58.52532 0.71894,1.87354 3.61882,2.09968 26.92503,2.09968 l 26.11931,0 0.84129,-14.6875 z m 114.09412,-2.73296 c 3.14394,-34.80434 13.37334,-67.86083 30.77645,-99.45454 41.91834,-76.09883 116.42343,-124.42056 203.28594,-131.84509 7.85563,-0.67146 14.75668,-1.69455 15.33565,-2.27352 0.57899,-0.57899 0.90166,-14.51417 0.71705,-30.96705 l -0.33566,-29.91434 -15,0.11663 c -16.97934,0.13201 -35.82724,2.78224 -56.87853,7.9978 -42.29126,10.47784 -80.27772,28.58736 -116.13647,55.36641 -15.42501,11.5193 -49.48486,45.57915 -61.00416,61.00416 -25.99657,34.81094 -44.07513,72.15634 -54.70954,113.015 -4.84545,18.6168 -10.98599,69.54155 -8.80993,73.0625 0.57483,0.93009 10.33312,1.25139 31.04023,1.02203 l 30.20182,-0.33453 1.51715,-16.79546 z m 110.87574,13.35796 c 0.32153,-2.23437 1.16715,-8.3181 1.87918,-13.5194 2.49327,-18.21328 11.0243,-40.10011 22.24508,-57.07113 6.53039,-9.87693 21.42743,-25.26394 32.60158,-33.67386 11.54989,-8.6927 29.07257,-17.88385 42.17785,-22.1235 10.1416,-3.28087 29.26161,-7.04961 35.76492,-7.04961 2.65668,0 3.73783,-0.71509 4.2522,-2.8125 0.37938,-1.54688 0.53072,-14.90625 0.33633,-29.6875 l -0.35345,-26.875 -7.2469,-0.37665 c -17.90491,-0.9306 -55.22469,8.7483 -78.17531,20.2748 -37.89375,19.03139 -69.49149,49.35997 -88.34028,84.79202 -6.7737,12.73322 -15.92686,37.98188 -19.30839,53.26143 -2.79262,12.6186 -5.52321,35.90314 -4.41975,37.68856 0.46658,0.75494 11.88563,1.23484 29.38275,1.23484 l 28.61959,0 0.5846,-4.0625 z m 345.14431,2.82766 c 0.41975,-0.67916 0.13473,-7.00728 -0.63338,-14.0625 -7.76804,-71.35031 -48.10354,-129.87252 -111.43503,-161.67951 -23.24647,-11.67507 -60.10197,-21.15838 -78.78517,-20.27224 l -7.88704,0.37409 0,29.375 0,29.375 3.75,0.32714 c 2.0625,0.17994 9.22889,1.19812 15.92531,2.26265 47.95014,7.62257 90.72763,40.69452 109.10098,84.34767 4.38763,10.42454 8.96256,26.86628 9.89886,35.57523 0.44272,4.11802 1.08804,9.31544 1.43404,11.54981 l 0.6291,4.0625 28.61958,0 c 17.49713,0 28.91618,-0.4799 29.38275,-1.23484 z m 114.70682,-11.26516 c -1.54437,-60.61244 -23.7578,-122.10365 -63.17828,-174.89 -11.5193,-15.42501 -45.57915,-49.48486 -61.00416,-61.00416 -35.85875,-26.77905 -73.84521,-44.88857 -116.13648,-55.36641 -21.32193,-5.2826 -39.97393,-7.87857 -57.50352,-8.00328 l -15.625,-0.11112 0,30.62499 0,30.625 8.75,0.96964 c 37.33624,4.13747 56.79129,8.22288 77.7846,16.33418 61.56741,23.78812 109.19896,67.01917 138.43377,125.64442 14.80383,29.68645 23.20167,58.48601 25.7824,88.41829 0.76507,8.87341 1.59844,16.84664 1.85195,17.71826 0.35935,1.23556 7.14767,1.51103 30.8041,1.25 l 30.34318,-0.33481 -0.30256,-11.875 z m 104.92363,-3.75 c -0.45638,-18.81843 -3.08777,-41.56889 -7.15666,-61.875 -33.41497,-166.76024 -164.45417,-297.79944 -331.21441,-331.214422 -21.83801,-4.37584 -44.21548,-6.94318 -63.2673,-7.25858 l -16.7327,-0.277 -0.33886,25.465152 c -0.23592,17.728 0.0954,25.98846 1.09055,27.1875 0.9999,1.2048 4.48452,1.72235 11.59652,1.72235 32.11234,0 81.89503,10.32257 117.85511,24.43758 70.52777,27.68346 131.41467,76.89109 173.9244,140.56242 12.0642,18.06981 30.50302,54.463 38.14849,75.29469 11.41785,31.11032 20.92386,75.75347 22.76623,106.9172 l 0.9067,15.33689 26.40042,-0.33689 26.40044,-0.33689 -0.37893,-15.625 z"
         style="fill:#d10a0a" />
      <path
         id="path4157"
         d="m -536.00269,932.79236 c -11.20295,-0.5725 -26.39045,-1.903 -33.75,-2.9565 -27.57028,-3.947 -27.39849,-3.9119 -62.131,-12.7045 -4.125,-1.0443 -11.71875,-3.4662 -16.875,-5.3821 -5.15625,-1.9158 -10.78125,-3.8794 -12.5,-4.3635 -6.80346,-1.9164 -19.99676,-7.36046 -32.14801,-13.26561 -7.02515,-3.41403 -16.3064,-7.86339 -20.625,-9.88746 -11.00954,-5.16005 -23.46312,-12.27088 -27.6354,-15.77943 -1.94337,-1.63422 -3.97587,-2.97131 -4.51664,-2.97131 -0.54079,0 -4.857,-2.8345 -9.5916,-6.29887 -4.73459,-3.46439 -11.89718,-8.66752 -15.91685,-11.5625 -4.01968,-2.895 -9.64468,-7.25247 -12.5,-9.68328 -2.85533,-2.43081 -7.33023,-5.99744 -9.94421,-7.92585 -5.17389,-3.81692 -41.19331,-39.82112 -48.54314,-48.52264 -5.42365,-6.42108 -26.90739,-34.97605 -30.45415,-40.4779 -15.45339,-23.97182 -18.99434,-29.8178 -20.00586,-33.02896 -0.5414,-1.71875 -2.19065,-5.09375 -3.66498,-7.5 -1.47434,-2.40625 -3.75917,-6.90625 -5.07739,-10 -1.31822,-3.09375 -3.24449,-6.97651 -4.28059,-8.62836 -2.14379,-3.41783 -6.82064,-14.29864 -9.72337,-22.62164 -1.07897,-3.09375 -3.23519,-9 -4.79159,-13.125 -4.79128,-12.6985 -6.93712,-19.60124 -9.32601,-30 -1.26351,-5.5 -2.83657,-11.40625 -3.49569,-13.125 -2.06819,-5.39316 -7.51268,-36.63414 -9.14937,-52.5 -5.50753,-53.38929 -2.37326,-102.91926 9.65023,-152.5 3.05493,-12.59751 15.20306,-49.63982 19.47219,-59.375 11.29136,-25.74844 19.57001,-42.91834 24.40937,-50.625 9.76789,-15.55531 28.23172,-43.29362 30.37,-45.625 1.26111,-1.375 4.16496,-5.15324 6.45299,-8.39607 13.52449,-19.16831 56.81123,-62.42734 71.66007,-71.61419 2.0625,-1.27605 5.15625,-3.57645 6.875,-5.112 2.86587,-2.5604 29.7648,-20.50899 46.25,-30.8608 7.70666,-4.83936 24.87656,-13.11801 50.625,-24.40937 9.77019,-4.284482 46.84517,-16.438162 59.375,-19.463922 49.86094,-12.04064 99.57371,-15.1838 152.5,-9.64203 31.3437,3.28191 69.78981,12.09904 95.625,21.93037 4.125,1.56973 10.03125,3.73685 13.125,4.81583 8.323,2.902722 19.20381,7.579572 22.62164,9.723362 1.65185,1.03611 5.53461,2.96237 8.62836,4.28059 3.09375,1.31823 7.59375,3.60305 10,5.07739 2.40625,1.47433 5.78125,3.12358 7.5,3.66499 3.21116,1.01151 9.05714,4.55246 33.02896,20.00585 5.50185,3.54676 34.05681,25.0305 40.4779,30.45415 8.70151,7.34984 44.70571,43.36925 48.52264,48.54314 1.92841,2.61399 5.49504,7.08888 7.92585,9.94421 2.43081,2.85532 6.78827,8.48032 9.68327,12.5 2.89499,4.01967 8.09812,11.18226 11.5625,15.91685 3.46438,4.7346 6.29888,9.05081 6.29888,9.5916 0,0.54077 1.33709,2.57327 2.97131,4.51664 3.50855,4.17228 10.61938,16.62586 15.77943,27.6354 2.02407,4.3186 6.47343,13.59985 9.88746,20.625 5.90515,12.15125 11.34925,25.34455 13.26557,32.14801 0.48413,1.71875 2.44774,7.34375 4.36358,12.5 1.91585,5.15625 4.33775,12.75 5.38201,16.875 8.79301,34.73385 8.81278,34.83044 12.6522,61.875 5.58479,39.33871 3.7958,106.16039 -3.59622,134.32513 -1.07544,4.09756 -1.95355,8.87881 -1.95138,10.625 0.004,3.17077 -3.09356,15.18062 -7.61181,29.513 -1.31569,4.17346 -2.39215,8.59521 -2.39215,9.82611 0,2.21581 -6.6662,20.11817 -11.33169,30.4317 -1.33007,2.94026 -2.41831,6.14114 -2.41831,7.11305 0,2.06398 -9.97135,22.8979 -18.2667,38.16601 -3.17498,5.84375 -6.9069,12.875 -8.29316,15.625 -1.38627,2.75 -4.04479,7.25 -5.90785,10 -1.86305,2.75 -4.90177,7.25 -6.7527,10 -29.4518,43.75753 -76.39707,90.70279 -120.15459,120.15459 -2.75,1.85093 -7.25,4.88965 -10,6.7527 -2.75,1.86306 -7.25,4.52158 -10,5.90785 -2.75,1.38626 -9.78125,5.11818 -15.625,8.29316 -15.26811,8.29535 -36.10203,18.2667 -38.16601,18.2667 -0.97192,0 -4.17279,1.08824 -7.11305,2.41831 -10.31353,4.6655 -28.21589,11.3317 -30.4317,11.3317 -1.2309,0 -5.65265,1.0765 -9.82612,2.3921 -14.33237,4.5183 -26.34222,7.6158 -29.513,7.6119 -1.74618,0 -6.52743,0.8709 -10.625,1.9403 -9.52811,2.4865 -45.52887,6.4357 -64.95012,7.1248 -8.25,0.2927 -24.16605,0.064 -35.369,-0.5087 z m 16.619,-35.43541 0,-26.25 -20,-1.56882 C -649.32839,860.9139 -744.5186,808.68159 -810.01734,721.03733 -851.88548,665.01331 -876.08208,599.309 -881.57322,526.73195 l -1.56047,-20.625 -25.96697,-0.33795 c -22.08165,-0.28739 -26.07406,-0.0589 -26.68271,1.52725 -1.09026,2.84119 1.80637,39.2786 4.5604,57.36636 7.0184,46.09508 19.77342,85.68315 41.34367,128.31934 66.2841,131.01846 196.94001,218.38231 343.73286,229.83891 7.84451,0.6122 17.07525,1.0396 20.51275,0.9496 l 6.25,-0.1635 0,-26.25001 z m 35,25.56531 c 101.07067,-7.5053 192.1244,-48.30302 264.78952,-118.64218 66.18775,-64.06914 109.3393,-147.92872 123.29977,-239.61747 2.75402,-18.08776 5.65065,-54.52517 4.56038,-57.36636 -0.60865,-1.58611 -4.60106,-1.81464 -26.68271,-1.52725 l -25.96696,0.33795 -1.56048,20.625 c -5.49113,72.57705 -29.68773,138.28136 -71.55587,194.30538 -65.67441,87.87932 -162.40203,140.76493 -271.54791,148.46821 l -20.96074,1.47936 0,25.7902 c 0,14.18456 0.375,26.16516 0.83334,26.62356 1.11215,1.1121 4.19866,1.0528 24.79166,-0.4764 z m -35,-134.91446 0,-30.59916 -17.24143,-1.5641 c -28.80491,-2.61313 -55.39526,-9.5691 -82.24472,-21.51503 -28.28415,-12.58423 -51.99725,-29.30318 -76.13893,-53.68183 -42.78363,-43.20359 -67.84085,-96.7981 -72.66806,-155.42863 -0.75224,-9.13665 -1.57085,-17.32526 -1.81911,-18.19689 -0.35198,-1.23576 -7.13425,-1.51106 -30.79458,-1.25 l -30.34317,0.33479 0.36962,13.75 c 0.7182,26.71714 8.2441,63.86274 18.52812,91.44919 32.59191,87.42657 100.9765,155.81116 188.40307,188.40307 29.0729,10.83815 74.38796,19.68005 97.69919,19.06314 l 6.25,-0.1654 0,-30.59915 z m 32.54921,29.98106 c 123.16751,-10.90455 227.81594,-90.70081 271.05305,-206.68272 10.28401,-27.58645 17.80991,-64.73205 18.52811,-91.44919 l 0.36963,-13.75 -30.34318,-0.33479 c -23.66032,-0.26106 -30.4426,0.0142 -30.79457,1.25 -0.24826,0.87163 -1.06688,9.06024 -1.81911,18.19689 -4.82722,58.63053 -29.88443,112.22504 -72.66807,155.42863 -24.14167,24.37865 -47.85477,41.0976 -76.13892,53.68183 -26.92564,11.97982 -53.96896,19.04365 -81.62405,21.32058 -9.13665,0.75224 -17.31523,1.567 -18.1746,1.81056 -1.19398,0.33839 -1.5625,7.47854 -1.5625,30.27374 0,16.40699 0.375,30.2059 0.83334,30.66422 1.1257,1.12572 6.0095,1.03614 22.34087,-0.40975 z m -31.54234,-163.70788 c 0.55379,-27.12929 0.69227,-50.57953 0.30774,-52.11163 -0.55925,-2.22821 -1.88636,-2.94624 -6.63189,-3.58812 -45.6776,-6.17849 -80.20135,-40.90029 -85.95002,-86.44312 -0.54158,-4.29052 -1.50453,-6.73284 -2.85965,-7.25285 -3.09871,-1.18907 -101.49088,0.8238 -102.27486,2.09233 -0.37573,0.60792 -0.0389,7.12949 0.74853,14.49235 5.27458,49.32081 25.69558,91.39769 60.82837,125.3351 23.49721,22.69772 47.83582,37.42685 77.94991,47.17335 18.25749,5.90907 42.18276,10.32548 53.125,9.80643 l 3.75,-0.17787 1.00687,-49.32597 z m 25.24313,48.69328 c 69.86376,-7.68301 129.33282,-49.11326 161.13019,-112.2544 5.52871,-10.97856 12.72488,-31.66775 15.73477,-45.23787 2.65098,-11.952 5.58058,-36.81562 4.53685,-38.5044 -0.78399,-1.26853 -99.17615,-3.2814 -102.27486,-2.09233 -1.35513,0.52001 -2.31808,2.96233 -2.85965,7.25285 -3.27906,25.9778 -16.2621,49.40193 -36.2775,65.45227 -14.18576,11.37553 -28.2716,17.43178 -48.2214,20.73291 l -9.2684,1.53366 0.46577,51.25 c 0.25618,28.1875 0.71125,51.67188 1.01128,52.1875 0.703,1.2082 2.44059,1.17349 16.02295,-0.32019 z m -25.13374,-113.21955 c 1.53278,-3.99435 0.83446,-43.70242 -0.80376,-45.70389 -0.85938,-1.04992 -3.89915,-2.57008 -6.75505,-3.37815 -12.39691,-3.50763 -23.35405,-14.76813 -27.3001,-28.05593 -1.04004,-3.50217 -2.59216,-6.81284 -3.44916,-7.35704 -2.11615,-1.34378 -43.62523,-1.26379 -45.75907,0.0881 -3.7845,2.39782 2.32763,26.27338 10.48762,40.96739 2.87561,5.17821 8.72443,12.52268 14.85335,18.6516 13.59325,13.59325 26.55685,20.74635 45.10991,24.89091 10.09336,2.25476 12.71911,2.23488 13.61626,-0.103 z m 31.59205,-2.35389 c 4.92708,-1.56045 12.80208,-4.97172 17.5,-7.58061 11.23408,-6.2386 27.26635,-22.27087 33.50495,-33.50495 8.15999,-14.69401 14.27211,-38.56957 10.48761,-40.96739 -2.13383,-1.35196 -43.64291,-1.43195 -45.75906,-0.0881 -0.857,0.5442 -2.40912,3.85487 -3.44916,7.35704 -4.12595,13.89358 -13.46101,23.25757 -28.2656,28.35318 l -7.97705,2.74563 -0.35648,21.1957 c -0.19605,11.65764 -0.0292,22.52288 0.37065,24.14496 0.69203,2.80699 1.07104,2.90664 7.85647,2.06554 3.92115,-0.48606 11.1606,-2.16048 16.08767,-3.72093 z m -9.07775,-57.4078 c 8.39964,-4.92251 17.44513,-20.30561 14.22911,-24.19857 -1.7482,-2.1162 -26.127,-2.17018 -28.23467,-0.0625 -1.95195,1.95195 -2.0584,26.1916 -0.1235,28.12647 1.74349,1.74349 7.02275,0.2992 14.12909,-3.8654 z m -22.0229,-9.32857 c 0.23408,-8.47025 -0.14276,-13.54549 -1.09055,-14.6875 -1.93849,-2.33572 -25.21861,-2.49235 -27.12679,-0.1825 -1.68767,2.04292 0.80405,9.36372 5.48709,16.12136 4.0563,5.85324 14.70269,12.50288 19.24759,12.02186 3.08464,-0.32645 3.12962,-0.4979 3.48266,-13.27322 z m -93.34194,-27.6825 c 4.97258,-25.37754 10.00597,-37.55407 21.38134,-51.72477 16.02134,-19.95832 39.06903,-32.86932 64.8953,-36.35345 l 5.79236,-0.78143 0.89558,-47.75768 c 0.49256,-26.26672 0.6985,-49.72642 0.45764,-52.13267 l -0.43794,-4.375 -7.2469,-0.37665 c -17.90491,-0.9306 -55.22469,8.7483 -78.17531,20.2748 -37.89375,19.03139 -69.49149,49.35997 -88.34028,84.79202 -6.7737,12.73322 -15.92686,37.98188 -19.30839,53.26143 -3.0458,13.76259 -5.53928,36.43824 -4.15868,37.81884 1.02728,1.02728 39.02093,1.84435 82.1838,1.76737 l 21.20423,-0.0379 0.85725,-4.375 z m 55.73737,3.4375 c 0.65131,-0.85937 1.8516,-3.89915 2.6673,-6.75505 3.4279,-12.00164 14.91911,-23.48691 26.88706,-26.87318 2.8559,-0.80806 5.89567,-2.32822 6.75505,-3.37815 1.83415,-2.24083 2.22361,-43.45201 0.43729,-46.27201 -2.3143,-3.65348 -25.19913,2.44856 -39.99937,10.66552 -10.78625,5.98841 -27.06238,22.26455 -33.0508,33.05079 -8.21695,14.80024 -14.319,37.68507 -10.66551,39.99937 2.8449,1.8021 45.57326,1.40428 46.96898,-0.43729 z m 36.51566,-0.18447 c 0.94264,-1.13582 1.32416,-6.05551 1.09056,-14.0625 -0.3532,-12.10589 -0.4125,-12.32115 -3.48431,-12.64626 -9.67726,-1.02418 -27.66709,18.45244 -24.54904,26.57793 1.00746,2.62542 24.77668,2.74084 26.94279,0.13083 z m 37.15529,-0.13083 c 1.0988,-2.8634 -0.30553,-6.94851 -4.63627,-13.48675 -5.5655,-8.40235 -20.10678,-16.44144 -23.5363,-13.01193 -1.92742,1.92743 -1.8217,24.93125 0.1235,26.87648 0.97309,0.97309 6.0365,1.5 14.41423,1.5 10.33475,0 13.05816,-0.37508 13.63481,-1.8778 z m 56.54185,0.75259 c 1.40791,-0.89184 1.46308,-2.53858 0.30741,-9.17495 -3.43479,-19.72403 -11.32553,-34.84689 -25.66339,-49.18475 -14.75632,-14.75633 -32.68032,-23.73041 -52.23927,-26.15489 -6.78543,-0.8411 -7.16444,-0.74145 -7.85647,2.06554 -0.39991,1.62208 -0.5667,12.48732 -0.37065,24.14496 l 0.35648,21.1957 7.97705,2.74563 c 4.38737,1.51009 10.29362,4.36483 13.125,6.34387 6.07295,4.24479 12.64657,13.54069 14.72756,20.82655 0.8157,2.8559 2.01599,5.89568 2.6673,6.75505 1.39571,1.84158 44.12408,2.23939 46.96898,0.43729 z m 113.05291,-1.35639 c 0.56034,-0.51205 0.38274,-6.77254 -0.39468,-13.9122 -7.78702,-71.51573 -48.06197,-129.9967 -111.45191,-161.83305 -23.24647,-11.67507 -60.10197,-21.15837 -78.78517,-20.27224 l -7.88704,0.37409 -0.0128,50 c -0.007,27.5 0.15576,50.93464 0.36166,52.07696 0.26818,1.4879 2.22165,2.31029 6.8877,2.89961 44.69593,5.64524 78.88079,38.66789 85.9721,83.04924 0.70531,4.4142 1.59481,8.53135 1.97669,9.14924 0.82906,1.34144 101.82754,-0.15559 103.33336,-1.53165 z m -569.89235,-13.4559 c 0.46271,-8.07812 1.37424,-17.5 2.02562,-20.9375 0.65138,-3.4375 2.094,-12.15625 3.20581,-19.375 2.87416,-18.66125 10.52422,-47.91289 17.48954,-66.875 3.28299,-8.9375 11.07847,-26.375 17.32328,-38.75 18.57434,-36.80776 39.41292,-65.67599 68.15812,-94.42117 36.4057,-36.40572 78.59477,-64.03792 126.71785,-82.99529 35.49249,-13.98174 85.70792,-24.45854 117.23012,-24.45854 6.58106,0 9.98567,-0.53447 10.97152,-1.72235 0.99511,-1.19904 1.32646,-9.4595 1.09055,-27.1875 l -0.33886,-25.465152 -16.25,0.29623 c -18.67355,0.34041 -40.94368,2.91995 -62.5,7.23935 -138.48961,27.750192 -254.22039,123.325702 -308.12562,254.463522 -11.90772,28.96849 -21.48524,63.37826 -26.23354,94.2509 -2.91621,18.96076 -5.81793,55.48181 -4.65002,58.52532 0.71894,1.87354 3.61882,2.09968 26.92503,2.09968 l 26.11931,0 0.84129,-14.6875 z m 114.09412,-2.73296 c 3.14394,-34.80434 13.37334,-67.86083 30.77645,-99.45454 41.91834,-76.09883 116.42343,-124.42056 203.28594,-131.84509 7.85563,-0.67146 14.75668,-1.69455 15.33565,-2.27352 0.57899,-0.57899 0.90166,-14.51417 0.71705,-30.96705 l -0.33566,-29.91434 -15,0.11663 c -16.97934,0.13201 -35.82724,2.78224 -56.87853,7.9978 -42.29126,10.47784 -80.27772,28.58736 -116.13647,55.36641 -15.42501,11.5193 -49.48486,45.57915 -61.00416,61.00416 -25.99657,34.81094 -44.07513,72.15634 -54.70954,113.015 -4.84545,18.6168 -10.98599,69.54155 -8.80993,73.0625 0.57483,0.93009 10.33312,1.25139 31.04023,1.02203 l 30.20182,-0.33453 1.51715,-16.79546 z m 570.72687,4.92046 c -1.54437,-60.61244 -23.7578,-122.10365 -63.17828,-174.89 -11.5193,-15.42501 -45.57915,-49.48486 -61.00416,-61.00416 -35.85875,-26.77905 -73.84521,-44.88857 -116.13648,-55.36641 -21.32193,-5.2826 -39.97393,-7.87857 -57.50352,-8.00328 l -15.625,-0.11112 0,30.62499 0,30.625 8.75,0.96964 c 37.33624,4.13747 56.79129,8.22288 77.7846,16.33418 61.56741,23.78812 109.19896,67.01917 138.43377,125.64442 14.80383,29.68645 23.20167,58.48601 25.7824,88.41829 0.76507,8.87341 1.59844,16.84664 1.85195,17.71826 0.35935,1.23556 7.14767,1.51103 30.8041,1.25 l 30.34318,-0.33481 -0.30256,-11.875 z m 104.92363,-3.75 c -0.45638,-18.81843 -3.08777,-41.56889 -7.15666,-61.875 -33.41497,-166.76024 -164.45417,-297.79944 -331.21441,-331.214422 -21.83801,-4.37584 -44.21548,-6.94318 -63.2673,-7.25858 l -16.7327,-0.277 -0.33886,25.465152 c -0.23592,17.728 0.0954,25.98846 1.09055,27.1875 0.9999,1.2048 4.48452,1.72235 11.59652,1.72235 32.11234,0 81.89503,10.32257 117.85511,24.43758 70.52777,27.68346 131.41467,76.89109 173.9244,140.56242 12.0642,18.06981 30.50302,54.463 38.14849,75.29469 11.41785,31.11032 20.92386,75.75347 22.76623,106.9172 l 0.9067,15.33689 26.40042,-0.33689 26.40044,-0.33689 -0.37893,-15.625 z"
         style="fill:#383636" />
    </g>
  </g>
</svg>
