<?xml version="1.0" encoding="UTF-8" standalone="no"?>
<svg
   xmlns:dc="http://purl.org/dc/elements/1.1/"
   xmlns:cc="http://creativecommons.org/ns#"
   xmlns:rdf="http://www.w3.org/1999/02/22-rdf-syntax-ns#"
   xmlns:svg="http://www.w3.org/2000/svg"
   xmlns="http://www.w3.org/2000/svg"
   version="1.1"
   id="svg2"
   viewBox="0 0 744.09449 744.09437"
   height="210mm"
   width="210mm">
  <defs
     id="defs4" />
  <metadata
     id="metadata7">
    <rdf:RDF>
      <cc:Work
         rdf:about="">
        <dc:format>image/svg+xml</dc:format>
        <dc:type
           rdf:resource="http://purl.org/dc/dcmitype/StillImage" />
        <dc:title></dc:title>
      </cc:Work>
    </rdf:RDF>
  </metadata>
  <g
     transform="translate(0,-308.26789)"
     id="layer1">
    <path
       id="path4147"
       d="M 348.03443,1051.8317 C 220.84134,1041.8424 112.33219,974.06133 48.933378,864.99615 25.827897,825.2477 9.5724682,777.14515 2.5210145,727.65417 c -3.09310392,-21.70906 -3.09310392,-72.94024 0,-94.6493 C 14.584923,548.33369 50.045922,476.71664 109.1195,417.71852 230.53319,296.4599 415.78581,273.65841 563.99725,361.73069 c 64.99554,38.62259 120.93038,102.85716 150.76585,173.13694 20.11878,47.39144 29.13542,92.40785 29.13542,145.46189 0,44.22946 -5.13905,76.64617 -18.56324,117.09683 -44.3453,133.6239 -159.96915,230.34435 -300.10747,251.04285 -18.20521,2.6888 -61.66554,4.5821 -77.19338,3.3625 z M 272.70842,890.46904 c 3.54498,-1.46305 17.73811,-14.51417 41.09875,-37.79183 l 35.68374,-35.557 106.323,-0.3919 106.32296,-0.39193 6.03349,-3.22271 c 3.31851,-1.77251 8.42211,-6.0097 11.34151,-9.41597 9.95065,-11.6102 9.67965,-7.43313 9.23835,-142.39891 l -0.39673,-121.33999 -3.22082,-6.01405 c -4.25203,-7.93945 -11.37053,-14.89748 -18.59407,-18.17469 -5.57592,-2.52971 -14.95906,-2.65935 -194.67008,-2.68976 l -188.81184,-0.032 -7.78621,4.06237 c -8.70248,4.54043 -16.39098,13.50257 -18.69661,21.79386 -0.98278,3.53417 -1.50454,47.65067 -1.50056,126.87875 l 0.006,121.46068 3.41779,7.27309 c 4.32951,9.21326 9.90413,14.78075 19.12918,19.10475 6.92199,3.2445 8.81409,3.41413 38.23257,3.42763 l 30.95046,0.0142 0,30.33189 c 0,29.11283 0.13284,30.53053 3.30611,35.27451 3.14003,4.69434 11.27855,10.02664 15.31078,10.03153 1.02705,10e-4 4.30414,-1.00343 7.2824,-2.23258 z M 277.746,693.42895 c -10.27146,-6.25459 -13.89964,-21.40713 -7.59766,-31.73039 3.09387,-5.06808 12.65998,-10.37412 18.80296,-10.42947 5.77991,-0.0521 15.78759,5.63814 18.97503,10.78895 4.16127,6.72447 4.00753,17.74159 -0.33822,24.2385 -6.40244,9.57161 -20.35858,12.9072 -29.84211,7.13241 z m 82.65368,-0.37152 c -7.64812,-5.19862 -10.49895,-10.06973 -10.62097,-18.14771 -0.14434,-9.55941 3.7893,-16.20776 12.07009,-20.39969 8.15621,-4.12886 12.52279,-4.12108 20.39451,0.0362 15.68188,8.28219 15.67562,31.36521 -0.0102,39.2362 -7.106,3.56561 -15.95285,3.27181 -21.83297,-0.72506 z m 83.63313,0.60871 c -6.45544,-4.05549 -10.40644,-9.64781 -11.53673,-16.32934 -2.25776,-13.34655 11.14925,-27.25483 24.64816,-25.56966 19.63259,2.45091 26.86527,28.95208 10.98386,40.24617 -6.58042,4.67971 -18.02727,5.4649 -24.09529,1.65283 z"
       style="fill:#00b400;fill-opacity:1" />
  </g>
</svg>
