<?xml version="1.0" encoding="UTF-8" standalone="no"?>
<svg
   xmlns:dc="http://purl.org/dc/elements/1.1/"
   xmlns:cc="http://creativecommons.org/ns#"
   xmlns:rdf="http://www.w3.org/1999/02/22-rdf-syntax-ns#"
   xmlns:svg="http://www.w3.org/2000/svg"
   xmlns="http://www.w3.org/2000/svg"
   viewBox="0 0 208 233"
   height="233"
   width="208"
   version="1.1"
   id="svg4190">
  <metadata
     id="metadata4196">
    <rdf:RDF>
      <cc:Work
         rdf:about="">
        <dc:format>image/svg+xml</dc:format>
        <dc:type
           rdf:resource="http://purl.org/dc/dcmitype/StillImage" />
        <dc:title></dc:title>
      </cc:Work>
    </rdf:RDF>
  </metadata>
  <defs
     id="defs4194" />
  <path
     id="path4206"
     d="M 52.059308,84.40033 C 36.243822,55.734762 56.013179,38.601319 65.23888,33.658979 71.499176,30.034596 77.100494,27.398682 77.100494,27.398682 60.29654,24.762768 32.193445,45.191104 32.193445,45.191104 29.123014,53.485741 28.773538,70.493582 35.646569,81.327343 26.094221,77.832581 23.647887,56.980503 23.647887,50.806424 15.959412,58.145423 8.270936,69.911121 8.5039201,80.278914 14.095539,98.218691 29.821966,106.14015 35.996045,111.38229 22.599459,110.45036 4.8926664,90.879691 2.5628252,86.220009 2.7958094,99.84958 8.270936,122.44904 18.871713,126.99223 c 7.92146,4.19371 27.608617,7.80497 33.782696,8.50392 -11.765697,1.28142 -28.540553,-0.81545 -34.248664,-3.37827 14.677999,24.9293 45.664886,34.36516 58.711996,31.45286 -8.06768,-3.68973 -17.3687,-11.08193 -20.38611,-17.5903 9.668841,2.56282 30.520919,11.76569 35.297093,17.12433 -2.213348,13.62957 -20.619093,29.47249 -29.705474,35.41358 1.514397,2.09686 8.969888,8.62041 9.785333,9.55235 6.290571,-4.54319 20.38611,-23.99736 23.647887,-30.17144 l 2.679318,-0.11649 0.116492,23.76437 c -10e-7,8.62042 -6.174079,16.89135 -8.736905,20.6191 l 13.047115,10.48428 -0.1165,-54.98425 2.91231,0.1165 0.11649,55.33372 13.86255,-11.06674 c -3.84424,-5.9411 -9.66884,-13.51308 -9.90182,-21.08507 l -0.23299,-23.18191 3.96073,0 c 8.38743,13.39658 16.1924,22.94893 23.29841,30.05495 l 10.13481,-10.01832 c -9.20287,-7.10602 -27.02615,-21.31805 -29.12301,-34.71463 3.37827,-4.65969 28.19108,-16.42539 34.48165,-16.89135 -3.96073,8.50392 -13.39659,13.39658 -19.92014,17.47381 26.67668,0 47.52876,-13.2801 58.12953,-31.45286 -9.31937,3.96073 -27.8416,4.77617 -34.24866,3.61126 11.29972,-1.98037 31.45285,-6.29058 35.64657,-9.31937 8.38743,-5.00916 12.46465,-20.15313 12.69763,-37.277457 -4.77617,8.037951 -16.30888,18.988207 -29.47249,21.900507 8.03795,-5.8246 23.64789,-18.988206 25.86124,-29.821967 1.63088,-10.018317 -8.73691,-25.162284 -14.91099,-30.171443 1.39791,10.717269 -3.72774,25.162285 -11.18323,30.753903 4.89266,-8.270936 7.10601,-29.472491 1.86387,-37.626934 -6.52355,-7.688476 -29.47249,-18.172761 -44.49997,-17.939777 32.73428,13.746063 36.57851,36.927982 25.39527,58.479012 18.9882,30.404426 -10.60077,47.412266 -23.29841,50.557556 13.2801,-9.43586 26.90966,-19.92015 23.64789,-38.32589 -3.61126,10.95025 -14.5615,22.94894 -29.356,29.00652 -3.37827,4.07722 -6.64005,8.38743 -10.48428,10.2513 -1.98037,-3.49475 -2.32985,-8.96989 -2.32985,-12.81412 1.98037,0.34947 4.89267,0.46597 5.70811,-1.28142 -2.44633,-0.46596 -3.37826,-0.58246 -4.54319,-0.34947 -0.23298,-1.04843 -0.34947,-1.74738 -0.34947,-1.74738 2.09686,-0.46597 3.49476,-0.81545 4.77617,-2.79581 -2.44633,-0.69895 -4.89266,-0.58246 -5.8246,-0.34948 2.32984,-1.51439 4.4267,-2.9123 4.89267,-4.07722 -2.09686,-0.11649 -5.82461,-0.11649 -6.05759,0 -4.04734,-3.68637 -18.582057,-8.17064 -21.784015,0.11649 -3.145286,0.11649 -6.75654,1.63089 -7.455492,4.07722 7.688476,-0.93193 16.541877,-1.16491 11.066746,19.45418 C 90.164852,133.98175 83.757788,130.71997 81.194963,126.40977 68.846806,120.81815 56.615139,112.31423 51.372997,96.820786 48.577187,112.66371 58.944981,124.5459 76.535281,136.1951 41.820648,125.47783 40.397462,99.239019 52.059308,84.40033 Z"
     style="fill:#000000;fill-opacity:1;fill-rule:evenodd;stroke:#000000;stroke-width:1px;stroke-linecap:butt;stroke-linejoin:miter;stroke-opacity:1" />
  <path
     id="path4218"
     d="m 97.154375,171.25921 14.095535,0 -7.10601,-9.78533 z"
     style="fill:none;fill-opacity:1;fill-rule:evenodd;stroke:#000000;stroke-width:1px;stroke-linecap:butt;stroke-linejoin:miter;stroke-opacity:1" />
  <path
     id="path4220"
     d="m 74.321932,209.70159 c 6.756539,-5.47513 18.172761,-21.31805 21.55103,-27.72511 0.116493,20.5026 3.145286,20.6191 -7.455491,39.14133 z"
     style="fill:#000000;fill-opacity:1;fill-rule:evenodd;stroke:#000000;stroke-width:1px;stroke-linecap:butt;stroke-linejoin:miter;stroke-opacity:1" />
  <path
     id="path4222"
     d="m 135.24728,209.35211 c -9.31937,-8.62041 -17.12433,-18.75521 -22.71595,-29.2395 0,13.62957 -2.56283,23.76437 8.85339,40.42274 z"
     style="fill:#000000;fill-opacity:1;fill-rule:evenodd;stroke:#000000;stroke-width:1px;stroke-linecap:butt;stroke-linejoin:miter;stroke-opacity:1" />
  <path
     id="path4228"
     d="m 101.46458,113.47915 c -1.04843,0.34948 -4.193713,0.34948 -5.009157,0 1.514397,-2.09685 4.193707,-2.32984 5.009157,0 z"
     style="fill:#ffffff;fill-opacity:1;fill-rule:evenodd;stroke:#000000;stroke-width:0;stroke-linecap:butt;stroke-linejoin:miter;stroke-opacity:1;stroke-miterlimit:4;stroke-dasharray:none" />
</svg>
