<?xml version="1.0" encoding="UTF-8" standalone="no"?>
<svg
   xmlns:dc="http://purl.org/dc/elements/1.1/"
   xmlns:cc="http://creativecommons.org/ns#"
   xmlns:rdf="http://www.w3.org/1999/02/22-rdf-syntax-ns#"
   xmlns:svg="http://www.w3.org/2000/svg"
   xmlns="http://www.w3.org/2000/svg"
   version="1.1"
   id="svg2"
   viewBox="0 0 744.09449 744.09437"
   height="210mm"
   width="210mm">
  <defs
     id="defs4" />
  <metadata
     id="metadata7">
    <rdf:RDF>
      <cc:Work
         rdf:about="">
        <dc:format>image/svg+xml</dc:format>
        <dc:type
           rdf:resource="http://purl.org/dc/dcmitype/StillImage" />
        <dc:title></dc:title>
      </cc:Work>
    </rdf:RDF>
  </metadata>
  <g
     transform="translate(0,-308.26789)"
     id="layer1">
    <path
       id="path4174"
       d="m 148.68262,1049.7576 c -12.17141,-3.829 -28.78596,-17.5724 -56.499623,-46.7358 C 78.223004,988.33155 58.092264,968.51524 47.448025,958.9856 36.803786,949.45595 24.112696,936.7496 19.245586,930.74922 -3.365629,902.87317 -6.0339991,876.22642 11.335941,851.76214 14.664679,847.07387 53.726433,806.86272 98.139859,762.40402 L 178.89154,681.57 175.29661,676.60617 C 170.95185,670.60699 102.56034,602.9966 57.202691,559.8611 21.50932,525.91638 10.214909,512.69768 4.0064501,497.60144 c -7.2778169,-17.69642 -4.35889828,-37.0807 8.4794599,-56.31126 3.911337,-5.85881 20.597932,-24.2179 37.081311,-40.79796 16.483378,-16.58011 39.028734,-39.5888 50.100777,-51.13047 39.406272,-41.07762 63.051172,-49.28656 95.699542,-33.22453 13.18602,6.48712 16.81441,9.88225 95.26809,89.14393 l 81.56003,82.39993 77.73749,-78.05695 c 42.75566,-42.93134 82.68077,-81.66369 88.72246,-86.07193 13.61179,-9.9316 27.4099,-15.23742 39.6258,-15.23742 20.75951,0 35.78131,10.01396 71.7778,47.8491 14.1023,14.82262 34.66774,35.1014 45.701,45.06395 33.58897,30.32935 46.34075,49.30125 47.77658,71.08115 0.91154,13.82703 -2.88168,25.44909 -12.6239,38.67863 -4.07885,5.53893 -42.97779,45.88741 -86.44209,89.66326 -43.46429,43.77589 -78.86006,79.76756 -78.65728,79.9815 0.20276,0.21396 35.84759,36.09981 79.21072,79.74635 80.64477,81.17185 91.03141,93.10239 96.19472,110.49363 8.40137,28.29782 -0.28103,44.98997 -46.12579,88.6782 -15.35381,14.63155 -35.59053,35.1781 -44.9705,45.65905 -19.92347,22.2619 -34.8188,34.862 -49.15077,41.5769 -8.53227,3.9977 -12.66601,4.8177 -24.2866,4.8177 -25.24524,0 -23.1911,1.6209 -119.44694,-94.25603 -46.44007,-46.25728 -84.7913,-83.76402 -85.22493,-83.34835 -0.43366,0.41567 -36.48433,36.2414 -80.11259,79.61271 -49.8627,49.56907 -83.4531,81.59177 -90.44125,86.22007 -18.31124,12.1282 -35.49927,15.3604 -52.77697,9.925 z"
       style="fill:#d54240" />
  </g>
</svg>
