<?xml version="1.0" encoding="UTF-8" standalone="no"?>
<svg
   xmlns:dc="http://purl.org/dc/elements/1.1/"
   xmlns:cc="http://creativecommons.org/ns#"
   xmlns:rdf="http://www.w3.org/1999/02/22-rdf-syntax-ns#"
   xmlns:svg="http://www.w3.org/2000/svg"
   xmlns="http://www.w3.org/2000/svg"
   version="1.1"
   id="svg2"
   viewBox="0 0 744.09449 744.09437"
   height="210mm"
   width="210mm">
  <defs
     id="defs4" />
  <metadata
     id="metadata7">
    <rdf:RDF>
      <cc:Work
         rdf:about="">
        <dc:format>image/svg+xml</dc:format>
        <dc:type
           rdf:resource="http://purl.org/dc/dcmitype/StillImage" />
        <dc:title></dc:title>
      </cc:Work>
    </rdf:RDF>
  </metadata>
  <g
     transform="translate(0,-308.26789)"
     id="layer1">
    <path
       id="path4147"
       d="m 39.770179,1047.4308 c -18.038376,-6.3085 -29.258958,-17.9999 -34.6911981,-36.1462 -6.7490821,-22.54517 -6.7490821,-639.22204 0,-661.76726 8.9016631,-29.73592 31.3836951,-41.16038 80.9988861,-41.16038 l 30.531043,0 0,306.96759 c 0,292.64401 0.3561,307.2901 7.63226,313.88043 6.96514,6.30864 29.20281,6.81914 254.3985,5.84043 l 246.76624,-1.07248 0,-253.57192 0,-253.57192 -95.23477,-1.11918 c -73.41751,-0.8628 -96.00123,0.0894 -98.58069,4.1569 -1.8403,2.90188 -3.37462,49.70314 -3.40958,104.00289 l -0.0633,98.72677 65.38215,0 65.38211,0 -93.38326,93.53062 -93.38327,93.53063 -90.37205,-90.37751 c -49.70473,-49.70763 -90.37213,-91.79641 -90.37213,-93.53064 0,-1.7342 27.96675,-3.1531 62.14833,-3.1531 l 62.14837,0 1.19167,-145.22405 1.1917,-145.22402 12.22422,-12.76514 c 6.72332,-7.0208 18.87215,-14.61342 26.99739,-16.87252 21.47697,-5.97129 327.37987,-5.45853 345.39061,0.57895 19.59512,6.56862 30.76048,17.75798 36.34935,36.42765 6.72269,22.45716 6.75802,641.69633 0.0375,661.77746 -6.56317,19.6116 -17.74314,30.7862 -36.39722,36.3798 -21.30292,6.3878 -644.576538,6.1587 -662.882897,-0.2439 z"
       style="fill:#000000" />
  </g>
</svg>
