<?xml version="1.0" encoding="UTF-8" standalone="no"?>
<svg
   xmlns:dc="http://purl.org/dc/elements/1.1/"
   xmlns:cc="http://creativecommons.org/ns#"
   xmlns:rdf="http://www.w3.org/1999/02/22-rdf-syntax-ns#"
   xmlns:svg="http://www.w3.org/2000/svg"
   xmlns="http://www.w3.org/2000/svg"
   version="1.1"
   id="svg5371"
   viewBox="0 0 744.09449 744.09437"
   height="210mm"
   width="210mm">
  <defs
     id="defs5373" />
  <metadata
     id="metadata5376">
    <rdf:RDF>
      <cc:Work
         rdf:about="">
        <dc:format>image/svg+xml</dc:format>
        <dc:type
           rdf:resource="http://purl.org/dc/dcmitype/StillImage" />
        <dc:title></dc:title>
      </cc:Work>
    </rdf:RDF>
  </metadata>
  <g
     transform="translate(0,-308.26789)"
     id="layer1">
    <path
       id="path5930"
       d="m 615.64339,1051.0607 c -39.67179,-4.5769 -64.57198,-14.348 -80.41075,-31.5538 -17.36169,-18.8602 -21.4604,-31.681 -21.11017,-66.03254 0.1871,-18.35243 -0.32822,-25.46907 -2.35867,-32.57325 -5.68764,-19.90012 -9.31543,-24.63942 -53.07625,-69.33691 l -41.18459,-42.06618 32.60033,-33.04197 32.60032,-33.04197 -11.90644,-27.15694 c -6.54854,-14.93631 -11.62494,-27.45854 -11.28088,-27.82718 0.34405,-0.36864 24.3377,23.19384 53.31921,52.36109 42.5699,42.84272 54.41811,53.9351 61.66933,57.73539 14.21042,7.44751 24.65323,9.50428 48.25605,9.50428 25.66081,0 33.85535,1.45986 48.23256,8.59266 21.71307,10.77225 52.55949,46.43706 64.20315,74.23213 5.05797,12.07409 8.36164,27.53291 7.03125,32.90122 -1.94106,7.83255 -5.32188,6.6684 -41.07401,-14.14326 -36.85049,-21.451 -42.29534,-23.40563 -55.30228,-19.85259 -10.24131,2.79765 -16.99192,10.42413 -30.75437,34.74452 -16.50405,29.1652 -18.0449,34.77094 -13.66407,49.71109 3.61028,12.31222 10.4596,18.33243 41.13732,36.15751 15.22127,8.8441 29.18969,17.5045 31.04092,19.2454 4.3387,4.08 4.61035,12.4611 0.47655,14.7016 -8.35479,4.5284 -42.99062,8.5226 -58.44451,6.7397 z m -510.68057,-4.5238 C 95.447347,1043.454 89.193621,1039.3561 73.130221,1025.6785 56.231384,1011.2894 38.402944,992.754 24.830754,975.46384 7.5707391,953.47547 4.3566889,936.2693 13.650626,915.61188 16.894439,908.402 32.318548,892.15028 126.94833,796.23502 l 109.54268,-111.03072 21.65611,10.53372 21.65608,10.53372 17.57686,-17.65179 17.57685,-17.65177 -16.06399,-16.31961 -16.06398,-16.31959 16.61435,-16.82638 16.61436,-16.82636 27.43939,12.34675 27.4394,12.34675 111.7924,-113.2115 111.79239,-113.2115 6.44721,-15.66498 6.44723,-15.66498 42.63451,-28.23878 c 23.44897,-15.53133 43.34405,-28.77973 44.21126,-29.44088 0.95365,-0.72704 9.33447,6.70681 21.20753,18.81125 l 19.63079,20.01335 -28.88264,44.53021 -28.88263,44.53021 -15.63731,6.72537 -15.63733,6.7254 -111.75289,113.18658 -111.7529,113.18661 12.19118,27.78956 12.19117,27.78959 -16.61434,16.82636 -16.61435,16.82639 -16.11395,-16.26899 -16.11396,-16.26899 -17.42934,17.80116 -17.42936,17.80118 10.40405,21.93896 10.40404,21.93896 -109.63469,110.92665 c -95.84731,96.97677 -110.69798,111.41827 -118.0899,114.83637 -10.81018,4.9986 -24.76727,6.1852 -34.74179,2.9536 z M 210.98961,600.75851 c -27.72705,-27.78993 -34.45054,-33.7409 -42.68613,-37.78153 -15.4578,-7.58401 -25.01392,-9.47269 -47.92879,-9.47269 -25.132904,0 -33.444512,-1.48827 -47.608301,-8.5248 -21.795023,-10.82768 -52.699256,-46.5038 -64.3619583,-74.30001 -5.2375877,-12.48299 -8.43201395,-27.221 -7.0813642,-32.67109 1.9994247,-8.06801 5.1766886,-6.99394 41.0214005,13.86721 36.897654,21.47395 42.264486,23.41457 54.869144,19.84044 11.094339,-3.14585 17.397089,-10.12287 31.234829,-34.57629 16.57049,-29.28265 18.11015,-34.87103 13.72636,-49.82125 -3.61026,-12.31223 -10.4596,-18.33242 -41.13731,-36.15742 -32.843126,-19.08322 -34.70931,-20.60967 -34.103596,-27.89529 0.41568,-5.00004 0.964066,-5.52439 8.384413,-8.0172 13.225661,-4.44304 35.514793,-6.19439 54.695123,-4.29763 22.53843,2.22885 39.28221,6.61237 55.66157,14.57216 10.80221,5.24949 15.39219,8.5678 22.43922,16.22232 17.38108,18.87944 21.57474,31.62243 21.57474,65.55766 0,25.48912 1.67875,34.61828 9.32347,50.70147 4.18548,8.80556 11.40369,16.72167 65.29146,71.60406 33.32215,33.93721 60.29023,61.98677 59.92906,62.33238 -0.36119,0.34559 -12.72332,-4.79793 -27.47142,-11.43005 l -26.81474,-12.05837 -32.28765,32.67435 c -17.75822,17.97092 -32.61865,32.66147 -33.02318,32.6457 -0.40452,-0.0158 -15.54537,-14.87213 -33.64635,-33.01413 z"
       style="fill:#000000" />
  </g>
</svg>
