<?xml version="1.0" encoding="UTF-8" standalone="no"?>
<svg
   xmlns:dc="http://purl.org/dc/elements/1.1/"
   xmlns:cc="http://creativecommons.org/ns#"
   xmlns:rdf="http://www.w3.org/1999/02/22-rdf-syntax-ns#"
   xmlns:svg="http://www.w3.org/2000/svg"
   xmlns="http://www.w3.org/2000/svg"
   xmlns:sodipodi="http://sodipodi.sourceforge.net/DTD/sodipodi-0.dtd"
   xmlns:inkscape="http://www.inkscape.org/namespaces/inkscape"
   version="1.1"
   id="svg4168"
   viewBox="0 0 605.9054 744.09437"
   height="210mm"
   width="171mm"
   inkscape:version="0.91 r13725"
   sodipodi:docname="shield.svg">
  <sodipodi:namedview
     pagecolor="#ffffff"
     bordercolor="#666666"
     borderopacity="1"
     objecttolerance="10"
     gridtolerance="10"
     guidetolerance="10"
     inkscape:pageopacity="0"
     inkscape:pageshadow="2"
     inkscape:window-width="1301"
     inkscape:window-height="744"
     id="namedview7"
     showgrid="false"
     inkscape:zoom="0.44853766"
     inkscape:cx="88.350752"
     inkscape:cy="800.66446"
     inkscape:window-x="65"
     inkscape:window-y="24"
     inkscape:window-maximized="1"
     inkscape:current-layer="svg4168" />
  <defs
     id="defs4170" />
  <metadata
     id="metadata4173">
    <rdf:RDF>
      <cc:Work
         rdf:about="">
        <dc:format>image/svg+xml</dc:format>
        <dc:type
           rdf:resource="http://purl.org/dc/dcmitype/StillImage" />
        <dc:title></dc:title>
      </cc:Work>
    </rdf:RDF>
  </metadata>
  <g
     transform="matrix(0.81467958,0,0,1,0.04915166,-308.26789)"
     id="layer1">
    <path
       id="path4727"
       d="M 349.9517,1043.1212 C 267.58665,998.06869 175.98227,918.71676 118.73353,842.82934 65.961028,772.87556 29.526803,695.85724 12.107578,617.43281 2.7383375,575.25083 0.37880189,551.96272 0.30958925,500.98937 0.23167106,443.59439 -1.4488014,447.43131 25.975701,442.38727 91.961325,430.2509 155.48899,410.6012 229.55229,379.41915 c 50.37172,-21.20746 76.99165,-34.21448 117.16825,-57.25073 25.19689,-14.44725 31.22915,-16.00991 39.80377,-10.31117 2.75943,1.83395 14.95741,8.99301 27.10659,15.90902 91.57671,52.13081 206.66482,94.63318 305.40154,112.78566 24.36471,4.47939 23.70964,3.21487 24.50602,47.3048 1.89843,105.1026 -21.95527,198.17914 -74.40258,290.31705 -57.05111,100.22573 -156.43347,197.09751 -265.7296,259.01682 -15.89098,9.0028 -28.39284,14.8713 -31.67995,14.8712 -2.98646,-2e-4 -12.78503,-4.0234 -21.77463,-8.9406 z m 39.16076,-29.8758 c 36.20563,-21.27497 62.77393,-40.53228 102.55042,-74.33068 42.13967,-35.80643 62.27331,-55.83928 91.15364,-90.6974 59.88631,-72.28182 101.77063,-157.76082 118.80358,-242.45843 7.86199,-39.09429 8.82973,-48.06691 10.08551,-93.50779 l 1.24403,-45.01609 -27.11562,-5.89942 C 591.21516,440.74974 481.11328,398.70697 399.03687,351.82113 c -10.91937,-6.23765 -20.97898,-11.70992 -22.35469,-12.1606 -1.37573,-0.45068 -13.26887,5.19633 -26.42922,12.54892 -87.39889,48.82907 -197.82201,90.78743 -292.453521,111.12591 l -27.583894,5.92841 1.211016,44.00172 c 1.782258,64.75803 10.427964,109.68038 32.318639,167.92492 47.4557,126.2654 148.55224,243.68392 280.46177,325.74219 14.46332,8.9973 26.62393,16.3666 27.02356,16.3762 0.39965,0.01 8.44651,-4.5189 17.88193,-10.0634 z M 352.62199,976.31893 C 246.55396,914.42781 156.26973,818.67104 109.92048,718.90615 80.726646,656.06764 68.203717,600.26915 67.799616,531.22805 l -0.236505,-40.40704 27.348823,-5.81312 c 85.329156,-18.13712 174.346886,-51.74726 251.832396,-95.08357 14.70181,-8.22245 27.28699,-14.94993 27.9671,-14.94993 0.68009,0 13.26529,6.73417 27.96709,14.96483 76.92979,43.06835 158.5046,74.13533 243.41737,92.70317 l 29.45258,6.44038 -0.1885,38.58218 c -0.21133,43.24986 -3.63224,70.61701 -13.79508,110.35963 -30.47271,119.16609 -115.046,231.64436 -236.36333,314.35153 -15.89383,10.83548 -49.45995,30.90807 -54.00722,32.29637 -1.53681,0.46915 -9.89435,-3.28991 -18.57235,-8.35355 z"
       style="fill:#000000"
       inkscape:connector-curvature="0" />
  </g>
</svg>
