<?xml version="1.0" encoding="UTF-8" standalone="no"?>
<svg
   xmlns:dc="http://purl.org/dc/elements/1.1/"
   xmlns:cc="http://creativecommons.org/ns#"
   xmlns:rdf="http://www.w3.org/1999/02/22-rdf-syntax-ns#"
   xmlns:svg="http://www.w3.org/2000/svg"
   xmlns="http://www.w3.org/2000/svg"
   version="1.1"
   id="svg2"
   viewBox="0 0 467.71626 368.50372"
   height="104mm"
   width="132mm">
  <defs
     id="defs4" />
  <metadata
     id="metadata7">
    <rdf:RDF>
      <cc:Work
         rdf:about="">
        <dc:format>image/svg+xml</dc:format>
        <dc:type
           rdf:resource="http://purl.org/dc/dcmitype/StillImage" />
        <dc:title></dc:title>
      </cc:Work>
    </rdf:RDF>
  </metadata>
  <g
     transform="translate(0,-683.85834)"
     id="layer1">
    <path
       id="path4147"
       d="m 235.78541,1050.0709 c -2.30086,-1.2672 -29.23093,-24.1922 -59.84461,-50.94456 l -55.66124,-48.64062 -53.843327,-0.512 C 14.433315,949.47922 12.471477,949.38982 9.0406611,947.35832 4.1481307,944.4613 1.160679,939.58995 0.40798982,933.28184 0.05857706,930.35341 -0.08573324,898.69627 0.08731721,862.93262 0.42984208,792.14477 0.19350032,795.00482 6.1469273,789.60155 10.916024,785.27316 13.14078,785.11029 68.365673,785.04674 l 52.929807,-0.0609 56.7852,-49.60444 c 59.64972,-52.10674 60.44122,-52.70141 68.003,-51.09107 5.14948,1.0966 9.72817,4.46003 11.8923,8.73588 1.98097,3.91401 2.00534,6.3731 1.74626,176.28303 l -0.26273,172.31365 -2.43928,3.4473 c -2.74221,3.8756 -9.18474,7.2485 -13.90951,7.2824 -1.72806,0.012 -5.02445,-1.0145 -7.32531,-2.2816 z m 151.5785,-0.6711 c -6.28963,-2.8792 -9.0427,-7.45 -9.0427,-15.0131 0,-5.9817 0.23034,-6.5321 6.21417,-14.8482 15.05054,-20.91628 27.53119,-44.10367 35.43916,-65.84119 10.25826,-28.19799 15.58714,-62.83567 14.37395,-93.43036 -2.02129,-50.97413 -17.57021,-96.51022 -47.12712,-138.01515 -9.3318,-13.10407 -11.05226,-16.9183 -10.04795,-22.27624 2.10421,-11.22586 14.08168,-17.41997 23.9846,-12.40354 6.02195,3.05048 19.73885,22.04811 32.36425,44.82384 16.19767,29.21997 27.46382,63.6242 32.35097,98.79237 2.17655,15.6626 2.47258,56.85622 0.51513,71.6809 -6.59617,49.95545 -24.78185,96.00293 -53.14085,134.55637 -6.24328,8.4876 -8.55801,10.8542 -11.95753,12.2252 -5.40167,2.1787 -8.7505,2.1183 -13.92608,-0.2509 z M 340.9793,1003.705 c -4.16491,-2.8527 -6.32319,-6.33738 -7.35338,-11.8726 -0.84636,-4.54744 0.76037,-8.57365 7.37496,-18.48048 41.92063,-62.78552 41.80479,-147.29051 -0.28683,-209.23654 -5.89707,-8.67866 -7.02448,-11.03833 -7.39366,-15.47491 -0.55286,-6.64365 1.8353,-11.99875 6.80891,-15.26799 5.16272,-3.39354 10.1029,-4.08065 14.8785,-2.06936 5.60636,2.36117 7.02582,3.87293 14.94412,15.91606 39.52947,60.12118 47.15862,136.06978 20.49714,204.0503 -8.48232,21.62792 -25.23263,49.49692 -31.92229,53.11202 -5.257,2.8408 -12.83891,2.5486 -17.54747,-0.6765 z m -47.24205,-47.58167 c -4.04394,-2.48529 -7.00975,-7.19686 -7.90958,-12.56543 -0.59772,-3.56608 0.0332,-5.45269 5.50804,-16.47002 9.4284,-18.97336 13.12586,-31.74449 14.86817,-51.3551 0.83414,-9.38862 -0.8406,-25.15956 -4.00572,-37.72177 -2.20683,-8.75882 -8.19564,-22.70587 -15.00626,-34.94735 -0.95097,-1.70931 -1.75101,-5.11181 -1.77785,-7.56112 -0.17149,-15.6502 18.36597,-23.04218 28.74492,-11.46232 1.82694,2.03832 5.87597,8.75723 8.99784,14.93089 18.83,37.2373 21.98287,78.88513 8.9601,118.35839 -6.57963,19.94344 -15.58674,36.23021 -21.63692,39.1241 -4.92578,2.35608 -12.61855,2.20432 -16.74274,-0.33027 z"
       style="fill:#000000" />
    <rect
       transform="matrix(0.71116554,0.70302459,-0.71116554,0.70302459,0,0)"
       y="430.67337"
       x="544.14941"
       height="36.984692"
       width="484.16327"
       id="rect4168"
       style="opacity:1;fill:#ff0000;fill-opacity:1;fill-rule:nonzero;stroke:none;stroke-width:1.1887331;stroke-linecap:round;stroke-linejoin:round;stroke-miterlimit:49.90000153;stroke-dasharray:none;stroke-opacity:1" />
    <rect
       transform="matrix(-0.71385816,0.70029032,-0.71385816,-0.70029032,0,0)"
       y="-805.49982"
       x="210.11504"
       height="36.985786"
       width="484.17758"
       id="rect4168-3"
       style="opacity:1;fill:#ff0000;fill-opacity:1;fill-rule:nonzero;stroke:none;stroke-width:1.18876815;stroke-linecap:round;stroke-linejoin:round;stroke-miterlimit:49.90000153;stroke-dasharray:none;stroke-opacity:1" />
  </g>
</svg>
