<?xml version="1.0" encoding="UTF-8" standalone="no"?>
<svg
   xmlns:dc="http://purl.org/dc/elements/1.1/"
   xmlns:cc="http://creativecommons.org/ns#"
   xmlns:rdf="http://www.w3.org/1999/02/22-rdf-syntax-ns#"
   xmlns:svg="http://www.w3.org/2000/svg"
   xmlns="http://www.w3.org/2000/svg"
   version="1.1"
   id="svg4748"
   viewBox="0 0 744.09449 744.09437"
   height="210mm"
   width="210mm">
  <defs
     id="defs4750" />
  <metadata
     id="metadata4753">
    <rdf:RDF>
      <cc:Work
         rdf:about="">
        <dc:format>image/svg+xml</dc:format>
        <dc:type
           rdf:resource="http://purl.org/dc/dcmitype/StillImage" />
        <dc:title></dc:title>
      </cc:Work>
    </rdf:RDF>
  </metadata>
  <g
     transform="translate(0,-308.26789)"
     id="layer1">
    <path
       id="path5307"
       d="M 126.30791,1051.5685 C 81.47191,1044.7339 47.026654,1024.4805 24.89568,991.93894 12.680203,973.97722 7.6301876,961.98185 3.7428481,941.69433 -0.97060234,917.09553 -0.96565066,443.84877 3.7478498,417.44693 10.967971,377.00877 41.926553,338.57637 81.852949,320.48623 109.9009,307.77806 107.28947,307.88229 380.20379,308.57765 l 250.52604,0.63832 17.97496,6.11584 c 50.33832,17.12724 84.82551,58.47476 93.14338,111.67184 1.92514,12.31231 2.44243,83.03958 1.92811,263.62006 l -0.70294,246.79324 -5.30858,15.70503 c -16.15109,47.78172 -43.71667,75.67742 -91.30683,92.40082 l -17.97497,6.3165 -248.27917,0.2926 c -136.55355,0.1609 -250.8069,-0.092 -253.89635,-0.5634 z m 479.79646,-37.9383 c 39.80416,-10.206 73.76406,-38.69387 91.09051,-76.41279 13.62711,-29.66562 13.52683,-27.56988 12.81959,-267.90767 l -0.64371,-218.74855 -5.24745,-14.58324 c -17.03206,-47.334 -49.92227,-79.40294 -95.86171,-93.46802 -12.70081,-3.88856 -26.29283,-4.12749 -234.79795,-4.12749 l -221.31672,0 -19.78537,6.47549 c -24.50442,8.01996 -41.385002,18.78079 -58.855105,37.51824 -16.404509,17.59456 -26.74162,36.41786 -32.63479,59.42613 -4.271951,16.67868 -4.437097,25.50601 -4.399554,235.15795 0.03272,182.43105 0.573274,220.38089 3.326689,233.5338 9.992614,47.73411 52.311133,91.68385 99.19258,103.01605 20.47034,4.9481 447.85494,5.058 467.11299,0.12 z M 187.01697,940.50878 C 127.5342,937.11313 71.735735,930.25856 63.872965,925.38114 c -2.255506,-1.39911 0.06492,-12.6289 10.531526,-50.9687 7.383426,-27.04584 14.131327,-53.21267 14.995321,-58.14853 5.288686,-30.21335 35.806498,-61.17305 84.086478,-85.30408 17.65056,-8.82199 66.12347,-25.50706 88.19556,-30.35815 7.10573,-1.56172 12.91951,-3.45707 12.91951,-4.21189 0,-0.7548 -9.50962,-25.07716 -21.13249,-54.04968 l -21.13246,-52.67728 17.38128,-0.64547 17.38128,-0.6455 -4.03906,-18.59856 c -2.22151,-10.22922 -5.33614,-28.96487 -6.92144,-41.63477 l -2.88238,-23.03619 -15.72946,-4.97738 c -41.5415,-13.14528 -38.94772,-28.73717 6.86516,-41.2686 l 15.04704,-4.11588 7.57581,-23.121 c 4.16671,-12.71655 10.72061,-28.60943 14.56421,-35.31751 14.19432,-24.77269 41.46952,-45.43987 56.10995,-42.51608 3.67429,0.73379 12.66574,5.39266 19.98097,10.35306 7.31524,4.96039 14.95027,9.01891 16.96672,9.01891 2.01645,0 9.2859,-4.01824 16.15433,-8.92939 6.86842,-4.91117 15.79226,-9.54835 19.83072,-10.30486 24.18991,-4.5314 58.6326,36.6759 69.87703,83.60105 l 3.86516,16.12995 15.88809,3.539 c 8.73844,1.94643 21.11591,5.96241 27.50549,8.92438 26.50743,12.28791 18.27006,26.07021 -21.73136,36.35971 l -14.90299,3.83347 -2.93692,19.11563 c -1.61532,10.51359 -5.33911,28.07855 -8.2751,39.03326 -2.93597,10.9547 -5.33813,20.85439 -5.33813,21.99931 0,1.14492 10.11092,2.08168 22.4687,2.08168 12.35779,0 22.46871,0.8779 22.46871,1.95092 0,1.07301 -9.96004,25.55603 -22.13342,54.4067 -18.7225,44.37194 -21.57915,52.69355 -18.53669,53.99863 1.97821,0.84857 13.70766,4.29402 26.06546,7.65655 75.93376,20.66155 132.60588,57.96244 147.2128,96.89365 2.44801,6.52462 4.45094,13.30831 4.45094,15.07491 0,1.76656 6.1388,25.58426 13.64178,52.92822 8.40222,30.62109 12.83985,50.51704 11.55385,51.80116 -6.46253,6.45305 -60.68216,13.71439 -130.79854,17.51714 -48.64148,2.63804 -316.53496,2.44657 -363.94943,-0.26015 z M 400.3574,819.62927 c 12.54221,-54.9115 23.37069,-101.7726 24.0633,-104.13578 0.95017,-3.24203 -1.19862,-2.28557 -8.75434,3.89667 -10.71622,8.76827 -25.42576,14.98326 -35.4621,14.98326 -10.08364,0 -24.75818,-6.22374 -37.72626,-16.00037 -8.79791,-6.63275 -11.80759,-8.0159 -10.87624,-4.99842 1.45366,4.70986 44.10875,204.51075 44.10875,206.61006 0,6.0856 4.78598,-13.40157 24.64689,-100.35542 z m 61.2959,-282.4483 c 4.63418,-8.94231 8.42576,-18.80741 8.42576,-21.92242 0,-5.47645 -0.3572,-5.61463 -10.80561,-4.17972 -5.94309,0.81619 -23.60987,2.22979 -39.25951,3.14134 -15.64962,0.91154 -29.06131,2.26388 -29.80371,3.0052 -4.05925,4.05328 12.1576,22.94752 25.44114,29.64145 6.76905,3.4111 30.05742,8.03105 35.3293,7.00864 1.23578,-0.23966 6.03848,-7.75218 10.67263,-16.69449 z m -120.76927,7.37667 c 5.56105,-2.88323 11.50555,-8.70836 15.59229,-15.27922 8.23799,-13.24533 6.60594,-14.68638 -16.71572,-14.75939 -9.26835,-0.029 -25.84013,-1.08102 -36.82621,-2.33777 -10.98608,-1.25675 -20.50067,-1.75978 -21.14354,-1.11784 -2.19322,2.18999 3.93868,18.21531 11.10172,29.01365 l 7.14893,10.77712 15.92752,-0.81838 c 10.40488,-0.53462 19.04381,-2.43411 24.91501,-5.47817 z"
       style="fill:#000000" />
  </g>
</svg>
