<?xml version="1.0" encoding="UTF-8" standalone="no"?>
<svg
   xmlns:dc="http://purl.org/dc/elements/1.1/"
   xmlns:cc="http://creativecommons.org/ns#"
   xmlns:rdf="http://www.w3.org/1999/02/22-rdf-syntax-ns#"
   xmlns:svg="http://www.w3.org/2000/svg"
   xmlns="http://www.w3.org/2000/svg"
   version="1.1"
   id="svg6488"
   viewBox="0 0 744.09449 744.09437"
   height="210mm"
   width="210mm">
  <defs
     id="defs6490" />
  <metadata
     id="metadata6493">
    <rdf:RDF>
      <cc:Work
         rdf:about="">
        <dc:format>image/svg+xml</dc:format>
        <dc:type
           rdf:resource="http://purl.org/dc/dcmitype/StillImage" />
        <dc:title></dc:title>
      </cc:Work>
    </rdf:RDF>
  </metadata>
  <g
     transform="translate(0,-308.26789)"
     id="layer1">
    <path
       id="path7067"
       d="m 342.66149,1050.9564 c -9.51364,-0.6845 -26.51712,-2.9445 -37.78552,-5.0222 C 244.86052,1034.8678 193.15825,1011.8118 142.37428,973.46855 124.92416,960.29313 86.648967,921.33591 72.896547,902.75264 36.430983,853.47774 13.300802,798.60378 3.0190832,736.97552 c -3.98510094,-23.88652 -3.98510094,-89.65945 0,-113.54597 C 13.300802,561.80128 36.430983,506.92732 72.896547,457.65241 c 13.75242,-18.58324 52.027613,-57.54053 69.477733,-70.71584 62.72935,-47.36239 129.08378,-72.4122 205.86389,-77.71678 90.06634,-6.22249 178.03573,20.74799 253.48835,77.71678 17.4501,13.17531 55.7253,52.1326 69.47771,70.71584 36.46557,49.27491 59.59576,104.14887 69.87745,165.77714 3.98513,23.88652 3.98513,89.65945 0,113.54597 -10.28169,61.62826 -33.41188,116.50222 -69.87745,165.77712 -13.75241,18.58327 -52.02761,57.54049 -69.47771,70.71591 -61.84748,46.69645 -128.73735,72.21245 -203.34856,77.57015 -24.18312,1.7363 -30.5706,1.7268 -55.71647,-0.082 z M 295.54948,893.12218 c 1.23966,-1.49622 1.60092,-29.38815 1.31863,-101.81291 l -0.3888,-99.75214 -50.53059,-0.39924 c -39.41984,-0.31146 -50.79724,0.0214 -51.74305,1.51394 -1.86846,2.94841 -1.57249,196.06711 0.30588,199.58273 1.49737,2.80252 3.66529,2.92836 50.44754,2.92836 39.39199,0 49.21449,-0.40011 50.59039,-2.06074 z m 170.79589,-0.006 c 1.23164,-1.48649 1.60201,-20.51629 1.31864,-67.74911 l -0.39406,-65.68229 -51.01048,-0.39862 -51.01047,-0.39862 0,67.13842 c 0,36.92614 0.45342,67.59262 1.00762,68.14773 0.55417,0.55511 22.9155,1.00929 49.69183,1.00929 39.29774,0 49.01444,-0.39854 50.39692,-2.0671 z m 170.65719,0.25008 c 2.85494,-2.8597 2.60395,-266.63807 -0.25596,-269.01554 -1.47406,-1.22541 -16.1543,-1.60554 -51.01049,-1.32084 l -48.94079,0.39973 -0.39006,133.98425 c -0.21453,73.69134 -0.0659,134.83585 0.33042,135.87669 1.01941,2.67762 97.59653,2.75053 100.26688,0.0757 z M 94.137392,762.68197 c 8.747588,-5.13498 15.186058,-15.15257 16.497788,-25.6688 l 0.9952,-7.97865 59.52422,-53.10215 59.52421,-53.10214 11.86389,0.15431 c 10.29744,0.13398 12.8884,-0.40425 19.62322,-4.07592 l 7.75934,-4.2302 55.57509,16.53419 55.57511,16.53421 3.30446,5.90085 c 10.77319,19.23785 29.24234,25.59372 47.46909,16.33572 11.49577,-5.8391 16.76508,-13.81956 17.91481,-27.13225 l 0.88049,-10.19523 62.38447,-55.70888 62.38445,-55.70886 9.83446,0 c 21.72095,0 35.31973,-12.96961 35.39833,-33.76049 0.0723,-19.13255 -14.42143,-33.3678 -33.97378,-33.3678 -19.67759,0 -34.00698,14.73127 -34.00698,34.96071 l 0,6.08678 -62.50529,55.82004 -62.50529,55.82002 -10.4208,-0.0104 c -8.39508,-0.009 -11.92079,0.77927 -18.13714,4.05278 l -7.71635,4.06343 -55.59668,-16.51269 c -30.57815,-9.08202 -55.7581,-16.70142 -55.95541,-16.93202 -0.19733,-0.2306 -1.74035,-3.14439 -3.42897,-6.47508 -6.24322,-12.31438 -17.40892,-19.14061 -31.30834,-19.14061 -18.55069,0 -31.4637,11.86007 -33.82673,31.06846 l -0.93597,7.60811 -59.67411,53.32174 -59.674127,53.32176 -10.199326,-0.85652 c -13.391169,-1.12454 -21.733421,1.98994 -29.742596,11.10403 -25.520855,29.04167 9.664328,70.89865 43.099261,51.27175 z"
       style="fill:#ff6600;fill-opacity:1" />
  </g>
</svg>
