<?xml version="1.0" encoding="UTF-8" standalone="no"?>
<svg
   xmlns:dc="http://purl.org/dc/elements/1.1/"
   xmlns:cc="http://creativecommons.org/ns#"
   xmlns:rdf="http://www.w3.org/1999/02/22-rdf-syntax-ns#"
   xmlns:svg="http://www.w3.org/2000/svg"
   xmlns="http://www.w3.org/2000/svg"
   version="1.1"
   id="svg5328"
   viewBox="0 0 744.09449 744.09437"
   height="210mm"
   width="210mm">
  <defs
     id="defs5330" />
  <metadata
     id="metadata5333">
    <rdf:RDF>
      <cc:Work
         rdf:about="">
        <dc:format>image/svg+xml</dc:format>
        <dc:type
           rdf:resource="http://purl.org/dc/dcmitype/StillImage" />
        <dc:title></dc:title>
      </cc:Work>
    </rdf:RDF>
  </metadata>
  <g
     transform="translate(0,-308.26789)"
     id="layer1">
    <path
       id="path5887"
       d="M 105.77136,1050.4168 C 60.251407,1043.3411 22.084311,1011.0803 6.6846661,966.66323 -0.07156657,947.1763 0.02221423,951.20627 0.02221423,680.3679 c 0,-270.8384 -0.09381571,-266.80841 6.66245187,-286.29535 12.9083459,-37.23139 41.7965289,-66.11785 79.0301379,-79.02542 19.488076,-6.75583 15.457856,-6.66206 286.312356,-6.66206 270.85448,0 266.82425,-0.0938 286.31235,6.66206 37.2336,12.90757 66.12178,41.79403 79.03014,79.02542 6.75623,19.48694 6.66245,15.45695 6.66245,286.29535 0,270.83837 0.0938,266.8084 -6.66245,286.29533 -12.90836,37.23147 -41.79654,66.11787 -79.03014,79.02527 -19.52585,6.7692 -15.22179,6.6712 -287.66026,6.5368 -195.93367,-0.097 -256.55752,-0.5106 -264.90789,-1.8085 z m 536.51007,-28.8462 c 34.3193,-11.5141 57.73035,-35.15173 68.28218,-68.94278 l 3.15659,-10.10866 0,-263.49909 0,-263.49909 -3.15659,-10.10866 c -10.66055,-34.1392 -34.81492,-58.29212 -68.95614,-68.95203 l -10.10926,-3.15642 -260.81896,0 -260.81895,0 -10.109259,3.15642 C 65.95799,347.01148 42.319011,370.42115 30.80407,404.73841 l -3.165768,9.43475 -0.357054,260.45641 c -0.387268,282.48768 -0.718776,268.60583 6.862836,287.3749 5.460641,13.51837 11.792026,23.00312 22.50864,33.7191 10.730085,10.72943 20.201358,17.04683 33.779631,22.53093 18.056605,7.293 4.868231,6.9804 283.616645,6.7218 l 258.79712,-0.24 9.43531,-3.1657 z M 343.12521,885.98225 c -10.25964,-3.7723 -16.95312,-11.05003 -19.76431,-21.4894 -3.17194,-11.77898 2.29453,-26.05204 12.58597,-32.86218 4.76447,-3.1528 6.94472,-3.67633 15.31024,-3.67633 8.64818,0 10.41755,0.45959 15.5993,4.05181 14.45616,10.02166 17.49663,31.76134 6.23577,44.58601 -7.97079,9.07766 -20.30511,12.94259 -29.96697,9.39009 z m 59.1098,-8.33205 c 4.24728,-11.06751 4.36949,-29.99526 0.25998,-40.26111 -2.1562,-5.38639 -2.14903,-5.42293 7.9018,-40.2749 5.53299,-19.18598 10.37645,-35.20009 10.76329,-35.58689 0.64081,-0.64078 5.39747,8.99623 24.37714,49.38824 l 6.56015,13.96109 6.10853,-0.83722 c 3.35972,-0.46047 12.56868,-2.38181 20.46441,-4.26965 l 14.35582,-3.43241 3.98669,-15.08271 c 2.1927,-8.29554 8.17684,-31.6073 13.29812,-51.80395 5.1213,-20.19667 9.61472,-36.7178 9.98539,-36.71367 0.37067,0.004 6.40744,19.11772 13.41505,42.47466 7.0076,23.35691 13.08538,43.02415 13.50616,43.70494 0.97971,1.58511 36.64953,-12.40421 38.01163,-14.90772 0.85466,-1.57088 19.87443,-87.49504 25.552,-115.43446 0.94151,-4.63311 2.0454,-8.41719 2.45308,-8.40901 0.40767,0.008 5.80305,21.38799 11.98971,47.5107 6.18665,26.12274 11.65394,47.92872 12.14956,48.45777 1.70726,1.82253 28.68663,-18.51996 31.47718,-23.73385 9.40422,-17.5709 9.94511,-70.69432 0.79388,-77.97003 -5.71999,-4.54769 -18.90466,-10.66486 -32.78893,-15.21273 -50.1062,-16.41258 -114.35385,-16.64423 -192.6562,-0.69462 -11.08743,2.25842 -20.27706,4.10623 -20.42139,4.10623 -0.14432,0 -0.48391,-5.30705 -0.7546,-11.79345 -0.59652,-14.29252 -4.45287,-23.68677 -13.67365,-33.30952 l -6.13732,-6.40488 10.72364,-30.51763 c 5.89797,-16.78467 11.06155,-31.42739 11.47459,-32.53935 0.41344,-1.11298 6.43236,12.13954 13.39054,29.48349 6.95177,17.32787 12.93451,31.80015 13.29502,32.16064 0.36049,0.36046 9.71706,-0.73651 20.79236,-2.43775 l 20.1369,-3.09318 11.73461,-46.58916 c 6.45403,-25.624 12.1766,-48.07848 12.71682,-49.8988 0.76259,-2.56958 2.44476,1.95153 7.5223,20.21732 3.59701,12.93984 9.62102,34.44435 13.38664,47.78778 l 6.8466,24.26079 16.17482,0.84872 c 8.89615,0.46679 19.15547,1.07332 22.79848,1.34782 7.94916,0.59898 5.66173,7.0546 18.44866,-52.06593 5.29099,-24.46296 10.00979,-44.90974 10.48624,-45.43733 0.47644,-0.52756 4.11022,12.81588 8.07508,29.65208 3.96483,16.83622 9.93154,41.98135 13.25929,55.87812 l 6.05046,25.26681 11.30006,5.86594 11.30006,5.86596 8.86232,-27.76323 c 4.8743,-15.26978 9.81214,-30.79582 10.97303,-34.50232 2.9936,-9.55811 3.96967,-9.90699 4.92372,-1.75993 14.64448,125.0538 16.521,160.08891 9.90421,184.91276 -4.16775,15.63576 -16.22329,41.50661 -24.09744,51.71235 -30.73818,39.84002 -122.87808,76.30597 -242.667,96.0396 -28.75748,4.73741 -29.93257,4.81226 -28.78949,1.83358 z M 279.6959,858.9908 C 176.60853,822.32923 96.66146,776.02967 65.856099,735.15032 56.046353,722.13257 52.575032,715.38041 48.080512,700.57459 38.973529,670.57443 38.129797,641.47122 45.560487,613.65074 58.629934,564.71878 82.952226,477.04291 83.225068,477.8792 c 0.177547,0.54417 2.72151,17.28098 5.653246,37.19293 2.931757,19.91193 5.618429,36.49149 5.970382,36.84342 0.351965,0.35196 5.903854,-1.07992 12.337514,-3.18191 l 11.69757,-3.8218 11.39166,-26.95643 c 6.26541,-14.82603 16.34336,-38.70054 22.39546,-53.05447 6.05208,-14.35394 11.19368,-25.52845 11.42573,-24.83228 0.23208,0.69618 1.53455,23.52521 2.89438,50.73118 1.35983,27.20598 2.80952,49.80251 3.22154,50.21448 0.41199,0.412 7.62417,1.58401 16.02709,2.60448 8.40287,1.02045 18.3712,2.25743 22.15182,2.74881 l 6.87384,0.89345 22.27689,-42.7052 22.27686,-42.70517 0.81215,8.50894 c 0.44666,4.67993 1.81307,26.70456 3.03643,48.9436 1.22338,22.23905 2.60069,40.80056 3.06073,41.24779 1.90555,1.85252 38.40395,13.36677 39.25902,12.38517 0.51164,-0.58734 9.956,-14.41136 20.98746,-30.71999 l 20.05718,-29.65208 3.77428,37.72783 3.77429,37.72782 -3.74481,2.66219 c -10.68125,7.59332 -19.79879,22.40146 -21.44895,34.83602 -0.52772,3.97657 -1.43889,6.23504 -2.36086,5.85169 -48.49966,-20.16561 -92.1419,-33.67083 -130.22601,-40.29883 -14.19229,-2.46997 -22.05551,-2.934 -49.87236,-2.94301 -30.14391,-0.009 -34.14021,0.26528 -45.82867,3.15442 -13.043179,3.224 -21.268522,6.60185 -23.870229,9.80263 -2.990325,3.67888 -8.678986,25.10545 -10.142658,38.20278 -1.089675,9.75066 -1.116871,16.8855 -0.09642,25.30023 1.282706,10.57754 1.925969,12.34457 6.600113,18.13031 6.074733,7.51943 20.405125,21.91132 21.81499,21.90861 0.537111,-10e-4 2.301326,-3.18527 3.920445,-7.07606 1.619125,-3.89081 9.715805,-23.14696 17.992585,-42.79146 8.27679,-19.64449 15.61243,-37.16606 16.30145,-38.93681 0.68901,-1.77073 1.468,-2.98376 1.7311,-2.69563 0.26312,0.28814 1.84499,29.03032 3.51527,63.87149 1.6703,34.84119 3.60976,64.07502 4.30993,64.96409 1.57057,1.99429 31.71904,20.62257 33.37608,20.62257 1.22085,0 14.84364,-24.75402 35.60356,-64.69543 6.35743,-12.23147 11.58238,-21.63253 11.61098,-20.89123 0.0286,0.7413 0.93481,24.09231 2.01373,51.89112 1.07894,27.79882 1.97525,52.67384 1.99179,55.27779 0.0296,4.64619 0.24998,4.8324 11.82422,9.98662 6.48676,2.88868 15.30801,6.63692 19.60277,8.32942 l 7.80865,3.07731 21.5082,-26.91616 c 11.82952,-14.80388 21.59414,-26.74783 21.69915,-26.54212 0.10505,0.2057 1.47058,13.81849 3.03457,30.25063 l 2.84363,29.8766 -3.83507,4.49285 c -9.99762,11.71242 -14.30076,21.99078 -15.50688,37.03938 l -0.88014,10.98137 -16.17482,-5.75235 z m 85.59175,-57.31897 c -1.85336,-0.59351 -6.51838,-1.13958 -10.3667,-1.21348 -3.8483,-0.0738 -7.25074,-0.58923 -7.56096,-1.14522 -0.55638,-0.9972 3.02539,-41.07866 3.73858,-41.83591 0.20222,-0.21474 5.9037,0.3195 12.67,1.18719 14.22016,1.82355 13.0109,-0.69783 10.89582,22.71872 -2.11573,23.42366 -1.78976,22.71833 -9.37674,20.2887 z m -4.21961,-70.81254 c -17.66537,-2.75245 -27.61456,-5.65406 -40.95875,-11.94537 -18.63614,-8.78623 -28.25997,-18.65122 -24.79568,-25.41694 7.159,-13.98145 44.66662,-22.58497 81.18328,-18.6219 34.72038,3.76811 65.7574,17.02967 73.1043,31.23621 2.68526,5.19238 0.68916,9.07913 -7.37319,14.35689 -16.69022,10.92572 -50.19625,15.21559 -81.15996,10.39111 z m 8.93726,-84.09714 c -10.70058,-0.75786 -10.80127,-0.79985 -13.13995,-5.48107 -3.1065,-6.21817 -2.97732,-11.35389 0.46436,-18.46301 5.91115,-12.21011 20.89947,-16.03109 31.41728,-8.00924 8.53686,6.511 11.29688,21.21568 5.61083,29.89313 -2.36834,3.61438 -2.38638,3.61592 -24.35252,2.06019 z"
       style="fill:#000000" />
  </g>
</svg>
