<?xml version="1.0" encoding="UTF-8" standalone="no"?>
<svg
   xmlns:dc="http://purl.org/dc/elements/1.1/"
   xmlns:cc="http://creativecommons.org/ns#"
   xmlns:rdf="http://www.w3.org/1999/02/22-rdf-syntax-ns#"
   xmlns:svg="http://www.w3.org/2000/svg"
   xmlns="http://www.w3.org/2000/svg"
   xmlns:sodipodi="http://sodipodi.sourceforge.net/DTD/sodipodi-0.dtd"
   xmlns:inkscape="http://www.inkscape.org/namespaces/inkscape"
   version="1.1"
   id="svg5908"
   viewBox="0 0 744.09449 627.16514"
   height="177mm"
   width="210mm"
   inkscape:version="0.91 r13725"
   sodipodi:docname="warning.svg">
  <sodipodi:namedview
     pagecolor="#ffffff"
     bordercolor="#666666"
     borderopacity="1"
     objecttolerance="10"
     gridtolerance="10"
     guidetolerance="10"
     inkscape:pageopacity="0"
     inkscape:pageshadow="2"
     inkscape:window-width="1301"
     inkscape:window-height="744"
     id="namedview7"
     showgrid="false"
     inkscape:zoom="1.4142136"
     inkscape:cx="435.4998"
     inkscape:cy="413.49201"
     inkscape:window-x="65"
     inkscape:window-y="24"
     inkscape:window-maximized="1"
     inkscape:current-layer="svg5908" />
  <defs
     id="defs5910" />
  <metadata
     id="metadata5913">
    <rdf:RDF>
      <cc:Work
         rdf:about="">
        <dc:format>image/svg+xml</dc:format>
        <dc:type
           rdf:resource="http://purl.org/dc/dcmitype/StillImage" />
        <dc:title></dc:title>
      </cc:Work>
    </rdf:RDF>
  </metadata>
  <g
     transform="matrix(1,0,0,0.8429323,0,-259.90672)"
     id="layer1">
    <path
       id="path6467"
       d="M 59.690341,1050.4668 C 42.675843,1046.0382 22.132591,1029.5914 12.273744,1012.5052 1.3402807,993.55636 -2.974853,963.73421 2.1665133,942.65354 4.9397457,931.28272 6.8070251,927.45696 60.453955,823.23168 86.912816,771.82737 152.50852,644.20909 206.2222,539.63544 259.9359,435.06179 306.26646,346.07055 309.17906,341.8771 c 15.39366,-22.16325 36.79584,-33.51029 63.2053,-33.51029 23.70267,0 42.46357,9.09693 58.19655,28.21885 5.1696,6.28317 20.79929,34.71645 45.37762,82.55032 20.62055,40.1313 87.66043,170.4553 148.97755,289.60893 63.74885,123.87908 113.0849,221.73127 115.22054,228.52632 6.78356,21.58338 4.67525,47.74532 -5.66428,70.28807 -5.32054,11.6001 -20.66668,28.5432 -31.17331,34.4174 -20.04767,11.2087 3.1493,10.4894 -331.80221,10.2881 -170.30781,-0.1025 -308.370041,-0.8984 -311.826479,-1.798 z M 398.72547,958.48638 c 17.22619,-8.6903 26.68802,-23.21484 28.41359,-43.61671 1.44569,-17.0924 -2.32543,-29.63996 -12.66037,-42.12485 -11.0722,-13.37556 -21.54851,-18.44225 -38.10764,-18.43012 -14.70868,0.0103 -24.32252,4.32677 -34.91246,15.67349 -10.43417,11.17984 -13.94156,21.27247 -13.85212,39.85989 0.0633,13.14528 0.75168,16.98207 4.46767,24.89974 12.02637,25.62462 41.85435,36.24819 66.65133,23.73856 z m -6.49474,-154.76241 c 7.11003,-4.85154 12.90675,-15.68796 16.36719,-30.59692 2.89592,-12.47675 16.9024,-179.06958 18.56241,-220.78113 1.13388,-28.49122 -0.94564,-50.15666 -6.3429,-66.08338 -6.55678,-19.34833 -17.4646,-27.9879 -37.12636,-29.406 -18.08406,-1.30431 -28.74518,2.84735 -40.42453,15.74216 -14.16827,15.64277 -15.81371,22.38836 -15.46041,63.38032 0.41235,47.83983 11.36187,217.73373 15.14073,234.92505 5.14572,23.40964 10.73973,32.27738 23.14341,36.6873 6.78524,2.41239 19.74788,0.49461 26.14046,-3.8674 z"
       style="fill:#e20000;fill-opacity:1"
       inkscape:connector-curvature="0" />
  </g>
</svg>
