%TF.GenerationSoftware,KiCad,Pcbnew,4.0.7-e2-6376~58~ubuntu16.04.1*%
%TF.CreationDate,2018-01-06T23:49:33+01:00*%
%TF.ProjectId,Receiver_module,52656365697665725F6D6F64756C652E,rev?*%
%TF.FileFunction,Legend,Top*%
%FSLAX46Y46*%
G04 Gerber Fmt 4.6, Leading zero omitted, Abs format (unit mm)*
G04 Created by KiCad (PCBNEW 4.0.7-e2-6376~58~ubuntu16.04.1) date Sat Jan  6 23:49:33 2018*
%MOMM*%
%LPD*%
G01*
G04 APERTURE LIST*
%ADD10C,0.100000*%
%ADD11C,0.120000*%
%ADD12C,0.150000*%
G04 APERTURE END LIST*
D10*
X130810000Y-121920000D02*
X130810000Y-119380000D01*
X124460000Y-128270000D02*
X130810000Y-121920000D01*
X121920000Y-128270000D02*
X124460000Y-128270000D01*
X76200000Y-116840000D02*
X76200000Y-99060000D01*
X87630000Y-128270000D02*
X76200000Y-116840000D01*
X90170000Y-128270000D02*
X87630000Y-128270000D01*
X121920000Y-128270000D02*
X90170000Y-128270000D01*
X130810000Y-93980000D02*
X130810000Y-119380000D01*
X120650000Y-83820000D02*
X130810000Y-93980000D01*
X91440000Y-83820000D02*
X120650000Y-83820000D01*
X76200000Y-99060000D02*
X91440000Y-83820000D01*
D11*
X107680000Y-92650000D02*
G75*
G02X105680000Y-92650000I-1000000J0D01*
G01*
X105680000Y-92650000D02*
X104030000Y-92650000D01*
X104030000Y-92650000D02*
X104030000Y-102930000D01*
X104030000Y-102930000D02*
X109330000Y-102930000D01*
X109330000Y-102930000D02*
X109330000Y-92650000D01*
X109330000Y-92650000D02*
X107680000Y-92650000D01*
X98289999Y-96521958D02*
G75*
G03X92690000Y-94880488I-3039999J1958D01*
G01*
X98289999Y-96518042D02*
G75*
G02X92690000Y-98159512I-3039999J-1958D01*
G01*
X97750000Y-96520000D02*
G75*
G03X97750000Y-96520000I-2500000J0D01*
G01*
X92690000Y-94880000D02*
X92690000Y-98160000D01*
X84900827Y-117722815D02*
G75*
G03X85364830Y-112375000I-1080827J2787815D01*
G01*
X82739173Y-117722815D02*
G75*
G02X82275170Y-112375000I1080827J2787815D01*
G01*
X84900429Y-117189479D02*
G75*
G03X84900000Y-112680316I-1080429J2254479D01*
G01*
X82739571Y-117189479D02*
G75*
G02X82740000Y-112680316I1080429J2254479D01*
G01*
X85365000Y-112375000D02*
X84900000Y-112375000D01*
X82740000Y-112375000D02*
X82275000Y-112375000D01*
X117610001Y-99058042D02*
G75*
G03X123210000Y-100699512I3039999J-1958D01*
G01*
X117610001Y-99061958D02*
G75*
G02X123210000Y-97420488I3039999J1958D01*
G01*
X123150000Y-99060000D02*
G75*
G03X123150000Y-99060000I-2500000J0D01*
G01*
X123210000Y-100700000D02*
X123210000Y-97420000D01*
X107680000Y-105350000D02*
G75*
G02X105680000Y-105350000I-1000000J0D01*
G01*
X105680000Y-105350000D02*
X104030000Y-105350000D01*
X104030000Y-105350000D02*
X104030000Y-125790000D01*
X104030000Y-125790000D02*
X109330000Y-125790000D01*
X109330000Y-125790000D02*
X109330000Y-105350000D01*
X109330000Y-105350000D02*
X107680000Y-105350000D01*
X101540000Y-105290000D02*
X101540000Y-125850000D01*
X101540000Y-125850000D02*
X111820000Y-125850000D01*
X111820000Y-125850000D02*
X111820000Y-105290000D01*
X111820000Y-105290000D02*
X101540000Y-105290000D01*
X122070000Y-105240000D02*
X122070000Y-109370000D01*
X122070000Y-109370000D02*
X116690000Y-109370000D01*
X116690000Y-109370000D02*
X116690000Y-103990000D01*
X116690000Y-103990000D02*
X120820000Y-103990000D01*
X122320000Y-105140000D02*
X122320000Y-103740000D01*
X122320000Y-103740000D02*
X120920000Y-103740000D01*
X92300000Y-109220000D02*
G75*
G03X92300000Y-109220000I-860000J0D01*
G01*
X91440000Y-110080000D02*
X91440000Y-110760000D01*
X92300000Y-115570000D02*
G75*
G03X92300000Y-115570000I-860000J0D01*
G01*
X90580000Y-115570000D02*
X89900000Y-115570000D01*
X92300000Y-121920000D02*
G75*
G03X92300000Y-121920000I-860000J0D01*
G01*
X91440000Y-121060000D02*
X91440000Y-120380000D01*
X99640000Y-109750000D02*
X99640000Y-106150000D01*
X99628478Y-109788478D02*
G75*
G02X95190000Y-107950000I-1838478J1838478D01*
G01*
X99628478Y-106111522D02*
G75*
G03X95190000Y-107950000I-1838478J-1838478D01*
G01*
X99640000Y-116100000D02*
X99640000Y-112500000D01*
X99628478Y-116138478D02*
G75*
G02X95190000Y-114300000I-1838478J1838478D01*
G01*
X99628478Y-112461522D02*
G75*
G03X95190000Y-114300000I-1838478J-1838478D01*
G01*
X99640000Y-122450000D02*
X99640000Y-118850000D01*
X99628478Y-122488478D02*
G75*
G02X95190000Y-120650000I-1838478J1838478D01*
G01*
X99628478Y-118811522D02*
G75*
G03X95190000Y-120650000I-1838478J-1838478D01*
G01*
X88790000Y-104200000D02*
X89130000Y-104200000D01*
X89130000Y-104200000D02*
X89130000Y-99000000D01*
X89130000Y-99000000D02*
X88790000Y-99000000D01*
X86470000Y-104200000D02*
X86130000Y-104200000D01*
X86130000Y-104200000D02*
X86130000Y-99000000D01*
X86130000Y-99000000D02*
X86470000Y-99000000D01*
X84480000Y-99830000D02*
X84480000Y-99430000D01*
X84480000Y-99830000D02*
X84080000Y-99830000D01*
X84480000Y-99830000D02*
X83680000Y-99030000D01*
X84080000Y-100830000D02*
X83280000Y-100030000D01*
X84080000Y-100830000D02*
X83680000Y-100830000D01*
X84080000Y-100830000D02*
X84080000Y-100430000D01*
X86128264Y-99500083D02*
G75*
G03X86130000Y-103700000I101736J-2099917D01*
G01*
X113890000Y-99060000D02*
G75*
G03X113890000Y-99060000I-860000J0D01*
G01*
X113890000Y-99060000D02*
X114570000Y-99060000D01*
X119490000Y-112970000D02*
X119150000Y-112970000D01*
X119150000Y-112970000D02*
X119150000Y-118170000D01*
X119150000Y-118170000D02*
X119490000Y-118170000D01*
X121810000Y-112970000D02*
X122150000Y-112970000D01*
X122150000Y-112970000D02*
X122150000Y-118170000D01*
X122150000Y-118170000D02*
X121810000Y-118170000D01*
X123800000Y-117340000D02*
X123800000Y-117740000D01*
X123800000Y-117340000D02*
X124200000Y-117340000D01*
X123800000Y-117340000D02*
X124600000Y-118140000D01*
X124200000Y-116340000D02*
X125000000Y-117140000D01*
X124200000Y-116340000D02*
X124600000Y-116340000D01*
X124200000Y-116340000D02*
X124200000Y-116740000D01*
X122151736Y-117669917D02*
G75*
G03X122150000Y-113470000I-101736J2099917D01*
G01*
X121730827Y-126612815D02*
G75*
G03X122194830Y-121265000I-1080827J2787815D01*
G01*
X119569173Y-126612815D02*
G75*
G02X119105170Y-121265000I1080827J2787815D01*
G01*
X121730429Y-126079479D02*
G75*
G03X121730000Y-121570316I-1080429J2254479D01*
G01*
X119569571Y-126079479D02*
G75*
G02X119570000Y-121570316I1080429J2254479D01*
G01*
X122195000Y-121265000D02*
X121730000Y-121265000D01*
X119570000Y-121265000D02*
X119105000Y-121265000D01*
X103059173Y-85477185D02*
G75*
G03X102595170Y-90825000I1080827J-2787815D01*
G01*
X105220827Y-85477185D02*
G75*
G02X105684830Y-90825000I-1080827J-2787815D01*
G01*
X103059571Y-86010521D02*
G75*
G03X103060000Y-90519684I1080429J-2254479D01*
G01*
X105220429Y-86010521D02*
G75*
G02X105220000Y-90519684I-1080429J-2254479D01*
G01*
X102595000Y-90825000D02*
X103060000Y-90825000D01*
X105220000Y-90825000D02*
X105685000Y-90825000D01*
D12*
X106846667Y-100337619D02*
X106846667Y-99861428D01*
X107132381Y-100432857D02*
X106132381Y-100099524D01*
X107132381Y-99766190D01*
X106132381Y-99575714D02*
X106132381Y-99004285D01*
X107132381Y-99290000D02*
X106132381Y-99290000D01*
X106132381Y-98813809D02*
X106132381Y-98242380D01*
X107132381Y-98528095D02*
X106132381Y-98528095D01*
X107132381Y-97909047D02*
X106465714Y-97909047D01*
X106132381Y-97909047D02*
X106180000Y-97956666D01*
X106227619Y-97909047D01*
X106180000Y-97861428D01*
X106132381Y-97909047D01*
X106227619Y-97909047D01*
X106465714Y-97432857D02*
X107132381Y-97432857D01*
X106560952Y-97432857D02*
X106513333Y-97385238D01*
X106465714Y-97290000D01*
X106465714Y-97147142D01*
X106513333Y-97051904D01*
X106608571Y-97004285D01*
X107132381Y-97004285D01*
X106465714Y-96623333D02*
X107132381Y-96385238D01*
X106465714Y-96147142D02*
X107132381Y-96385238D01*
X107370476Y-96480476D01*
X107418095Y-96528095D01*
X107465714Y-96623333D01*
X107132381Y-95242380D02*
X107132381Y-95813809D01*
X107132381Y-95528095D02*
X106132381Y-95528095D01*
X106275238Y-95623333D01*
X106370476Y-95718571D01*
X106418095Y-95813809D01*
X94511905Y-92962381D02*
X94511905Y-91962381D01*
X94750000Y-91962381D01*
X94892858Y-92010000D01*
X94988096Y-92105238D01*
X95035715Y-92200476D01*
X95083334Y-92390952D01*
X95083334Y-92533810D01*
X95035715Y-92724286D01*
X94988096Y-92819524D01*
X94892858Y-92914762D01*
X94750000Y-92962381D01*
X94511905Y-92962381D01*
X96035715Y-92962381D02*
X95464286Y-92962381D01*
X95750000Y-92962381D02*
X95750000Y-91962381D01*
X95654762Y-92105238D01*
X95559524Y-92200476D01*
X95464286Y-92248095D01*
X84272381Y-120118095D02*
X83272381Y-120118095D01*
X83272381Y-119880000D01*
X83320000Y-119737142D01*
X83415238Y-119641904D01*
X83510476Y-119594285D01*
X83700952Y-119546666D01*
X83843810Y-119546666D01*
X84034286Y-119594285D01*
X84129524Y-119641904D01*
X84224762Y-119737142D01*
X84272381Y-119880000D01*
X84272381Y-120118095D01*
X83367619Y-119165714D02*
X83320000Y-119118095D01*
X83272381Y-119022857D01*
X83272381Y-118784761D01*
X83320000Y-118689523D01*
X83367619Y-118641904D01*
X83462857Y-118594285D01*
X83558095Y-118594285D01*
X83700952Y-118641904D01*
X84272381Y-119213333D01*
X84272381Y-118594285D01*
X119911905Y-95702381D02*
X119911905Y-94702381D01*
X120150000Y-94702381D01*
X120292858Y-94750000D01*
X120388096Y-94845238D01*
X120435715Y-94940476D01*
X120483334Y-95130952D01*
X120483334Y-95273810D01*
X120435715Y-95464286D01*
X120388096Y-95559524D01*
X120292858Y-95654762D01*
X120150000Y-95702381D01*
X119911905Y-95702381D01*
X120816667Y-94702381D02*
X121435715Y-94702381D01*
X121102381Y-95083333D01*
X121245239Y-95083333D01*
X121340477Y-95130952D01*
X121388096Y-95178571D01*
X121435715Y-95273810D01*
X121435715Y-95511905D01*
X121388096Y-95607143D01*
X121340477Y-95654762D01*
X121245239Y-95702381D01*
X120959524Y-95702381D01*
X120864286Y-95654762D01*
X120816667Y-95607143D01*
X106608571Y-114696667D02*
X106608571Y-114363333D01*
X107132381Y-114220476D02*
X107132381Y-114696667D01*
X106132381Y-114696667D01*
X106132381Y-114220476D01*
X106132381Y-113887143D02*
X107132381Y-113220476D01*
X106132381Y-113220476D02*
X107132381Y-113887143D01*
X107132381Y-112839524D02*
X106132381Y-112839524D01*
X106132381Y-112458571D01*
X106180000Y-112363333D01*
X106227619Y-112315714D01*
X106322857Y-112268095D01*
X106465714Y-112268095D01*
X106560952Y-112315714D01*
X106608571Y-112363333D01*
X106656190Y-112458571D01*
X106656190Y-112839524D01*
X107132381Y-111315714D02*
X107132381Y-111887143D01*
X107132381Y-111601429D02*
X106132381Y-111601429D01*
X106275238Y-111696667D01*
X106370476Y-111791905D01*
X106418095Y-111887143D01*
X122642381Y-107013333D02*
X123356667Y-107013333D01*
X123499524Y-107060953D01*
X123594762Y-107156191D01*
X123642381Y-107299048D01*
X123642381Y-107394286D01*
X123642381Y-106013333D02*
X123642381Y-106584762D01*
X123642381Y-106299048D02*
X122642381Y-106299048D01*
X122785238Y-106394286D01*
X122880476Y-106489524D01*
X122928095Y-106584762D01*
X91892381Y-106846666D02*
X91416190Y-107180000D01*
X91892381Y-107418095D02*
X90892381Y-107418095D01*
X90892381Y-107037142D01*
X90940000Y-106941904D01*
X90987619Y-106894285D01*
X91082857Y-106846666D01*
X91225714Y-106846666D01*
X91320952Y-106894285D01*
X91368571Y-106941904D01*
X91416190Y-107037142D01*
X91416190Y-107418095D01*
X90987619Y-106465714D02*
X90940000Y-106418095D01*
X90892381Y-106322857D01*
X90892381Y-106084761D01*
X90940000Y-105989523D01*
X90987619Y-105941904D01*
X91082857Y-105894285D01*
X91178095Y-105894285D01*
X91320952Y-105941904D01*
X91892381Y-106513333D01*
X91892381Y-105894285D01*
X88733334Y-118562381D02*
X88400000Y-118086190D01*
X88161905Y-118562381D02*
X88161905Y-117562381D01*
X88542858Y-117562381D01*
X88638096Y-117610000D01*
X88685715Y-117657619D01*
X88733334Y-117752857D01*
X88733334Y-117895714D01*
X88685715Y-117990952D01*
X88638096Y-118038571D01*
X88542858Y-118086190D01*
X88161905Y-118086190D01*
X89066667Y-117562381D02*
X89685715Y-117562381D01*
X89352381Y-117943333D01*
X89495239Y-117943333D01*
X89590477Y-117990952D01*
X89638096Y-118038571D01*
X89685715Y-118133810D01*
X89685715Y-118371905D01*
X89638096Y-118467143D01*
X89590477Y-118514762D01*
X89495239Y-118562381D01*
X89209524Y-118562381D01*
X89114286Y-118514762D01*
X89066667Y-118467143D01*
X91892381Y-124626666D02*
X91416190Y-124960000D01*
X91892381Y-125198095D02*
X90892381Y-125198095D01*
X90892381Y-124817142D01*
X90940000Y-124721904D01*
X90987619Y-124674285D01*
X91082857Y-124626666D01*
X91225714Y-124626666D01*
X91320952Y-124674285D01*
X91368571Y-124721904D01*
X91416190Y-124817142D01*
X91416190Y-125198095D01*
X91225714Y-123769523D02*
X91892381Y-123769523D01*
X90844762Y-124007619D02*
X91559048Y-124245714D01*
X91559048Y-123626666D01*
X93682381Y-108711905D02*
X93682381Y-108140476D01*
X94682381Y-108426191D02*
X93682381Y-108426191D01*
X94682381Y-107283333D02*
X94682381Y-107854762D01*
X94682381Y-107569048D02*
X93682381Y-107569048D01*
X93825238Y-107664286D01*
X93920476Y-107759524D01*
X93968095Y-107854762D01*
X93682381Y-115061905D02*
X93682381Y-114490476D01*
X94682381Y-114776191D02*
X93682381Y-114776191D01*
X93777619Y-114204762D02*
X93730000Y-114157143D01*
X93682381Y-114061905D01*
X93682381Y-113823809D01*
X93730000Y-113728571D01*
X93777619Y-113680952D01*
X93872857Y-113633333D01*
X93968095Y-113633333D01*
X94110952Y-113680952D01*
X94682381Y-114252381D01*
X94682381Y-113633333D01*
X93682381Y-121411905D02*
X93682381Y-120840476D01*
X94682381Y-121126191D02*
X93682381Y-121126191D01*
X93682381Y-120602381D02*
X93682381Y-119983333D01*
X94063333Y-120316667D01*
X94063333Y-120173809D01*
X94110952Y-120078571D01*
X94158571Y-120030952D01*
X94253810Y-119983333D01*
X94491905Y-119983333D01*
X94587143Y-120030952D01*
X94634762Y-120078571D01*
X94682381Y-120173809D01*
X94682381Y-120459524D01*
X94634762Y-120554762D01*
X94587143Y-120602381D01*
X87082381Y-110211905D02*
X87082381Y-109640476D01*
X88082381Y-109926191D02*
X87082381Y-109926191D01*
X88034762Y-109354762D02*
X88082381Y-109211905D01*
X88082381Y-108973809D01*
X88034762Y-108878571D01*
X87987143Y-108830952D01*
X87891905Y-108783333D01*
X87796667Y-108783333D01*
X87701429Y-108830952D01*
X87653810Y-108878571D01*
X87606190Y-108973809D01*
X87558571Y-109164286D01*
X87510952Y-109259524D01*
X87463333Y-109307143D01*
X87368095Y-109354762D01*
X87272857Y-109354762D01*
X87177619Y-109307143D01*
X87130000Y-109259524D01*
X87082381Y-109164286D01*
X87082381Y-108926190D01*
X87130000Y-108783333D01*
X87082381Y-108164286D02*
X87082381Y-107973809D01*
X87130000Y-107878571D01*
X87225238Y-107783333D01*
X87415714Y-107735714D01*
X87749048Y-107735714D01*
X87939524Y-107783333D01*
X88034762Y-107878571D01*
X88082381Y-107973809D01*
X88082381Y-108164286D01*
X88034762Y-108259524D01*
X87939524Y-108354762D01*
X87749048Y-108402381D01*
X87415714Y-108402381D01*
X87225238Y-108354762D01*
X87130000Y-108259524D01*
X87082381Y-108164286D01*
X88082381Y-107307143D02*
X87082381Y-107307143D01*
X87082381Y-106926190D01*
X87130000Y-106830952D01*
X87177619Y-106783333D01*
X87272857Y-106735714D01*
X87415714Y-106735714D01*
X87510952Y-106783333D01*
X87558571Y-106830952D01*
X87606190Y-106926190D01*
X87606190Y-107307143D01*
X88082381Y-105783333D02*
X88082381Y-106354762D01*
X88082381Y-106069048D02*
X87082381Y-106069048D01*
X87225238Y-106164286D01*
X87320476Y-106259524D01*
X87368095Y-106354762D01*
X114133334Y-98242381D02*
X113800000Y-97766190D01*
X113561905Y-98242381D02*
X113561905Y-97242381D01*
X113942858Y-97242381D01*
X114038096Y-97290000D01*
X114085715Y-97337619D01*
X114133334Y-97432857D01*
X114133334Y-97575714D01*
X114085715Y-97670952D01*
X114038096Y-97718571D01*
X113942858Y-97766190D01*
X113561905Y-97766190D01*
X115038096Y-97242381D02*
X114561905Y-97242381D01*
X114514286Y-97718571D01*
X114561905Y-97670952D01*
X114657143Y-97623333D01*
X114895239Y-97623333D01*
X114990477Y-97670952D01*
X115038096Y-97718571D01*
X115085715Y-97813810D01*
X115085715Y-98051905D01*
X115038096Y-98147143D01*
X114990477Y-98194762D01*
X114895239Y-98242381D01*
X114657143Y-98242381D01*
X114561905Y-98194762D01*
X114514286Y-98147143D01*
X117562381Y-116561905D02*
X117562381Y-115990476D01*
X118562381Y-116276191D02*
X117562381Y-116276191D01*
X118514762Y-115704762D02*
X118562381Y-115561905D01*
X118562381Y-115323809D01*
X118514762Y-115228571D01*
X118467143Y-115180952D01*
X118371905Y-115133333D01*
X118276667Y-115133333D01*
X118181429Y-115180952D01*
X118133810Y-115228571D01*
X118086190Y-115323809D01*
X118038571Y-115514286D01*
X117990952Y-115609524D01*
X117943333Y-115657143D01*
X117848095Y-115704762D01*
X117752857Y-115704762D01*
X117657619Y-115657143D01*
X117610000Y-115609524D01*
X117562381Y-115514286D01*
X117562381Y-115276190D01*
X117610000Y-115133333D01*
X117562381Y-114514286D02*
X117562381Y-114323809D01*
X117610000Y-114228571D01*
X117705238Y-114133333D01*
X117895714Y-114085714D01*
X118229048Y-114085714D01*
X118419524Y-114133333D01*
X118514762Y-114228571D01*
X118562381Y-114323809D01*
X118562381Y-114514286D01*
X118514762Y-114609524D01*
X118419524Y-114704762D01*
X118229048Y-114752381D01*
X117895714Y-114752381D01*
X117705238Y-114704762D01*
X117610000Y-114609524D01*
X117562381Y-114514286D01*
X118562381Y-113657143D02*
X117562381Y-113657143D01*
X117562381Y-113276190D01*
X117610000Y-113180952D01*
X117657619Y-113133333D01*
X117752857Y-113085714D01*
X117895714Y-113085714D01*
X117990952Y-113133333D01*
X118038571Y-113180952D01*
X118086190Y-113276190D01*
X118086190Y-113657143D01*
X117657619Y-112704762D02*
X117610000Y-112657143D01*
X117562381Y-112561905D01*
X117562381Y-112323809D01*
X117610000Y-112228571D01*
X117657619Y-112180952D01*
X117752857Y-112133333D01*
X117848095Y-112133333D01*
X117990952Y-112180952D01*
X118562381Y-112752381D01*
X118562381Y-112133333D01*
X117371905Y-121102381D02*
X117371905Y-120102381D01*
X117610000Y-120102381D01*
X117752858Y-120150000D01*
X117848096Y-120245238D01*
X117895715Y-120340476D01*
X117943334Y-120530952D01*
X117943334Y-120673810D01*
X117895715Y-120864286D01*
X117848096Y-120959524D01*
X117752858Y-121054762D01*
X117610000Y-121102381D01*
X117371905Y-121102381D01*
X118800477Y-120435714D02*
X118800477Y-121102381D01*
X118562381Y-120054762D02*
X118324286Y-120769048D01*
X118943334Y-120769048D01*
X100782381Y-90908095D02*
X99782381Y-90908095D01*
X99782381Y-90670000D01*
X99830000Y-90527142D01*
X99925238Y-90431904D01*
X100020476Y-90384285D01*
X100210952Y-90336666D01*
X100353810Y-90336666D01*
X100544286Y-90384285D01*
X100639524Y-90431904D01*
X100734762Y-90527142D01*
X100782381Y-90670000D01*
X100782381Y-90908095D01*
X99782381Y-89431904D02*
X99782381Y-89908095D01*
X100258571Y-89955714D01*
X100210952Y-89908095D01*
X100163333Y-89812857D01*
X100163333Y-89574761D01*
X100210952Y-89479523D01*
X100258571Y-89431904D01*
X100353810Y-89384285D01*
X100591905Y-89384285D01*
X100687143Y-89431904D01*
X100734762Y-89479523D01*
X100782381Y-89574761D01*
X100782381Y-89812857D01*
X100734762Y-89908095D01*
X100687143Y-89955714D01*
M02*
