%TF.GenerationSoftware,KiCad,Pcbnew,4.0.7-e2-6376~58~ubuntu16.04.1*%
%TF.CreationDate,2018-01-31T12:50:43+01:00*%
%TF.ProjectId,Receiver_module,52656365697665725F6D6F64756C652E,rev?*%
%TF.FileFunction,Copper,L2,Bot,Signal*%
%FSLAX46Y46*%
G04 Gerber Fmt 4.6, Leading zero omitted, Abs format (unit mm)*
G04 Created by KiCad (PCBNEW 4.0.7-e2-6376~58~ubuntu16.04.1) date Wed Jan 31 12:50:43 2018*
%MOMM*%
%LPD*%
G01*
G04 APERTURE LIST*
%ADD10C,0.100000*%
%ADD11R,1.600000X1.600000*%
%ADD12O,1.600000X1.600000*%
%ADD13R,1.800000X1.800000*%
%ADD14C,1.800000*%
%ADD15R,2.000000X2.000000*%
%ADD16C,2.000000*%
%ADD17C,1.400000*%
%ADD18O,1.400000X1.400000*%
%ADD19O,1.500000X0.900000*%
%ADD20R,1.500000X0.900000*%
%ADD21R,1.800000X1.070000*%
%ADD22O,1.800000X1.070000*%
%ADD23R,1.070000X1.800000*%
%ADD24O,1.070000X1.800000*%
%ADD25R,1.700000X1.700000*%
%ADD26O,1.700000X1.700000*%
%ADD27C,0.600000*%
%ADD28C,0.500000*%
%ADD29C,0.250000*%
%ADD30C,0.254000*%
G04 APERTURE END LIST*
D10*
X128270000Y-119380000D02*
X128270000Y-95250000D01*
X120650000Y-127000000D02*
X128270000Y-119380000D01*
X95250000Y-127000000D02*
X120650000Y-127000000D01*
X81280000Y-99060000D02*
X81280000Y-113030000D01*
X95250000Y-85090000D02*
X81280000Y-99060000D01*
X118110000Y-85090000D02*
X95250000Y-85090000D01*
X128270000Y-95250000D02*
X118110000Y-85090000D01*
X81280000Y-113030000D02*
X95250000Y-127000000D01*
D11*
X102870000Y-93980000D03*
D12*
X110490000Y-101600000D03*
X102870000Y-96520000D03*
X110490000Y-99060000D03*
X102870000Y-99060000D03*
X110490000Y-96520000D03*
X102870000Y-101600000D03*
X110490000Y-93980000D03*
D13*
X91440000Y-97790000D03*
D14*
X93980000Y-97790000D03*
D13*
X120650000Y-100330000D03*
D14*
X120650000Y-97790000D03*
D11*
X102870000Y-106680000D03*
D12*
X110490000Y-124460000D03*
X102870000Y-109220000D03*
X110490000Y-121920000D03*
X102870000Y-111760000D03*
X110490000Y-119380000D03*
X102870000Y-114300000D03*
X110490000Y-116840000D03*
X102870000Y-116840000D03*
X110490000Y-114300000D03*
X102870000Y-119380000D03*
X110490000Y-111760000D03*
X102870000Y-121920000D03*
X110490000Y-109220000D03*
X102870000Y-124460000D03*
X110490000Y-106680000D03*
D15*
X120650000Y-105410000D03*
D16*
X118110000Y-105410000D03*
X120650000Y-107950000D03*
X118110000Y-107950000D03*
D17*
X92710000Y-109220000D03*
D18*
X92710000Y-111760000D03*
D17*
X90170000Y-109220000D03*
D18*
X90170000Y-111760000D03*
D17*
X92710000Y-114300000D03*
D18*
X90170000Y-114300000D03*
D19*
X97790000Y-107950000D03*
X97790000Y-106680000D03*
D20*
X97790000Y-109220000D03*
D19*
X97790000Y-114300000D03*
X97790000Y-113030000D03*
D20*
X97790000Y-115570000D03*
D19*
X97790000Y-120650000D03*
X97790000Y-119380000D03*
D20*
X97790000Y-121920000D03*
D13*
X87630000Y-101600000D03*
D14*
X87630000Y-104140000D03*
X87630000Y-106680000D03*
D17*
X92710000Y-119380000D03*
D18*
X92710000Y-116840000D03*
D13*
X120650000Y-118110000D03*
D14*
X120650000Y-115570000D03*
X120650000Y-113030000D03*
D21*
X116840000Y-123190000D03*
D22*
X116840000Y-121920000D03*
X116840000Y-124460000D03*
X116840000Y-125730000D03*
D23*
X85090000Y-111760000D03*
D24*
X86360000Y-111760000D03*
X83820000Y-111760000D03*
X82550000Y-111760000D03*
D21*
X104140000Y-88900000D03*
D22*
X104140000Y-90170000D03*
X104140000Y-87630000D03*
X104140000Y-86360000D03*
D17*
X113030000Y-99060000D03*
D18*
X115570000Y-99060000D03*
D17*
X100330000Y-96520000D03*
D18*
X97790000Y-96520000D03*
D25*
X99060000Y-93980000D03*
D26*
X96520000Y-93980000D03*
D27*
X116840000Y-90170000D03*
D28*
X102870000Y-93980000D02*
X99060000Y-93980000D01*
X100330000Y-96520000D02*
X102870000Y-96520000D01*
X110490000Y-99060000D02*
X113030000Y-99060000D01*
D29*
X120650000Y-118110000D02*
X107950000Y-118110000D01*
X105410000Y-101600000D02*
X102870000Y-99060000D01*
X105410000Y-115570000D02*
X105410000Y-101600000D01*
X107950000Y-118110000D02*
X105410000Y-115570000D01*
X118110000Y-107950000D02*
X116840000Y-107950000D01*
X113030000Y-111760000D02*
X110490000Y-111760000D01*
X116840000Y-107950000D02*
X113030000Y-111760000D01*
X110490000Y-111760000D02*
X109220000Y-111760000D01*
X109220000Y-96520000D02*
X110490000Y-96520000D01*
X107950000Y-97790000D02*
X109220000Y-96520000D01*
X107950000Y-110490000D02*
X107950000Y-97790000D01*
X109220000Y-111760000D02*
X107950000Y-110490000D01*
D28*
X124460000Y-97790000D02*
X124460000Y-96520000D01*
X116840000Y-121920000D02*
X120650000Y-121920000D01*
X124460000Y-118110000D02*
X124460000Y-97790000D01*
X120650000Y-121920000D02*
X124460000Y-118110000D01*
X118110000Y-90170000D02*
X116840000Y-90170000D01*
X124460000Y-96520000D02*
X118110000Y-90170000D01*
X86360000Y-111760000D02*
X86360000Y-107950000D01*
X93980000Y-90170000D02*
X104140000Y-90170000D01*
X85090000Y-99060000D02*
X93980000Y-90170000D01*
X85090000Y-106680000D02*
X85090000Y-99060000D01*
X86360000Y-107950000D02*
X85090000Y-106680000D01*
X92710000Y-111760000D02*
X90170000Y-111760000D01*
X125730000Y-95250000D02*
X125730000Y-118110000D01*
X125730000Y-95250000D02*
X118110000Y-87630000D01*
X118110000Y-87630000D02*
X115570000Y-87630000D01*
X104140000Y-87630000D02*
X115570000Y-87630000D01*
X119380000Y-124460000D02*
X116840000Y-124460000D01*
X125730000Y-118110000D02*
X119380000Y-124460000D01*
X83820000Y-111760000D02*
X83820000Y-99060000D01*
X95250000Y-87630000D02*
X104140000Y-87630000D01*
X83820000Y-99060000D02*
X95250000Y-87630000D01*
X127000000Y-95250000D02*
X127000000Y-118110000D01*
X127000000Y-95250000D02*
X118110000Y-86360000D01*
X115570000Y-86360000D02*
X118110000Y-86360000D01*
X104140000Y-86360000D02*
X115570000Y-86360000D01*
X120650000Y-125730000D02*
X116840000Y-125730000D01*
X127000000Y-119380000D02*
X120650000Y-125730000D01*
X127000000Y-118110000D02*
X127000000Y-119380000D01*
X82550000Y-111760000D02*
X82550000Y-99060000D01*
X95250000Y-86360000D02*
X104140000Y-86360000D01*
X82550000Y-99060000D02*
X95250000Y-86360000D01*
X97790000Y-107950000D02*
X99060000Y-107950000D01*
X100330000Y-111760000D02*
X102870000Y-114300000D01*
X100330000Y-109220000D02*
X100330000Y-111760000D01*
X99060000Y-107950000D02*
X100330000Y-109220000D01*
X97790000Y-114300000D02*
X99060000Y-114300000D01*
X101600000Y-116840000D02*
X102870000Y-116840000D01*
X99060000Y-114300000D02*
X101600000Y-116840000D01*
X97790000Y-120650000D02*
X100330000Y-120650000D01*
X101600000Y-119380000D02*
X102870000Y-119380000D01*
X100330000Y-120650000D02*
X101600000Y-119380000D01*
X92710000Y-109220000D02*
X90170000Y-109220000D01*
X92710000Y-109220000D02*
X95250000Y-106680000D01*
X95250000Y-106680000D02*
X97790000Y-106680000D01*
X92710000Y-114300000D02*
X93980000Y-114300000D01*
X95250000Y-113030000D02*
X97790000Y-113030000D01*
X93980000Y-114300000D02*
X95250000Y-113030000D01*
X115570000Y-99060000D02*
X116840000Y-99060000D01*
X118110000Y-97790000D02*
X120650000Y-97790000D01*
X116840000Y-99060000D02*
X118110000Y-97790000D01*
X97790000Y-96520000D02*
X95250000Y-96520000D01*
X95250000Y-96520000D02*
X93980000Y-97790000D01*
X97790000Y-119380000D02*
X92710000Y-119380000D01*
D30*
G36*
X102605000Y-88614250D02*
X102763750Y-88773000D01*
X103609190Y-88773000D01*
X103744928Y-88800000D01*
X104535072Y-88800000D01*
X104670810Y-88773000D01*
X105516250Y-88773000D01*
X105675000Y-88614250D01*
X105675000Y-88515000D01*
X117743420Y-88515000D01*
X124845000Y-95616579D01*
X124845000Y-95653421D01*
X118735790Y-89544210D01*
X118486750Y-89377808D01*
X118448675Y-89352367D01*
X118392484Y-89341190D01*
X118110000Y-89284999D01*
X118109995Y-89285000D01*
X117146822Y-89285000D01*
X117026799Y-89235162D01*
X116654833Y-89234838D01*
X116311057Y-89376883D01*
X116047808Y-89639673D01*
X115905162Y-89983201D01*
X115904838Y-90355167D01*
X116046883Y-90698943D01*
X116309673Y-90962192D01*
X116653201Y-91104838D01*
X117025167Y-91105162D01*
X117146569Y-91055000D01*
X117743420Y-91055000D01*
X123575000Y-96886579D01*
X123575000Y-117743421D01*
X122169259Y-119149161D01*
X122197440Y-119010000D01*
X122197440Y-117210000D01*
X122153162Y-116974683D01*
X122014090Y-116758559D01*
X121810426Y-116619402D01*
X121844718Y-116585110D01*
X121730161Y-116470553D01*
X121986643Y-116384148D01*
X122196458Y-115810664D01*
X122170839Y-115200540D01*
X121986643Y-114755852D01*
X121730159Y-114669446D01*
X120829605Y-115570000D01*
X120843748Y-115584143D01*
X120664143Y-115763748D01*
X120650000Y-115749605D01*
X120635858Y-115763748D01*
X120456253Y-115584143D01*
X120470395Y-115570000D01*
X119569841Y-114669446D01*
X119313357Y-114755852D01*
X119103542Y-115329336D01*
X119129161Y-115939460D01*
X119313357Y-116384148D01*
X119569839Y-116470553D01*
X119455282Y-116585110D01*
X119491760Y-116621588D01*
X119298559Y-116745910D01*
X119153569Y-116958110D01*
X119102560Y-117210000D01*
X119102560Y-117350000D01*
X111851668Y-117350000D01*
X111953113Y-116840000D01*
X111843880Y-116290849D01*
X111532811Y-115825302D01*
X111150725Y-115570000D01*
X111532811Y-115314698D01*
X111843880Y-114849151D01*
X111953113Y-114300000D01*
X111843880Y-113750849D01*
X111532811Y-113285302D01*
X111150725Y-113030000D01*
X112903000Y-113030000D01*
X112903000Y-115570000D01*
X112911685Y-115616159D01*
X112938965Y-115658553D01*
X112980590Y-115686994D01*
X113030000Y-115697000D01*
X115570000Y-115697000D01*
X115616159Y-115688315D01*
X115658553Y-115661035D01*
X115686994Y-115619410D01*
X115697000Y-115570000D01*
X115697000Y-113333991D01*
X119114735Y-113333991D01*
X119347932Y-113898371D01*
X119779357Y-114330551D01*
X119800194Y-114339203D01*
X119749446Y-114489841D01*
X120650000Y-115390395D01*
X121550554Y-114489841D01*
X121499965Y-114339673D01*
X121518371Y-114332068D01*
X121950551Y-113900643D01*
X122184733Y-113336670D01*
X122185265Y-112726009D01*
X121952068Y-112161629D01*
X121520643Y-111729449D01*
X120956670Y-111495267D01*
X120346009Y-111494735D01*
X119781629Y-111727932D01*
X119349449Y-112159357D01*
X119115267Y-112723330D01*
X119114735Y-113333991D01*
X115697000Y-113333991D01*
X115697000Y-113030000D01*
X115688315Y-112983841D01*
X115661035Y-112941447D01*
X115619410Y-112913006D01*
X115570000Y-112903000D01*
X113030000Y-112903000D01*
X112983841Y-112911685D01*
X112941447Y-112938965D01*
X112913006Y-112980590D01*
X112903000Y-113030000D01*
X111150725Y-113030000D01*
X111532811Y-112774698D01*
X111702995Y-112520000D01*
X113030000Y-112520000D01*
X113320839Y-112462148D01*
X113567401Y-112297401D01*
X116856366Y-109008436D01*
X117182637Y-109335278D01*
X117783352Y-109584716D01*
X118433795Y-109585284D01*
X119034943Y-109336894D01*
X119269715Y-109102532D01*
X119677073Y-109102532D01*
X119775736Y-109369387D01*
X120385461Y-109595908D01*
X121035460Y-109571856D01*
X121524264Y-109369387D01*
X121622927Y-109102532D01*
X120650000Y-108129605D01*
X119677073Y-109102532D01*
X119269715Y-109102532D01*
X119462562Y-108910022D01*
X119497468Y-108922927D01*
X120470395Y-107950000D01*
X120456253Y-107935858D01*
X120635858Y-107756253D01*
X120650000Y-107770395D01*
X120664143Y-107756253D01*
X120843748Y-107935858D01*
X120829605Y-107950000D01*
X121802532Y-108922927D01*
X122069387Y-108824264D01*
X122295908Y-108214539D01*
X122271856Y-107564540D01*
X122069387Y-107075736D01*
X121890727Y-107009681D01*
X122101441Y-106874090D01*
X122246431Y-106661890D01*
X122297440Y-106410000D01*
X122297440Y-104410000D01*
X122253162Y-104174683D01*
X122114090Y-103958559D01*
X121901890Y-103813569D01*
X121650000Y-103762560D01*
X119650000Y-103762560D01*
X119414683Y-103806838D01*
X119198559Y-103945910D01*
X119101090Y-104088561D01*
X119037363Y-104024722D01*
X118436648Y-103775284D01*
X117786205Y-103774716D01*
X117185057Y-104023106D01*
X116724722Y-104482637D01*
X116475284Y-105083352D01*
X116474716Y-105733795D01*
X116723106Y-106334943D01*
X117067759Y-106680199D01*
X116724722Y-107022637D01*
X116638591Y-107230063D01*
X116549161Y-107247852D01*
X116302599Y-107412599D01*
X112715198Y-111000000D01*
X111702995Y-111000000D01*
X111532811Y-110745302D01*
X111150725Y-110490000D01*
X111532811Y-110234698D01*
X111843880Y-109769151D01*
X111953113Y-109220000D01*
X111843880Y-108670849D01*
X111532811Y-108205302D01*
X111150725Y-107950000D01*
X111532811Y-107694698D01*
X111843880Y-107229151D01*
X111953113Y-106680000D01*
X111843880Y-106130849D01*
X111532811Y-105665302D01*
X111067264Y-105354233D01*
X110518113Y-105245000D01*
X110461887Y-105245000D01*
X109912736Y-105354233D01*
X109447189Y-105665302D01*
X109136120Y-106130849D01*
X109026887Y-106680000D01*
X109136120Y-107229151D01*
X109447189Y-107694698D01*
X109829275Y-107950000D01*
X109447189Y-108205302D01*
X109136120Y-108670849D01*
X109026887Y-109220000D01*
X109136120Y-109769151D01*
X109447189Y-110234698D01*
X109829275Y-110490000D01*
X109447189Y-110745302D01*
X109380264Y-110845462D01*
X108710000Y-110175198D01*
X108710000Y-98104802D01*
X109380264Y-97434538D01*
X109447189Y-97534698D01*
X109829275Y-97790000D01*
X109447189Y-98045302D01*
X109136120Y-98510849D01*
X109026887Y-99060000D01*
X109136120Y-99609151D01*
X109447189Y-100074698D01*
X109829275Y-100330000D01*
X109447189Y-100585302D01*
X109136120Y-101050849D01*
X109026887Y-101600000D01*
X109136120Y-102149151D01*
X109447189Y-102614698D01*
X109912736Y-102925767D01*
X110461887Y-103035000D01*
X110518113Y-103035000D01*
X111067264Y-102925767D01*
X111532811Y-102614698D01*
X111843880Y-102149151D01*
X111953113Y-101600000D01*
X111843880Y-101050849D01*
X111553156Y-100615750D01*
X119115000Y-100615750D01*
X119115000Y-101356309D01*
X119211673Y-101589698D01*
X119390301Y-101768327D01*
X119623690Y-101865000D01*
X120364250Y-101865000D01*
X120523000Y-101706250D01*
X120523000Y-100457000D01*
X120777000Y-100457000D01*
X120777000Y-101706250D01*
X120935750Y-101865000D01*
X121676310Y-101865000D01*
X121909699Y-101768327D01*
X122088327Y-101589698D01*
X122185000Y-101356309D01*
X122185000Y-100615750D01*
X122026250Y-100457000D01*
X120777000Y-100457000D01*
X120523000Y-100457000D01*
X119273750Y-100457000D01*
X119115000Y-100615750D01*
X111553156Y-100615750D01*
X111532811Y-100585302D01*
X111150725Y-100330000D01*
X111532811Y-100074698D01*
X111619473Y-99945000D01*
X112027127Y-99945000D01*
X112272796Y-100191098D01*
X112763287Y-100394768D01*
X113294383Y-100395231D01*
X113785229Y-100192418D01*
X114161098Y-99817204D01*
X114295216Y-99494212D01*
X114310467Y-99570882D01*
X114599858Y-100003988D01*
X115032964Y-100293379D01*
X115543846Y-100395000D01*
X115596154Y-100395000D01*
X116107036Y-100293379D01*
X116540142Y-100003988D01*
X116579556Y-99945000D01*
X116839995Y-99945000D01*
X116840000Y-99945001D01*
X117122484Y-99888810D01*
X117178675Y-99877633D01*
X117465790Y-99685790D01*
X118476579Y-98675000D01*
X119364532Y-98675000D01*
X119525092Y-98835841D01*
X119390301Y-98891673D01*
X119211673Y-99070302D01*
X119115000Y-99303691D01*
X119115000Y-100044250D01*
X119273750Y-100203000D01*
X120523000Y-100203000D01*
X120523000Y-100183000D01*
X120777000Y-100183000D01*
X120777000Y-100203000D01*
X122026250Y-100203000D01*
X122185000Y-100044250D01*
X122185000Y-99303691D01*
X122088327Y-99070302D01*
X121909699Y-98891673D01*
X121775006Y-98835881D01*
X121950551Y-98660643D01*
X122184733Y-98096670D01*
X122185265Y-97486009D01*
X121952068Y-96921629D01*
X121520643Y-96489449D01*
X120956670Y-96255267D01*
X120346009Y-96254735D01*
X119781629Y-96487932D01*
X119363831Y-96905000D01*
X118110005Y-96905000D01*
X118110000Y-96904999D01*
X117771325Y-96972367D01*
X117484210Y-97164210D01*
X117484208Y-97164213D01*
X116535506Y-98112914D01*
X116107036Y-97826621D01*
X115596154Y-97725000D01*
X115543846Y-97725000D01*
X115032964Y-97826621D01*
X114599858Y-98116012D01*
X114310467Y-98549118D01*
X114295165Y-98626045D01*
X114162418Y-98304771D01*
X113787204Y-97928902D01*
X113296713Y-97725232D01*
X112765617Y-97724769D01*
X112274771Y-97927582D01*
X112026921Y-98175000D01*
X111619473Y-98175000D01*
X111532811Y-98045302D01*
X111150725Y-97790000D01*
X111532811Y-97534698D01*
X111843880Y-97069151D01*
X111953113Y-96520000D01*
X111843880Y-95970849D01*
X111532811Y-95505302D01*
X111150725Y-95250000D01*
X111532811Y-94994698D01*
X111843880Y-94529151D01*
X111953113Y-93980000D01*
X111843880Y-93430849D01*
X111532811Y-92965302D01*
X111067264Y-92654233D01*
X110518113Y-92545000D01*
X110461887Y-92545000D01*
X109912736Y-92654233D01*
X109447189Y-92965302D01*
X109136120Y-93430849D01*
X109026887Y-93980000D01*
X109136120Y-94529151D01*
X109447189Y-94994698D01*
X109829275Y-95250000D01*
X109447189Y-95505302D01*
X109277005Y-95760000D01*
X109220000Y-95760000D01*
X108929160Y-95817852D01*
X108682599Y-95982599D01*
X107412599Y-97252599D01*
X107247852Y-97499161D01*
X107190000Y-97790000D01*
X107190000Y-110490000D01*
X107247852Y-110780839D01*
X107412599Y-111027401D01*
X108682599Y-112297401D01*
X108929160Y-112462148D01*
X109220000Y-112520000D01*
X109277005Y-112520000D01*
X109447189Y-112774698D01*
X109829275Y-113030000D01*
X109447189Y-113285302D01*
X109136120Y-113750849D01*
X109026887Y-114300000D01*
X109136120Y-114849151D01*
X109447189Y-115314698D01*
X109829275Y-115570000D01*
X109447189Y-115825302D01*
X109136120Y-116290849D01*
X109026887Y-116840000D01*
X109128332Y-117350000D01*
X108264802Y-117350000D01*
X106170000Y-115255198D01*
X106170000Y-101600000D01*
X106112148Y-101309161D01*
X106112148Y-101309160D01*
X105947401Y-101062599D01*
X104268688Y-99383886D01*
X104333113Y-99060000D01*
X104223880Y-98510849D01*
X103912811Y-98045302D01*
X103530725Y-97790000D01*
X103912811Y-97534698D01*
X104223880Y-97069151D01*
X104333113Y-96520000D01*
X104223880Y-95970849D01*
X103912811Y-95505302D01*
X103768535Y-95408899D01*
X103905317Y-95383162D01*
X104121441Y-95244090D01*
X104266431Y-95031890D01*
X104317440Y-94780000D01*
X104317440Y-93180000D01*
X104273162Y-92944683D01*
X104134090Y-92728559D01*
X103921890Y-92583569D01*
X103670000Y-92532560D01*
X102070000Y-92532560D01*
X101834683Y-92576838D01*
X101618559Y-92715910D01*
X101473569Y-92928110D01*
X101439773Y-93095000D01*
X100550854Y-93095000D01*
X100513162Y-92894683D01*
X100374090Y-92678559D01*
X100161890Y-92533569D01*
X99910000Y-92482560D01*
X98210000Y-92482560D01*
X97974683Y-92526838D01*
X97758559Y-92665910D01*
X97613569Y-92878110D01*
X97591699Y-92986107D01*
X97286924Y-92708355D01*
X96876890Y-92538524D01*
X96647000Y-92659845D01*
X96647000Y-93853000D01*
X96667000Y-93853000D01*
X96667000Y-94107000D01*
X96647000Y-94107000D01*
X96647000Y-95300155D01*
X96876890Y-95421476D01*
X97286924Y-95251645D01*
X97589937Y-94975499D01*
X97606838Y-95065317D01*
X97692929Y-95199106D01*
X97252964Y-95286621D01*
X96819858Y-95576012D01*
X96780444Y-95635000D01*
X95250005Y-95635000D01*
X95250000Y-95634999D01*
X94911325Y-95702367D01*
X94624210Y-95894210D01*
X94624208Y-95894213D01*
X94263174Y-96255247D01*
X93676009Y-96254735D01*
X93111629Y-96487932D01*
X92934159Y-96665092D01*
X92878327Y-96530301D01*
X92699698Y-96351673D01*
X92466309Y-96255000D01*
X91725750Y-96255000D01*
X91567000Y-96413750D01*
X91567000Y-97663000D01*
X91587000Y-97663000D01*
X91587000Y-97917000D01*
X91567000Y-97917000D01*
X91567000Y-99166250D01*
X91725750Y-99325000D01*
X92466309Y-99325000D01*
X92699698Y-99228327D01*
X92878327Y-99049699D01*
X92934119Y-98915006D01*
X93109357Y-99090551D01*
X93673330Y-99324733D01*
X94283991Y-99325265D01*
X94848371Y-99092068D01*
X95280551Y-98660643D01*
X95514733Y-98096670D01*
X95515247Y-97506332D01*
X95616579Y-97405000D01*
X96780444Y-97405000D01*
X96819858Y-97463988D01*
X97252964Y-97753379D01*
X97763846Y-97855000D01*
X97816154Y-97855000D01*
X98327036Y-97753379D01*
X98760142Y-97463988D01*
X99049533Y-97030882D01*
X99064835Y-96953955D01*
X99197582Y-97275229D01*
X99572796Y-97651098D01*
X100063287Y-97854768D01*
X100594383Y-97855231D01*
X101085229Y-97652418D01*
X101333079Y-97405000D01*
X101740527Y-97405000D01*
X101827189Y-97534698D01*
X102209275Y-97790000D01*
X101827189Y-98045302D01*
X101516120Y-98510849D01*
X101406887Y-99060000D01*
X101516120Y-99609151D01*
X101827189Y-100074698D01*
X102231703Y-100344986D01*
X102014866Y-100447611D01*
X101638959Y-100862577D01*
X101478096Y-101250961D01*
X101600085Y-101473000D01*
X102743000Y-101473000D01*
X102743000Y-101453000D01*
X102997000Y-101453000D01*
X102997000Y-101473000D01*
X104139915Y-101473000D01*
X104164127Y-101428929D01*
X104650000Y-101914802D01*
X104650000Y-115570000D01*
X104707852Y-115860839D01*
X104872599Y-116107401D01*
X107412599Y-118647401D01*
X107659160Y-118812148D01*
X107707414Y-118821746D01*
X107950000Y-118870000D01*
X109128332Y-118870000D01*
X109026887Y-119380000D01*
X109136120Y-119929151D01*
X109447189Y-120394698D01*
X109829275Y-120650000D01*
X109447189Y-120905302D01*
X109136120Y-121370849D01*
X109026887Y-121920000D01*
X109136120Y-122469151D01*
X109447189Y-122934698D01*
X109829275Y-123190000D01*
X109447189Y-123445302D01*
X109136120Y-123910849D01*
X109026887Y-124460000D01*
X109136120Y-125009151D01*
X109447189Y-125474698D01*
X109912736Y-125785767D01*
X110461887Y-125895000D01*
X110518113Y-125895000D01*
X111067264Y-125785767D01*
X111532811Y-125474698D01*
X111843880Y-125009151D01*
X111953113Y-124460000D01*
X111843880Y-123910849D01*
X111532811Y-123445302D01*
X111150725Y-123190000D01*
X111532811Y-122934698D01*
X111843880Y-122469151D01*
X111953113Y-121920000D01*
X111843880Y-121370849D01*
X111532811Y-120905302D01*
X111150725Y-120650000D01*
X111532811Y-120394698D01*
X111843880Y-119929151D01*
X111953113Y-119380000D01*
X111851668Y-118870000D01*
X119102560Y-118870000D01*
X119102560Y-119010000D01*
X119146838Y-119245317D01*
X119285910Y-119461441D01*
X119498110Y-119606431D01*
X119750000Y-119657440D01*
X121550000Y-119657440D01*
X121686703Y-119631718D01*
X120283420Y-121035000D01*
X117976055Y-121035000D01*
X117682812Y-120839061D01*
X117235072Y-120750000D01*
X116444928Y-120750000D01*
X115997188Y-120839061D01*
X115617613Y-121092685D01*
X115363989Y-121472260D01*
X115274928Y-121920000D01*
X115363989Y-122367740D01*
X115368729Y-122374835D01*
X115305000Y-122528691D01*
X115305000Y-122904250D01*
X115463750Y-123063000D01*
X116309190Y-123063000D01*
X116444928Y-123090000D01*
X117235072Y-123090000D01*
X117370810Y-123063000D01*
X118216250Y-123063000D01*
X118375000Y-122904250D01*
X118375000Y-122805000D01*
X119783420Y-122805000D01*
X119013420Y-123575000D01*
X118375000Y-123575000D01*
X118375000Y-123475750D01*
X118216250Y-123317000D01*
X117370810Y-123317000D01*
X117235072Y-123290000D01*
X116444928Y-123290000D01*
X116309190Y-123317000D01*
X115463750Y-123317000D01*
X115305000Y-123475750D01*
X115305000Y-123851309D01*
X115368729Y-124005165D01*
X115363989Y-124012260D01*
X115274928Y-124460000D01*
X115363989Y-124907740D01*
X115489112Y-125095000D01*
X115363989Y-125282260D01*
X115274928Y-125730000D01*
X115363989Y-126177740D01*
X115455703Y-126315000D01*
X95533736Y-126315000D01*
X94027775Y-124809039D01*
X101478096Y-124809039D01*
X101638959Y-125197423D01*
X102014866Y-125612389D01*
X102520959Y-125851914D01*
X102743000Y-125730629D01*
X102743000Y-124587000D01*
X102997000Y-124587000D01*
X102997000Y-125730629D01*
X103219041Y-125851914D01*
X103725134Y-125612389D01*
X104101041Y-125197423D01*
X104261904Y-124809039D01*
X104139915Y-124587000D01*
X102997000Y-124587000D01*
X102743000Y-124587000D01*
X101600085Y-124587000D01*
X101478096Y-124809039D01*
X94027775Y-124809039D01*
X83518736Y-114300000D01*
X88808846Y-114300000D01*
X88910467Y-114810882D01*
X89199858Y-115243988D01*
X89632964Y-115533379D01*
X90143846Y-115635000D01*
X90196154Y-115635000D01*
X90707036Y-115533379D01*
X91140142Y-115243988D01*
X91429533Y-114810882D01*
X91444835Y-114733955D01*
X91577582Y-115055229D01*
X91952796Y-115431098D01*
X92275788Y-115565216D01*
X92199118Y-115580467D01*
X91766012Y-115869858D01*
X91476621Y-116302964D01*
X91375000Y-116813846D01*
X91375000Y-116866154D01*
X91476621Y-117377036D01*
X91766012Y-117810142D01*
X92199118Y-118099533D01*
X92276045Y-118114835D01*
X91954771Y-118247582D01*
X91578902Y-118622796D01*
X91375232Y-119113287D01*
X91374769Y-119644383D01*
X91577582Y-120135229D01*
X91952796Y-120511098D01*
X92443287Y-120714768D01*
X92974383Y-120715231D01*
X93465229Y-120512418D01*
X93713079Y-120265000D01*
X96454447Y-120265000D01*
X96377866Y-120650000D01*
X96460457Y-121065212D01*
X96503759Y-121130019D01*
X96443569Y-121218110D01*
X96392560Y-121470000D01*
X96392560Y-122370000D01*
X96436838Y-122605317D01*
X96575910Y-122821441D01*
X96788110Y-122966431D01*
X97040000Y-123017440D01*
X98540000Y-123017440D01*
X98775317Y-122973162D01*
X98991441Y-122834090D01*
X99136431Y-122621890D01*
X99187440Y-122370000D01*
X99187440Y-121535000D01*
X100329995Y-121535000D01*
X100330000Y-121535001D01*
X100612484Y-121478810D01*
X100668675Y-121467633D01*
X100955790Y-121275790D01*
X101832999Y-120398580D01*
X102209275Y-120650000D01*
X101827189Y-120905302D01*
X101516120Y-121370849D01*
X101406887Y-121920000D01*
X101516120Y-122469151D01*
X101827189Y-122934698D01*
X102231703Y-123204986D01*
X102014866Y-123307611D01*
X101638959Y-123722577D01*
X101478096Y-124110961D01*
X101600085Y-124333000D01*
X102743000Y-124333000D01*
X102743000Y-124313000D01*
X102997000Y-124313000D01*
X102997000Y-124333000D01*
X104139915Y-124333000D01*
X104261904Y-124110961D01*
X104101041Y-123722577D01*
X103725134Y-123307611D01*
X103508297Y-123204986D01*
X103912811Y-122934698D01*
X104223880Y-122469151D01*
X104333113Y-121920000D01*
X104223880Y-121370849D01*
X103912811Y-120905302D01*
X103530725Y-120650000D01*
X103912811Y-120394698D01*
X104223880Y-119929151D01*
X104333113Y-119380000D01*
X104223880Y-118830849D01*
X103912811Y-118365302D01*
X103530725Y-118110000D01*
X103912811Y-117854698D01*
X104223880Y-117389151D01*
X104333113Y-116840000D01*
X104223880Y-116290849D01*
X103912811Y-115825302D01*
X103530725Y-115570000D01*
X103912811Y-115314698D01*
X104223880Y-114849151D01*
X104333113Y-114300000D01*
X104223880Y-113750849D01*
X103912811Y-113285302D01*
X103508297Y-113015014D01*
X103725134Y-112912389D01*
X104101041Y-112497423D01*
X104261904Y-112109039D01*
X104139915Y-111887000D01*
X102997000Y-111887000D01*
X102997000Y-111907000D01*
X102743000Y-111907000D01*
X102743000Y-111887000D01*
X102723000Y-111887000D01*
X102723000Y-111633000D01*
X102743000Y-111633000D01*
X102743000Y-109347000D01*
X102997000Y-109347000D01*
X102997000Y-111633000D01*
X104139915Y-111633000D01*
X104261904Y-111410961D01*
X104101041Y-111022577D01*
X103725134Y-110607611D01*
X103476633Y-110490000D01*
X103725134Y-110372389D01*
X104101041Y-109957423D01*
X104261904Y-109569039D01*
X104139915Y-109347000D01*
X102997000Y-109347000D01*
X102743000Y-109347000D01*
X101600085Y-109347000D01*
X101478096Y-109569039D01*
X101638959Y-109957423D01*
X102014866Y-110372389D01*
X102263367Y-110490000D01*
X102014866Y-110607611D01*
X101638959Y-111022577D01*
X101478096Y-111410961D01*
X101600084Y-111632998D01*
X101454578Y-111632998D01*
X101215000Y-111393420D01*
X101215000Y-109220005D01*
X101215001Y-109220000D01*
X101147633Y-108881325D01*
X101073248Y-108770000D01*
X100955790Y-108594210D01*
X100955787Y-108594208D01*
X99685790Y-107324210D01*
X99658222Y-107305790D01*
X99398675Y-107132367D01*
X99342484Y-107121190D01*
X99123058Y-107077542D01*
X99145294Y-106965750D01*
X101435000Y-106965750D01*
X101435000Y-107606310D01*
X101531673Y-107839699D01*
X101710302Y-108018327D01*
X101943691Y-108115000D01*
X101971938Y-108115000D01*
X101638959Y-108482577D01*
X101478096Y-108870961D01*
X101600085Y-109093000D01*
X102743000Y-109093000D01*
X102743000Y-106807000D01*
X102997000Y-106807000D01*
X102997000Y-109093000D01*
X104139915Y-109093000D01*
X104261904Y-108870961D01*
X104101041Y-108482577D01*
X103768062Y-108115000D01*
X103796309Y-108115000D01*
X104029698Y-108018327D01*
X104208327Y-107839699D01*
X104305000Y-107606310D01*
X104305000Y-106965750D01*
X104146250Y-106807000D01*
X102997000Y-106807000D01*
X102743000Y-106807000D01*
X101593750Y-106807000D01*
X101435000Y-106965750D01*
X99145294Y-106965750D01*
X99202134Y-106680000D01*
X99119543Y-106264788D01*
X98884345Y-105912789D01*
X98646237Y-105753690D01*
X101435000Y-105753690D01*
X101435000Y-106394250D01*
X101593750Y-106553000D01*
X102743000Y-106553000D01*
X102743000Y-105403750D01*
X102997000Y-105403750D01*
X102997000Y-106553000D01*
X104146250Y-106553000D01*
X104305000Y-106394250D01*
X104305000Y-105753690D01*
X104208327Y-105520301D01*
X104029698Y-105341673D01*
X103796309Y-105245000D01*
X103155750Y-105245000D01*
X102997000Y-105403750D01*
X102743000Y-105403750D01*
X102584250Y-105245000D01*
X101943691Y-105245000D01*
X101710302Y-105341673D01*
X101531673Y-105520301D01*
X101435000Y-105753690D01*
X98646237Y-105753690D01*
X98532346Y-105677591D01*
X98117134Y-105595000D01*
X97462866Y-105595000D01*
X97047654Y-105677591D01*
X96871939Y-105795000D01*
X95250000Y-105795000D01*
X94911325Y-105862367D01*
X94624210Y-106054210D01*
X94624208Y-106054213D01*
X92793348Y-107885072D01*
X92445617Y-107884769D01*
X91954771Y-108087582D01*
X91706921Y-108335000D01*
X91172873Y-108335000D01*
X90927204Y-108088902D01*
X90436713Y-107885232D01*
X89905617Y-107884769D01*
X89414771Y-108087582D01*
X89038902Y-108462796D01*
X88835232Y-108953287D01*
X88834769Y-109484383D01*
X89037582Y-109975229D01*
X89412796Y-110351098D01*
X89735788Y-110485216D01*
X89659118Y-110500467D01*
X89226012Y-110789858D01*
X88936621Y-111222964D01*
X88835000Y-111733846D01*
X88835000Y-111786154D01*
X88936621Y-112297036D01*
X89226012Y-112730142D01*
X89659118Y-113019533D01*
X89764404Y-113040476D01*
X89632964Y-113066621D01*
X89199858Y-113356012D01*
X88910467Y-113789118D01*
X88808846Y-114300000D01*
X83518736Y-114300000D01*
X82542271Y-113323535D01*
X82550000Y-113325072D01*
X82997740Y-113236011D01*
X83185000Y-113110888D01*
X83372260Y-113236011D01*
X83820000Y-113325072D01*
X84267740Y-113236011D01*
X84274835Y-113231271D01*
X84428691Y-113295000D01*
X84804250Y-113295000D01*
X84963000Y-113136250D01*
X84963000Y-112290810D01*
X84990000Y-112155072D01*
X84990000Y-111364928D01*
X84963000Y-111229190D01*
X84963000Y-110383750D01*
X84804250Y-110225000D01*
X84705000Y-110225000D01*
X84705000Y-107546580D01*
X85475000Y-108316579D01*
X85475000Y-110225000D01*
X85375750Y-110225000D01*
X85217000Y-110383750D01*
X85217000Y-111229190D01*
X85190000Y-111364928D01*
X85190000Y-112155072D01*
X85217000Y-112290810D01*
X85217000Y-113136250D01*
X85375750Y-113295000D01*
X85751309Y-113295000D01*
X85905165Y-113231271D01*
X85912260Y-113236011D01*
X86360000Y-113325072D01*
X86807740Y-113236011D01*
X87187315Y-112982387D01*
X87440939Y-112602812D01*
X87530000Y-112155072D01*
X87530000Y-111364928D01*
X87440939Y-110917188D01*
X87245000Y-110623945D01*
X87245000Y-108182208D01*
X87323330Y-108214733D01*
X87933991Y-108215265D01*
X88498371Y-107982068D01*
X88930551Y-107550643D01*
X89164733Y-106986670D01*
X89165265Y-106376009D01*
X88932068Y-105811629D01*
X88500643Y-105379449D01*
X88479806Y-105370797D01*
X88530554Y-105220159D01*
X87630000Y-104319605D01*
X86729446Y-105220159D01*
X86780035Y-105370327D01*
X86761629Y-105377932D01*
X86329449Y-105809357D01*
X86095267Y-106373330D01*
X86095214Y-106433635D01*
X85975000Y-106313420D01*
X85975000Y-100700000D01*
X86082560Y-100700000D01*
X86082560Y-102500000D01*
X86126838Y-102735317D01*
X86265910Y-102951441D01*
X86469574Y-103090598D01*
X86435282Y-103124890D01*
X86549839Y-103239447D01*
X86293357Y-103325852D01*
X86083542Y-103899336D01*
X86109161Y-104509460D01*
X86293357Y-104954148D01*
X86549841Y-105040554D01*
X87450395Y-104140000D01*
X87436253Y-104125858D01*
X87615858Y-103946253D01*
X87630000Y-103960395D01*
X87644143Y-103946253D01*
X87823748Y-104125858D01*
X87809605Y-104140000D01*
X88710159Y-105040554D01*
X88966643Y-104954148D01*
X89176458Y-104380664D01*
X89150839Y-103770540D01*
X88966643Y-103325852D01*
X88710161Y-103239447D01*
X88824718Y-103124890D01*
X88788240Y-103088412D01*
X88981441Y-102964090D01*
X89126431Y-102751890D01*
X89177440Y-102500000D01*
X89177440Y-100700000D01*
X89133162Y-100464683D01*
X89046496Y-100330000D01*
X96393000Y-100330000D01*
X96393000Y-104140000D01*
X96401685Y-104186159D01*
X96428965Y-104228553D01*
X96470590Y-104256994D01*
X96520000Y-104267000D01*
X99060000Y-104267000D01*
X99106159Y-104258315D01*
X99148553Y-104231035D01*
X99176994Y-104189410D01*
X99187000Y-104140000D01*
X99187000Y-101949039D01*
X101478096Y-101949039D01*
X101638959Y-102337423D01*
X102014866Y-102752389D01*
X102520959Y-102991914D01*
X102743000Y-102870629D01*
X102743000Y-101727000D01*
X102997000Y-101727000D01*
X102997000Y-102870629D01*
X103219041Y-102991914D01*
X103725134Y-102752389D01*
X104101041Y-102337423D01*
X104261904Y-101949039D01*
X104139915Y-101727000D01*
X102997000Y-101727000D01*
X102743000Y-101727000D01*
X101600085Y-101727000D01*
X101478096Y-101949039D01*
X99187000Y-101949039D01*
X99187000Y-100330000D01*
X99178315Y-100283841D01*
X99151035Y-100241447D01*
X99109410Y-100213006D01*
X99060000Y-100203000D01*
X96520000Y-100203000D01*
X96473841Y-100211685D01*
X96431447Y-100238965D01*
X96403006Y-100280590D01*
X96393000Y-100330000D01*
X89046496Y-100330000D01*
X88994090Y-100248559D01*
X88781890Y-100103569D01*
X88530000Y-100052560D01*
X86730000Y-100052560D01*
X86494683Y-100096838D01*
X86278559Y-100235910D01*
X86133569Y-100448110D01*
X86082560Y-100700000D01*
X85975000Y-100700000D01*
X85975000Y-99426580D01*
X87325829Y-98075750D01*
X89905000Y-98075750D01*
X89905000Y-98816310D01*
X90001673Y-99049699D01*
X90180302Y-99228327D01*
X90413691Y-99325000D01*
X91154250Y-99325000D01*
X91313000Y-99166250D01*
X91313000Y-97917000D01*
X90063750Y-97917000D01*
X89905000Y-98075750D01*
X87325829Y-98075750D01*
X88637889Y-96763690D01*
X89905000Y-96763690D01*
X89905000Y-97504250D01*
X90063750Y-97663000D01*
X91313000Y-97663000D01*
X91313000Y-96413750D01*
X91154250Y-96255000D01*
X90413691Y-96255000D01*
X90180302Y-96351673D01*
X90001673Y-96530301D01*
X89905000Y-96763690D01*
X88637889Y-96763690D01*
X91064687Y-94336892D01*
X95078514Y-94336892D01*
X95324817Y-94861358D01*
X95753076Y-95251645D01*
X96163110Y-95421476D01*
X96393000Y-95300155D01*
X96393000Y-94107000D01*
X95199181Y-94107000D01*
X95078514Y-94336892D01*
X91064687Y-94336892D01*
X91778471Y-93623108D01*
X95078514Y-93623108D01*
X95199181Y-93853000D01*
X96393000Y-93853000D01*
X96393000Y-92659845D01*
X96163110Y-92538524D01*
X95753076Y-92708355D01*
X95324817Y-93098642D01*
X95078514Y-93623108D01*
X91778471Y-93623108D01*
X94346579Y-91055000D01*
X103003945Y-91055000D01*
X103297188Y-91250939D01*
X103744928Y-91340000D01*
X104535072Y-91340000D01*
X104982812Y-91250939D01*
X105362387Y-90997315D01*
X105616011Y-90617740D01*
X105705072Y-90170000D01*
X105616011Y-89722260D01*
X105611271Y-89715165D01*
X105675000Y-89561309D01*
X105675000Y-89185750D01*
X105516250Y-89027000D01*
X104670810Y-89027000D01*
X104535072Y-89000000D01*
X103744928Y-89000000D01*
X103609190Y-89027000D01*
X102763750Y-89027000D01*
X102605000Y-89185750D01*
X102605000Y-89285000D01*
X94846579Y-89285000D01*
X95616579Y-88515000D01*
X102605000Y-88515000D01*
X102605000Y-88614250D01*
X102605000Y-88614250D01*
G37*
X102605000Y-88614250D02*
X102763750Y-88773000D01*
X103609190Y-88773000D01*
X103744928Y-88800000D01*
X104535072Y-88800000D01*
X104670810Y-88773000D01*
X105516250Y-88773000D01*
X105675000Y-88614250D01*
X105675000Y-88515000D01*
X117743420Y-88515000D01*
X124845000Y-95616579D01*
X124845000Y-95653421D01*
X118735790Y-89544210D01*
X118486750Y-89377808D01*
X118448675Y-89352367D01*
X118392484Y-89341190D01*
X118110000Y-89284999D01*
X118109995Y-89285000D01*
X117146822Y-89285000D01*
X117026799Y-89235162D01*
X116654833Y-89234838D01*
X116311057Y-89376883D01*
X116047808Y-89639673D01*
X115905162Y-89983201D01*
X115904838Y-90355167D01*
X116046883Y-90698943D01*
X116309673Y-90962192D01*
X116653201Y-91104838D01*
X117025167Y-91105162D01*
X117146569Y-91055000D01*
X117743420Y-91055000D01*
X123575000Y-96886579D01*
X123575000Y-117743421D01*
X122169259Y-119149161D01*
X122197440Y-119010000D01*
X122197440Y-117210000D01*
X122153162Y-116974683D01*
X122014090Y-116758559D01*
X121810426Y-116619402D01*
X121844718Y-116585110D01*
X121730161Y-116470553D01*
X121986643Y-116384148D01*
X122196458Y-115810664D01*
X122170839Y-115200540D01*
X121986643Y-114755852D01*
X121730159Y-114669446D01*
X120829605Y-115570000D01*
X120843748Y-115584143D01*
X120664143Y-115763748D01*
X120650000Y-115749605D01*
X120635858Y-115763748D01*
X120456253Y-115584143D01*
X120470395Y-115570000D01*
X119569841Y-114669446D01*
X119313357Y-114755852D01*
X119103542Y-115329336D01*
X119129161Y-115939460D01*
X119313357Y-116384148D01*
X119569839Y-116470553D01*
X119455282Y-116585110D01*
X119491760Y-116621588D01*
X119298559Y-116745910D01*
X119153569Y-116958110D01*
X119102560Y-117210000D01*
X119102560Y-117350000D01*
X111851668Y-117350000D01*
X111953113Y-116840000D01*
X111843880Y-116290849D01*
X111532811Y-115825302D01*
X111150725Y-115570000D01*
X111532811Y-115314698D01*
X111843880Y-114849151D01*
X111953113Y-114300000D01*
X111843880Y-113750849D01*
X111532811Y-113285302D01*
X111150725Y-113030000D01*
X112903000Y-113030000D01*
X112903000Y-115570000D01*
X112911685Y-115616159D01*
X112938965Y-115658553D01*
X112980590Y-115686994D01*
X113030000Y-115697000D01*
X115570000Y-115697000D01*
X115616159Y-115688315D01*
X115658553Y-115661035D01*
X115686994Y-115619410D01*
X115697000Y-115570000D01*
X115697000Y-113333991D01*
X119114735Y-113333991D01*
X119347932Y-113898371D01*
X119779357Y-114330551D01*
X119800194Y-114339203D01*
X119749446Y-114489841D01*
X120650000Y-115390395D01*
X121550554Y-114489841D01*
X121499965Y-114339673D01*
X121518371Y-114332068D01*
X121950551Y-113900643D01*
X122184733Y-113336670D01*
X122185265Y-112726009D01*
X121952068Y-112161629D01*
X121520643Y-111729449D01*
X120956670Y-111495267D01*
X120346009Y-111494735D01*
X119781629Y-111727932D01*
X119349449Y-112159357D01*
X119115267Y-112723330D01*
X119114735Y-113333991D01*
X115697000Y-113333991D01*
X115697000Y-113030000D01*
X115688315Y-112983841D01*
X115661035Y-112941447D01*
X115619410Y-112913006D01*
X115570000Y-112903000D01*
X113030000Y-112903000D01*
X112983841Y-112911685D01*
X112941447Y-112938965D01*
X112913006Y-112980590D01*
X112903000Y-113030000D01*
X111150725Y-113030000D01*
X111532811Y-112774698D01*
X111702995Y-112520000D01*
X113030000Y-112520000D01*
X113320839Y-112462148D01*
X113567401Y-112297401D01*
X116856366Y-109008436D01*
X117182637Y-109335278D01*
X117783352Y-109584716D01*
X118433795Y-109585284D01*
X119034943Y-109336894D01*
X119269715Y-109102532D01*
X119677073Y-109102532D01*
X119775736Y-109369387D01*
X120385461Y-109595908D01*
X121035460Y-109571856D01*
X121524264Y-109369387D01*
X121622927Y-109102532D01*
X120650000Y-108129605D01*
X119677073Y-109102532D01*
X119269715Y-109102532D01*
X119462562Y-108910022D01*
X119497468Y-108922927D01*
X120470395Y-107950000D01*
X120456253Y-107935858D01*
X120635858Y-107756253D01*
X120650000Y-107770395D01*
X120664143Y-107756253D01*
X120843748Y-107935858D01*
X120829605Y-107950000D01*
X121802532Y-108922927D01*
X122069387Y-108824264D01*
X122295908Y-108214539D01*
X122271856Y-107564540D01*
X122069387Y-107075736D01*
X121890727Y-107009681D01*
X122101441Y-106874090D01*
X122246431Y-106661890D01*
X122297440Y-106410000D01*
X122297440Y-104410000D01*
X122253162Y-104174683D01*
X122114090Y-103958559D01*
X121901890Y-103813569D01*
X121650000Y-103762560D01*
X119650000Y-103762560D01*
X119414683Y-103806838D01*
X119198559Y-103945910D01*
X119101090Y-104088561D01*
X119037363Y-104024722D01*
X118436648Y-103775284D01*
X117786205Y-103774716D01*
X117185057Y-104023106D01*
X116724722Y-104482637D01*
X116475284Y-105083352D01*
X116474716Y-105733795D01*
X116723106Y-106334943D01*
X117067759Y-106680199D01*
X116724722Y-107022637D01*
X116638591Y-107230063D01*
X116549161Y-107247852D01*
X116302599Y-107412599D01*
X112715198Y-111000000D01*
X111702995Y-111000000D01*
X111532811Y-110745302D01*
X111150725Y-110490000D01*
X111532811Y-110234698D01*
X111843880Y-109769151D01*
X111953113Y-109220000D01*
X111843880Y-108670849D01*
X111532811Y-108205302D01*
X111150725Y-107950000D01*
X111532811Y-107694698D01*
X111843880Y-107229151D01*
X111953113Y-106680000D01*
X111843880Y-106130849D01*
X111532811Y-105665302D01*
X111067264Y-105354233D01*
X110518113Y-105245000D01*
X110461887Y-105245000D01*
X109912736Y-105354233D01*
X109447189Y-105665302D01*
X109136120Y-106130849D01*
X109026887Y-106680000D01*
X109136120Y-107229151D01*
X109447189Y-107694698D01*
X109829275Y-107950000D01*
X109447189Y-108205302D01*
X109136120Y-108670849D01*
X109026887Y-109220000D01*
X109136120Y-109769151D01*
X109447189Y-110234698D01*
X109829275Y-110490000D01*
X109447189Y-110745302D01*
X109380264Y-110845462D01*
X108710000Y-110175198D01*
X108710000Y-98104802D01*
X109380264Y-97434538D01*
X109447189Y-97534698D01*
X109829275Y-97790000D01*
X109447189Y-98045302D01*
X109136120Y-98510849D01*
X109026887Y-99060000D01*
X109136120Y-99609151D01*
X109447189Y-100074698D01*
X109829275Y-100330000D01*
X109447189Y-100585302D01*
X109136120Y-101050849D01*
X109026887Y-101600000D01*
X109136120Y-102149151D01*
X109447189Y-102614698D01*
X109912736Y-102925767D01*
X110461887Y-103035000D01*
X110518113Y-103035000D01*
X111067264Y-102925767D01*
X111532811Y-102614698D01*
X111843880Y-102149151D01*
X111953113Y-101600000D01*
X111843880Y-101050849D01*
X111553156Y-100615750D01*
X119115000Y-100615750D01*
X119115000Y-101356309D01*
X119211673Y-101589698D01*
X119390301Y-101768327D01*
X119623690Y-101865000D01*
X120364250Y-101865000D01*
X120523000Y-101706250D01*
X120523000Y-100457000D01*
X120777000Y-100457000D01*
X120777000Y-101706250D01*
X120935750Y-101865000D01*
X121676310Y-101865000D01*
X121909699Y-101768327D01*
X122088327Y-101589698D01*
X122185000Y-101356309D01*
X122185000Y-100615750D01*
X122026250Y-100457000D01*
X120777000Y-100457000D01*
X120523000Y-100457000D01*
X119273750Y-100457000D01*
X119115000Y-100615750D01*
X111553156Y-100615750D01*
X111532811Y-100585302D01*
X111150725Y-100330000D01*
X111532811Y-100074698D01*
X111619473Y-99945000D01*
X112027127Y-99945000D01*
X112272796Y-100191098D01*
X112763287Y-100394768D01*
X113294383Y-100395231D01*
X113785229Y-100192418D01*
X114161098Y-99817204D01*
X114295216Y-99494212D01*
X114310467Y-99570882D01*
X114599858Y-100003988D01*
X115032964Y-100293379D01*
X115543846Y-100395000D01*
X115596154Y-100395000D01*
X116107036Y-100293379D01*
X116540142Y-100003988D01*
X116579556Y-99945000D01*
X116839995Y-99945000D01*
X116840000Y-99945001D01*
X117122484Y-99888810D01*
X117178675Y-99877633D01*
X117465790Y-99685790D01*
X118476579Y-98675000D01*
X119364532Y-98675000D01*
X119525092Y-98835841D01*
X119390301Y-98891673D01*
X119211673Y-99070302D01*
X119115000Y-99303691D01*
X119115000Y-100044250D01*
X119273750Y-100203000D01*
X120523000Y-100203000D01*
X120523000Y-100183000D01*
X120777000Y-100183000D01*
X120777000Y-100203000D01*
X122026250Y-100203000D01*
X122185000Y-100044250D01*
X122185000Y-99303691D01*
X122088327Y-99070302D01*
X121909699Y-98891673D01*
X121775006Y-98835881D01*
X121950551Y-98660643D01*
X122184733Y-98096670D01*
X122185265Y-97486009D01*
X121952068Y-96921629D01*
X121520643Y-96489449D01*
X120956670Y-96255267D01*
X120346009Y-96254735D01*
X119781629Y-96487932D01*
X119363831Y-96905000D01*
X118110005Y-96905000D01*
X118110000Y-96904999D01*
X117771325Y-96972367D01*
X117484210Y-97164210D01*
X117484208Y-97164213D01*
X116535506Y-98112914D01*
X116107036Y-97826621D01*
X115596154Y-97725000D01*
X115543846Y-97725000D01*
X115032964Y-97826621D01*
X114599858Y-98116012D01*
X114310467Y-98549118D01*
X114295165Y-98626045D01*
X114162418Y-98304771D01*
X113787204Y-97928902D01*
X113296713Y-97725232D01*
X112765617Y-97724769D01*
X112274771Y-97927582D01*
X112026921Y-98175000D01*
X111619473Y-98175000D01*
X111532811Y-98045302D01*
X111150725Y-97790000D01*
X111532811Y-97534698D01*
X111843880Y-97069151D01*
X111953113Y-96520000D01*
X111843880Y-95970849D01*
X111532811Y-95505302D01*
X111150725Y-95250000D01*
X111532811Y-94994698D01*
X111843880Y-94529151D01*
X111953113Y-93980000D01*
X111843880Y-93430849D01*
X111532811Y-92965302D01*
X111067264Y-92654233D01*
X110518113Y-92545000D01*
X110461887Y-92545000D01*
X109912736Y-92654233D01*
X109447189Y-92965302D01*
X109136120Y-93430849D01*
X109026887Y-93980000D01*
X109136120Y-94529151D01*
X109447189Y-94994698D01*
X109829275Y-95250000D01*
X109447189Y-95505302D01*
X109277005Y-95760000D01*
X109220000Y-95760000D01*
X108929160Y-95817852D01*
X108682599Y-95982599D01*
X107412599Y-97252599D01*
X107247852Y-97499161D01*
X107190000Y-97790000D01*
X107190000Y-110490000D01*
X107247852Y-110780839D01*
X107412599Y-111027401D01*
X108682599Y-112297401D01*
X108929160Y-112462148D01*
X109220000Y-112520000D01*
X109277005Y-112520000D01*
X109447189Y-112774698D01*
X109829275Y-113030000D01*
X109447189Y-113285302D01*
X109136120Y-113750849D01*
X109026887Y-114300000D01*
X109136120Y-114849151D01*
X109447189Y-115314698D01*
X109829275Y-115570000D01*
X109447189Y-115825302D01*
X109136120Y-116290849D01*
X109026887Y-116840000D01*
X109128332Y-117350000D01*
X108264802Y-117350000D01*
X106170000Y-115255198D01*
X106170000Y-101600000D01*
X106112148Y-101309161D01*
X106112148Y-101309160D01*
X105947401Y-101062599D01*
X104268688Y-99383886D01*
X104333113Y-99060000D01*
X104223880Y-98510849D01*
X103912811Y-98045302D01*
X103530725Y-97790000D01*
X103912811Y-97534698D01*
X104223880Y-97069151D01*
X104333113Y-96520000D01*
X104223880Y-95970849D01*
X103912811Y-95505302D01*
X103768535Y-95408899D01*
X103905317Y-95383162D01*
X104121441Y-95244090D01*
X104266431Y-95031890D01*
X104317440Y-94780000D01*
X104317440Y-93180000D01*
X104273162Y-92944683D01*
X104134090Y-92728559D01*
X103921890Y-92583569D01*
X103670000Y-92532560D01*
X102070000Y-92532560D01*
X101834683Y-92576838D01*
X101618559Y-92715910D01*
X101473569Y-92928110D01*
X101439773Y-93095000D01*
X100550854Y-93095000D01*
X100513162Y-92894683D01*
X100374090Y-92678559D01*
X100161890Y-92533569D01*
X99910000Y-92482560D01*
X98210000Y-92482560D01*
X97974683Y-92526838D01*
X97758559Y-92665910D01*
X97613569Y-92878110D01*
X97591699Y-92986107D01*
X97286924Y-92708355D01*
X96876890Y-92538524D01*
X96647000Y-92659845D01*
X96647000Y-93853000D01*
X96667000Y-93853000D01*
X96667000Y-94107000D01*
X96647000Y-94107000D01*
X96647000Y-95300155D01*
X96876890Y-95421476D01*
X97286924Y-95251645D01*
X97589937Y-94975499D01*
X97606838Y-95065317D01*
X97692929Y-95199106D01*
X97252964Y-95286621D01*
X96819858Y-95576012D01*
X96780444Y-95635000D01*
X95250005Y-95635000D01*
X95250000Y-95634999D01*
X94911325Y-95702367D01*
X94624210Y-95894210D01*
X94624208Y-95894213D01*
X94263174Y-96255247D01*
X93676009Y-96254735D01*
X93111629Y-96487932D01*
X92934159Y-96665092D01*
X92878327Y-96530301D01*
X92699698Y-96351673D01*
X92466309Y-96255000D01*
X91725750Y-96255000D01*
X91567000Y-96413750D01*
X91567000Y-97663000D01*
X91587000Y-97663000D01*
X91587000Y-97917000D01*
X91567000Y-97917000D01*
X91567000Y-99166250D01*
X91725750Y-99325000D01*
X92466309Y-99325000D01*
X92699698Y-99228327D01*
X92878327Y-99049699D01*
X92934119Y-98915006D01*
X93109357Y-99090551D01*
X93673330Y-99324733D01*
X94283991Y-99325265D01*
X94848371Y-99092068D01*
X95280551Y-98660643D01*
X95514733Y-98096670D01*
X95515247Y-97506332D01*
X95616579Y-97405000D01*
X96780444Y-97405000D01*
X96819858Y-97463988D01*
X97252964Y-97753379D01*
X97763846Y-97855000D01*
X97816154Y-97855000D01*
X98327036Y-97753379D01*
X98760142Y-97463988D01*
X99049533Y-97030882D01*
X99064835Y-96953955D01*
X99197582Y-97275229D01*
X99572796Y-97651098D01*
X100063287Y-97854768D01*
X100594383Y-97855231D01*
X101085229Y-97652418D01*
X101333079Y-97405000D01*
X101740527Y-97405000D01*
X101827189Y-97534698D01*
X102209275Y-97790000D01*
X101827189Y-98045302D01*
X101516120Y-98510849D01*
X101406887Y-99060000D01*
X101516120Y-99609151D01*
X101827189Y-100074698D01*
X102231703Y-100344986D01*
X102014866Y-100447611D01*
X101638959Y-100862577D01*
X101478096Y-101250961D01*
X101600085Y-101473000D01*
X102743000Y-101473000D01*
X102743000Y-101453000D01*
X102997000Y-101453000D01*
X102997000Y-101473000D01*
X104139915Y-101473000D01*
X104164127Y-101428929D01*
X104650000Y-101914802D01*
X104650000Y-115570000D01*
X104707852Y-115860839D01*
X104872599Y-116107401D01*
X107412599Y-118647401D01*
X107659160Y-118812148D01*
X107707414Y-118821746D01*
X107950000Y-118870000D01*
X109128332Y-118870000D01*
X109026887Y-119380000D01*
X109136120Y-119929151D01*
X109447189Y-120394698D01*
X109829275Y-120650000D01*
X109447189Y-120905302D01*
X109136120Y-121370849D01*
X109026887Y-121920000D01*
X109136120Y-122469151D01*
X109447189Y-122934698D01*
X109829275Y-123190000D01*
X109447189Y-123445302D01*
X109136120Y-123910849D01*
X109026887Y-124460000D01*
X109136120Y-125009151D01*
X109447189Y-125474698D01*
X109912736Y-125785767D01*
X110461887Y-125895000D01*
X110518113Y-125895000D01*
X111067264Y-125785767D01*
X111532811Y-125474698D01*
X111843880Y-125009151D01*
X111953113Y-124460000D01*
X111843880Y-123910849D01*
X111532811Y-123445302D01*
X111150725Y-123190000D01*
X111532811Y-122934698D01*
X111843880Y-122469151D01*
X111953113Y-121920000D01*
X111843880Y-121370849D01*
X111532811Y-120905302D01*
X111150725Y-120650000D01*
X111532811Y-120394698D01*
X111843880Y-119929151D01*
X111953113Y-119380000D01*
X111851668Y-118870000D01*
X119102560Y-118870000D01*
X119102560Y-119010000D01*
X119146838Y-119245317D01*
X119285910Y-119461441D01*
X119498110Y-119606431D01*
X119750000Y-119657440D01*
X121550000Y-119657440D01*
X121686703Y-119631718D01*
X120283420Y-121035000D01*
X117976055Y-121035000D01*
X117682812Y-120839061D01*
X117235072Y-120750000D01*
X116444928Y-120750000D01*
X115997188Y-120839061D01*
X115617613Y-121092685D01*
X115363989Y-121472260D01*
X115274928Y-121920000D01*
X115363989Y-122367740D01*
X115368729Y-122374835D01*
X115305000Y-122528691D01*
X115305000Y-122904250D01*
X115463750Y-123063000D01*
X116309190Y-123063000D01*
X116444928Y-123090000D01*
X117235072Y-123090000D01*
X117370810Y-123063000D01*
X118216250Y-123063000D01*
X118375000Y-122904250D01*
X118375000Y-122805000D01*
X119783420Y-122805000D01*
X119013420Y-123575000D01*
X118375000Y-123575000D01*
X118375000Y-123475750D01*
X118216250Y-123317000D01*
X117370810Y-123317000D01*
X117235072Y-123290000D01*
X116444928Y-123290000D01*
X116309190Y-123317000D01*
X115463750Y-123317000D01*
X115305000Y-123475750D01*
X115305000Y-123851309D01*
X115368729Y-124005165D01*
X115363989Y-124012260D01*
X115274928Y-124460000D01*
X115363989Y-124907740D01*
X115489112Y-125095000D01*
X115363989Y-125282260D01*
X115274928Y-125730000D01*
X115363989Y-126177740D01*
X115455703Y-126315000D01*
X95533736Y-126315000D01*
X94027775Y-124809039D01*
X101478096Y-124809039D01*
X101638959Y-125197423D01*
X102014866Y-125612389D01*
X102520959Y-125851914D01*
X102743000Y-125730629D01*
X102743000Y-124587000D01*
X102997000Y-124587000D01*
X102997000Y-125730629D01*
X103219041Y-125851914D01*
X103725134Y-125612389D01*
X104101041Y-125197423D01*
X104261904Y-124809039D01*
X104139915Y-124587000D01*
X102997000Y-124587000D01*
X102743000Y-124587000D01*
X101600085Y-124587000D01*
X101478096Y-124809039D01*
X94027775Y-124809039D01*
X83518736Y-114300000D01*
X88808846Y-114300000D01*
X88910467Y-114810882D01*
X89199858Y-115243988D01*
X89632964Y-115533379D01*
X90143846Y-115635000D01*
X90196154Y-115635000D01*
X90707036Y-115533379D01*
X91140142Y-115243988D01*
X91429533Y-114810882D01*
X91444835Y-114733955D01*
X91577582Y-115055229D01*
X91952796Y-115431098D01*
X92275788Y-115565216D01*
X92199118Y-115580467D01*
X91766012Y-115869858D01*
X91476621Y-116302964D01*
X91375000Y-116813846D01*
X91375000Y-116866154D01*
X91476621Y-117377036D01*
X91766012Y-117810142D01*
X92199118Y-118099533D01*
X92276045Y-118114835D01*
X91954771Y-118247582D01*
X91578902Y-118622796D01*
X91375232Y-119113287D01*
X91374769Y-119644383D01*
X91577582Y-120135229D01*
X91952796Y-120511098D01*
X92443287Y-120714768D01*
X92974383Y-120715231D01*
X93465229Y-120512418D01*
X93713079Y-120265000D01*
X96454447Y-120265000D01*
X96377866Y-120650000D01*
X96460457Y-121065212D01*
X96503759Y-121130019D01*
X96443569Y-121218110D01*
X96392560Y-121470000D01*
X96392560Y-122370000D01*
X96436838Y-122605317D01*
X96575910Y-122821441D01*
X96788110Y-122966431D01*
X97040000Y-123017440D01*
X98540000Y-123017440D01*
X98775317Y-122973162D01*
X98991441Y-122834090D01*
X99136431Y-122621890D01*
X99187440Y-122370000D01*
X99187440Y-121535000D01*
X100329995Y-121535000D01*
X100330000Y-121535001D01*
X100612484Y-121478810D01*
X100668675Y-121467633D01*
X100955790Y-121275790D01*
X101832999Y-120398580D01*
X102209275Y-120650000D01*
X101827189Y-120905302D01*
X101516120Y-121370849D01*
X101406887Y-121920000D01*
X101516120Y-122469151D01*
X101827189Y-122934698D01*
X102231703Y-123204986D01*
X102014866Y-123307611D01*
X101638959Y-123722577D01*
X101478096Y-124110961D01*
X101600085Y-124333000D01*
X102743000Y-124333000D01*
X102743000Y-124313000D01*
X102997000Y-124313000D01*
X102997000Y-124333000D01*
X104139915Y-124333000D01*
X104261904Y-124110961D01*
X104101041Y-123722577D01*
X103725134Y-123307611D01*
X103508297Y-123204986D01*
X103912811Y-122934698D01*
X104223880Y-122469151D01*
X104333113Y-121920000D01*
X104223880Y-121370849D01*
X103912811Y-120905302D01*
X103530725Y-120650000D01*
X103912811Y-120394698D01*
X104223880Y-119929151D01*
X104333113Y-119380000D01*
X104223880Y-118830849D01*
X103912811Y-118365302D01*
X103530725Y-118110000D01*
X103912811Y-117854698D01*
X104223880Y-117389151D01*
X104333113Y-116840000D01*
X104223880Y-116290849D01*
X103912811Y-115825302D01*
X103530725Y-115570000D01*
X103912811Y-115314698D01*
X104223880Y-114849151D01*
X104333113Y-114300000D01*
X104223880Y-113750849D01*
X103912811Y-113285302D01*
X103508297Y-113015014D01*
X103725134Y-112912389D01*
X104101041Y-112497423D01*
X104261904Y-112109039D01*
X104139915Y-111887000D01*
X102997000Y-111887000D01*
X102997000Y-111907000D01*
X102743000Y-111907000D01*
X102743000Y-111887000D01*
X102723000Y-111887000D01*
X102723000Y-111633000D01*
X102743000Y-111633000D01*
X102743000Y-109347000D01*
X102997000Y-109347000D01*
X102997000Y-111633000D01*
X104139915Y-111633000D01*
X104261904Y-111410961D01*
X104101041Y-111022577D01*
X103725134Y-110607611D01*
X103476633Y-110490000D01*
X103725134Y-110372389D01*
X104101041Y-109957423D01*
X104261904Y-109569039D01*
X104139915Y-109347000D01*
X102997000Y-109347000D01*
X102743000Y-109347000D01*
X101600085Y-109347000D01*
X101478096Y-109569039D01*
X101638959Y-109957423D01*
X102014866Y-110372389D01*
X102263367Y-110490000D01*
X102014866Y-110607611D01*
X101638959Y-111022577D01*
X101478096Y-111410961D01*
X101600084Y-111632998D01*
X101454578Y-111632998D01*
X101215000Y-111393420D01*
X101215000Y-109220005D01*
X101215001Y-109220000D01*
X101147633Y-108881325D01*
X101073248Y-108770000D01*
X100955790Y-108594210D01*
X100955787Y-108594208D01*
X99685790Y-107324210D01*
X99658222Y-107305790D01*
X99398675Y-107132367D01*
X99342484Y-107121190D01*
X99123058Y-107077542D01*
X99145294Y-106965750D01*
X101435000Y-106965750D01*
X101435000Y-107606310D01*
X101531673Y-107839699D01*
X101710302Y-108018327D01*
X101943691Y-108115000D01*
X101971938Y-108115000D01*
X101638959Y-108482577D01*
X101478096Y-108870961D01*
X101600085Y-109093000D01*
X102743000Y-109093000D01*
X102743000Y-106807000D01*
X102997000Y-106807000D01*
X102997000Y-109093000D01*
X104139915Y-109093000D01*
X104261904Y-108870961D01*
X104101041Y-108482577D01*
X103768062Y-108115000D01*
X103796309Y-108115000D01*
X104029698Y-108018327D01*
X104208327Y-107839699D01*
X104305000Y-107606310D01*
X104305000Y-106965750D01*
X104146250Y-106807000D01*
X102997000Y-106807000D01*
X102743000Y-106807000D01*
X101593750Y-106807000D01*
X101435000Y-106965750D01*
X99145294Y-106965750D01*
X99202134Y-106680000D01*
X99119543Y-106264788D01*
X98884345Y-105912789D01*
X98646237Y-105753690D01*
X101435000Y-105753690D01*
X101435000Y-106394250D01*
X101593750Y-106553000D01*
X102743000Y-106553000D01*
X102743000Y-105403750D01*
X102997000Y-105403750D01*
X102997000Y-106553000D01*
X104146250Y-106553000D01*
X104305000Y-106394250D01*
X104305000Y-105753690D01*
X104208327Y-105520301D01*
X104029698Y-105341673D01*
X103796309Y-105245000D01*
X103155750Y-105245000D01*
X102997000Y-105403750D01*
X102743000Y-105403750D01*
X102584250Y-105245000D01*
X101943691Y-105245000D01*
X101710302Y-105341673D01*
X101531673Y-105520301D01*
X101435000Y-105753690D01*
X98646237Y-105753690D01*
X98532346Y-105677591D01*
X98117134Y-105595000D01*
X97462866Y-105595000D01*
X97047654Y-105677591D01*
X96871939Y-105795000D01*
X95250000Y-105795000D01*
X94911325Y-105862367D01*
X94624210Y-106054210D01*
X94624208Y-106054213D01*
X92793348Y-107885072D01*
X92445617Y-107884769D01*
X91954771Y-108087582D01*
X91706921Y-108335000D01*
X91172873Y-108335000D01*
X90927204Y-108088902D01*
X90436713Y-107885232D01*
X89905617Y-107884769D01*
X89414771Y-108087582D01*
X89038902Y-108462796D01*
X88835232Y-108953287D01*
X88834769Y-109484383D01*
X89037582Y-109975229D01*
X89412796Y-110351098D01*
X89735788Y-110485216D01*
X89659118Y-110500467D01*
X89226012Y-110789858D01*
X88936621Y-111222964D01*
X88835000Y-111733846D01*
X88835000Y-111786154D01*
X88936621Y-112297036D01*
X89226012Y-112730142D01*
X89659118Y-113019533D01*
X89764404Y-113040476D01*
X89632964Y-113066621D01*
X89199858Y-113356012D01*
X88910467Y-113789118D01*
X88808846Y-114300000D01*
X83518736Y-114300000D01*
X82542271Y-113323535D01*
X82550000Y-113325072D01*
X82997740Y-113236011D01*
X83185000Y-113110888D01*
X83372260Y-113236011D01*
X83820000Y-113325072D01*
X84267740Y-113236011D01*
X84274835Y-113231271D01*
X84428691Y-113295000D01*
X84804250Y-113295000D01*
X84963000Y-113136250D01*
X84963000Y-112290810D01*
X84990000Y-112155072D01*
X84990000Y-111364928D01*
X84963000Y-111229190D01*
X84963000Y-110383750D01*
X84804250Y-110225000D01*
X84705000Y-110225000D01*
X84705000Y-107546580D01*
X85475000Y-108316579D01*
X85475000Y-110225000D01*
X85375750Y-110225000D01*
X85217000Y-110383750D01*
X85217000Y-111229190D01*
X85190000Y-111364928D01*
X85190000Y-112155072D01*
X85217000Y-112290810D01*
X85217000Y-113136250D01*
X85375750Y-113295000D01*
X85751309Y-113295000D01*
X85905165Y-113231271D01*
X85912260Y-113236011D01*
X86360000Y-113325072D01*
X86807740Y-113236011D01*
X87187315Y-112982387D01*
X87440939Y-112602812D01*
X87530000Y-112155072D01*
X87530000Y-111364928D01*
X87440939Y-110917188D01*
X87245000Y-110623945D01*
X87245000Y-108182208D01*
X87323330Y-108214733D01*
X87933991Y-108215265D01*
X88498371Y-107982068D01*
X88930551Y-107550643D01*
X89164733Y-106986670D01*
X89165265Y-106376009D01*
X88932068Y-105811629D01*
X88500643Y-105379449D01*
X88479806Y-105370797D01*
X88530554Y-105220159D01*
X87630000Y-104319605D01*
X86729446Y-105220159D01*
X86780035Y-105370327D01*
X86761629Y-105377932D01*
X86329449Y-105809357D01*
X86095267Y-106373330D01*
X86095214Y-106433635D01*
X85975000Y-106313420D01*
X85975000Y-100700000D01*
X86082560Y-100700000D01*
X86082560Y-102500000D01*
X86126838Y-102735317D01*
X86265910Y-102951441D01*
X86469574Y-103090598D01*
X86435282Y-103124890D01*
X86549839Y-103239447D01*
X86293357Y-103325852D01*
X86083542Y-103899336D01*
X86109161Y-104509460D01*
X86293357Y-104954148D01*
X86549841Y-105040554D01*
X87450395Y-104140000D01*
X87436253Y-104125858D01*
X87615858Y-103946253D01*
X87630000Y-103960395D01*
X87644143Y-103946253D01*
X87823748Y-104125858D01*
X87809605Y-104140000D01*
X88710159Y-105040554D01*
X88966643Y-104954148D01*
X89176458Y-104380664D01*
X89150839Y-103770540D01*
X88966643Y-103325852D01*
X88710161Y-103239447D01*
X88824718Y-103124890D01*
X88788240Y-103088412D01*
X88981441Y-102964090D01*
X89126431Y-102751890D01*
X89177440Y-102500000D01*
X89177440Y-100700000D01*
X89133162Y-100464683D01*
X89046496Y-100330000D01*
X96393000Y-100330000D01*
X96393000Y-104140000D01*
X96401685Y-104186159D01*
X96428965Y-104228553D01*
X96470590Y-104256994D01*
X96520000Y-104267000D01*
X99060000Y-104267000D01*
X99106159Y-104258315D01*
X99148553Y-104231035D01*
X99176994Y-104189410D01*
X99187000Y-104140000D01*
X99187000Y-101949039D01*
X101478096Y-101949039D01*
X101638959Y-102337423D01*
X102014866Y-102752389D01*
X102520959Y-102991914D01*
X102743000Y-102870629D01*
X102743000Y-101727000D01*
X102997000Y-101727000D01*
X102997000Y-102870629D01*
X103219041Y-102991914D01*
X103725134Y-102752389D01*
X104101041Y-102337423D01*
X104261904Y-101949039D01*
X104139915Y-101727000D01*
X102997000Y-101727000D01*
X102743000Y-101727000D01*
X101600085Y-101727000D01*
X101478096Y-101949039D01*
X99187000Y-101949039D01*
X99187000Y-100330000D01*
X99178315Y-100283841D01*
X99151035Y-100241447D01*
X99109410Y-100213006D01*
X99060000Y-100203000D01*
X96520000Y-100203000D01*
X96473841Y-100211685D01*
X96431447Y-100238965D01*
X96403006Y-100280590D01*
X96393000Y-100330000D01*
X89046496Y-100330000D01*
X88994090Y-100248559D01*
X88781890Y-100103569D01*
X88530000Y-100052560D01*
X86730000Y-100052560D01*
X86494683Y-100096838D01*
X86278559Y-100235910D01*
X86133569Y-100448110D01*
X86082560Y-100700000D01*
X85975000Y-100700000D01*
X85975000Y-99426580D01*
X87325829Y-98075750D01*
X89905000Y-98075750D01*
X89905000Y-98816310D01*
X90001673Y-99049699D01*
X90180302Y-99228327D01*
X90413691Y-99325000D01*
X91154250Y-99325000D01*
X91313000Y-99166250D01*
X91313000Y-97917000D01*
X90063750Y-97917000D01*
X89905000Y-98075750D01*
X87325829Y-98075750D01*
X88637889Y-96763690D01*
X89905000Y-96763690D01*
X89905000Y-97504250D01*
X90063750Y-97663000D01*
X91313000Y-97663000D01*
X91313000Y-96413750D01*
X91154250Y-96255000D01*
X90413691Y-96255000D01*
X90180302Y-96351673D01*
X90001673Y-96530301D01*
X89905000Y-96763690D01*
X88637889Y-96763690D01*
X91064687Y-94336892D01*
X95078514Y-94336892D01*
X95324817Y-94861358D01*
X95753076Y-95251645D01*
X96163110Y-95421476D01*
X96393000Y-95300155D01*
X96393000Y-94107000D01*
X95199181Y-94107000D01*
X95078514Y-94336892D01*
X91064687Y-94336892D01*
X91778471Y-93623108D01*
X95078514Y-93623108D01*
X95199181Y-93853000D01*
X96393000Y-93853000D01*
X96393000Y-92659845D01*
X96163110Y-92538524D01*
X95753076Y-92708355D01*
X95324817Y-93098642D01*
X95078514Y-93623108D01*
X91778471Y-93623108D01*
X94346579Y-91055000D01*
X103003945Y-91055000D01*
X103297188Y-91250939D01*
X103744928Y-91340000D01*
X104535072Y-91340000D01*
X104982812Y-91250939D01*
X105362387Y-90997315D01*
X105616011Y-90617740D01*
X105705072Y-90170000D01*
X105616011Y-89722260D01*
X105611271Y-89715165D01*
X105675000Y-89561309D01*
X105675000Y-89185750D01*
X105516250Y-89027000D01*
X104670810Y-89027000D01*
X104535072Y-89000000D01*
X103744928Y-89000000D01*
X103609190Y-89027000D01*
X102763750Y-89027000D01*
X102605000Y-89185750D01*
X102605000Y-89285000D01*
X94846579Y-89285000D01*
X95616579Y-88515000D01*
X102605000Y-88515000D01*
X102605000Y-88614250D01*
M02*
