%TF.GenerationSoftware,KiCad,Pcbnew,4.0.7-e2-6376~58~ubuntu16.04.1*%
%TF.CreationDate,2018-01-06T23:49:33+01:00*%
%TF.ProjectId,Receiver_module,52656365697665725F6D6F64756C652E,rev?*%
%TF.FileFunction,Copper,L2,Bot,Signal*%
%FSLAX46Y46*%
G04 Gerber Fmt 4.6, Leading zero omitted, Abs format (unit mm)*
G04 Created by KiCad (PCBNEW 4.0.7-e2-6376~58~ubuntu16.04.1) date Sat Jan  6 23:49:33 2018*
%MOMM*%
%LPD*%
G01*
G04 APERTURE LIST*
%ADD10C,0.100000*%
%ADD11R,1.600000X1.600000*%
%ADD12O,1.600000X1.600000*%
%ADD13R,1.800000X1.800000*%
%ADD14C,1.800000*%
%ADD15R,1.800000X1.070000*%
%ADD16O,1.800000X1.070000*%
%ADD17R,2.000000X2.000000*%
%ADD18C,2.000000*%
%ADD19C,1.400000*%
%ADD20O,1.400000X1.400000*%
%ADD21O,1.500000X0.900000*%
%ADD22R,1.500000X0.900000*%
%ADD23C,0.600000*%
%ADD24C,0.250000*%
%ADD25C,0.500000*%
%ADD26C,0.254000*%
G04 APERTURE END LIST*
D10*
X130810000Y-121920000D02*
X130810000Y-119380000D01*
X124460000Y-128270000D02*
X130810000Y-121920000D01*
X121920000Y-128270000D02*
X124460000Y-128270000D01*
X76200000Y-116840000D02*
X76200000Y-99060000D01*
X87630000Y-128270000D02*
X76200000Y-116840000D01*
X90170000Y-128270000D02*
X87630000Y-128270000D01*
X121920000Y-128270000D02*
X90170000Y-128270000D01*
X130810000Y-93980000D02*
X130810000Y-119380000D01*
X120650000Y-83820000D02*
X130810000Y-93980000D01*
X91440000Y-83820000D02*
X120650000Y-83820000D01*
X76200000Y-99060000D02*
X91440000Y-83820000D01*
D11*
X102870000Y-93980000D03*
D12*
X110490000Y-101600000D03*
X102870000Y-96520000D03*
X110490000Y-99060000D03*
X102870000Y-99060000D03*
X110490000Y-96520000D03*
X102870000Y-101600000D03*
X110490000Y-93980000D03*
D13*
X93980000Y-96520000D03*
D14*
X96520000Y-96520000D03*
D15*
X83820000Y-113030000D03*
D16*
X83820000Y-114300000D03*
X83820000Y-115570000D03*
X83820000Y-116840000D03*
D13*
X121920000Y-99060000D03*
D14*
X119380000Y-99060000D03*
D11*
X102870000Y-106680000D03*
D12*
X110490000Y-124460000D03*
X102870000Y-109220000D03*
X110490000Y-121920000D03*
X102870000Y-111760000D03*
X110490000Y-119380000D03*
X102870000Y-114300000D03*
X110490000Y-116840000D03*
X102870000Y-116840000D03*
X110490000Y-114300000D03*
X102870000Y-119380000D03*
X110490000Y-111760000D03*
X102870000Y-121920000D03*
X110490000Y-109220000D03*
X102870000Y-124460000D03*
X110490000Y-106680000D03*
D17*
X120650000Y-105410000D03*
D18*
X118110000Y-105410000D03*
X120650000Y-107950000D03*
X118110000Y-107950000D03*
D19*
X91440000Y-109220000D03*
D20*
X91440000Y-111760000D03*
D19*
X91440000Y-115570000D03*
D20*
X88900000Y-115570000D03*
D19*
X91440000Y-121920000D03*
D20*
X91440000Y-119380000D03*
D21*
X97790000Y-107950000D03*
X97790000Y-106680000D03*
D22*
X97790000Y-109220000D03*
D21*
X97790000Y-114300000D03*
X97790000Y-113030000D03*
D22*
X97790000Y-115570000D03*
D21*
X97790000Y-120650000D03*
X97790000Y-119380000D03*
D22*
X97790000Y-121920000D03*
D13*
X87630000Y-99060000D03*
D14*
X87630000Y-101600000D03*
X87630000Y-104140000D03*
D19*
X113030000Y-99060000D03*
D20*
X115570000Y-99060000D03*
D13*
X120650000Y-118110000D03*
D14*
X120650000Y-115570000D03*
X120650000Y-113030000D03*
D15*
X120650000Y-121920000D03*
D16*
X120650000Y-123190000D03*
X120650000Y-124460000D03*
X120650000Y-125730000D03*
D15*
X104140000Y-90170000D03*
D16*
X104140000Y-88900000D03*
X104140000Y-87630000D03*
X104140000Y-86360000D03*
D23*
X120650000Y-124460000D03*
D24*
X102870000Y-96520000D02*
X96520000Y-96520000D01*
X110490000Y-99060000D02*
X113030000Y-99060000D01*
X120650000Y-118110000D02*
X107950000Y-118110000D01*
X105410000Y-101600000D02*
X102870000Y-99060000D01*
X105410000Y-115570000D02*
X105410000Y-101600000D01*
X107950000Y-118110000D02*
X105410000Y-115570000D01*
X87630000Y-99060000D02*
X102870000Y-99060000D01*
X118110000Y-107950000D02*
X116840000Y-107950000D01*
X113030000Y-111760000D02*
X110490000Y-111760000D01*
X116840000Y-107950000D02*
X113030000Y-111760000D01*
X110490000Y-111760000D02*
X109220000Y-111760000D01*
X109220000Y-96520000D02*
X110490000Y-96520000D01*
X107950000Y-97790000D02*
X109220000Y-96520000D01*
X107950000Y-110490000D02*
X107950000Y-97790000D01*
X109220000Y-111760000D02*
X107950000Y-110490000D01*
D25*
X124460000Y-118110000D02*
X124460000Y-120650000D01*
X120650000Y-121920000D02*
X121920000Y-121920000D01*
X124460000Y-118110000D02*
X124460000Y-114300000D01*
X124460000Y-114300000D02*
X123190000Y-113030000D01*
X123190000Y-113030000D02*
X120650000Y-113030000D01*
X123190000Y-121920000D02*
X121920000Y-121920000D01*
X124460000Y-120650000D02*
X123190000Y-121920000D01*
X83820000Y-113030000D02*
X83820000Y-107950000D01*
X83820000Y-107950000D02*
X87630000Y-104140000D01*
X120650000Y-123190000D02*
X123190000Y-123190000D01*
X127000000Y-118110000D02*
X127000000Y-119380000D01*
X119380000Y-88900000D02*
X104140000Y-88900000D01*
X119380000Y-88900000D02*
X127000000Y-96520000D01*
X127000000Y-96520000D02*
X127000000Y-118110000D01*
X127000000Y-119380000D02*
X123190000Y-123190000D01*
X104140000Y-88900000D02*
X92710000Y-88900000D01*
X82550000Y-114300000D02*
X83820000Y-114300000D01*
X80010000Y-111760000D02*
X82550000Y-114300000D01*
X80010000Y-101600000D02*
X80010000Y-111760000D01*
X92710000Y-88900000D02*
X80010000Y-101600000D01*
X91440000Y-111760000D02*
X88900000Y-111760000D01*
X86360000Y-114300000D02*
X83820000Y-114300000D01*
X88900000Y-111760000D02*
X86360000Y-114300000D01*
X128270000Y-118110000D02*
X128270000Y-120650000D01*
X104140000Y-87630000D02*
X120650000Y-87630000D01*
X120650000Y-87630000D02*
X128270000Y-95250000D01*
X128270000Y-95250000D02*
X128270000Y-118110000D01*
X124460000Y-124460000D02*
X120650000Y-124460000D01*
X128270000Y-120650000D02*
X124460000Y-124460000D01*
X83820000Y-115570000D02*
X81280000Y-115570000D01*
X91440000Y-87630000D02*
X104140000Y-87630000D01*
X78740000Y-100330000D02*
X91440000Y-87630000D01*
X78740000Y-113030000D02*
X78740000Y-100330000D01*
X81280000Y-115570000D02*
X78740000Y-113030000D01*
X88900000Y-115570000D02*
X83820000Y-115570000D01*
X129540000Y-118110000D02*
X129540000Y-121920000D01*
X104140000Y-86360000D02*
X121920000Y-86360000D01*
X121920000Y-86360000D02*
X129540000Y-93980000D01*
X129540000Y-93980000D02*
X129540000Y-118110000D01*
X125730000Y-125730000D02*
X120650000Y-125730000D01*
X129540000Y-121920000D02*
X125730000Y-125730000D01*
X104140000Y-86360000D02*
X90170000Y-86360000D01*
X82550000Y-116840000D02*
X83820000Y-116840000D01*
X80010000Y-116840000D02*
X82550000Y-116840000D01*
X77470000Y-99060000D02*
X77470000Y-114300000D01*
X77470000Y-114300000D02*
X80010000Y-116840000D01*
X90170000Y-86360000D02*
X77470000Y-99060000D01*
X91440000Y-119380000D02*
X86360000Y-119380000D01*
X86360000Y-119380000D02*
X83820000Y-116840000D01*
X97790000Y-107950000D02*
X99060000Y-107950000D01*
X100330000Y-111760000D02*
X102870000Y-114300000D01*
X100330000Y-109220000D02*
X100330000Y-111760000D01*
X99060000Y-107950000D02*
X100330000Y-109220000D01*
X97790000Y-114300000D02*
X99060000Y-114300000D01*
X101600000Y-116840000D02*
X102870000Y-116840000D01*
X99060000Y-114300000D02*
X101600000Y-116840000D01*
X97790000Y-120650000D02*
X100330000Y-120650000D01*
X101600000Y-119380000D02*
X102870000Y-119380000D01*
X100330000Y-120650000D02*
X101600000Y-119380000D01*
X97790000Y-109220000D02*
X91440000Y-109220000D01*
X97790000Y-115570000D02*
X91440000Y-115570000D01*
X97790000Y-121920000D02*
X91440000Y-121920000D01*
D24*
X115570000Y-99060000D02*
X119380000Y-99060000D01*
D26*
G36*
X102592560Y-90705000D02*
X102636838Y-90940317D01*
X102775910Y-91156441D01*
X102988110Y-91301431D01*
X103240000Y-91352440D01*
X105040000Y-91352440D01*
X105275317Y-91308162D01*
X105491441Y-91169090D01*
X105636431Y-90956890D01*
X105687440Y-90705000D01*
X105687440Y-89785000D01*
X119013420Y-89785000D01*
X126115000Y-96886579D01*
X126115000Y-119013421D01*
X125345000Y-119783421D01*
X125345000Y-114300005D01*
X125345001Y-114300000D01*
X125277633Y-113961325D01*
X125226493Y-113884788D01*
X125085790Y-113674210D01*
X125085787Y-113674208D01*
X123815790Y-112404210D01*
X123788222Y-112385790D01*
X123528675Y-112212367D01*
X123472484Y-112201190D01*
X123190000Y-112144999D01*
X123189995Y-112145000D01*
X121935468Y-112145000D01*
X121520643Y-111729449D01*
X120956670Y-111495267D01*
X120346009Y-111494735D01*
X119781629Y-111727932D01*
X119349449Y-112159357D01*
X119115267Y-112723330D01*
X119114735Y-113333991D01*
X119347932Y-113898371D01*
X119779357Y-114330551D01*
X119800194Y-114339203D01*
X119749446Y-114489841D01*
X120650000Y-115390395D01*
X121550554Y-114489841D01*
X121499965Y-114339673D01*
X121518371Y-114332068D01*
X121936169Y-113915000D01*
X122823420Y-113915000D01*
X123575000Y-114666579D01*
X123575000Y-120283421D01*
X122823420Y-121035000D01*
X122079366Y-121035000D01*
X122014090Y-120933559D01*
X121801890Y-120788569D01*
X121550000Y-120737560D01*
X119750000Y-120737560D01*
X119514683Y-120781838D01*
X119298559Y-120920910D01*
X119153569Y-121133110D01*
X119102560Y-121385000D01*
X119102560Y-122455000D01*
X119146838Y-122690317D01*
X119177185Y-122737477D01*
X119173989Y-122742260D01*
X119084928Y-123190000D01*
X119173989Y-123637740D01*
X119299112Y-123825000D01*
X119173989Y-124012260D01*
X119084928Y-124460000D01*
X119173989Y-124907740D01*
X119299112Y-125095000D01*
X119173989Y-125282260D01*
X119084928Y-125730000D01*
X119173989Y-126177740D01*
X119427613Y-126557315D01*
X119807188Y-126810939D01*
X120254928Y-126900000D01*
X121045072Y-126900000D01*
X121492812Y-126810939D01*
X121786055Y-126615000D01*
X125146264Y-126615000D01*
X124176264Y-127585000D01*
X87913736Y-127585000D01*
X85137775Y-124809039D01*
X101478096Y-124809039D01*
X101638959Y-125197423D01*
X102014866Y-125612389D01*
X102520959Y-125851914D01*
X102743000Y-125730629D01*
X102743000Y-124587000D01*
X102997000Y-124587000D01*
X102997000Y-125730629D01*
X103219041Y-125851914D01*
X103725134Y-125612389D01*
X104101041Y-125197423D01*
X104261904Y-124809039D01*
X104139915Y-124587000D01*
X102997000Y-124587000D01*
X102743000Y-124587000D01*
X101600085Y-124587000D01*
X101478096Y-124809039D01*
X85137775Y-124809039D01*
X76885000Y-116556264D01*
X76885000Y-114966580D01*
X79384208Y-117465787D01*
X79384210Y-117465790D01*
X79671325Y-117657633D01*
X80010000Y-117725000D01*
X82683945Y-117725000D01*
X82977188Y-117920939D01*
X83424928Y-118010000D01*
X83738420Y-118010000D01*
X85734208Y-120005787D01*
X85734210Y-120005790D01*
X86021325Y-120197633D01*
X86360000Y-120265000D01*
X90439122Y-120265000D01*
X90496012Y-120350142D01*
X90929118Y-120639533D01*
X91006045Y-120654835D01*
X90684771Y-120787582D01*
X90308902Y-121162796D01*
X90105232Y-121653287D01*
X90104769Y-122184383D01*
X90307582Y-122675229D01*
X90682796Y-123051098D01*
X91173287Y-123254768D01*
X91704383Y-123255231D01*
X92195229Y-123052418D01*
X92443079Y-122805000D01*
X96565331Y-122805000D01*
X96575910Y-122821441D01*
X96788110Y-122966431D01*
X97040000Y-123017440D01*
X98540000Y-123017440D01*
X98775317Y-122973162D01*
X98991441Y-122834090D01*
X99136431Y-122621890D01*
X99187440Y-122370000D01*
X99187440Y-121535000D01*
X100329995Y-121535000D01*
X100330000Y-121535001D01*
X100656775Y-121470000D01*
X100668675Y-121467633D01*
X100955790Y-121275790D01*
X100955791Y-121275789D01*
X101832999Y-120398580D01*
X102209275Y-120650000D01*
X101827189Y-120905302D01*
X101516120Y-121370849D01*
X101406887Y-121920000D01*
X101516120Y-122469151D01*
X101827189Y-122934698D01*
X102231703Y-123204986D01*
X102014866Y-123307611D01*
X101638959Y-123722577D01*
X101478096Y-124110961D01*
X101600085Y-124333000D01*
X102743000Y-124333000D01*
X102743000Y-124313000D01*
X102997000Y-124313000D01*
X102997000Y-124333000D01*
X104139915Y-124333000D01*
X104261904Y-124110961D01*
X104101041Y-123722577D01*
X103725134Y-123307611D01*
X103508297Y-123204986D01*
X103912811Y-122934698D01*
X104223880Y-122469151D01*
X104333113Y-121920000D01*
X104223880Y-121370849D01*
X103912811Y-120905302D01*
X103530725Y-120650000D01*
X103912811Y-120394698D01*
X104223880Y-119929151D01*
X104333113Y-119380000D01*
X104223880Y-118830849D01*
X103912811Y-118365302D01*
X103530725Y-118110000D01*
X103912811Y-117854698D01*
X104223880Y-117389151D01*
X104333113Y-116840000D01*
X104223880Y-116290849D01*
X103912811Y-115825302D01*
X103530725Y-115570000D01*
X103912811Y-115314698D01*
X104223880Y-114849151D01*
X104333113Y-114300000D01*
X104223880Y-113750849D01*
X103912811Y-113285302D01*
X103508297Y-113015014D01*
X103725134Y-112912389D01*
X104101041Y-112497423D01*
X104261904Y-112109039D01*
X104139915Y-111887000D01*
X102997000Y-111887000D01*
X102997000Y-111907000D01*
X102743000Y-111907000D01*
X102743000Y-111887000D01*
X102723000Y-111887000D01*
X102723000Y-111633000D01*
X102743000Y-111633000D01*
X102743000Y-109347000D01*
X102997000Y-109347000D01*
X102997000Y-111633000D01*
X104139915Y-111633000D01*
X104261904Y-111410961D01*
X104101041Y-111022577D01*
X103725134Y-110607611D01*
X103476633Y-110490000D01*
X103725134Y-110372389D01*
X104101041Y-109957423D01*
X104261904Y-109569039D01*
X104139915Y-109347000D01*
X102997000Y-109347000D01*
X102743000Y-109347000D01*
X101600085Y-109347000D01*
X101478096Y-109569039D01*
X101638959Y-109957423D01*
X102014866Y-110372389D01*
X102263367Y-110490000D01*
X102014866Y-110607611D01*
X101638959Y-111022577D01*
X101478096Y-111410961D01*
X101600084Y-111632998D01*
X101454578Y-111632998D01*
X101215000Y-111393420D01*
X101215000Y-109220005D01*
X101215001Y-109220000D01*
X101147633Y-108881325D01*
X101073248Y-108770000D01*
X100955790Y-108594210D01*
X100955787Y-108594208D01*
X99685790Y-107324210D01*
X99398675Y-107132367D01*
X99342484Y-107121190D01*
X99087279Y-107070425D01*
X99134408Y-106974001D01*
X99128138Y-106965750D01*
X101435000Y-106965750D01*
X101435000Y-107606310D01*
X101531673Y-107839699D01*
X101710302Y-108018327D01*
X101943691Y-108115000D01*
X101971938Y-108115000D01*
X101638959Y-108482577D01*
X101478096Y-108870961D01*
X101600085Y-109093000D01*
X102743000Y-109093000D01*
X102743000Y-106807000D01*
X102997000Y-106807000D01*
X102997000Y-109093000D01*
X104139915Y-109093000D01*
X104261904Y-108870961D01*
X104101041Y-108482577D01*
X103768062Y-108115000D01*
X103796309Y-108115000D01*
X104029698Y-108018327D01*
X104208327Y-107839699D01*
X104305000Y-107606310D01*
X104305000Y-106965750D01*
X104146250Y-106807000D01*
X102997000Y-106807000D01*
X102743000Y-106807000D01*
X101593750Y-106807000D01*
X101435000Y-106965750D01*
X99128138Y-106965750D01*
X99007502Y-106807000D01*
X97917000Y-106807000D01*
X97917000Y-106827000D01*
X97663000Y-106827000D01*
X97663000Y-106807000D01*
X96572498Y-106807000D01*
X96445592Y-106974001D01*
X96610170Y-107310726D01*
X96460457Y-107534788D01*
X96377866Y-107950000D01*
X96454447Y-108335000D01*
X92442873Y-108335000D01*
X92197204Y-108088902D01*
X91706713Y-107885232D01*
X91175617Y-107884769D01*
X90684771Y-108087582D01*
X90308902Y-108462796D01*
X90105232Y-108953287D01*
X90104769Y-109484383D01*
X90307582Y-109975229D01*
X90682796Y-110351098D01*
X91005788Y-110485216D01*
X90929118Y-110500467D01*
X90496012Y-110789858D01*
X90439122Y-110875000D01*
X88900000Y-110875000D01*
X88561325Y-110942367D01*
X88274210Y-111134210D01*
X88274208Y-111134213D01*
X85993420Y-113415000D01*
X85367440Y-113415000D01*
X85367440Y-112495000D01*
X85323162Y-112259683D01*
X85184090Y-112043559D01*
X84971890Y-111898569D01*
X84720000Y-111847560D01*
X84705000Y-111847560D01*
X84705000Y-108316580D01*
X86635580Y-106385999D01*
X96445592Y-106385999D01*
X96572498Y-106553000D01*
X97663000Y-106553000D01*
X97663000Y-105595000D01*
X97917000Y-105595000D01*
X97917000Y-106553000D01*
X99007502Y-106553000D01*
X99134408Y-106385999D01*
X98947013Y-106002592D01*
X98654825Y-105753690D01*
X101435000Y-105753690D01*
X101435000Y-106394250D01*
X101593750Y-106553000D01*
X102743000Y-106553000D01*
X102743000Y-105403750D01*
X102997000Y-105403750D01*
X102997000Y-106553000D01*
X104146250Y-106553000D01*
X104305000Y-106394250D01*
X104305000Y-105753690D01*
X104208327Y-105520301D01*
X104029698Y-105341673D01*
X103796309Y-105245000D01*
X103155750Y-105245000D01*
X102997000Y-105403750D01*
X102743000Y-105403750D01*
X102584250Y-105245000D01*
X101943691Y-105245000D01*
X101710302Y-105341673D01*
X101531673Y-105520301D01*
X101435000Y-105753690D01*
X98654825Y-105753690D01*
X98622544Y-105726192D01*
X98217000Y-105595000D01*
X97917000Y-105595000D01*
X97663000Y-105595000D01*
X97363000Y-105595000D01*
X96957456Y-105726192D01*
X96632987Y-106002592D01*
X96445592Y-106385999D01*
X86635580Y-106385999D01*
X87346826Y-105674753D01*
X87933991Y-105675265D01*
X88498371Y-105442068D01*
X88930551Y-105010643D01*
X89164733Y-104446670D01*
X89165265Y-103836009D01*
X88932068Y-103271629D01*
X88500643Y-102839449D01*
X88479806Y-102830797D01*
X88530554Y-102680159D01*
X87630000Y-101779605D01*
X86729446Y-102680159D01*
X86780035Y-102830327D01*
X86761629Y-102837932D01*
X86329449Y-103269357D01*
X86095267Y-103833330D01*
X86094753Y-104423668D01*
X83194210Y-107324210D01*
X83002367Y-107611325D01*
X83002367Y-107611326D01*
X82934999Y-107950000D01*
X82935000Y-107950005D01*
X82935000Y-111847560D01*
X82920000Y-111847560D01*
X82684683Y-111891838D01*
X82468559Y-112030910D01*
X82323569Y-112243110D01*
X82272560Y-112495000D01*
X82272560Y-112770981D01*
X80895000Y-111393420D01*
X80895000Y-101966580D01*
X84701579Y-98160000D01*
X86082560Y-98160000D01*
X86082560Y-99960000D01*
X86126838Y-100195317D01*
X86265910Y-100411441D01*
X86469574Y-100550598D01*
X86435282Y-100584890D01*
X86549839Y-100699447D01*
X86293357Y-100785852D01*
X86083542Y-101359336D01*
X86109161Y-101969460D01*
X86293357Y-102414148D01*
X86549841Y-102500554D01*
X87450395Y-101600000D01*
X87436253Y-101585858D01*
X87615858Y-101406253D01*
X87630000Y-101420395D01*
X87644143Y-101406253D01*
X87823748Y-101585858D01*
X87809605Y-101600000D01*
X88710159Y-102500554D01*
X88966643Y-102414148D01*
X89136807Y-101949039D01*
X101478096Y-101949039D01*
X101638959Y-102337423D01*
X102014866Y-102752389D01*
X102520959Y-102991914D01*
X102743000Y-102870629D01*
X102743000Y-101727000D01*
X102997000Y-101727000D01*
X102997000Y-102870629D01*
X103219041Y-102991914D01*
X103725134Y-102752389D01*
X104101041Y-102337423D01*
X104261904Y-101949039D01*
X104139915Y-101727000D01*
X102997000Y-101727000D01*
X102743000Y-101727000D01*
X101600085Y-101727000D01*
X101478096Y-101949039D01*
X89136807Y-101949039D01*
X89176458Y-101840664D01*
X89150839Y-101230540D01*
X88966643Y-100785852D01*
X88710161Y-100699447D01*
X88824718Y-100584890D01*
X88788240Y-100548412D01*
X88981441Y-100424090D01*
X89126431Y-100211890D01*
X89177440Y-99960000D01*
X89177440Y-99820000D01*
X101657005Y-99820000D01*
X101827189Y-100074698D01*
X102231703Y-100344986D01*
X102014866Y-100447611D01*
X101638959Y-100862577D01*
X101478096Y-101250961D01*
X101600085Y-101473000D01*
X102743000Y-101473000D01*
X102743000Y-101453000D01*
X102997000Y-101453000D01*
X102997000Y-101473000D01*
X104139915Y-101473000D01*
X104164127Y-101428929D01*
X104650000Y-101914802D01*
X104650000Y-115570000D01*
X104707852Y-115860839D01*
X104872599Y-116107401D01*
X107412599Y-118647401D01*
X107659160Y-118812148D01*
X107707414Y-118821746D01*
X107950000Y-118870000D01*
X109128332Y-118870000D01*
X109026887Y-119380000D01*
X109136120Y-119929151D01*
X109447189Y-120394698D01*
X109829275Y-120650000D01*
X109447189Y-120905302D01*
X109136120Y-121370849D01*
X109026887Y-121920000D01*
X109136120Y-122469151D01*
X109447189Y-122934698D01*
X109829275Y-123190000D01*
X109447189Y-123445302D01*
X109136120Y-123910849D01*
X109026887Y-124460000D01*
X109136120Y-125009151D01*
X109447189Y-125474698D01*
X109912736Y-125785767D01*
X110461887Y-125895000D01*
X110518113Y-125895000D01*
X111067264Y-125785767D01*
X111532811Y-125474698D01*
X111843880Y-125009151D01*
X111953113Y-124460000D01*
X111843880Y-123910849D01*
X111532811Y-123445302D01*
X111150725Y-123190000D01*
X111532811Y-122934698D01*
X111843880Y-122469151D01*
X111953113Y-121920000D01*
X111843880Y-121370849D01*
X111532811Y-120905302D01*
X111150725Y-120650000D01*
X111532811Y-120394698D01*
X111843880Y-119929151D01*
X111953113Y-119380000D01*
X111851668Y-118870000D01*
X119102560Y-118870000D01*
X119102560Y-119010000D01*
X119146838Y-119245317D01*
X119285910Y-119461441D01*
X119498110Y-119606431D01*
X119750000Y-119657440D01*
X121550000Y-119657440D01*
X121785317Y-119613162D01*
X122001441Y-119474090D01*
X122146431Y-119261890D01*
X122197440Y-119010000D01*
X122197440Y-117210000D01*
X122153162Y-116974683D01*
X122014090Y-116758559D01*
X121810426Y-116619402D01*
X121844718Y-116585110D01*
X121730161Y-116470553D01*
X121986643Y-116384148D01*
X122196458Y-115810664D01*
X122170839Y-115200540D01*
X121986643Y-114755852D01*
X121730159Y-114669446D01*
X120829605Y-115570000D01*
X120843748Y-115584143D01*
X120664143Y-115763748D01*
X120650000Y-115749605D01*
X120635858Y-115763748D01*
X120456253Y-115584143D01*
X120470395Y-115570000D01*
X119569841Y-114669446D01*
X119313357Y-114755852D01*
X119103542Y-115329336D01*
X119129161Y-115939460D01*
X119313357Y-116384148D01*
X119569839Y-116470553D01*
X119455282Y-116585110D01*
X119491760Y-116621588D01*
X119298559Y-116745910D01*
X119153569Y-116958110D01*
X119102560Y-117210000D01*
X119102560Y-117350000D01*
X111851668Y-117350000D01*
X111953113Y-116840000D01*
X111843880Y-116290849D01*
X111532811Y-115825302D01*
X111150725Y-115570000D01*
X111532811Y-115314698D01*
X111843880Y-114849151D01*
X111953113Y-114300000D01*
X111843880Y-113750849D01*
X111532811Y-113285302D01*
X111150725Y-113030000D01*
X111532811Y-112774698D01*
X111702995Y-112520000D01*
X113030000Y-112520000D01*
X113320839Y-112462148D01*
X113567401Y-112297401D01*
X116856366Y-109008436D01*
X117182637Y-109335278D01*
X117783352Y-109584716D01*
X118433795Y-109585284D01*
X119034943Y-109336894D01*
X119269715Y-109102532D01*
X119677073Y-109102532D01*
X119775736Y-109369387D01*
X120385461Y-109595908D01*
X121035460Y-109571856D01*
X121524264Y-109369387D01*
X121622927Y-109102532D01*
X120650000Y-108129605D01*
X119677073Y-109102532D01*
X119269715Y-109102532D01*
X119462562Y-108910022D01*
X119497468Y-108922927D01*
X120470395Y-107950000D01*
X120456253Y-107935858D01*
X120635858Y-107756253D01*
X120650000Y-107770395D01*
X120664143Y-107756253D01*
X120843748Y-107935858D01*
X120829605Y-107950000D01*
X121802532Y-108922927D01*
X122069387Y-108824264D01*
X122295908Y-108214539D01*
X122271856Y-107564540D01*
X122069387Y-107075736D01*
X121890727Y-107009681D01*
X122101441Y-106874090D01*
X122246431Y-106661890D01*
X122297440Y-106410000D01*
X122297440Y-104410000D01*
X122253162Y-104174683D01*
X122114090Y-103958559D01*
X121901890Y-103813569D01*
X121650000Y-103762560D01*
X119650000Y-103762560D01*
X119414683Y-103806838D01*
X119198559Y-103945910D01*
X119101090Y-104088561D01*
X119037363Y-104024722D01*
X118436648Y-103775284D01*
X117786205Y-103774716D01*
X117185057Y-104023106D01*
X116724722Y-104482637D01*
X116475284Y-105083352D01*
X116474716Y-105733795D01*
X116723106Y-106334943D01*
X117067759Y-106680199D01*
X116724722Y-107022637D01*
X116638591Y-107230063D01*
X116549161Y-107247852D01*
X116302599Y-107412599D01*
X112715198Y-111000000D01*
X111702995Y-111000000D01*
X111532811Y-110745302D01*
X111150725Y-110490000D01*
X111532811Y-110234698D01*
X111843880Y-109769151D01*
X111953113Y-109220000D01*
X111843880Y-108670849D01*
X111532811Y-108205302D01*
X111150725Y-107950000D01*
X111532811Y-107694698D01*
X111843880Y-107229151D01*
X111953113Y-106680000D01*
X111843880Y-106130849D01*
X111532811Y-105665302D01*
X111067264Y-105354233D01*
X110518113Y-105245000D01*
X110461887Y-105245000D01*
X109912736Y-105354233D01*
X109447189Y-105665302D01*
X109136120Y-106130849D01*
X109026887Y-106680000D01*
X109136120Y-107229151D01*
X109447189Y-107694698D01*
X109829275Y-107950000D01*
X109447189Y-108205302D01*
X109136120Y-108670849D01*
X109026887Y-109220000D01*
X109136120Y-109769151D01*
X109447189Y-110234698D01*
X109829275Y-110490000D01*
X109447189Y-110745302D01*
X109380264Y-110845462D01*
X108710000Y-110175198D01*
X108710000Y-98104802D01*
X109380264Y-97434538D01*
X109447189Y-97534698D01*
X109829275Y-97790000D01*
X109447189Y-98045302D01*
X109136120Y-98510849D01*
X109026887Y-99060000D01*
X109136120Y-99609151D01*
X109447189Y-100074698D01*
X109829275Y-100330000D01*
X109447189Y-100585302D01*
X109136120Y-101050849D01*
X109026887Y-101600000D01*
X109136120Y-102149151D01*
X109447189Y-102614698D01*
X109912736Y-102925767D01*
X110461887Y-103035000D01*
X110518113Y-103035000D01*
X111067264Y-102925767D01*
X111532811Y-102614698D01*
X111843880Y-102149151D01*
X111953113Y-101600000D01*
X111843880Y-101050849D01*
X111532811Y-100585302D01*
X111150725Y-100330000D01*
X111532811Y-100074698D01*
X111702995Y-99820000D01*
X111902345Y-99820000D01*
X112272796Y-100191098D01*
X112763287Y-100394768D01*
X113294383Y-100395231D01*
X113785229Y-100192418D01*
X114161098Y-99817204D01*
X114295216Y-99494212D01*
X114310467Y-99570882D01*
X114599858Y-100003988D01*
X115032964Y-100293379D01*
X115543846Y-100395000D01*
X115596154Y-100395000D01*
X116107036Y-100293379D01*
X116540142Y-100003988D01*
X116663078Y-99820000D01*
X118033154Y-99820000D01*
X118077932Y-99928371D01*
X118509357Y-100360551D01*
X119073330Y-100594733D01*
X119683991Y-100595265D01*
X120248371Y-100362068D01*
X120425841Y-100184908D01*
X120481673Y-100319699D01*
X120660302Y-100498327D01*
X120893691Y-100595000D01*
X121634250Y-100595000D01*
X121793000Y-100436250D01*
X121793000Y-99187000D01*
X122047000Y-99187000D01*
X122047000Y-100436250D01*
X122205750Y-100595000D01*
X122946309Y-100595000D01*
X123179698Y-100498327D01*
X123358327Y-100319699D01*
X123455000Y-100086310D01*
X123455000Y-99345750D01*
X123296250Y-99187000D01*
X122047000Y-99187000D01*
X121793000Y-99187000D01*
X121773000Y-99187000D01*
X121773000Y-98933000D01*
X121793000Y-98933000D01*
X121793000Y-97683750D01*
X122047000Y-97683750D01*
X122047000Y-98933000D01*
X123296250Y-98933000D01*
X123455000Y-98774250D01*
X123455000Y-98033690D01*
X123358327Y-97800301D01*
X123179698Y-97621673D01*
X122946309Y-97525000D01*
X122205750Y-97525000D01*
X122047000Y-97683750D01*
X121793000Y-97683750D01*
X121634250Y-97525000D01*
X120893691Y-97525000D01*
X120660302Y-97621673D01*
X120481673Y-97800301D01*
X120425881Y-97934994D01*
X120250643Y-97759449D01*
X119686670Y-97525267D01*
X119076009Y-97524735D01*
X118511629Y-97757932D01*
X118079449Y-98189357D01*
X118033506Y-98300000D01*
X116663078Y-98300000D01*
X116540142Y-98116012D01*
X116107036Y-97826621D01*
X115596154Y-97725000D01*
X115543846Y-97725000D01*
X115032964Y-97826621D01*
X114599858Y-98116012D01*
X114310467Y-98549118D01*
X114295165Y-98626045D01*
X114162418Y-98304771D01*
X113787204Y-97928902D01*
X113296713Y-97725232D01*
X112765617Y-97724769D01*
X112274771Y-97927582D01*
X111901703Y-98300000D01*
X111702995Y-98300000D01*
X111532811Y-98045302D01*
X111150725Y-97790000D01*
X111532811Y-97534698D01*
X111843880Y-97069151D01*
X111953113Y-96520000D01*
X111843880Y-95970849D01*
X111532811Y-95505302D01*
X111150725Y-95250000D01*
X111532811Y-94994698D01*
X111843880Y-94529151D01*
X111953113Y-93980000D01*
X111843880Y-93430849D01*
X111532811Y-92965302D01*
X111067264Y-92654233D01*
X110518113Y-92545000D01*
X110461887Y-92545000D01*
X109912736Y-92654233D01*
X109447189Y-92965302D01*
X109136120Y-93430849D01*
X109026887Y-93980000D01*
X109136120Y-94529151D01*
X109447189Y-94994698D01*
X109829275Y-95250000D01*
X109447189Y-95505302D01*
X109277005Y-95760000D01*
X109220000Y-95760000D01*
X108929160Y-95817852D01*
X108682599Y-95982599D01*
X107412599Y-97252599D01*
X107247852Y-97499161D01*
X107190000Y-97790000D01*
X107190000Y-110490000D01*
X107247852Y-110780839D01*
X107412599Y-111027401D01*
X108682599Y-112297401D01*
X108929160Y-112462148D01*
X109220000Y-112520000D01*
X109277005Y-112520000D01*
X109447189Y-112774698D01*
X109829275Y-113030000D01*
X109447189Y-113285302D01*
X109136120Y-113750849D01*
X109026887Y-114300000D01*
X109136120Y-114849151D01*
X109447189Y-115314698D01*
X109829275Y-115570000D01*
X109447189Y-115825302D01*
X109136120Y-116290849D01*
X109026887Y-116840000D01*
X109128332Y-117350000D01*
X108264802Y-117350000D01*
X106170000Y-115255198D01*
X106170000Y-101600000D01*
X106112148Y-101309161D01*
X106112148Y-101309160D01*
X105947401Y-101062599D01*
X104268688Y-99383886D01*
X104333113Y-99060000D01*
X104223880Y-98510849D01*
X103912811Y-98045302D01*
X103530725Y-97790000D01*
X103912811Y-97534698D01*
X104223880Y-97069151D01*
X104333113Y-96520000D01*
X104223880Y-95970849D01*
X103912811Y-95505302D01*
X103768535Y-95408899D01*
X103905317Y-95383162D01*
X104121441Y-95244090D01*
X104266431Y-95031890D01*
X104317440Y-94780000D01*
X104317440Y-93180000D01*
X104273162Y-92944683D01*
X104134090Y-92728559D01*
X103921890Y-92583569D01*
X103670000Y-92532560D01*
X102070000Y-92532560D01*
X101834683Y-92576838D01*
X101618559Y-92715910D01*
X101473569Y-92928110D01*
X101422560Y-93180000D01*
X101422560Y-94780000D01*
X101466838Y-95015317D01*
X101605910Y-95231441D01*
X101818110Y-95376431D01*
X101973089Y-95407815D01*
X101827189Y-95505302D01*
X101657005Y-95760000D01*
X97866846Y-95760000D01*
X97822068Y-95651629D01*
X97390643Y-95219449D01*
X96826670Y-94985267D01*
X96216009Y-94984735D01*
X95651629Y-95217932D01*
X95474159Y-95395092D01*
X95418327Y-95260301D01*
X95239698Y-95081673D01*
X95006309Y-94985000D01*
X94265750Y-94985000D01*
X94107000Y-95143750D01*
X94107000Y-96393000D01*
X94127000Y-96393000D01*
X94127000Y-96647000D01*
X94107000Y-96647000D01*
X94107000Y-97896250D01*
X94265750Y-98055000D01*
X95006309Y-98055000D01*
X95239698Y-97958327D01*
X95418327Y-97779699D01*
X95474119Y-97645006D01*
X95649357Y-97820551D01*
X96213330Y-98054733D01*
X96823991Y-98055265D01*
X97388371Y-97822068D01*
X97820551Y-97390643D01*
X97866494Y-97280000D01*
X101657005Y-97280000D01*
X101827189Y-97534698D01*
X102209275Y-97790000D01*
X101827189Y-98045302D01*
X101657005Y-98300000D01*
X89177440Y-98300000D01*
X89177440Y-98160000D01*
X89133162Y-97924683D01*
X88994090Y-97708559D01*
X88781890Y-97563569D01*
X88530000Y-97512560D01*
X86730000Y-97512560D01*
X86494683Y-97556838D01*
X86278559Y-97695910D01*
X86133569Y-97908110D01*
X86082560Y-98160000D01*
X84701579Y-98160000D01*
X86055829Y-96805750D01*
X92445000Y-96805750D01*
X92445000Y-97546310D01*
X92541673Y-97779699D01*
X92720302Y-97958327D01*
X92953691Y-98055000D01*
X93694250Y-98055000D01*
X93853000Y-97896250D01*
X93853000Y-96647000D01*
X92603750Y-96647000D01*
X92445000Y-96805750D01*
X86055829Y-96805750D01*
X87367889Y-95493690D01*
X92445000Y-95493690D01*
X92445000Y-96234250D01*
X92603750Y-96393000D01*
X93853000Y-96393000D01*
X93853000Y-95143750D01*
X93694250Y-94985000D01*
X92953691Y-94985000D01*
X92720302Y-95081673D01*
X92541673Y-95260301D01*
X92445000Y-95493690D01*
X87367889Y-95493690D01*
X93076579Y-89785000D01*
X102592560Y-89785000D01*
X102592560Y-90705000D01*
X102592560Y-90705000D01*
G37*
X102592560Y-90705000D02*
X102636838Y-90940317D01*
X102775910Y-91156441D01*
X102988110Y-91301431D01*
X103240000Y-91352440D01*
X105040000Y-91352440D01*
X105275317Y-91308162D01*
X105491441Y-91169090D01*
X105636431Y-90956890D01*
X105687440Y-90705000D01*
X105687440Y-89785000D01*
X119013420Y-89785000D01*
X126115000Y-96886579D01*
X126115000Y-119013421D01*
X125345000Y-119783421D01*
X125345000Y-114300005D01*
X125345001Y-114300000D01*
X125277633Y-113961325D01*
X125226493Y-113884788D01*
X125085790Y-113674210D01*
X125085787Y-113674208D01*
X123815790Y-112404210D01*
X123788222Y-112385790D01*
X123528675Y-112212367D01*
X123472484Y-112201190D01*
X123190000Y-112144999D01*
X123189995Y-112145000D01*
X121935468Y-112145000D01*
X121520643Y-111729449D01*
X120956670Y-111495267D01*
X120346009Y-111494735D01*
X119781629Y-111727932D01*
X119349449Y-112159357D01*
X119115267Y-112723330D01*
X119114735Y-113333991D01*
X119347932Y-113898371D01*
X119779357Y-114330551D01*
X119800194Y-114339203D01*
X119749446Y-114489841D01*
X120650000Y-115390395D01*
X121550554Y-114489841D01*
X121499965Y-114339673D01*
X121518371Y-114332068D01*
X121936169Y-113915000D01*
X122823420Y-113915000D01*
X123575000Y-114666579D01*
X123575000Y-120283421D01*
X122823420Y-121035000D01*
X122079366Y-121035000D01*
X122014090Y-120933559D01*
X121801890Y-120788569D01*
X121550000Y-120737560D01*
X119750000Y-120737560D01*
X119514683Y-120781838D01*
X119298559Y-120920910D01*
X119153569Y-121133110D01*
X119102560Y-121385000D01*
X119102560Y-122455000D01*
X119146838Y-122690317D01*
X119177185Y-122737477D01*
X119173989Y-122742260D01*
X119084928Y-123190000D01*
X119173989Y-123637740D01*
X119299112Y-123825000D01*
X119173989Y-124012260D01*
X119084928Y-124460000D01*
X119173989Y-124907740D01*
X119299112Y-125095000D01*
X119173989Y-125282260D01*
X119084928Y-125730000D01*
X119173989Y-126177740D01*
X119427613Y-126557315D01*
X119807188Y-126810939D01*
X120254928Y-126900000D01*
X121045072Y-126900000D01*
X121492812Y-126810939D01*
X121786055Y-126615000D01*
X125146264Y-126615000D01*
X124176264Y-127585000D01*
X87913736Y-127585000D01*
X85137775Y-124809039D01*
X101478096Y-124809039D01*
X101638959Y-125197423D01*
X102014866Y-125612389D01*
X102520959Y-125851914D01*
X102743000Y-125730629D01*
X102743000Y-124587000D01*
X102997000Y-124587000D01*
X102997000Y-125730629D01*
X103219041Y-125851914D01*
X103725134Y-125612389D01*
X104101041Y-125197423D01*
X104261904Y-124809039D01*
X104139915Y-124587000D01*
X102997000Y-124587000D01*
X102743000Y-124587000D01*
X101600085Y-124587000D01*
X101478096Y-124809039D01*
X85137775Y-124809039D01*
X76885000Y-116556264D01*
X76885000Y-114966580D01*
X79384208Y-117465787D01*
X79384210Y-117465790D01*
X79671325Y-117657633D01*
X80010000Y-117725000D01*
X82683945Y-117725000D01*
X82977188Y-117920939D01*
X83424928Y-118010000D01*
X83738420Y-118010000D01*
X85734208Y-120005787D01*
X85734210Y-120005790D01*
X86021325Y-120197633D01*
X86360000Y-120265000D01*
X90439122Y-120265000D01*
X90496012Y-120350142D01*
X90929118Y-120639533D01*
X91006045Y-120654835D01*
X90684771Y-120787582D01*
X90308902Y-121162796D01*
X90105232Y-121653287D01*
X90104769Y-122184383D01*
X90307582Y-122675229D01*
X90682796Y-123051098D01*
X91173287Y-123254768D01*
X91704383Y-123255231D01*
X92195229Y-123052418D01*
X92443079Y-122805000D01*
X96565331Y-122805000D01*
X96575910Y-122821441D01*
X96788110Y-122966431D01*
X97040000Y-123017440D01*
X98540000Y-123017440D01*
X98775317Y-122973162D01*
X98991441Y-122834090D01*
X99136431Y-122621890D01*
X99187440Y-122370000D01*
X99187440Y-121535000D01*
X100329995Y-121535000D01*
X100330000Y-121535001D01*
X100656775Y-121470000D01*
X100668675Y-121467633D01*
X100955790Y-121275790D01*
X100955791Y-121275789D01*
X101832999Y-120398580D01*
X102209275Y-120650000D01*
X101827189Y-120905302D01*
X101516120Y-121370849D01*
X101406887Y-121920000D01*
X101516120Y-122469151D01*
X101827189Y-122934698D01*
X102231703Y-123204986D01*
X102014866Y-123307611D01*
X101638959Y-123722577D01*
X101478096Y-124110961D01*
X101600085Y-124333000D01*
X102743000Y-124333000D01*
X102743000Y-124313000D01*
X102997000Y-124313000D01*
X102997000Y-124333000D01*
X104139915Y-124333000D01*
X104261904Y-124110961D01*
X104101041Y-123722577D01*
X103725134Y-123307611D01*
X103508297Y-123204986D01*
X103912811Y-122934698D01*
X104223880Y-122469151D01*
X104333113Y-121920000D01*
X104223880Y-121370849D01*
X103912811Y-120905302D01*
X103530725Y-120650000D01*
X103912811Y-120394698D01*
X104223880Y-119929151D01*
X104333113Y-119380000D01*
X104223880Y-118830849D01*
X103912811Y-118365302D01*
X103530725Y-118110000D01*
X103912811Y-117854698D01*
X104223880Y-117389151D01*
X104333113Y-116840000D01*
X104223880Y-116290849D01*
X103912811Y-115825302D01*
X103530725Y-115570000D01*
X103912811Y-115314698D01*
X104223880Y-114849151D01*
X104333113Y-114300000D01*
X104223880Y-113750849D01*
X103912811Y-113285302D01*
X103508297Y-113015014D01*
X103725134Y-112912389D01*
X104101041Y-112497423D01*
X104261904Y-112109039D01*
X104139915Y-111887000D01*
X102997000Y-111887000D01*
X102997000Y-111907000D01*
X102743000Y-111907000D01*
X102743000Y-111887000D01*
X102723000Y-111887000D01*
X102723000Y-111633000D01*
X102743000Y-111633000D01*
X102743000Y-109347000D01*
X102997000Y-109347000D01*
X102997000Y-111633000D01*
X104139915Y-111633000D01*
X104261904Y-111410961D01*
X104101041Y-111022577D01*
X103725134Y-110607611D01*
X103476633Y-110490000D01*
X103725134Y-110372389D01*
X104101041Y-109957423D01*
X104261904Y-109569039D01*
X104139915Y-109347000D01*
X102997000Y-109347000D01*
X102743000Y-109347000D01*
X101600085Y-109347000D01*
X101478096Y-109569039D01*
X101638959Y-109957423D01*
X102014866Y-110372389D01*
X102263367Y-110490000D01*
X102014866Y-110607611D01*
X101638959Y-111022577D01*
X101478096Y-111410961D01*
X101600084Y-111632998D01*
X101454578Y-111632998D01*
X101215000Y-111393420D01*
X101215000Y-109220005D01*
X101215001Y-109220000D01*
X101147633Y-108881325D01*
X101073248Y-108770000D01*
X100955790Y-108594210D01*
X100955787Y-108594208D01*
X99685790Y-107324210D01*
X99398675Y-107132367D01*
X99342484Y-107121190D01*
X99087279Y-107070425D01*
X99134408Y-106974001D01*
X99128138Y-106965750D01*
X101435000Y-106965750D01*
X101435000Y-107606310D01*
X101531673Y-107839699D01*
X101710302Y-108018327D01*
X101943691Y-108115000D01*
X101971938Y-108115000D01*
X101638959Y-108482577D01*
X101478096Y-108870961D01*
X101600085Y-109093000D01*
X102743000Y-109093000D01*
X102743000Y-106807000D01*
X102997000Y-106807000D01*
X102997000Y-109093000D01*
X104139915Y-109093000D01*
X104261904Y-108870961D01*
X104101041Y-108482577D01*
X103768062Y-108115000D01*
X103796309Y-108115000D01*
X104029698Y-108018327D01*
X104208327Y-107839699D01*
X104305000Y-107606310D01*
X104305000Y-106965750D01*
X104146250Y-106807000D01*
X102997000Y-106807000D01*
X102743000Y-106807000D01*
X101593750Y-106807000D01*
X101435000Y-106965750D01*
X99128138Y-106965750D01*
X99007502Y-106807000D01*
X97917000Y-106807000D01*
X97917000Y-106827000D01*
X97663000Y-106827000D01*
X97663000Y-106807000D01*
X96572498Y-106807000D01*
X96445592Y-106974001D01*
X96610170Y-107310726D01*
X96460457Y-107534788D01*
X96377866Y-107950000D01*
X96454447Y-108335000D01*
X92442873Y-108335000D01*
X92197204Y-108088902D01*
X91706713Y-107885232D01*
X91175617Y-107884769D01*
X90684771Y-108087582D01*
X90308902Y-108462796D01*
X90105232Y-108953287D01*
X90104769Y-109484383D01*
X90307582Y-109975229D01*
X90682796Y-110351098D01*
X91005788Y-110485216D01*
X90929118Y-110500467D01*
X90496012Y-110789858D01*
X90439122Y-110875000D01*
X88900000Y-110875000D01*
X88561325Y-110942367D01*
X88274210Y-111134210D01*
X88274208Y-111134213D01*
X85993420Y-113415000D01*
X85367440Y-113415000D01*
X85367440Y-112495000D01*
X85323162Y-112259683D01*
X85184090Y-112043559D01*
X84971890Y-111898569D01*
X84720000Y-111847560D01*
X84705000Y-111847560D01*
X84705000Y-108316580D01*
X86635580Y-106385999D01*
X96445592Y-106385999D01*
X96572498Y-106553000D01*
X97663000Y-106553000D01*
X97663000Y-105595000D01*
X97917000Y-105595000D01*
X97917000Y-106553000D01*
X99007502Y-106553000D01*
X99134408Y-106385999D01*
X98947013Y-106002592D01*
X98654825Y-105753690D01*
X101435000Y-105753690D01*
X101435000Y-106394250D01*
X101593750Y-106553000D01*
X102743000Y-106553000D01*
X102743000Y-105403750D01*
X102997000Y-105403750D01*
X102997000Y-106553000D01*
X104146250Y-106553000D01*
X104305000Y-106394250D01*
X104305000Y-105753690D01*
X104208327Y-105520301D01*
X104029698Y-105341673D01*
X103796309Y-105245000D01*
X103155750Y-105245000D01*
X102997000Y-105403750D01*
X102743000Y-105403750D01*
X102584250Y-105245000D01*
X101943691Y-105245000D01*
X101710302Y-105341673D01*
X101531673Y-105520301D01*
X101435000Y-105753690D01*
X98654825Y-105753690D01*
X98622544Y-105726192D01*
X98217000Y-105595000D01*
X97917000Y-105595000D01*
X97663000Y-105595000D01*
X97363000Y-105595000D01*
X96957456Y-105726192D01*
X96632987Y-106002592D01*
X96445592Y-106385999D01*
X86635580Y-106385999D01*
X87346826Y-105674753D01*
X87933991Y-105675265D01*
X88498371Y-105442068D01*
X88930551Y-105010643D01*
X89164733Y-104446670D01*
X89165265Y-103836009D01*
X88932068Y-103271629D01*
X88500643Y-102839449D01*
X88479806Y-102830797D01*
X88530554Y-102680159D01*
X87630000Y-101779605D01*
X86729446Y-102680159D01*
X86780035Y-102830327D01*
X86761629Y-102837932D01*
X86329449Y-103269357D01*
X86095267Y-103833330D01*
X86094753Y-104423668D01*
X83194210Y-107324210D01*
X83002367Y-107611325D01*
X83002367Y-107611326D01*
X82934999Y-107950000D01*
X82935000Y-107950005D01*
X82935000Y-111847560D01*
X82920000Y-111847560D01*
X82684683Y-111891838D01*
X82468559Y-112030910D01*
X82323569Y-112243110D01*
X82272560Y-112495000D01*
X82272560Y-112770981D01*
X80895000Y-111393420D01*
X80895000Y-101966580D01*
X84701579Y-98160000D01*
X86082560Y-98160000D01*
X86082560Y-99960000D01*
X86126838Y-100195317D01*
X86265910Y-100411441D01*
X86469574Y-100550598D01*
X86435282Y-100584890D01*
X86549839Y-100699447D01*
X86293357Y-100785852D01*
X86083542Y-101359336D01*
X86109161Y-101969460D01*
X86293357Y-102414148D01*
X86549841Y-102500554D01*
X87450395Y-101600000D01*
X87436253Y-101585858D01*
X87615858Y-101406253D01*
X87630000Y-101420395D01*
X87644143Y-101406253D01*
X87823748Y-101585858D01*
X87809605Y-101600000D01*
X88710159Y-102500554D01*
X88966643Y-102414148D01*
X89136807Y-101949039D01*
X101478096Y-101949039D01*
X101638959Y-102337423D01*
X102014866Y-102752389D01*
X102520959Y-102991914D01*
X102743000Y-102870629D01*
X102743000Y-101727000D01*
X102997000Y-101727000D01*
X102997000Y-102870629D01*
X103219041Y-102991914D01*
X103725134Y-102752389D01*
X104101041Y-102337423D01*
X104261904Y-101949039D01*
X104139915Y-101727000D01*
X102997000Y-101727000D01*
X102743000Y-101727000D01*
X101600085Y-101727000D01*
X101478096Y-101949039D01*
X89136807Y-101949039D01*
X89176458Y-101840664D01*
X89150839Y-101230540D01*
X88966643Y-100785852D01*
X88710161Y-100699447D01*
X88824718Y-100584890D01*
X88788240Y-100548412D01*
X88981441Y-100424090D01*
X89126431Y-100211890D01*
X89177440Y-99960000D01*
X89177440Y-99820000D01*
X101657005Y-99820000D01*
X101827189Y-100074698D01*
X102231703Y-100344986D01*
X102014866Y-100447611D01*
X101638959Y-100862577D01*
X101478096Y-101250961D01*
X101600085Y-101473000D01*
X102743000Y-101473000D01*
X102743000Y-101453000D01*
X102997000Y-101453000D01*
X102997000Y-101473000D01*
X104139915Y-101473000D01*
X104164127Y-101428929D01*
X104650000Y-101914802D01*
X104650000Y-115570000D01*
X104707852Y-115860839D01*
X104872599Y-116107401D01*
X107412599Y-118647401D01*
X107659160Y-118812148D01*
X107707414Y-118821746D01*
X107950000Y-118870000D01*
X109128332Y-118870000D01*
X109026887Y-119380000D01*
X109136120Y-119929151D01*
X109447189Y-120394698D01*
X109829275Y-120650000D01*
X109447189Y-120905302D01*
X109136120Y-121370849D01*
X109026887Y-121920000D01*
X109136120Y-122469151D01*
X109447189Y-122934698D01*
X109829275Y-123190000D01*
X109447189Y-123445302D01*
X109136120Y-123910849D01*
X109026887Y-124460000D01*
X109136120Y-125009151D01*
X109447189Y-125474698D01*
X109912736Y-125785767D01*
X110461887Y-125895000D01*
X110518113Y-125895000D01*
X111067264Y-125785767D01*
X111532811Y-125474698D01*
X111843880Y-125009151D01*
X111953113Y-124460000D01*
X111843880Y-123910849D01*
X111532811Y-123445302D01*
X111150725Y-123190000D01*
X111532811Y-122934698D01*
X111843880Y-122469151D01*
X111953113Y-121920000D01*
X111843880Y-121370849D01*
X111532811Y-120905302D01*
X111150725Y-120650000D01*
X111532811Y-120394698D01*
X111843880Y-119929151D01*
X111953113Y-119380000D01*
X111851668Y-118870000D01*
X119102560Y-118870000D01*
X119102560Y-119010000D01*
X119146838Y-119245317D01*
X119285910Y-119461441D01*
X119498110Y-119606431D01*
X119750000Y-119657440D01*
X121550000Y-119657440D01*
X121785317Y-119613162D01*
X122001441Y-119474090D01*
X122146431Y-119261890D01*
X122197440Y-119010000D01*
X122197440Y-117210000D01*
X122153162Y-116974683D01*
X122014090Y-116758559D01*
X121810426Y-116619402D01*
X121844718Y-116585110D01*
X121730161Y-116470553D01*
X121986643Y-116384148D01*
X122196458Y-115810664D01*
X122170839Y-115200540D01*
X121986643Y-114755852D01*
X121730159Y-114669446D01*
X120829605Y-115570000D01*
X120843748Y-115584143D01*
X120664143Y-115763748D01*
X120650000Y-115749605D01*
X120635858Y-115763748D01*
X120456253Y-115584143D01*
X120470395Y-115570000D01*
X119569841Y-114669446D01*
X119313357Y-114755852D01*
X119103542Y-115329336D01*
X119129161Y-115939460D01*
X119313357Y-116384148D01*
X119569839Y-116470553D01*
X119455282Y-116585110D01*
X119491760Y-116621588D01*
X119298559Y-116745910D01*
X119153569Y-116958110D01*
X119102560Y-117210000D01*
X119102560Y-117350000D01*
X111851668Y-117350000D01*
X111953113Y-116840000D01*
X111843880Y-116290849D01*
X111532811Y-115825302D01*
X111150725Y-115570000D01*
X111532811Y-115314698D01*
X111843880Y-114849151D01*
X111953113Y-114300000D01*
X111843880Y-113750849D01*
X111532811Y-113285302D01*
X111150725Y-113030000D01*
X111532811Y-112774698D01*
X111702995Y-112520000D01*
X113030000Y-112520000D01*
X113320839Y-112462148D01*
X113567401Y-112297401D01*
X116856366Y-109008436D01*
X117182637Y-109335278D01*
X117783352Y-109584716D01*
X118433795Y-109585284D01*
X119034943Y-109336894D01*
X119269715Y-109102532D01*
X119677073Y-109102532D01*
X119775736Y-109369387D01*
X120385461Y-109595908D01*
X121035460Y-109571856D01*
X121524264Y-109369387D01*
X121622927Y-109102532D01*
X120650000Y-108129605D01*
X119677073Y-109102532D01*
X119269715Y-109102532D01*
X119462562Y-108910022D01*
X119497468Y-108922927D01*
X120470395Y-107950000D01*
X120456253Y-107935858D01*
X120635858Y-107756253D01*
X120650000Y-107770395D01*
X120664143Y-107756253D01*
X120843748Y-107935858D01*
X120829605Y-107950000D01*
X121802532Y-108922927D01*
X122069387Y-108824264D01*
X122295908Y-108214539D01*
X122271856Y-107564540D01*
X122069387Y-107075736D01*
X121890727Y-107009681D01*
X122101441Y-106874090D01*
X122246431Y-106661890D01*
X122297440Y-106410000D01*
X122297440Y-104410000D01*
X122253162Y-104174683D01*
X122114090Y-103958559D01*
X121901890Y-103813569D01*
X121650000Y-103762560D01*
X119650000Y-103762560D01*
X119414683Y-103806838D01*
X119198559Y-103945910D01*
X119101090Y-104088561D01*
X119037363Y-104024722D01*
X118436648Y-103775284D01*
X117786205Y-103774716D01*
X117185057Y-104023106D01*
X116724722Y-104482637D01*
X116475284Y-105083352D01*
X116474716Y-105733795D01*
X116723106Y-106334943D01*
X117067759Y-106680199D01*
X116724722Y-107022637D01*
X116638591Y-107230063D01*
X116549161Y-107247852D01*
X116302599Y-107412599D01*
X112715198Y-111000000D01*
X111702995Y-111000000D01*
X111532811Y-110745302D01*
X111150725Y-110490000D01*
X111532811Y-110234698D01*
X111843880Y-109769151D01*
X111953113Y-109220000D01*
X111843880Y-108670849D01*
X111532811Y-108205302D01*
X111150725Y-107950000D01*
X111532811Y-107694698D01*
X111843880Y-107229151D01*
X111953113Y-106680000D01*
X111843880Y-106130849D01*
X111532811Y-105665302D01*
X111067264Y-105354233D01*
X110518113Y-105245000D01*
X110461887Y-105245000D01*
X109912736Y-105354233D01*
X109447189Y-105665302D01*
X109136120Y-106130849D01*
X109026887Y-106680000D01*
X109136120Y-107229151D01*
X109447189Y-107694698D01*
X109829275Y-107950000D01*
X109447189Y-108205302D01*
X109136120Y-108670849D01*
X109026887Y-109220000D01*
X109136120Y-109769151D01*
X109447189Y-110234698D01*
X109829275Y-110490000D01*
X109447189Y-110745302D01*
X109380264Y-110845462D01*
X108710000Y-110175198D01*
X108710000Y-98104802D01*
X109380264Y-97434538D01*
X109447189Y-97534698D01*
X109829275Y-97790000D01*
X109447189Y-98045302D01*
X109136120Y-98510849D01*
X109026887Y-99060000D01*
X109136120Y-99609151D01*
X109447189Y-100074698D01*
X109829275Y-100330000D01*
X109447189Y-100585302D01*
X109136120Y-101050849D01*
X109026887Y-101600000D01*
X109136120Y-102149151D01*
X109447189Y-102614698D01*
X109912736Y-102925767D01*
X110461887Y-103035000D01*
X110518113Y-103035000D01*
X111067264Y-102925767D01*
X111532811Y-102614698D01*
X111843880Y-102149151D01*
X111953113Y-101600000D01*
X111843880Y-101050849D01*
X111532811Y-100585302D01*
X111150725Y-100330000D01*
X111532811Y-100074698D01*
X111702995Y-99820000D01*
X111902345Y-99820000D01*
X112272796Y-100191098D01*
X112763287Y-100394768D01*
X113294383Y-100395231D01*
X113785229Y-100192418D01*
X114161098Y-99817204D01*
X114295216Y-99494212D01*
X114310467Y-99570882D01*
X114599858Y-100003988D01*
X115032964Y-100293379D01*
X115543846Y-100395000D01*
X115596154Y-100395000D01*
X116107036Y-100293379D01*
X116540142Y-100003988D01*
X116663078Y-99820000D01*
X118033154Y-99820000D01*
X118077932Y-99928371D01*
X118509357Y-100360551D01*
X119073330Y-100594733D01*
X119683991Y-100595265D01*
X120248371Y-100362068D01*
X120425841Y-100184908D01*
X120481673Y-100319699D01*
X120660302Y-100498327D01*
X120893691Y-100595000D01*
X121634250Y-100595000D01*
X121793000Y-100436250D01*
X121793000Y-99187000D01*
X122047000Y-99187000D01*
X122047000Y-100436250D01*
X122205750Y-100595000D01*
X122946309Y-100595000D01*
X123179698Y-100498327D01*
X123358327Y-100319699D01*
X123455000Y-100086310D01*
X123455000Y-99345750D01*
X123296250Y-99187000D01*
X122047000Y-99187000D01*
X121793000Y-99187000D01*
X121773000Y-99187000D01*
X121773000Y-98933000D01*
X121793000Y-98933000D01*
X121793000Y-97683750D01*
X122047000Y-97683750D01*
X122047000Y-98933000D01*
X123296250Y-98933000D01*
X123455000Y-98774250D01*
X123455000Y-98033690D01*
X123358327Y-97800301D01*
X123179698Y-97621673D01*
X122946309Y-97525000D01*
X122205750Y-97525000D01*
X122047000Y-97683750D01*
X121793000Y-97683750D01*
X121634250Y-97525000D01*
X120893691Y-97525000D01*
X120660302Y-97621673D01*
X120481673Y-97800301D01*
X120425881Y-97934994D01*
X120250643Y-97759449D01*
X119686670Y-97525267D01*
X119076009Y-97524735D01*
X118511629Y-97757932D01*
X118079449Y-98189357D01*
X118033506Y-98300000D01*
X116663078Y-98300000D01*
X116540142Y-98116012D01*
X116107036Y-97826621D01*
X115596154Y-97725000D01*
X115543846Y-97725000D01*
X115032964Y-97826621D01*
X114599858Y-98116012D01*
X114310467Y-98549118D01*
X114295165Y-98626045D01*
X114162418Y-98304771D01*
X113787204Y-97928902D01*
X113296713Y-97725232D01*
X112765617Y-97724769D01*
X112274771Y-97927582D01*
X111901703Y-98300000D01*
X111702995Y-98300000D01*
X111532811Y-98045302D01*
X111150725Y-97790000D01*
X111532811Y-97534698D01*
X111843880Y-97069151D01*
X111953113Y-96520000D01*
X111843880Y-95970849D01*
X111532811Y-95505302D01*
X111150725Y-95250000D01*
X111532811Y-94994698D01*
X111843880Y-94529151D01*
X111953113Y-93980000D01*
X111843880Y-93430849D01*
X111532811Y-92965302D01*
X111067264Y-92654233D01*
X110518113Y-92545000D01*
X110461887Y-92545000D01*
X109912736Y-92654233D01*
X109447189Y-92965302D01*
X109136120Y-93430849D01*
X109026887Y-93980000D01*
X109136120Y-94529151D01*
X109447189Y-94994698D01*
X109829275Y-95250000D01*
X109447189Y-95505302D01*
X109277005Y-95760000D01*
X109220000Y-95760000D01*
X108929160Y-95817852D01*
X108682599Y-95982599D01*
X107412599Y-97252599D01*
X107247852Y-97499161D01*
X107190000Y-97790000D01*
X107190000Y-110490000D01*
X107247852Y-110780839D01*
X107412599Y-111027401D01*
X108682599Y-112297401D01*
X108929160Y-112462148D01*
X109220000Y-112520000D01*
X109277005Y-112520000D01*
X109447189Y-112774698D01*
X109829275Y-113030000D01*
X109447189Y-113285302D01*
X109136120Y-113750849D01*
X109026887Y-114300000D01*
X109136120Y-114849151D01*
X109447189Y-115314698D01*
X109829275Y-115570000D01*
X109447189Y-115825302D01*
X109136120Y-116290849D01*
X109026887Y-116840000D01*
X109128332Y-117350000D01*
X108264802Y-117350000D01*
X106170000Y-115255198D01*
X106170000Y-101600000D01*
X106112148Y-101309161D01*
X106112148Y-101309160D01*
X105947401Y-101062599D01*
X104268688Y-99383886D01*
X104333113Y-99060000D01*
X104223880Y-98510849D01*
X103912811Y-98045302D01*
X103530725Y-97790000D01*
X103912811Y-97534698D01*
X104223880Y-97069151D01*
X104333113Y-96520000D01*
X104223880Y-95970849D01*
X103912811Y-95505302D01*
X103768535Y-95408899D01*
X103905317Y-95383162D01*
X104121441Y-95244090D01*
X104266431Y-95031890D01*
X104317440Y-94780000D01*
X104317440Y-93180000D01*
X104273162Y-92944683D01*
X104134090Y-92728559D01*
X103921890Y-92583569D01*
X103670000Y-92532560D01*
X102070000Y-92532560D01*
X101834683Y-92576838D01*
X101618559Y-92715910D01*
X101473569Y-92928110D01*
X101422560Y-93180000D01*
X101422560Y-94780000D01*
X101466838Y-95015317D01*
X101605910Y-95231441D01*
X101818110Y-95376431D01*
X101973089Y-95407815D01*
X101827189Y-95505302D01*
X101657005Y-95760000D01*
X97866846Y-95760000D01*
X97822068Y-95651629D01*
X97390643Y-95219449D01*
X96826670Y-94985267D01*
X96216009Y-94984735D01*
X95651629Y-95217932D01*
X95474159Y-95395092D01*
X95418327Y-95260301D01*
X95239698Y-95081673D01*
X95006309Y-94985000D01*
X94265750Y-94985000D01*
X94107000Y-95143750D01*
X94107000Y-96393000D01*
X94127000Y-96393000D01*
X94127000Y-96647000D01*
X94107000Y-96647000D01*
X94107000Y-97896250D01*
X94265750Y-98055000D01*
X95006309Y-98055000D01*
X95239698Y-97958327D01*
X95418327Y-97779699D01*
X95474119Y-97645006D01*
X95649357Y-97820551D01*
X96213330Y-98054733D01*
X96823991Y-98055265D01*
X97388371Y-97822068D01*
X97820551Y-97390643D01*
X97866494Y-97280000D01*
X101657005Y-97280000D01*
X101827189Y-97534698D01*
X102209275Y-97790000D01*
X101827189Y-98045302D01*
X101657005Y-98300000D01*
X89177440Y-98300000D01*
X89177440Y-98160000D01*
X89133162Y-97924683D01*
X88994090Y-97708559D01*
X88781890Y-97563569D01*
X88530000Y-97512560D01*
X86730000Y-97512560D01*
X86494683Y-97556838D01*
X86278559Y-97695910D01*
X86133569Y-97908110D01*
X86082560Y-98160000D01*
X84701579Y-98160000D01*
X86055829Y-96805750D01*
X92445000Y-96805750D01*
X92445000Y-97546310D01*
X92541673Y-97779699D01*
X92720302Y-97958327D01*
X92953691Y-98055000D01*
X93694250Y-98055000D01*
X93853000Y-97896250D01*
X93853000Y-96647000D01*
X92603750Y-96647000D01*
X92445000Y-96805750D01*
X86055829Y-96805750D01*
X87367889Y-95493690D01*
X92445000Y-95493690D01*
X92445000Y-96234250D01*
X92603750Y-96393000D01*
X93853000Y-96393000D01*
X93853000Y-95143750D01*
X93694250Y-94985000D01*
X92953691Y-94985000D01*
X92720302Y-95081673D01*
X92541673Y-95260301D01*
X92445000Y-95493690D01*
X87367889Y-95493690D01*
X93076579Y-89785000D01*
X102592560Y-89785000D01*
X102592560Y-90705000D01*
G36*
X100974208Y-117465787D02*
X100974210Y-117465790D01*
X101261325Y-117657633D01*
X101600000Y-117725000D01*
X101740527Y-117725000D01*
X101827189Y-117854698D01*
X102209275Y-118110000D01*
X101827189Y-118365302D01*
X101740527Y-118495000D01*
X101600005Y-118495000D01*
X101600000Y-118494999D01*
X101261325Y-118562367D01*
X100974210Y-118754210D01*
X100974208Y-118754213D01*
X99963420Y-119765000D01*
X99089931Y-119765000D01*
X99134408Y-119674001D01*
X99007502Y-119507000D01*
X97917000Y-119507000D01*
X97917000Y-119527000D01*
X97663000Y-119527000D01*
X97663000Y-119507000D01*
X96572498Y-119507000D01*
X96445592Y-119674001D01*
X96610170Y-120010726D01*
X96460457Y-120234788D01*
X96377866Y-120650000D01*
X96454447Y-121035000D01*
X92442873Y-121035000D01*
X92197204Y-120788902D01*
X91874212Y-120654784D01*
X91950882Y-120639533D01*
X92383988Y-120350142D01*
X92673379Y-119917036D01*
X92775000Y-119406154D01*
X92775000Y-119353846D01*
X92721722Y-119085999D01*
X96445592Y-119085999D01*
X96572498Y-119253000D01*
X97663000Y-119253000D01*
X97663000Y-118295000D01*
X97917000Y-118295000D01*
X97917000Y-119253000D01*
X99007502Y-119253000D01*
X99134408Y-119085999D01*
X98947013Y-118702592D01*
X98622544Y-118426192D01*
X98217000Y-118295000D01*
X97917000Y-118295000D01*
X97663000Y-118295000D01*
X97363000Y-118295000D01*
X96957456Y-118426192D01*
X96632987Y-118702592D01*
X96445592Y-119085999D01*
X92721722Y-119085999D01*
X92673379Y-118842964D01*
X92383988Y-118409858D01*
X91950882Y-118120467D01*
X91440000Y-118018846D01*
X90929118Y-118120467D01*
X90496012Y-118409858D01*
X90439122Y-118495000D01*
X86726579Y-118495000D01*
X85333060Y-117101481D01*
X85385072Y-116840000D01*
X85308491Y-116455000D01*
X87890444Y-116455000D01*
X87929858Y-116513988D01*
X88362964Y-116803379D01*
X88873846Y-116905000D01*
X88926154Y-116905000D01*
X89437036Y-116803379D01*
X89870142Y-116513988D01*
X90159533Y-116080882D01*
X90174835Y-116003955D01*
X90307582Y-116325229D01*
X90682796Y-116701098D01*
X91173287Y-116904768D01*
X91704383Y-116905231D01*
X92195229Y-116702418D01*
X92443079Y-116455000D01*
X96565331Y-116455000D01*
X96575910Y-116471441D01*
X96788110Y-116616431D01*
X97040000Y-116667440D01*
X98540000Y-116667440D01*
X98775317Y-116623162D01*
X98991441Y-116484090D01*
X99136431Y-116271890D01*
X99187440Y-116020000D01*
X99187440Y-115679020D01*
X100974208Y-117465787D01*
X100974208Y-117465787D01*
G37*
X100974208Y-117465787D02*
X100974210Y-117465790D01*
X101261325Y-117657633D01*
X101600000Y-117725000D01*
X101740527Y-117725000D01*
X101827189Y-117854698D01*
X102209275Y-118110000D01*
X101827189Y-118365302D01*
X101740527Y-118495000D01*
X101600005Y-118495000D01*
X101600000Y-118494999D01*
X101261325Y-118562367D01*
X100974210Y-118754210D01*
X100974208Y-118754213D01*
X99963420Y-119765000D01*
X99089931Y-119765000D01*
X99134408Y-119674001D01*
X99007502Y-119507000D01*
X97917000Y-119507000D01*
X97917000Y-119527000D01*
X97663000Y-119527000D01*
X97663000Y-119507000D01*
X96572498Y-119507000D01*
X96445592Y-119674001D01*
X96610170Y-120010726D01*
X96460457Y-120234788D01*
X96377866Y-120650000D01*
X96454447Y-121035000D01*
X92442873Y-121035000D01*
X92197204Y-120788902D01*
X91874212Y-120654784D01*
X91950882Y-120639533D01*
X92383988Y-120350142D01*
X92673379Y-119917036D01*
X92775000Y-119406154D01*
X92775000Y-119353846D01*
X92721722Y-119085999D01*
X96445592Y-119085999D01*
X96572498Y-119253000D01*
X97663000Y-119253000D01*
X97663000Y-118295000D01*
X97917000Y-118295000D01*
X97917000Y-119253000D01*
X99007502Y-119253000D01*
X99134408Y-119085999D01*
X98947013Y-118702592D01*
X98622544Y-118426192D01*
X98217000Y-118295000D01*
X97917000Y-118295000D01*
X97663000Y-118295000D01*
X97363000Y-118295000D01*
X96957456Y-118426192D01*
X96632987Y-118702592D01*
X96445592Y-119085999D01*
X92721722Y-119085999D01*
X92673379Y-118842964D01*
X92383988Y-118409858D01*
X91950882Y-118120467D01*
X91440000Y-118018846D01*
X90929118Y-118120467D01*
X90496012Y-118409858D01*
X90439122Y-118495000D01*
X86726579Y-118495000D01*
X85333060Y-117101481D01*
X85385072Y-116840000D01*
X85308491Y-116455000D01*
X87890444Y-116455000D01*
X87929858Y-116513988D01*
X88362964Y-116803379D01*
X88873846Y-116905000D01*
X88926154Y-116905000D01*
X89437036Y-116803379D01*
X89870142Y-116513988D01*
X90159533Y-116080882D01*
X90174835Y-116003955D01*
X90307582Y-116325229D01*
X90682796Y-116701098D01*
X91173287Y-116904768D01*
X91704383Y-116905231D01*
X92195229Y-116702418D01*
X92443079Y-116455000D01*
X96565331Y-116455000D01*
X96575910Y-116471441D01*
X96788110Y-116616431D01*
X97040000Y-116667440D01*
X98540000Y-116667440D01*
X98775317Y-116623162D01*
X98991441Y-116484090D01*
X99136431Y-116271890D01*
X99187440Y-116020000D01*
X99187440Y-115679020D01*
X100974208Y-117465787D01*
G36*
X99445000Y-109586579D02*
X99445000Y-111759995D01*
X99444999Y-111760000D01*
X99471224Y-111891838D01*
X99512367Y-112098675D01*
X99644907Y-112297036D01*
X99704210Y-112385790D01*
X101441983Y-114123562D01*
X101406887Y-114300000D01*
X101516120Y-114849151D01*
X101827189Y-115314698D01*
X102209275Y-115570000D01*
X101832999Y-115821420D01*
X99685790Y-113674210D01*
X99658222Y-113655790D01*
X99398675Y-113482367D01*
X99342484Y-113471190D01*
X99087279Y-113420425D01*
X99134408Y-113324001D01*
X99007502Y-113157000D01*
X97917000Y-113157000D01*
X97917000Y-113177000D01*
X97663000Y-113177000D01*
X97663000Y-113157000D01*
X96572498Y-113157000D01*
X96445592Y-113324001D01*
X96610170Y-113660726D01*
X96460457Y-113884788D01*
X96377866Y-114300000D01*
X96454447Y-114685000D01*
X92442873Y-114685000D01*
X92197204Y-114438902D01*
X91706713Y-114235232D01*
X91175617Y-114234769D01*
X90684771Y-114437582D01*
X90308902Y-114812796D01*
X90174784Y-115135788D01*
X90159533Y-115059118D01*
X89870142Y-114626012D01*
X89437036Y-114336621D01*
X88926154Y-114235000D01*
X88873846Y-114235000D01*
X88362964Y-114336621D01*
X87929858Y-114626012D01*
X87890444Y-114685000D01*
X87226580Y-114685000D01*
X89266579Y-112645000D01*
X90439122Y-112645000D01*
X90496012Y-112730142D01*
X90929118Y-113019533D01*
X91440000Y-113121154D01*
X91950882Y-113019533D01*
X92375222Y-112735999D01*
X96445592Y-112735999D01*
X96572498Y-112903000D01*
X97663000Y-112903000D01*
X97663000Y-111945000D01*
X97917000Y-111945000D01*
X97917000Y-112903000D01*
X99007502Y-112903000D01*
X99134408Y-112735999D01*
X98947013Y-112352592D01*
X98622544Y-112076192D01*
X98217000Y-111945000D01*
X97917000Y-111945000D01*
X97663000Y-111945000D01*
X97363000Y-111945000D01*
X96957456Y-112076192D01*
X96632987Y-112352592D01*
X96445592Y-112735999D01*
X92375222Y-112735999D01*
X92383988Y-112730142D01*
X92673379Y-112297036D01*
X92775000Y-111786154D01*
X92775000Y-111733846D01*
X92673379Y-111222964D01*
X92383988Y-110789858D01*
X91950882Y-110500467D01*
X91873955Y-110485165D01*
X92195229Y-110352418D01*
X92443079Y-110105000D01*
X96565331Y-110105000D01*
X96575910Y-110121441D01*
X96788110Y-110266431D01*
X97040000Y-110317440D01*
X98540000Y-110317440D01*
X98775317Y-110273162D01*
X98991441Y-110134090D01*
X99136431Y-109921890D01*
X99187440Y-109670000D01*
X99187440Y-109329019D01*
X99445000Y-109586579D01*
X99445000Y-109586579D01*
G37*
X99445000Y-109586579D02*
X99445000Y-111759995D01*
X99444999Y-111760000D01*
X99471224Y-111891838D01*
X99512367Y-112098675D01*
X99644907Y-112297036D01*
X99704210Y-112385790D01*
X101441983Y-114123562D01*
X101406887Y-114300000D01*
X101516120Y-114849151D01*
X101827189Y-115314698D01*
X102209275Y-115570000D01*
X101832999Y-115821420D01*
X99685790Y-113674210D01*
X99658222Y-113655790D01*
X99398675Y-113482367D01*
X99342484Y-113471190D01*
X99087279Y-113420425D01*
X99134408Y-113324001D01*
X99007502Y-113157000D01*
X97917000Y-113157000D01*
X97917000Y-113177000D01*
X97663000Y-113177000D01*
X97663000Y-113157000D01*
X96572498Y-113157000D01*
X96445592Y-113324001D01*
X96610170Y-113660726D01*
X96460457Y-113884788D01*
X96377866Y-114300000D01*
X96454447Y-114685000D01*
X92442873Y-114685000D01*
X92197204Y-114438902D01*
X91706713Y-114235232D01*
X91175617Y-114234769D01*
X90684771Y-114437582D01*
X90308902Y-114812796D01*
X90174784Y-115135788D01*
X90159533Y-115059118D01*
X89870142Y-114626012D01*
X89437036Y-114336621D01*
X88926154Y-114235000D01*
X88873846Y-114235000D01*
X88362964Y-114336621D01*
X87929858Y-114626012D01*
X87890444Y-114685000D01*
X87226580Y-114685000D01*
X89266579Y-112645000D01*
X90439122Y-112645000D01*
X90496012Y-112730142D01*
X90929118Y-113019533D01*
X91440000Y-113121154D01*
X91950882Y-113019533D01*
X92375222Y-112735999D01*
X96445592Y-112735999D01*
X96572498Y-112903000D01*
X97663000Y-112903000D01*
X97663000Y-111945000D01*
X97917000Y-111945000D01*
X97917000Y-112903000D01*
X99007502Y-112903000D01*
X99134408Y-112735999D01*
X98947013Y-112352592D01*
X98622544Y-112076192D01*
X98217000Y-111945000D01*
X97917000Y-111945000D01*
X97663000Y-111945000D01*
X97363000Y-111945000D01*
X96957456Y-112076192D01*
X96632987Y-112352592D01*
X96445592Y-112735999D01*
X92375222Y-112735999D01*
X92383988Y-112730142D01*
X92673379Y-112297036D01*
X92775000Y-111786154D01*
X92775000Y-111733846D01*
X92673379Y-111222964D01*
X92383988Y-110789858D01*
X91950882Y-110500467D01*
X91873955Y-110485165D01*
X92195229Y-110352418D01*
X92443079Y-110105000D01*
X96565331Y-110105000D01*
X96575910Y-110121441D01*
X96788110Y-110266431D01*
X97040000Y-110317440D01*
X98540000Y-110317440D01*
X98775317Y-110273162D01*
X98991441Y-110134090D01*
X99136431Y-109921890D01*
X99187440Y-109670000D01*
X99187440Y-109329019D01*
X99445000Y-109586579D01*
M02*
