%TF.GenerationSoftware,KiCad,Pcbnew,4.0.7-e2-6376~58~ubuntu16.04.1*%
%TF.CreationDate,2018-01-31T12:50:43+01:00*%
%TF.ProjectId,Receiver_module,52656365697665725F6D6F64756C652E,rev?*%
%TF.FileFunction,Soldermask,Bot*%
%FSLAX46Y46*%
G04 Gerber Fmt 4.6, Leading zero omitted, Abs format (unit mm)*
G04 Created by KiCad (PCBNEW 4.0.7-e2-6376~58~ubuntu16.04.1) date Wed Jan 31 12:50:43 2018*
%MOMM*%
%LPD*%
G01*
G04 APERTURE LIST*
%ADD10C,0.100000*%
%ADD11R,1.600000X1.600000*%
%ADD12O,1.600000X1.600000*%
%ADD13R,1.800000X1.800000*%
%ADD14C,1.800000*%
%ADD15R,2.000000X2.000000*%
%ADD16C,2.000000*%
%ADD17C,1.400000*%
%ADD18O,1.400000X1.400000*%
%ADD19O,1.500000X0.900000*%
%ADD20R,1.500000X0.900000*%
%ADD21R,1.800000X1.070000*%
%ADD22O,1.800000X1.070000*%
%ADD23R,1.070000X1.800000*%
%ADD24O,1.070000X1.800000*%
%ADD25R,1.700000X1.700000*%
%ADD26O,1.700000X1.700000*%
G04 APERTURE END LIST*
D10*
X128270000Y-119380000D02*
X128270000Y-95250000D01*
X120650000Y-127000000D02*
X128270000Y-119380000D01*
X95250000Y-127000000D02*
X120650000Y-127000000D01*
X81280000Y-99060000D02*
X81280000Y-113030000D01*
X95250000Y-85090000D02*
X81280000Y-99060000D01*
X118110000Y-85090000D02*
X95250000Y-85090000D01*
X128270000Y-95250000D02*
X118110000Y-85090000D01*
X81280000Y-113030000D02*
X95250000Y-127000000D01*
D11*
X102870000Y-93980000D03*
D12*
X110490000Y-101600000D03*
X102870000Y-96520000D03*
X110490000Y-99060000D03*
X102870000Y-99060000D03*
X110490000Y-96520000D03*
X102870000Y-101600000D03*
X110490000Y-93980000D03*
D13*
X91440000Y-97790000D03*
D14*
X93980000Y-97790000D03*
D13*
X120650000Y-100330000D03*
D14*
X120650000Y-97790000D03*
D11*
X102870000Y-106680000D03*
D12*
X110490000Y-124460000D03*
X102870000Y-109220000D03*
X110490000Y-121920000D03*
X102870000Y-111760000D03*
X110490000Y-119380000D03*
X102870000Y-114300000D03*
X110490000Y-116840000D03*
X102870000Y-116840000D03*
X110490000Y-114300000D03*
X102870000Y-119380000D03*
X110490000Y-111760000D03*
X102870000Y-121920000D03*
X110490000Y-109220000D03*
X102870000Y-124460000D03*
X110490000Y-106680000D03*
D15*
X120650000Y-105410000D03*
D16*
X118110000Y-105410000D03*
X120650000Y-107950000D03*
X118110000Y-107950000D03*
D17*
X92710000Y-109220000D03*
D18*
X92710000Y-111760000D03*
D17*
X90170000Y-109220000D03*
D18*
X90170000Y-111760000D03*
D17*
X92710000Y-114300000D03*
D18*
X90170000Y-114300000D03*
D19*
X97790000Y-107950000D03*
X97790000Y-106680000D03*
D20*
X97790000Y-109220000D03*
D19*
X97790000Y-114300000D03*
X97790000Y-113030000D03*
D20*
X97790000Y-115570000D03*
D19*
X97790000Y-120650000D03*
X97790000Y-119380000D03*
D20*
X97790000Y-121920000D03*
D13*
X87630000Y-101600000D03*
D14*
X87630000Y-104140000D03*
X87630000Y-106680000D03*
D17*
X92710000Y-119380000D03*
D18*
X92710000Y-116840000D03*
D13*
X120650000Y-118110000D03*
D14*
X120650000Y-115570000D03*
X120650000Y-113030000D03*
D21*
X116840000Y-123190000D03*
D22*
X116840000Y-121920000D03*
X116840000Y-124460000D03*
X116840000Y-125730000D03*
D23*
X85090000Y-111760000D03*
D24*
X86360000Y-111760000D03*
X83820000Y-111760000D03*
X82550000Y-111760000D03*
D21*
X104140000Y-88900000D03*
D22*
X104140000Y-90170000D03*
X104140000Y-87630000D03*
X104140000Y-86360000D03*
D17*
X113030000Y-99060000D03*
D18*
X115570000Y-99060000D03*
D17*
X100330000Y-96520000D03*
D18*
X97790000Y-96520000D03*
D25*
X99060000Y-93980000D03*
D26*
X96520000Y-93980000D03*
M02*
