M48
;DRILL file {KiCad 4.0.7-e2-6376~58~ubuntu16.04.1} date Wed Jan 31 12:51:15 2018
;FORMAT={-:-/ absolute / inch / decimal}
FMAT,2
INCH,TZ
T1C0.016
T2C0.024
T3C0.028
T4C0.031
T5C0.035
T6C0.037
T7C0.039
%
G90
G05
M72
T1
X4.6Y-3.55
T2
X3.85Y-4.2
X3.85Y-4.25
X3.85Y-4.3
X3.85Y-4.45
X3.85Y-4.5
X3.85Y-4.55
X3.85Y-4.7
X3.85Y-4.75
X3.85Y-4.8
T3
X3.55Y-4.3
X3.55Y-4.4
X3.55Y-4.5
X3.65Y-4.3
X3.65Y-4.4
X3.65Y-4.5
X3.65Y-4.6
X3.65Y-4.7
X3.85Y-3.8
X3.95Y-3.8
X4.45Y-3.9
X4.55Y-3.9
T4
X4.05Y-3.7
X4.05Y-3.8
X4.05Y-3.9
X4.05Y-4.
X4.05Y-4.2
X4.05Y-4.3
X4.05Y-4.4
X4.05Y-4.5
X4.05Y-4.6
X4.05Y-4.7
X4.05Y-4.8
X4.05Y-4.9
X4.35Y-3.7
X4.35Y-3.8
X4.35Y-3.9
X4.35Y-4.
X4.35Y-4.2
X4.35Y-4.3
X4.35Y-4.4
X4.35Y-4.5
X4.35Y-4.6
X4.35Y-4.7
X4.35Y-4.8
X4.35Y-4.9
T5
X3.25Y-4.4
X3.3Y-4.4
X3.35Y-4.4
X3.4Y-4.4
X3.45Y-4.
X3.45Y-4.1
X3.45Y-4.2
X3.6Y-3.85
X3.7Y-3.85
X4.1Y-3.4
X4.1Y-3.45
X4.1Y-3.5
X4.1Y-3.55
X4.6Y-4.8
X4.6Y-4.85
X4.6Y-4.9
X4.6Y-4.95
X4.75Y-3.85
X4.75Y-3.95
X4.75Y-4.45
X4.75Y-4.55
X4.75Y-4.65
T6
X4.65Y-4.15
X4.65Y-4.25
X4.75Y-4.15
X4.75Y-4.25
T7
X3.8Y-3.7
X3.9Y-3.7
T0
M30
